<mxfile host="app.diagrams.net" modified="2023-11-28T07:24:04.757Z" agent="Mozilla/5.0 (Macintosh; Intel Mac OS X 10_15_7) AppleWebKit/537.36 (KHTML, like Gecko) Chrome/106.0.0.0 Safari/537.36" etag="qXa8-jjDblPVZtBiukWN" version="22.1.4" type="github">
  <diagram name="Page-1" id="kxSnU2H8lziKZMsbhBpf">
    <mxGraphModel dx="1292" dy="687" grid="1" gridSize="10" guides="1" tooltips="1" connect="1" arrows="1" fold="1" page="1" pageScale="1" pageWidth="827" pageHeight="1169" math="0" shadow="0">
      <root>
        <mxCell id="0" />
        <mxCell id="1" parent="0" />
        <mxCell id="5OZiCk8Ew-PO9oTUfX-M-7" style="rounded=0;orthogonalLoop=1;jettySize=auto;html=1;exitX=1;exitY=0.25;exitDx=0;exitDy=0;entryX=0;entryY=0.25;entryDx=0;entryDy=0;" edge="1" parent="1" source="5OZiCk8Ew-PO9oTUfX-M-1" target="5OZiCk8Ew-PO9oTUfX-M-4">
          <mxGeometry relative="1" as="geometry" />
        </mxCell>
        <mxCell id="5OZiCk8Ew-PO9oTUfX-M-8" value="/select&lt;br&gt;/init" style="edgeLabel;html=1;align=center;verticalAlign=middle;resizable=0;points=[];" vertex="1" connectable="0" parent="5OZiCk8Ew-PO9oTUfX-M-7">
          <mxGeometry x="-0.3449" y="2" relative="1" as="geometry">
            <mxPoint x="19" y="-2" as="offset" />
          </mxGeometry>
        </mxCell>
        <mxCell id="5OZiCk8Ew-PO9oTUfX-M-1" value="" style="shape=image;verticalLabelPosition=bottom;labelBackgroundColor=default;verticalAlign=top;aspect=fixed;imageAspect=0;image=data:image/svg+xml,PHN2ZyB4bWxuczp4bGluaz0iaHR0cDovL3d3dy53My5vcmcvMTk5OS94bGluayIgeG1sbnM9Imh0dHA6Ly93d3cudzMub3JnLzIwMDAvc3ZnIiB2aWV3Qm94PSIwIDAgODQxLjg5IDM5OS4zNyIgZGF0YS1uYW1lPSJMYXllciAxIiBpZD0iTGF5ZXJfMSI+JiN4YTsgIDxkZWZzPiYjeGE7ICAgIDxzdHlsZT4mI3hhOyAgICAgIC5jbHMtMSB7JiN4YTsgICAgICAgIGZpbGw6IHVybCgjbGluZWFyLWdyYWRpZW50LTEyKTsmI3hhOyAgICAgIH0mI3hhOyYjeGE7ICAgICAgLmNscy0xLCAuY2xzLTIsIC5jbHMtMywgLmNscy00LCAuY2xzLTUsIC5jbHMtNiwgLmNscy03LCAuY2xzLTgsIC5jbHMtOSwgLmNscy0xMCwgLmNscy0xMSwgLmNscy0xMiwgLmNscy0xMywgLmNscy0xNCwgLmNscy0xNSwgLmNscy0xNiB7JiN4YTsgICAgICAgIHN0cm9rZS13aWR0aDogMHB4OyYjeGE7ICAgICAgfSYjeGE7JiN4YTsgICAgICAuY2xzLTIgeyYjeGE7ICAgICAgICBmaWxsOiB1cmwoI2xpbmVhci1ncmFkaWVudCk7JiN4YTsgICAgICB9JiN4YTsmI3hhOyAgICAgIC5jbHMtMyB7JiN4YTsgICAgICAgIGZpbGw6IHVybCgjbGluZWFyLWdyYWRpZW50LTYpOyYjeGE7ICAgICAgfSYjeGE7JiN4YTsgICAgICAuY2xzLTQgeyYjeGE7ICAgICAgICBmaWxsOiB1cmwoI2xpbmVhci1ncmFkaWVudC0xMSk7JiN4YTsgICAgICB9JiN4YTsmI3hhOyAgICAgIC5jbHMtMTcgeyYjeGE7ICAgICAgICBmaWxsOiAjMjMxZjIwOyYjeGE7ICAgICAgICBmb250LWZhbWlseTogUG9wcGlucy1SZWd1bGFyLCBQb3BwaW5zOyYjeGE7ICAgICAgICBmb250LXNpemU6IDIycHg7JiN4YTsgICAgICB9JiN4YTsmI3hhOyAgICAgIC5jbHMtNSB7JiN4YTsgICAgICAgIGZpbGw6IHVybCgjbGluZWFyLWdyYWRpZW50LTUpOyYjeGE7ICAgICAgfSYjeGE7JiN4YTsgICAgICAuY2xzLTE4IHsmI3hhOyAgICAgICAgZmlsbDogbm9uZTsmI3hhOyAgICAgICAgc3Ryb2tlOiAjMjMxZjIwOyYjeGE7ICAgICAgICBzdHJva2UtbWl0ZXJsaW1pdDogMTA7JiN4YTsgICAgICAgIHN0cm9rZS13aWR0aDogMS41cHg7JiN4YTsgICAgICB9JiN4YTsmI3hhOyAgICAgIC5jbHMtNiB7JiN4YTsgICAgICAgIGZpbGw6ICM2MDYxNjE7JiN4YTsgICAgICB9JiN4YTsmI3hhOyAgICAgIC5jbHMtNyB7JiN4YTsgICAgICAgIGZpbGw6ICM5Mzk1OTg7JiN4YTsgICAgICB9JiN4YTsmI3hhOyAgICAgIC5jbHMtOCB7JiN4YTsgICAgICAgIGZpbGw6IHVybCgjbGluZWFyLWdyYWRpZW50LTIpOyYjeGE7ICAgICAgfSYjeGE7JiN4YTsgICAgICAuY2xzLTkgeyYjeGE7ICAgICAgICBmaWxsOiB1cmwoI2xpbmVhci1ncmFkaWVudC03KTsmI3hhOyAgICAgIH0mI3hhOyYjeGE7ICAgICAgLmNscy0xMCB7JiN4YTsgICAgICAgIGZpbGw6IHVybCgjbGluZWFyLWdyYWRpZW50LTMpOyYjeGE7ICAgICAgfSYjeGE7JiN4YTsgICAgICAuY2xzLTExIHsmI3hhOyAgICAgICAgZmlsbDogI2YyOWM0OTsmI3hhOyAgICAgIH0mI3hhOyYjeGE7ICAgICAgLmNscy0xMiB7JiN4YTsgICAgICAgIGZpbGw6IHVybCgjbGluZWFyLWdyYWRpZW50LTkpOyYjeGE7ICAgICAgfSYjeGE7JiN4YTsgICAgICAuY2xzLTEzIHsmI3hhOyAgICAgICAgZmlsbDogdXJsKCNsaW5lYXItZ3JhZGllbnQtOCk7JiN4YTsgICAgICB9JiN4YTsmI3hhOyAgICAgIC5jbHMtMTQgeyYjeGE7ICAgICAgICBmaWxsOiAjNDQ4MjNkOyYjeGE7ICAgICAgfSYjeGE7JiN4YTsgICAgICAuY2xzLTE1IHsmI3hhOyAgICAgICAgZmlsbDogdXJsKCNsaW5lYXItZ3JhZGllbnQtMTApOyYjeGE7ICAgICAgfSYjeGE7JiN4YTsgICAgICAuY2xzLTE2IHsmI3hhOyAgICAgICAgZmlsbDogdXJsKCNsaW5lYXItZ3JhZGllbnQtNCk7JiN4YTsgICAgICB9JiN4YTsgICAgPC9zdHlsZT4mI3hhOyAgICA8bGluZWFyR3JhZGllbnQgZ3JhZGllbnRVbml0cz0idXNlclNwYWNlT25Vc2UiIHkyPSIzMDcuMTgiIHgyPSI2NTUuNjYiIHkxPSIxOTEuMDIiIHgxPSIxNjQuNjUiIGlkPSJsaW5lYXItZ3JhZGllbnQiPiYjeGE7ICAgICAgPHN0b3Agc3RvcC1jb2xvcj0iIzFjNzViYyIgb2Zmc2V0PSIwIi8+JiN4YTsgICAgICA8c3RvcCBzdG9wLWNvbG9yPSIjMDBhZWVmIiBvZmZzZXQ9IjEiLz4mI3hhOyAgICA8L2xpbmVhckdyYWRpZW50PiYjeGE7ICAgIDxsaW5lYXJHcmFkaWVudCB4bGluazpocmVmPSIjbGluZWFyLWdyYWRpZW50IiB5Mj0iMTc4LjA5IiB4Mj0iNjg2LjIiIHkxPSI2MS45NCIgeDE9IjE5NS4xOCIgaWQ9ImxpbmVhci1ncmFkaWVudC0yIi8+JiN4YTsgICAgPGxpbmVhckdyYWRpZW50IHhsaW5rOmhyZWY9IiNsaW5lYXItZ3JhZGllbnQiIHkyPSIxMjUuMzIiIHgyPSI1MTIuOTgiIHkxPSIxMTguNDMiIHgxPSI0ODEuNzMiIGlkPSJsaW5lYXItZ3JhZGllbnQtMyIvPiYjeGE7ICAgIDxsaW5lYXJHcmFkaWVudCB4bGluazpocmVmPSIjbGluZWFyLWdyYWRpZW50IiB5Mj0iMTgxLjA1IiB4Mj0iNDQwLjI0IiB5MT0iMTgwLjMyIiB4MT0iNDM2LjkzIiBpZD0ibGluZWFyLWdyYWRpZW50LTQiLz4mI3hhOyAgICA8bGluZWFyR3JhZGllbnQgeGxpbms6aHJlZj0iI2xpbmVhci1ncmFkaWVudCIgeTI9IjI0NCIgeDI9Ijc1MS41OCIgeTE9IjEyMS43MiIgeDE9IjE5Ny4yNCIgaWQ9ImxpbmVhci1ncmFkaWVudC01Ii8+JiN4YTsgICAgPGxpbmVhckdyYWRpZW50IHhsaW5rOmhyZWY9IiNsaW5lYXItZ3JhZGllbnQiIHkyPSIzMDAuNyIgeDI9IjU3Ni40OSIgeTE9IjE3NS44MiIgeDE9IjIwOS40NSIgaWQ9ImxpbmVhci1ncmFkaWVudC02Ii8+JiN4YTsgICAgPGxpbmVhckdyYWRpZW50IGdyYWRpZW50VW5pdHM9InVzZXJTcGFjZU9uVXNlIiB5Mj0iMjQzLjQxIiB4Mj0iNTk1Ljk4IiB5MT0iMTE4LjU0IiB4MT0iMjI4Ljk1IiBpZD0ibGluZWFyLWdyYWRpZW50LTciPiYjeGE7ICAgICAgPHN0b3Agc3RvcC1jb2xvcj0iIzFjNzViYyIgb2Zmc2V0PSIuMDUiLz4mI3hhOyAgICAgIDxzdG9wIHN0b3AtY29sb3I9IiMwMGFlZWYiIG9mZnNldD0iMSIvPiYjeGE7ICAgIDwvbGluZWFyR3JhZGllbnQ+JiN4YTsgICAgPGxpbmVhckdyYWRpZW50IHhsaW5rOmhyZWY9IiNsaW5lYXItZ3JhZGllbnQiIHkyPSIxNzMuMjkiIHgyPSI1ODUuOTgiIHkxPSIxNDMuNjEiIHgxPSI0NjAuNTIiIGlkPSJsaW5lYXItZ3JhZGllbnQtOCIvPiYjeGE7ICAgIDxsaW5lYXJHcmFkaWVudCB4bGluazpocmVmPSIjbGluZWFyLWdyYWRpZW50IiB5Mj0iOTIuNjciIHgyPSI2MDcuMDciIHkxPSI1Ni4yNCIgeDE9IjQ1My4wNyIgaWQ9ImxpbmVhci1ncmFkaWVudC05Ii8+JiN4YTsgICAgPGxpbmVhckdyYWRpZW50IHhsaW5rOmhyZWY9IiNsaW5lYXItZ3JhZGllbnQiIHkyPSI5NC40MSIgeDI9IjUxMC4zMiIgeTE9IjY0LjczIiB4MT0iMzg0Ljg1IiBpZD0ibGluZWFyLWdyYWRpZW50LTEwIi8+JiN4YTsgICAgPGxpbmVhckdyYWRpZW50IHhsaW5rOmhyZWY9IiNsaW5lYXItZ3JhZGllbnQiIHkyPSIxODYuMzUiIHgyPSI1MTYuMjciIHkxPSIxNDQuMzYiIHgxPSIzMzguNzciIGlkPSJsaW5lYXItZ3JhZGllbnQtMTEiLz4mI3hhOyAgICA8bGluZWFyR3JhZGllbnQgeGxpbms6aHJlZj0iI2xpbmVhci1ncmFkaWVudCIgeTI9IjE5Mi40NSIgeDI9IjU0OS43OCIgeTE9IjE2Mi41MSIgeDE9IjQyMy4yNSIgaWQ9ImxpbmVhci1ncmFkaWVudC0xMiIvPiYjeGE7ICA8L2RlZnM+JiN4YTsgIDxnPiYjeGE7ICAgIDxnPiYjeGE7ICAgICAgPGc+JiN4YTsgICAgICAgIDxwYXRoIGQ9Im04NS42NiwzMzMuODJjLS41LDEuMTUtMS4xNywyLjE2LTIuMDQsMy4wMi0uODYuODYtMS44NywxLjU0LTMuMDIsMi4wNC0xLjE1LjQ5LTIuMzkuNzQtMy43Ljc0aC0yLjc1Yy0xLjMxLDAtMi41NS0uMjUtMy43MS0uNzQtMS4xNi0uNDktMi4xNy0xLjE4LTMuMDQtMi4wNC0uODYtLjg2LTEuNTQtMS44Ny0yLjA0LTMuMDItLjUtMS4xNS0uNzQtMi4zOS0uNzQtMy43di0yMC43OWMwLTEuMzEuMjUtMi41NS43NC0zLjcuNDktMS4xNSwxLjE3LTIuMTYsMi4wNC0zLjAyLjg2LS44NiwxLjg4LTEuNTQsMy4wNC0yLjA0LDEuMTYtLjQ5LDIuNC0uNzQsMy43MS0uNzRoMi43NWMxLjMxLDAsMi41NS4yNSwzLjcuNzQsMS4xNS41LDIuMTYsMS4xOCwzLjAyLDIuMDQuODYuODYsMS41NCwxLjg3LDIuMDQsMy4wMi40OSwxLjE1Ljc0LDIuMzkuNzQsMy43djIwLjc5YzAsMS4zMS0uMjUsMi41NS0uNzQsMy43Wm0tMi43NC0yNC40OWMwLS44Ni0uMTYtMS42Ny0uNDktMi40MnMtLjc3LTEuNC0xLjMyLTEuOTZjLS41Ni0uNTYtMS4yMS0xLTEuOTYtMS4zMi0uNzUtLjMyLTEuNTUtLjQ5LTIuNDItLjQ5aC0yLjQzYy0uODYsMC0xLjY3LjE2LTIuNDIuNDktLjc1LjMyLTEuNC43Ni0xLjk3LDEuMzItLjU3LjU2LTEuMDEsMS4yMS0xLjM0LDEuOTZzLS40OSwxLjU1LS40OSwyLjQydjIwLjc5YzAsLjg2LjE2LDEuNjcuNDksMi40MnMuNzcsMS40LDEuMzQsMS45N2MuNTcuNTcsMS4yMiwxLjAxLDEuOTcsMS4zNC43NS4zMiwxLjU1LjQ5LDIuNDIuNDloMi40M2MuODYsMCwxLjY3LS4xNiwyLjQyLS40OS43NS0uMzIsMS40LS43NywxLjk2LTEuMzQuNTYtLjU3LDEtMS4yMiwxLjMyLTEuOTdzLjQ5LTEuNTUuNDktMi40MnYtMjAuNzlaIiBjbGFzcz0iY2xzLTYiLz4mI3hhOyAgICAgICAgPHBhdGggZD0ibTExMC4zMywzMzQuNjVjLS40Mi45OS0xLDEuODUtMS43NCwyLjU5LS43NC43NC0xLjYsMS4zMi0yLjU5LDEuNzQtLjk5LjQyLTIuMDQuNjMtMy4xNi42M2gtLjg0Yy0xLjI0LDAtMi4zOS0uMjUtMy40Ni0uNzZzLTEuOTctMS4yMS0yLjczLTIuMXYxMy4zOWgtMy4zMnYtMzguNzJoMS4xMWwxLjgxLDIuODFjLjc2LTEuMDMsMS43LTEuODQsMi44NS0yLjQ0LDEuMTQtLjYsMi4zOS0uOSwzLjc0LS45aC44NGMxLjEyLDAsMi4xNy4yMSwzLjE2LjYzczEuODUsMSwyLjU5LDEuNzRjLjc0Ljc0LDEuMzIsMS42LDEuNzQsMi41OXMuNjMsMi4wNC42MywzLjE2djEyLjQ3YzAsMS4xMi0uMjEsMi4xNy0uNjMsMy4xNlptLTIuNjktMTUuODJjMC0uNjctLjEzLTEuMjktLjM4LTEuODgtLjI1LS41OC0uNTktMS4wOS0xLjAzLTEuNTMtLjQzLS40My0uOTQtLjc3LTEuNTMtMS4wMy0uNTktLjI1LTEuMjEtLjM4LTEuODgtLjM4aC0yLjIxYy0uNjcsMC0xLjI5LjEzLTEuODguMzhzLTEuMDkuNTktMS41MywxLjAzYy0uNDMuNDMtLjc3Ljk0LTEuMDMsMS41My0uMjUuNTgtLjM4LDEuMjEtLjM4LDEuODh2MTIuODVjMCwuNjcuMTMsMS4yOS4zOCwxLjg4LjI1LjU5LjU5LDEuMDksMS4wMywxLjUzLjQzLjQzLjk0Ljc3LDEuNTMsMS4wM3MxLjIxLjM4LDEuODguMzhoMi4yMWMuNjcsMCwxLjI5LS4xMywxLjg4LS4zOC41OC0uMjUsMS4wOS0uNTksMS41My0xLjAzcy43Ny0uOTQsMS4wMy0xLjUzYy4yNS0uNTguMzgtMS4yMS4zOC0xLjg4di0xMi44NVoiIGNsYXNzPSJjbHMtNiIvPiYjeGE7ICAgICAgICA8cGF0aCBkPSJtMTM0LjM0LDMzNC42NWMtLjQyLjk5LTEsMS44NS0xLjc0LDIuNTktLjc0Ljc0LTEuNiwxLjMyLTIuNTksMS43NC0uOTkuNDItMi4wNC42My0zLjE2LjYzaC0yLjIxYy0xLjEyLDAtMi4xNy0uMjEtMy4xNi0uNjMtLjk5LS40Mi0xLjg1LTEtMi41OS0xLjc0LS43NC0uNzQtMS4zMi0xLjYtMS43NC0yLjU5LS40Mi0uOTktLjYzLTIuMDQtLjYzLTMuMTZ2LTEyLjQ3YzAtMS4xMi4yMS0yLjE3LjYzLTMuMTYuNDItLjk5LDEtMS44NSwxLjc0LTIuNTkuNzQtLjc0LDEuNi0xLjMyLDIuNTktMS43NHMyLjA0LS42MywzLjE2LS42M2gyLjIxYzEuMTIsMCwyLjE3LjIxLDMuMTYuNjNzMS44NSwxLDIuNTksMS43NGMuNzQuNzQsMS4zMiwxLjYsMS43NCwyLjU5cy42MywyLjA0LjYzLDMuMTZ2Ni41MWgtMTUuMTV2Ni4xNmMwLC42Ny4xMywxLjI5LjM4LDEuODguMjUuNTkuNTksMS4wOSwxLjAzLDEuNTMuNDMuNDMuOTQuNzcsMS41MywxLjAzczEuMjEuMzgsMS44OC4zOGgyLjIxYy42NywwLDEuMjktLjEzLDEuODgtLjM4LjU4LS4yNSwxLjA5LS41OSwxLjUzLTEuMDNzLjc3LS45NCwxLjAzLTEuNTNjLjI1LS41OC4zOC0xLjIxLjM4LTEuODh2LTEuODRsMy4zMi41NHYxLjExYzAsMS4xMi0uMjEsMi4xNy0uNjMsMy4xNlptLTIuNjktMTUuODJjMC0uNjctLjEzLTEuMjktLjM4LTEuODgtLjI1LS41OC0uNTktMS4wOS0xLjAzLTEuNTMtLjQzLS40My0uOTQtLjc3LTEuNTMtMS4wMy0uNTktLjI1LTEuMjEtLjM4LTEuODgtLjM4aC0yLjIxYy0uNjcsMC0xLjI5LjEzLTEuODguMzhzLTEuMDkuNTktMS41MywxLjAzYy0uNDMuNDMtLjc3Ljk0LTEuMDMsMS41My0uMjUuNTgtLjM4LDEuMjEtLjM4LDEuODh2NC4xaDExLjgydi00LjFaIiBjbGFzcz0iY2xzLTYiLz4mI3hhOyAgICAgICAgPHBhdGggZD0ibTE1NS42NSwzMzkuMDh2LTIwLjI1YzAtLjY3LS4xMy0xLjI5LS4zOC0xLjg4LS4yNS0uNTgtLjU5LTEuMDktMS4wMy0xLjUzLS40My0uNDMtLjk0LS43Ny0xLjUzLTEuMDMtLjU5LS4yNS0xLjIxLS4zOC0xLjg4LS4zOGgtMi4yMWMtLjY3LDAtMS4yOS4xMy0xLjg4LjM4cy0xLjA5LjU5LTEuNTMsMS4wM2MtLjQzLjQzLS43Ny45NC0xLjAzLDEuNTMtLjI1LjU4LS4zOCwxLjIxLS4zOCwxLjg4djIwLjI1aC0zLjMydi0yNy42NWgxLjExbDEuODEsMi44MWMuNzYtMS4wMywxLjctMS44NCwyLjg1LTIuNDQsMS4xNC0uNiwyLjM5LS45LDMuNzQtLjloLjg0YzEuMTIsMCwyLjE3LjIxLDMuMTYuNjNzMS44NSwxLDIuNTksMS43NGMuNzQuNzQsMS4zMiwxLjYsMS43NCwyLjU5cy42MywyLjA0LjYzLDMuMTZ2MjAuMDZoLTMuMzJaIiBjbGFzcz0iY2xzLTYiLz4mI3hhOyAgICAgICAgPHBhdGggZD0ibTE5Ny4xOCwzMzkuMDhsLTE2LjE0LTI4LjE5LS4zMi0xLjY3djI5Ljg2aC0zLjQ4di0zOC43MWgxLjgxbDE2LjE0LDI4LjIxLjM1LDEuNjV2LTI5Ljg2aDMuNDh2MzguNzFoLTEuODRaIiBjbGFzcz0iY2xzLTYiLz4mI3hhOyAgICAgICAgPHBhdGggZD0ibTIyMi45NSwzMzQuNjVjLS40Mi45OS0xLDEuODUtMS43NCwyLjU5LS43NC43NC0xLjYsMS4zMi0yLjU5LDEuNzQtLjk5LjQyLTIuMDQuNjMtMy4xNi42M2gtMi4yMWMtMS4xMiwwLTIuMTctLjIxLTMuMTYtLjYzLS45OS0uNDItMS44NS0xLTIuNTktMS43NC0uNzQtLjc0LTEuMzItMS42LTEuNzQtMi41OS0uNDItLjk5LS42My0yLjA0LS42My0zLjE2di0xMi40N2MwLTEuMTIuMjEtMi4xNy42My0zLjE2LjQyLS45OSwxLTEuODUsMS43NC0yLjU5Ljc0LS43NCwxLjYtMS4zMiwyLjU5LTEuNzRzMi4wNC0uNjMsMy4xNi0uNjNoMi4yMWMxLjEyLDAsMi4xNy4yMSwzLjE2LjYzczEuODUsMSwyLjU5LDEuNzRjLjc0Ljc0LDEuMzIsMS42LDEuNzQsMi41OXMuNjMsMi4wNC42MywzLjE2djYuNTFoLTE1LjE1djYuMTZjMCwuNjcuMTMsMS4yOS4zOCwxLjg4LjI1LjU5LjU5LDEuMDksMS4wMywxLjUzLjQzLjQzLjk0Ljc3LDEuNTMsMS4wM3MxLjIxLjM4LDEuODguMzhoMi4yMWMuNjcsMCwxLjI5LS4xMywxLjg4LS4zOC41OC0uMjUsMS4wOS0uNTksMS41My0xLjAzcy43Ny0uOTQsMS4wMy0xLjUzYy4yNS0uNTguMzgtMS4yMS4zOC0xLjg4di0xLjg0bDMuMzIuNTR2MS4xMWMwLDEuMTItLjIxLDIuMTctLjYzLDMuMTZabS0yLjY5LTE1LjgyYzAtLjY3LS4xMy0xLjI5LS4zOC0xLjg4LS4yNS0uNTgtLjU5LTEuMDktMS4wMy0xLjUzLS40My0uNDMtLjk0LS43Ny0xLjUzLTEuMDMtLjU5LS4yNS0xLjIxLS4zOC0xLjg4LS4zOGgtMi4yMWMtLjY3LDAtMS4yOS4xMy0xLjg4LjM4cy0xLjA5LjU5LTEuNTMsMS4wM2MtLjQzLjQzLS43Ny45NC0xLjAzLDEuNTMtLjI1LjU4LS4zOCwxLjIxLS4zOCwxLjg4djQuMWgxMS44MnYtNC4xWiIgY2xhc3M9ImNscy02Ii8+JiN4YTsgICAgICAgIDxwYXRoIGQ9Im0yMzkuMTksMzM5LjA4Yy0xLjAxLDAtMS45Ni0uMTktMi44NS0uNTdzLTEuNjYtLjktMi4zMi0xLjU3LTEuMTgtMS40NC0xLjU3LTIuMzJjLS4zOS0uODgtLjU4LTEuODMtLjU4LTIuODN2LTE3LjJoLTQuOTd2LTMuMTZoNC45N3YtNi42NGwzLjMyLS41NHY3LjE4aDcuMDJ2My4xNmgtNy4wMnYxNy4zNmMwLC41Ni4xLDEuMDguMzEsMS41NS4yMS40OC40OS45Ljg1LDEuMjUuMzYuMzYuNzguNjQsMS4yNy44NS40OS4yMSwxLjAxLjMxLDEuNTcuMzFoMy4wMnYzLjE2aC0zLjAyWiIgY2xhc3M9ImNscy02Ii8+JiN4YTsgICAgICAgIDxwYXRoIGQ9Im0yNzAuNDgsMzM5LjA4aC0xLjgxbC02LjQ4LTIwLjg0LS4xMS0xLjQzLS4xMSwxLjQzLTYuNDgsMjAuODRoLTEuODRsLTkuMjMtMjcuNjVoMy4zN2w2LjU5LDIwLjkuMTEsMS40My4xMS0xLjQzLDYuNDgtMjAuOWgybDYuNDUsMjAuOS4xMSwxLjQzLjExLTEuNDMsNi41OS0yMC45aDMuMzdsLTkuMjMsMjcuNjVaIiBjbGFzcz0iY2xzLTYiLz4mI3hhOyAgICAgICAgPHBhdGggZD0ibTMwMC4zMiwzMzQuNjVjLS40Mi45OS0xLDEuODUtMS43NCwyLjU5LS43NC43NC0xLjYsMS4zMi0yLjU5LDEuNzQtLjk5LjQyLTIuMDQuNjMtMy4xNi42M2gtMi4yMWMtMS4xMiwwLTIuMTctLjIxLTMuMTYtLjYzLS45OS0uNDItMS44NS0xLTIuNTktMS43NC0uNzQtLjc0LTEuMzItMS42LTEuNzQtMi41OS0uNDItLjk5LS42My0yLjA0LS42My0zLjE2di0xMi40N2MwLTEuMTIuMjEtMi4xNy42My0zLjE2LjQyLS45OSwxLTEuODUsMS43NC0yLjU5Ljc0LS43NCwxLjYtMS4zMiwyLjU5LTEuNzRzMi4wNC0uNjMsMy4xNi0uNjNoMi4yMWMxLjEyLDAsMi4xNy4yMSwzLjE2LjYzLjk5LjQyLDEuODUsMSwyLjU5LDEuNzQuNzQuNzQsMS4zMiwxLjYsMS43NCwyLjU5cy42MywyLjA0LjYzLDMuMTZ2MTIuNDdjMCwxLjEyLS4yMSwyLjE3LS42MywzLjE2Wm0tMi42OS0xNS44MmMwLS42Ny0uMTMtMS4yOS0uMzgtMS44OC0uMjUtLjU4LS41OS0xLjA5LTEuMDMtMS41My0uNDMtLjQzLS45NC0uNzctMS41My0xLjAzLS41OS0uMjUtMS4yMS0uMzgtMS44OC0uMzhoLTIuMjFjLS42NywwLTEuMjkuMTMtMS44OC4zOHMtMS4wOS41OS0xLjUzLDEuMDNjLS40My40My0uNzcuOTQtMS4wMywxLjUzLS4yNS41OC0uMzgsMS4yMS0uMzgsMS44OHYxMi44NWMwLC42Ny4xMywxLjI5LjM4LDEuODguMjUuNTkuNTksMS4wOSwxLjAzLDEuNTMuNDMuNDMuOTQuNzcsMS41MywxLjAzczEuMjEuMzgsMS44OC4zOGgyLjIxYy42NywwLDEuMjktLjEzLDEuODgtLjM4LjU4LS4yNSwxLjA5LS41OSwxLjUzLTEuMDNzLjc3LS45NCwxLjAzLTEuNTNjLjI1LS41OC4zOC0xLjIxLjM4LTEuODh2LTEyLjg1WiIgY2xhc3M9ImNscy02Ii8+JiN4YTsgICAgICAgIDxwYXRoIGQ9Im0zMTQuNjIsMzE0LjU5Yy0uNjcsMC0xLjI5LjEzLTEuODguMzhzLTEuMDkuNTktMS41MywxLjAzYy0uNDMuNDMtLjc3Ljk0LTEuMDMsMS41My0uMjUuNTgtLjM4LDEuMjEtLjM4LDEuODh2MTkuNjhoLTMuMzJ2LTI3LjY1aDEuMTFsMS44MSwyLjgxYy43Ni0xLjAzLDEuNy0xLjg0LDIuODUtMi40NCwxLjE0LS42LDIuMzktLjksMy43NC0uOWgxLjk0djMuN2gtMy4zMloiIGNsYXNzPSJjbHMtNiIvPiYjeGE7ICAgICAgICA8cGF0aCBkPSJtMzIyLjM3LDMzOS4wOHYtMzguNzFoMy4zMnYzOC43MWgtMy4zMlptMTUuMjUsMGwtMTEuMjgtMTMuODIsMTEuMjgtMTMuODJoNC4zMmwtMTEuNTUsMTMuODIsMTEuNTUsMTMuODJoLTQuMzJaIiBjbGFzcz0iY2xzLTYiLz4mI3hhOyAgICAgICAgPHBhdGggZD0ibTM2Ni4zOCwzMDMuNTJjLS41NiwwLTEuMDguMS0xLjU1LjMxLS40OC4yMS0uOS40OS0xLjI2Ljg1LS4zNi4zNi0uNjQuNzgtLjg1LDEuMjctLjIxLjQ5LS4zMSwxLjAxLS4zMSwxLjU3djMuOTFoNi40NXYzLjE2aC02LjQ1djI0LjQ5aC0zLjMydi0yNC40OWgtNC45OXYtMy4xNmg0Ljk5di0zLjc1YzAtMS4wMS4xOS0xLjk2LjU3LTIuODUuMzgtLjg5LjktMS42NywxLjU3LTIuMzQuNjctLjY3LDEuNDQtMS4xOSwyLjMyLTEuNTcuODgtLjM4LDEuODMtLjU3LDIuODMtLjU3aDMuMDV2My4xNmgtMy4wNVoiIGNsYXNzPSJjbHMtNiIvPiYjeGE7ICAgICAgICA8cGF0aCBkPSJtMzg5LjQ4LDMzNC42NWMtLjQyLjk5LTEsMS44NS0xLjc0LDIuNTktLjc0Ljc0LTEuNiwxLjMyLTIuNTksMS43NC0uOTkuNDItMi4wNC42My0zLjE2LjYzaC0yLjIxYy0xLjEyLDAtMi4xNy0uMjEtMy4xNi0uNjMtLjk5LS40Mi0xLjg1LTEtMi41OS0xLjc0LS43NC0uNzQtMS4zMi0xLjYtMS43NC0yLjU5LS40Mi0uOTktLjYzLTIuMDQtLjYzLTMuMTZ2LTEyLjQ3YzAtMS4xMi4yMS0yLjE3LjYzLTMuMTYuNDItLjk5LDEtMS44NSwxLjc0LTIuNTkuNzQtLjc0LDEuNi0xLjMyLDIuNTktMS43NHMyLjA0LS42MywzLjE2LS42M2gyLjIxYzEuMTIsMCwyLjE3LjIxLDMuMTYuNjNzMS44NSwxLDIuNTksMS43NGMuNzQuNzQsMS4zMiwxLjYsMS43NCwyLjU5cy42MywyLjA0LjYzLDMuMTZ2MTIuNDdjMCwxLjEyLS4yMSwyLjE3LS42MywzLjE2Wm0tMi42OS0xNS44MmMwLS42Ny0uMTMtMS4yOS0uMzgtMS44OC0uMjUtLjU4LS41OS0xLjA5LTEuMDMtMS41My0uNDMtLjQzLS45NC0uNzctMS41My0xLjAzLS41OS0uMjUtMS4yMS0uMzgtMS44OC0uMzhoLTIuMjFjLS42NywwLTEuMjkuMTMtMS44OC4zOHMtMS4wOS41OS0xLjUzLDEuMDNjLS40My40My0uNzcuOTQtMS4wMywxLjUzLS4yNS41OC0uMzgsMS4yMS0uMzgsMS44OHYxMi44NWMwLC42Ny4xMywxLjI5LjM4LDEuODguMjUuNTkuNTksMS4wOSwxLjAzLDEuNTMuNDMuNDMuOTQuNzcsMS41MywxLjAzczEuMjEuMzgsMS44OC4zOGgyLjIxYy42NywwLDEuMjktLjEzLDEuODgtLjM4LjU4LS4yNSwxLjA5LS41OSwxLjUzLTEuMDNzLjc3LS45NCwxLjAzLTEuNTNjLjI1LS41OC4zOC0xLjIxLjM4LTEuODh2LTEyLjg1WiIgY2xhc3M9ImNscy02Ii8+JiN4YTsgICAgICAgIDxwYXRoIGQ9Im00MDMuNzcsMzE0LjU5Yy0uNjcsMC0xLjI5LjEzLTEuODguMzhzLTEuMDkuNTktMS41MywxLjAzYy0uNDMuNDMtLjc3Ljk0LTEuMDMsMS41My0uMjUuNTgtLjM4LDEuMjEtLjM4LDEuODh2MTkuNjhoLTMuMzJ2LTI3LjY1aDEuMTFsMS44MSwyLjgxYy43Ni0xLjAzLDEuNy0xLjg0LDIuODUtMi40NCwxLjE0LS42LDIuMzktLjksMy43NC0uOWgxLjk0djMuN2gtMy4zMloiIGNsYXNzPSJjbHMtNiIvPiYjeGE7ICAgICAgICA8cGF0aCBkPSJtNDQ0LjE4LDMzMy4yOGMtLjQ5LDEuMTUtMS4xNywyLjE2LTIuMDQsMy4wMnMtMS44OCwxLjU0LTMuMDQsMi4wNGMtMS4xNi40OS0yLjQuNzQtMy43MS43NGgtMTIuMjZ2LTM4LjcxaDEyLjI2YzEuMzEsMCwyLjU1LjI1LDMuNzEuNzQsMS4xNi40OSwyLjE3LDEuMTcsMy4wNCwyLjA0Ljg2Ljg2LDEuNTQsMS44OCwyLjA0LDMuMDRzLjc0LDIuNC43NCwzLjcxdjE5LjY4YzAsMS4zMS0uMjUsMi41NS0uNzQsMy43Wm0tMi43NC0yMy4zOGMwLS44Ni0uMTYtMS42Ny0uNDktMi40Mi0uMzItLjc1LS43Ny0xLjQtMS4zNC0xLjk3cy0xLjIyLTEuMDEtMS45Ny0xLjM0LTEuNTUtLjQ5LTIuNDItLjQ5aC04LjYxdjMyLjA3aDguNjFjLjg2LDAsMS42Ny0uMTYsMi40Mi0uNDlzMS40LS43NiwxLjk3LTEuMzJjLjU3LS41NiwxLjAxLTEuMjEsMS4zNC0xLjk2LjMyLS43NS40OS0xLjU1LjQ5LTIuNDJ2LTE5LjY4WiIgY2xhc3M9ImNscy02Ii8+JiN4YTsgICAgICAgIDxwYXRoIGQ9Im00NTAuNzIsMzA0Ljc5di00LjQzaDMuODZ2NC40M2gtMy44NlptLjI3LDM0LjI5di0yNy42NWgzLjMydjI3LjY1aC0zLjMyWiIgY2xhc3M9ImNscy02Ii8+JiN4YTsgICAgICAgIDxwYXRoIGQ9Im00NzkuMDYsMzQ1LjY0Yy0uNDIuOTQtMSwxLjc0LTEuNzQsMi40cy0xLjYsMS4xOC0yLjU5LDEuNTVjLS45OS4zNy0yLjA0LjU1LTMuMTYuNTVoLTEuMzhjLTEuMTIsMC0yLjE3LS4xOS0zLjE2LS41NS0uOTktLjM3LTEuODUtLjg5LTIuNTktMS41NXMtMS4zMi0xLjQ3LTEuNzQtMi40Yy0uNDItLjk0LS42My0xLjk2LS42My0zLjA4di0uMTFjMC0xLjA4LjItMi4wNy41OS0yLjk3LjQtLjkuOTQtMS42OCwxLjYyLTIuMzUtLjg2LS41Mi0xLjU1LTEuMjMtMi4wNi0yLjEycy0uNzctMS44OC0uNzctMi45NmMwLS45Ny4yMS0xLjg4LjYyLTIuNzFzLjk4LTEuNTIsMS43LTIuMDRjLS44Ni0uNzYtMS41NS0xLjY2LTIuMDUtMi43My0uNS0xLjA2LS43Ni0yLjIyLS43Ni0zLjQ4di0yLjA4YzAtMS4xMi4yMS0yLjE3LjYzLTMuMTZzMS0xLjg1LDEuNzQtMi41OWMuNzQtLjc0LDEuNi0xLjMyLDIuNTktMS43NC45OS0uNDIsMi4wNC0uNjMsMy4xNi0uNjNoMS4zOGMxLjM1LDAsMi42LjMsMy43NC45LDEuMTQuNiwyLjA5LDEuNDIsMi44NSwyLjQ0bDEuODEtMi44MWgxLjExdjkuNjdjMCwxLjEyLS4yMSwyLjE3LS42MywzLjE2LS40Mi45OS0xLDEuODUtMS43NCwyLjU5LS43NC43NC0xLjYsMS4zMi0yLjU5LDEuNzQtLjk5LjQyLTIuMDQuNjMtMy4xNi42M2gtNC44MWMtLjM4LDAtLjc0LjA4LTEuMDguMjNzLS42NC4zNi0uOS42MWMtLjI2LjI1LS40Ni41NS0uNjEuOS0uMTQuMzUtLjIyLjcxLS4yMiwxLjA5cy4wNy43NC4yMiwxLjA4Yy4xNC4zNC4zNS42NC42MS45LjI2LjI2LjU2LjQ2LjkuNjFzLjcuMjIsMS4wOC4yMmg0LjU0YzEuMTIsMCwyLjE3LjE5LDMuMTYuNTUuOTkuMzcsMS44NS44OSwyLjU5LDEuNTVzMS4zMiwxLjQ3LDEuNzQsMi40Yy40Mi45NC42MywxLjk2LjYzLDMuMDh2LjExYzAsMS4xMi0uMjEsMi4xNC0uNjMsMy4wOFptLTIuMzktMjYuODFjMC0uNjctLjEzLTEuMjktLjM4LTEuODgtLjI1LS41OC0uNi0xLjA5LTEuMDQtMS41My0uNDQtLjQzLS45NS0uNzctMS41NC0xLjAzcy0xLjIxLS4zOC0xLjg4LS4zOGgtMi43NWMtLjY3LDAtMS4yOS4xMy0xLjg4LjM4cy0xLjA5LjU5LTEuNTIsMS4wMy0uNzcuOTQtMS4wMywxLjUzLS4zOCwxLjIxLS4zOCwxLjg4djIuNDZjMCwuNjcuMTMsMS4yOS4zOCwxLjg4cy41OSwxLjA5LDEuMDMsMS41My45NC43NywxLjUyLDEuMDNjLjU4LjI1LDEuMjEuMzgsMS44OC4zOGgyLjc1Yy42NywwLDEuMjktLjEzLDEuODgtLjM4LjU4LS4yNSwxLjEtLjU5LDEuNTQtMS4wMy40NC0uNDMuNzktLjk0LDEuMDQtMS41My4yNS0uNTguMzgtMS4yMS4zOC0xLjg4di0yLjQ2Wm0tLjE0LDIzLjQ2YzAtLjY3LS4xMy0xLjI2LS4zOC0xLjgtLjI1LS41My0uNTktLjk4LTEuMDMtMS4zNC0uNDMtLjM2LS45NC0uNjQtMS41Mi0uODQtLjU5LS4yLTEuMjEtLjMtMS44OC0uM2gtMS43Yy0uNjcsMC0xLjI5LjEtMS44OC4zLS41OC4yLTEuMDkuNDgtMS41My44NHMtLjc3LjgxLTEuMDMsMS4zNGMtLjI1LjUzLS4zOCwxLjEzLS4zOCwxLjh2LjQzYzAsLjY3LjEzLDEuMjYuMzgsMS43OC4yNS41Mi41OS45NywxLjAzLDEuMzQuNDMuMzcuOTQuNjUsMS41My44NS41OC4yLDEuMjEuMywxLjg4LjNoMS43Yy42NywwLDEuMjktLjEsMS44OC0uMy41OC0uMiwxLjA5LS40OCwxLjUyLS44NS40My0uMzcuNzctLjgxLDEuMDMtMS4zNC4yNS0uNTIuMzgtMS4xMi4zOC0xLjc4di0uNDNaIiBjbGFzcz0iY2xzLTYiLz4mI3hhOyAgICAgICAgPHBhdGggZD0ibTQ4NS44LDMwNC43OXYtNC40M2gzLjg2djQuNDNoLTMuODZabS4yNywzNC4yOXYtMjcuNjVoMy4zMnYyNy42NWgtMy4zMloiIGNsYXNzPSJjbHMtNiIvPiYjeGE7ICAgICAgICA8cGF0aCBkPSJtNTA2LjEsMzM5LjA4Yy0xLjAxLDAtMS45Ni0uMTktMi44NS0uNTdzLTEuNjYtLjktMi4zMi0xLjU3Yy0uNjYtLjY3LTEuMTgtMS40NC0xLjU3LTIuMzItLjM5LS44OC0uNTgtMS44My0uNTgtMi44M3YtMTcuMmgtNC45N3YtMy4xNmg0Ljk3di02LjY0bDMuMzItLjU0djcuMThoNy4wMnYzLjE2aC03LjAydjE3LjM2YzAsLjU2LjEsMS4wOC4zMSwxLjU1LjIxLjQ4LjQ5LjkuODUsMS4yNXMuNzguNjQsMS4yNy44NWMuNDkuMjEsMS4wMS4zMSwxLjU3LjMxaDMuMDJ2My4xNmgtMy4wMloiIGNsYXNzPSJjbHMtNiIvPiYjeGE7ICAgICAgICA8cGF0aCBkPSJtNTMxLjQ4LDMzOS4wOGwtMS44NC0yLjc1Yy0uNzYuOTktMS43LDEuNzktMi44NCwyLjM5LTEuMTMuNi0yLjM4LjktMy43My45aC0uODRjLTEuMTIsMC0yLjE3LS4yMS0zLjE2LS42My0uOTktLjQyLTEuODUtMS0yLjU5LTEuNzQtLjc0LS43NC0xLjMyLTEuNi0xLjc0LTIuNTktLjQyLS45OS0uNjMtMi4wNC0uNjMtMy4xNnYtLjI3YzAtMS4xMi4yMS0yLjE3LjYzLTMuMTYuNDItLjk5LDEtMS44NSwxLjc0LTIuNTlzMS42LTEuMzIsMi41OS0xLjc0Yy45OS0uNDIsMi4wNC0uNjMsMy4xNi0uNjNoNy4wMnYtNC4yN2MwLS42Ny0uMTMtMS4yOS0uMzgtMS44OC0uMjUtLjU4LS41OS0xLjA5LTEuMDMtMS41My0uNDMtLjQzLS45NC0uNzctMS41My0xLjAzcy0xLjIxLS4zOC0xLjg4LS4zOGgtMS45NGMtLjY3LDAtMS4yOS4xMy0xLjg4LjM4LS41OS4yNS0xLjA5LjU5LTEuNTMsMS4wMy0uNDMuNDMtLjc3Ljk0LTEuMDMsMS41M3MtLjM4LDEuMjEtLjM4LDEuODh2MWwtMy4zMi0uNTR2LS4yN2MwLTEuMTIuMjEtMi4xNy42My0zLjE2LjQyLS45OSwxLTEuODUsMS43NC0yLjU5Ljc0LS43NCwxLjYtMS4zMiwyLjU5LTEuNzRzMi4wNC0uNjMsMy4xNi0uNjNoMS45NGMxLjEyLDAsMi4xNy4yMSwzLjE2LjYzczEuODUsMSwyLjU5LDEuNzRjLjc0Ljc0LDEuMzIsMS42LDEuNzQsMi41OXMuNjMsMi4wNC42MywzLjE2djIwLjA2aC0xLjExWm0tMi4yMS0xMy4zOWgtNy4wMmMtLjY3LDAtMS4yOS4xMy0xLjg4LjM4cy0xLjA5LjYtMS41MiwxLjA0Yy0uNDMuNDQtLjc3Ljk1LTEuMDMsMS41NHMtLjM4LDEuMjEtLjM4LDEuODh2MS4xNmMwLC42Ny4xMywxLjI5LjM4LDEuODguMjUuNTkuNTksMS4wOSwxLjAzLDEuNTMuNDMuNDMuOTQuNzcsMS41MiwxLjAzczEuMjEuMzgsMS44OC4zOGgyLjIxYy42NywwLDEuMjktLjEzLDEuODgtLjM4czEuMDktLjU5LDEuNTMtMS4wMy43Ny0uOTQsMS4wMy0xLjUzYy4yNS0uNTguMzgtMS4yMS4zOC0xLjg4di01Ljk5WiIgY2xhc3M9ImNscy02Ii8+JiN4YTsgICAgICAgIDxwYXRoIGQ9Im01MzkuMjMsMzM5LjA4di0zOC43MWgzLjMydjM4LjcxaC0zLjMyWiIgY2xhc3M9ImNscy02Ii8+JiN4YTsgICAgICAgIDxwYXRoIGQ9Im01ODIuMzksMzMzLjgyYy0uNDksMS4xNS0xLjE3LDIuMTYtMi4wNCwzLjAycy0xLjg3LDEuNTQtMy4wMiwyLjA0Yy0xLjE1LjQ5LTIuMzguNzQtMy43Ljc0aC0yLjc1Yy0xLjMxLDAtMi41NS0uMjUtMy43MS0uNzQtMS4xNi0uNDktMi4xNy0xLjE4LTMuMDQtMi4wNC0uODYtLjg2LTEuNTQtMS44Ny0yLjA0LTMuMDItLjQ5LTEuMTUtLjc0LTIuMzktLjc0LTMuN3YtMjAuNzljMC0xLjMxLjI1LTIuNTUuNzQtMy43LjQ5LTEuMTUsMS4xOC0yLjE2LDIuMDQtMy4wMi44Ni0uODYsMS44OC0xLjU0LDMuMDQtMi4wNCwxLjE2LS40OSwyLjQtLjc0LDMuNzEtLjc0aDIuNzVjMS4zMSwwLDIuNTUuMjUsMy43Ljc0LDEuMTUuNSwyLjE2LDEuMTgsMy4wMiwyLjA0Ljg2Ljg2LDEuNTQsMS44NywyLjA0LDMuMDIuNDksMS4xNS43NCwyLjM5Ljc0LDMuN3YxLjU3bC0zLjQ4LjU0di0yLjFjMC0uODYtLjE2LTEuNjctLjQ4LTIuNDJzLS43Ny0xLjQtMS4zMi0xLjk2LTEuMjEtMS0xLjk2LTEuMzItMS41NS0uNDktMi40Mi0uNDloLTIuNDNjLS44NiwwLTEuNjcuMTYtMi40Mi40OXMtMS40Ljc2LTEuOTcsMS4zMmMtLjU3LjU2LTEuMDEsMS4yMS0xLjM0LDEuOTZzLS40OSwxLjU1LS40OSwyLjQydjIwLjc5YzAsLjg2LjE2LDEuNjcuNDksMi40MnMuNzcsMS40LDEuMzQsMS45N2MuNTcuNTcsMS4yMiwxLjAxLDEuOTcsMS4zNHMxLjU1LjQ5LDIuNDIuNDloMi40M2MuODYsMCwxLjY3LS4xNiwyLjQyLS40OXMxLjQtLjc3LDEuOTYtMS4zNCwxLTEuMjIsMS4zMi0xLjk3LjQ4LTEuNTUuNDgtMi40MnYtMi4xMWwzLjQ4LjU3djEuNTRjMCwxLjMxLS4yNSwyLjU1LS43NCwzLjdaIiBjbGFzcz0iY2xzLTYiLz4mI3hhOyAgICAgICAgPHBhdGggZD0ibTYwNi41LDMzNC42NWMtLjQyLjk5LTEsMS44NS0xLjc0LDIuNTktLjc0Ljc0LTEuNiwxLjMyLTIuNTksMS43NHMtMi4wNC42My0zLjE2LjYzaC0yLjIxYy0xLjEyLDAtMi4xNy0uMjEtMy4xNi0uNjMtLjk5LS40Mi0xLjg1LTEtMi41OS0xLjc0LS43NC0uNzQtMS4zMi0xLjYtMS43NC0yLjU5LS40Mi0uOTktLjYzLTIuMDQtLjYzLTMuMTZ2LTEyLjQ3YzAtMS4xMi4yMS0yLjE3LjYzLTMuMTZzMS0xLjg1LDEuNzQtMi41OWMuNzQtLjc0LDEuNi0xLjMyLDIuNTktMS43NC45OS0uNDIsMi4wNC0uNjMsMy4xNi0uNjNoMi4yMWMxLjEyLDAsMi4xNy4yMSwzLjE2LjYzczEuODUsMSwyLjU5LDEuNzRjLjc0Ljc0LDEuMzIsMS42LDEuNzQsMi41OXMuNjMsMi4wNC42MywzLjE2djEyLjQ3YzAsMS4xMi0uMjEsMi4xNy0uNjMsMy4xNlptLTIuNjktMTUuODJjMC0uNjctLjEzLTEuMjktLjM4LTEuODgtLjI1LS41OC0uNTktMS4wOS0xLjAzLTEuNTMtLjQzLS40My0uOTQtLjc3LTEuNTMtMS4wM3MtMS4yMS0uMzgtMS44OC0uMzhoLTIuMjFjLS42NywwLTEuMjkuMTMtMS44OC4zOHMtMS4wOS41OS0xLjUyLDEuMDMtLjc3Ljk0LTEuMDMsMS41My0uMzgsMS4yMS0uMzgsMS44OHYxMi44NWMwLC42Ny4xMywxLjI5LjM4LDEuODguMjUuNTkuNTksMS4wOSwxLjAzLDEuNTMuNDMuNDMuOTQuNzcsMS41MiwxLjAzczEuMjEuMzgsMS44OC4zOGgyLjIxYy42NywwLDEuMjktLjEzLDEuODgtLjM4czEuMDktLjU5LDEuNTMtMS4wMy43Ny0uOTQsMS4wMy0xLjUzYy4yNS0uNTguMzgtMS4yMS4zOC0xLjg4di0xMi44NVoiIGNsYXNzPSJjbHMtNiIvPiYjeGE7ICAgICAgICA8cGF0aCBkPSJtNjQxLjg1LDMzOS4wOHYtMjAuMjVjMC0uNjctLjEzLTEuMjktLjM4LTEuODgtLjI1LS41OC0uNTktMS4wOS0xLjAzLTEuNTMtLjQzLS40My0uOTQtLjc3LTEuNTMtMS4wM3MtMS4yMS0uMzgtMS44OC0uMzhoLTEuNjVjLS42NywwLTEuMjkuMTMtMS44OC4zOHMtMS4xLjU5LTEuNTQsMS4wM2MtLjQ0LjQzLS43OS45NC0xLjA0LDEuNTMtLjI1LjU4LS4zOCwxLjIxLS4zOCwxLjg4djIwLjI1aC0zLjI5di0yMC4yNWMwLS42Ny0uMTMtMS4yOS0uMzgtMS44OHMtLjYtMS4wOS0xLjA0LTEuNTNjLS40NC0uNDMtLjk1LS43Ny0xLjU0LTEuMDNzLTEuMjEtLjM4LTEuODgtLjM4aC0xLjY1Yy0uNjcsMC0xLjI5LjEzLTEuODguMzhzLTEuMDkuNTktMS41MiwxLjAzLS43Ny45NC0xLjAzLDEuNTMtLjM4LDEuMjEtLjM4LDEuODh2MjAuMjVoLTMuMzJ2LTI3LjY1aDEuMTFsMS44MSwyLjgxYy43Ni0xLjAzLDEuNzEtMS44NCwyLjg1LTIuNDQsMS4xNC0uNiwyLjM5LS45LDMuNzQtLjloLjI3YzEuNTcsMCwyLjk4LjM5LDQuMjQsMS4xNiwxLjI2Ljc3LDIuMjMsMS44LDIuOTIsMy4wOC4zNC0uNjMuNzYtMS4yMSwxLjI3LTEuNzMuNS0uNTIsMS4wNi0uOTcsMS42Ny0xLjM0LjYxLS4zNywxLjI4LS42NiwyLS44Ni43Mi0uMjEsMS40Ny0uMzEsMi4yNC0uMzFoLjI3YzEuMTIsMCwyLjE3LjIxLDMuMTYuNjNzMS44NSwxLDIuNTksMS43NGMuNzQuNzQsMS4zMiwxLjYsMS43NCwyLjU5cy42MywyLjA0LjYzLDMuMTZ2MjAuMDZoLTMuMzJaIiBjbGFzcz0iY2xzLTYiLz4mI3hhOyAgICAgICAgPHBhdGggZD0ibTY3OS44OSwzMzkuMDh2LTIwLjI1YzAtLjY3LS4xMy0xLjI5LS4zOC0xLjg4LS4yNS0uNTgtLjU5LTEuMDktMS4wMy0xLjUzLS40My0uNDMtLjk0LS43Ny0xLjUzLTEuMDNzLTEuMjEtLjM4LTEuODgtLjM4aC0xLjY1Yy0uNjcsMC0xLjI5LjEzLTEuODguMzhzLTEuMS41OS0xLjU0LDEuMDNjLS40NC40My0uNzkuOTQtMS4wNCwxLjUzLS4yNS41OC0uMzgsMS4yMS0uMzgsMS44OHYyMC4yNWgtMy4yOXYtMjAuMjVjMC0uNjctLjEzLTEuMjktLjM4LTEuODhzLS42LTEuMDktMS4wNC0xLjUzYy0uNDQtLjQzLS45NS0uNzctMS41NC0xLjAzcy0xLjIxLS4zOC0xLjg4LS4zOGgtMS42NWMtLjY3LDAtMS4yOS4xMy0xLjg4LjM4cy0xLjA5LjU5LTEuNTIsMS4wMy0uNzcuOTQtMS4wMywxLjUzLS4zOCwxLjIxLS4zOCwxLjg4djIwLjI1aC0zLjMydi0yNy42NWgxLjExbDEuODEsMi44MWMuNzYtMS4wMywxLjcxLTEuODQsMi44NS0yLjQ0LDEuMTQtLjYsMi4zOS0uOSwzLjc0LS45aC4yN2MxLjU3LDAsMi45OC4zOSw0LjI0LDEuMTYsMS4yNi43NywyLjIzLDEuOCwyLjkyLDMuMDguMzQtLjYzLjc2LTEuMjEsMS4yNy0xLjczLjUtLjUyLDEuMDYtLjk3LDEuNjctMS4zNC42MS0uMzcsMS4yOC0uNjYsMi0uODYuNzItLjIxLDEuNDctLjMxLDIuMjQtLjMxaC4yN2MxLjEyLDAsMi4xNy4yMSwzLjE2LjYzczEuODUsMSwyLjU5LDEuNzRjLjc0Ljc0LDEuMzIsMS42LDEuNzQsMi41OXMuNjMsMi4wNC42MywzLjE2djIwLjA2aC0zLjMyWiIgY2xhc3M9ImNscy02Ii8+JiN4YTsgICAgICAgIDxwYXRoIGQ9Im03MDYuNTgsMzM0LjY1Yy0uNDIuOTktMSwxLjg1LTEuNzQsMi41OS0uNzQuNzQtMS42LDEuMzItMi41OSwxLjc0LS45OS40Mi0yLjA0LjYzLTMuMTYuNjNoLTIuMjFjLTEuMTIsMC0yLjE3LS4yMS0zLjE2LS42My0uOTktLjQyLTEuODUtMS0yLjU5LTEuNzQtLjc0LS43NC0xLjMyLTEuNi0xLjc0LTIuNTlzLS42My0yLjA0LS42My0zLjE2di0xMi40N2MwLTEuMTIuMjEtMi4xNy42My0zLjE2czEtMS44NSwxLjc0LTIuNTljLjc0LS43NCwxLjYtMS4zMiwyLjU5LTEuNzQuOTktLjQyLDIuMDQtLjYzLDMuMTYtLjYzaDIuMjFjMS4xMiwwLDIuMTcuMjEsMy4xNi42M3MxLjg1LDEsMi41OSwxLjc0Yy43NC43NCwxLjMyLDEuNiwxLjc0LDIuNTlzLjYzLDIuMDQuNjMsMy4xNnY2LjUxaC0xNS4xNXY2LjE2YzAsLjY3LjEzLDEuMjkuMzgsMS44OC4yNS41OS41OSwxLjA5LDEuMDMsMS41My40My40My45NC43NywxLjUyLDEuMDNzMS4yMS4zOCwxLjg4LjM4aDIuMjFjLjY3LDAsMS4yOS0uMTMsMS44OC0uMzhzMS4wOS0uNTksMS41My0xLjAzLjc3LS45NCwxLjAzLTEuNTNjLjI1LS41OC4zOC0xLjIxLjM4LTEuODh2LTEuODRsMy4zMi41NHYxLjExYzAsMS4xMi0uMjEsMi4xNy0uNjMsMy4xNlptLTIuNjktMTUuODJjMC0uNjctLjEzLTEuMjktLjM4LTEuODgtLjI1LS41OC0uNTktMS4wOS0xLjAzLTEuNTMtLjQzLS40My0uOTQtLjc3LTEuNTMtMS4wM3MtMS4yMS0uMzgtMS44OC0uMzhoLTIuMjFjLS42NywwLTEuMjkuMTMtMS44OC4zOHMtMS4wOS41OS0xLjUyLDEuMDMtLjc3Ljk0LTEuMDMsMS41My0uMzgsMS4yMS0uMzgsMS44OHY0LjFoMTEuODN2LTQuMVoiIGNsYXNzPSJjbHMtNiIvPiYjeGE7ICAgICAgICA8cGF0aCBkPSJtNzIwLjg4LDMxNC41OWMtLjY3LDAtMS4yOS4xMy0xLjg4LjM4cy0xLjA5LjU5LTEuNTIsMS4wMy0uNzcuOTQtMS4wMywxLjUzLS4zOCwxLjIxLS4zOCwxLjg4djE5LjY4aC0zLjMydi0yNy42NWgxLjExbDEuODEsMi44MWMuNzYtMS4wMywxLjcxLTEuODQsMi44NS0yLjQ0LDEuMTQtLjYsMi4zOS0uOSwzLjc0LS45aDEuOTR2My43aC0zLjMyWiIgY2xhc3M9ImNscy02Ii8+JiN4YTsgICAgICAgIDxwYXRoIGQ9Im03NDUuMzUsMzM0LjY1Yy0uNDIuOTktMSwxLjg1LTEuNzQsMi41OS0uNzQuNzQtMS42LDEuMzItMi41OSwxLjc0LS45OS40Mi0yLjA0LjYzLTMuMTYuNjNoLTIuMjFjLTEuMTIsMC0yLjE3LS4yMS0zLjE2LS42My0uOTktLjQyLTEuODUtMS0yLjU5LTEuNzQtLjc0LS43NC0xLjMyLTEuNi0xLjc0LTIuNTlzLS42My0yLjA0LS42My0zLjE2di0xMi40N2MwLTEuMTIuMjEtMi4xNy42My0zLjE2LjQyLS45OSwxLTEuODUsMS43NC0yLjU5Ljc0LS43NCwxLjYtMS4zMiwyLjU5LTEuNzQuOTktLjQyLDIuMDQtLjYzLDMuMTYtLjYzaDIuMjFjMS4xMiwwLDIuMTcuMjEsMy4xNi42My45OS40MiwxLjg1LDEsMi41OSwxLjc0Ljc0Ljc0LDEuMzIsMS42LDEuNzQsMi41OXMuNjMsMi4wNC42MywzLjE2djEuMTFsLTMuMzIuNTR2LTEuODRjMC0uNjctLjEzLTEuMjktLjM4LTEuODgtLjI1LS41OC0uNTktMS4wOS0xLjAzLTEuNTMtLjQzLS40My0uOTQtLjc3LTEuNTMtMS4wM3MtMS4yMS0uMzgtMS44OC0uMzhoLTIuMjFjLS42NywwLTEuMjkuMTMtMS44OC4zOHMtMS4wOS41OS0xLjUyLDEuMDMtLjc3Ljk0LTEuMDMsMS41My0uMzgsMS4yMS0uMzgsMS44OHYxMi44NWMwLC42Ny4xMywxLjI5LjM4LDEuODguMjUuNTkuNTksMS4wOSwxLjAzLDEuNTMuNDMuNDMuOTQuNzcsMS41MiwxLjAzczEuMjEuMzgsMS44OC4zOGgyLjIxYy42NywwLDEuMjktLjEzLDEuODgtLjM4czEuMDktLjU5LDEuNTMtMS4wMy43Ny0uOTQsMS4wMy0xLjUzYy4yNS0uNTguMzgtMS4yMS4zOC0xLjg4di0xLjg0bDMuMzIuNTR2MS4xMWMwLDEuMTItLjIxLDIuMTctLjYzLDMuMTZaIiBjbGFzcz0iY2xzLTYiLz4mI3hhOyAgICAgICAgPHBhdGggZD0ibTc2OS4zNSwzMzQuNjVjLS40Mi45OS0xLDEuODUtMS43NCwyLjU5LS43NC43NC0xLjYsMS4zMi0yLjU5LDEuNzQtLjk5LjQyLTIuMDQuNjMtMy4xNi42M2gtMi4yMWMtMS4xMiwwLTIuMTctLjIxLTMuMTYtLjYzLS45OS0uNDItMS44NS0xLTIuNTktMS43NC0uNzQtLjc0LTEuMzItMS42LTEuNzQtMi41OXMtLjYzLTIuMDQtLjYzLTMuMTZ2LTEyLjQ3YzAtMS4xMi4yMS0yLjE3LjYzLTMuMTZzMS0xLjg1LDEuNzQtMi41OWMuNzQtLjc0LDEuNi0xLjMyLDIuNTktMS43NC45OS0uNDIsMi4wNC0uNjMsMy4xNi0uNjNoMi4yMWMxLjEyLDAsMi4xNy4yMSwzLjE2LjYzczEuODUsMSwyLjU5LDEuNzRjLjc0Ljc0LDEuMzIsMS42LDEuNzQsMi41OXMuNjMsMi4wNC42MywzLjE2djYuNTFoLTE1LjE1djYuMTZjMCwuNjcuMTMsMS4yOS4zOCwxLjg4LjI1LjU5LjU5LDEuMDksMS4wMywxLjUzLjQzLjQzLjk0Ljc3LDEuNTIsMS4wM3MxLjIxLjM4LDEuODguMzhoMi4yMWMuNjcsMCwxLjI5LS4xMywxLjg4LS4zOHMxLjA5LS41OSwxLjUzLTEuMDMuNzctLjk0LDEuMDMtMS41M2MuMjUtLjU4LjM4LTEuMjEuMzgtMS44OHYtMS44NGwzLjMyLjU0djEuMTFjMCwxLjEyLS4yMSwyLjE3LS42MywzLjE2Wm0tMi42OS0xNS44MmMwLS42Ny0uMTMtMS4yOS0uMzgtMS44OC0uMjUtLjU4LS41OS0xLjA5LTEuMDMtMS41My0uNDMtLjQzLS45NC0uNzctMS41My0xLjAzcy0xLjIxLS4zOC0xLjg4LS4zOGgtMi4yMWMtLjY3LDAtMS4yOS4xMy0xLjg4LjM4cy0xLjA5LjU5LTEuNTIsMS4wMy0uNzcuOTQtMS4wMywxLjUzLS4zOCwxLjIxLS4zOCwxLjg4djQuMWgxMS44M3YtNC4xWiIgY2xhc3M9ImNscy02Ii8+JiN4YTsgICAgICA8L2c+JiN4YTsgICAgICA8cGF0aCBkPSJtMTM0LjIsOTUuNjljMjYuNTIsMCw0Ny44NCw4LjA2LDYzLjk3LDI0LjE5LDE2LjEzLDE2LjEzLDI0LjIsMzcuNDUsMjQuMiw2My45N3MtOC4xLDQ3LjctMjQuMjgsNjMuODljLTE2LjE5LDE2LjE5LTM3LjQ5LDI0LjI4LTYzLjg4LDI0LjI4cy00Ny41Ni04LjEyLTYzLjgtMjQuMzdjLTE2LjI0LTE2LjI0LTI0LjM2LTM3LjUxLTI0LjM2LTYzLjhzOC4wOS00Ny43LDI0LjI4LTYzLjg4YzE2LjE5LTE2LjE5LDM3LjQ5LTI0LjI4LDYzLjg5LTI0LjI4Wm0wLDM1LjNjLTIwLjI3LDAtMzUuMzksOC00NS4zNywyNC4wMi01LDguMDQtNy40OSwxNy42NS03LjQ5LDI4Ljg0LDAsMTAuMjIsMi4yNCwxOS4zOCw2LjcyLDI3LjQ3LDQuNyw4LjUsMTEuNDgsMTQuOTUsMjAuMzIsMTkuMzgsOC4wNCw0LjAxLDE2LjY0LDYuMDIsMjUuODMsNi4wMiwyMC4yNiwwLDM1LjM5LTguMDMsNDUuMzctMjQuMSw1LTcuOTgsNy40OS0xNy41Niw3LjQ5LTI4Ljc2LDAtMTYuNzYtNS4zOS0yOS45LTE2LjE5LTM5LjQzLTEwLjExLTguOTUtMjIuMzMtMTMuNDMtMzYuNjgtMTMuNDNaIiBjbGFzcz0iY2xzLTIiLz4mI3hhOyAgICAgIDxwYXRoIGQ9Im03NDguNDgsMjIxLjkxbDI1Ljc0LDI1Ljc0Yy0xMC4zMywxMC41Ni0yMy4zNiwxNy43NC0zOS4wOSwyMS41My03LjY5LDEuODktMTUuOTMsMi44NC0yNC43MSwyLjg0LTI2LjI5LDAtNDcuNTUtOC4xMi02My44LTI0LjM3LTE2LjI0LTE2LjI0LTI0LjM2LTM3LjUxLTI0LjM2LTYzLjhzOC4wOS00Ny43LDI0LjI4LTYzLjg4YzE2LjE4LTE2LjE5LDM3LjQ4LTI0LjI4LDYzLjg4LTI0LjI4czQ3Ljg1LDguMDYsNjMuOTgsMjQuMTlsLTI1LjkyLDI1LjkyYy0xMC4xLTkuODgtMjIuNzktMTQuODEtMzguMDYtMTQuODEtMjAuMjYsMC0zNS4zOCw4LTQ1LjM3LDI0LjAyLTQuOTksOC4wNC03LjQ5LDE3LjY1LTcuNDksMjguODQsMCwxMC4yMiwyLjI1LDE5LjM4LDYuNzIsMjcuNDcsNC43MSw4LjUsMTEuNDgsMTQuOTUsMjAuMzIsMTkuMzgsOC4wNCw0LjAxLDE2LjY1LDYuMDIsMjUuODMsNi4wMiwxNS4yNywwLDI3Ljk2LTQuOTMsMzguMDYtMTQuODFaIiBjbGFzcz0iY2xzLTgiLz4mI3hhOyAgICAgIDxnPiYjeGE7ICAgICAgICA8cGF0aCBkPSJtNDk5Ljg1LDEyNy4yMmMyLjY1LDAsNC44LTIuMTUsNC44LTQuOHMtMi4xNS00Ljc5LTQuOC00Ljc5LTQuOCwyLjE1LTQuOCw0Ljc5LDIuMTUsNC44LDQuOCw0LjhaIiBjbGFzcz0iY2xzLTEwIi8+JiN4YTsgICAgICAgIDxwYXRoIGQ9Im00MzguMzMsMTgwLjc4YzAsLjU3LDEuMDEuNTgsMS4wMiwwLDAtLjI5LS4yMi0uNTEtLjUxLS41MXMtLjUxLjIyLS41MS41MVoiIGNsYXNzPSJjbHMtMTYiLz4mI3hhOyAgICAgIDwvZz4mI3hhOyAgICAgIDxwYXRoIGQ9Im01ODAuNzksMTE5Ljg4Yy0xMC40My0xMC40Mi0yMy4wMy0xNy40NS0zNy43OC0yMS4xNGwtOS4wMyw5LjA0YzEuOTMsNC41LDMuMDEsOS40NSwzLjAxLDE0LjY1LDAsMy45OC0uNjMsNy44Mi0xLjgsMTEuNDIsNi43MiwyLjIyLDEyLjgzLDUuNzIsMTguMzEsMTAuNTcsMTAuNzksOS41MywxNi4xOCwyMi42NywxNi4xOCwzOS40MywwLDExLjItMi40OSwyMC43OC03LjQ5LDI4Ljc2LTkuOTgsMTYuMDctMjUuMSwyNC4xLTQ1LjM3LDI0LjFoLTUyLjg3di00NS45M2MtMy45OSw5Ljk3LTEzLjczLDE3LjAzLTI1LjEsMTcuMDMtMy42MSwwLTcuMDUtLjcyLTEwLjItMnY2Ni4yMWg4OC4xN2MyNi40LDAsNDcuNy04LjA5LDYzLjg4LTI0LjI4LDE2LjItMTYuMTksMjQuMjgtMzcuNDgsMjQuMjgtNjMuODlzLTguMDYtNDcuODQtMjQuMTgtNjMuOTdaIiBjbGFzcz0iY2xzLTUiLz4mI3hhOyAgICAgIDxnPiYjeGE7ICAgICAgICA8cGF0aCBkPSJtNTI1LjYsMTMyLjY3bC0yMy40Ny0xMC4wMWMtMS4yOS0uNTUtMi42MS43Ni0yLjA1LDIuMDVsMTAuMDEsMjMuNDdjLjI1LjU5Ljg0Ljk4LDEuNTEuOTUuNjUtLjAzLDEuMjItLjQ1LDEuNDItMS4wN2wzLjA5LTkuMzcsOS4zNy0zLjA5Yy42Mi0uMiwxLjA1LS43NywxLjA3LTEuNDIuMDMtLjY1LS4zNS0xLjI1LS45NS0xLjUxWm0tMTEuMjIsMy4yOWMtLjQ3LjE2LS44NC41Mi0xLDFsLTIuMDQsNi4xOC02Ljg2LTE2LjA4LDE2LjA4LDYuODYtNi4xOCwyLjA0WiIgY2xhc3M9ImNscy03Ii8+JiN4YTsgICAgICAgIDxwYXRoIGQ9Im00OTkuODUsMTA1LjE0Yy05LjUzLDAtMTcuMjksNy43Ni0xNy4yOSwxNy4yOXM3Ljc2LDE3LjI5LDE3LjI5LDE3LjI5YzEuMjUsMCwyLjI3LTEuMDIsMi4yNy0yLjI3cy0xLjAyLTIuMjctMi4yNy0yLjI3Yy03LjAzLDAtMTIuNzUtNS43Mi0xMi43NS0xMi43NXM1LjcyLTEyLjc1LDEyLjc1LTEyLjc1LDEyLjc1LDUuNzIsMTIuNzUsMTIuNzVjMCwxLjI1LDEuMDIsMi4yNywyLjI3LDIuMjdzMi4yNy0xLjAyLDIuMjctMi4yN2MwLTkuNTMtNy43Ni0xNy4yOS0xNy4yOS0xNy4yOVoiIGNsYXNzPSJjbHMtMTQiLz4mI3hhOyAgICAgICAgPHBhdGggZD0ibTUxOS4yMSwxMDMuMDdjLTUuMTktNS4xOS0xMi4wNy04LjA1LTE5LjM2LTguMDVoMGMtNy4yOSwwLTE0LjE3LDIuODYtMTkuMzYsOC4wNS0xMC42NywxMC42Ny0xMC42NywyOC4wNCwwLDM4LjcyLDUuMTksNS4xOSwxMi4wNyw4LjA1LDE5LjM2LDguMDUsMS4yNSwwLDIuMjctMS4wMiwyLjI3LTIuMjdzLTEuMDItMi4yNy0yLjI3LTIuMjdjLTEyLjYxLDAtMjIuODctMTAuMjYtMjIuODctMjIuODdzMTAuMjYtMjIuODcsMjIuODctMjIuODcsMjIuODcsMTAuMjYsMjIuODcsMjIuODdjMCwxLjI1LDEuMDIsMi4yNywyLjI3LDIuMjdzMi4yNy0xLjAyLDIuMjctMi4yN2MwLTcuMjktMi44Ni0xNC4xNy04LjA1LTE5LjM2WiIgY2xhc3M9ImNscy0xMSIvPiYjeGE7ICAgICAgPC9nPiYjeGE7ICAgIDwvZz4mI3hhOyAgICA8Zz4mI3hhOyAgICAgIDxwb2x5Z29uIHBvaW50cz0iMjMzLjA1IDI3Mi4wMiAyNjguMzUgMjcyLjAyIDI2OC4zNSAxNTkuMDkgMzM4Ljg2IDIxNS40OSAzMzguODYgMTgwLjMzIDIzMy4wNSA5NS42OSAyMzMuMDUgMjcyLjAyIiBjbGFzcz0iY2xzLTMiLz4mI3hhOyAgICAgIDxwYXRoIGQ9Im00NjIuNzEsMTIyLjQzYzAtNS4yLDEuMDctMTAuMTUsMy4wMS0xNC42NWwtNi4xNi02LjE3Yy02LjU1LjY2LTEyLjY3LTEuNzMtMTcuMDgtNS45MmgtNzguNDR2MTQ4LjA4bDM1LjMsMjguMjR2LTE0MS4wMmg2NC4zOGMtLjY1LTIuNzUtMS01LjYyLTEtOC41NloiIGNsYXNzPSJjbHMtOSIvPiYjeGE7ICAgIDwvZz4mI3hhOyAgICA8Zz4mI3hhOyAgICAgIDxwYXRoIGQ9Im01NDIuMjksMTU0LjI1Yy0xLjk2LDAtMy43OC41Ny01LjM2LDEuNWwtOS4wMi05LjAyYy0xLjE2LDEuMzQtMi40MSwyLjU5LTMuNzUsMy43NWw5LjAyLDkuMDJjLS45NCwxLjU4LTEuNTEsMy40LTEuNTEsNS4zNiwwLDUuODUsNC43NiwxMC42MSwxMC42MSwxMC42MXMxMC42MS00Ljc2LDEwLjYxLTEwLjYxLTQuNzYtMTAuNjEtMTAuNjEtMTAuNjFabTAsMTUuOTFjLTIuOTMsMC01LjMtMi4zOC01LjMtNS4zczIuMzgtNS4zLDUuMy01LjMsNS4zLDIuMzgsNS4zLDUuMy0yLjM4LDUuMy01LjMsNS4zWiIgY2xhc3M9ImNscy0xMyIvPiYjeGE7ICAgICAgPHBhdGggZD0ibTU1Mi45LDU2LjExYy04Ljc4LDAtMTUuOTEsNy4xNC0xNS45MSwxNS45MSwwLDIuNzUuNyw1LjMzLDEuOTMsNy41OWwtMTQuNzUsMTQuNzVjMS4zNCwxLjE2LDIuNTksMi40MSwzLjc1LDMuNzVsMTQuMzItMTQuMzJjMi44MiwyLjU2LDYuNTYsNC4xNCwxMC42Nyw0LjE0LDguNzgsMCwxNS45MS03LjE0LDE1LjkxLTE1Ljkxcy03LjE0LTE1LjkxLTE1LjkxLTE1LjkxWm0wLDI2LjUyYy01Ljg1LDAtMTAuNjEtNC43Ni0xMC42MS0xMC42MXM0Ljc2LTEwLjYxLDEwLjYxLTEwLjYxLDEwLjYxLDQuNzYsMTAuNjEsMTAuNjEtNC43NiwxMC42MS0xMC42MSwxMC42MVoiIGNsYXNzPSJjbHMtMTIiLz4mI3hhOyAgICAgIDxwYXRoIGQ9Im00NTcuNDEsOTAuNmMxLjk2LDAsMy43OC0uNTcsNS4zNi0xLjVsOS4wMiw5LjAyYzEuMTYtMS4zNCwyLjQxLTIuNTksMy43NS0zLjc1bC05LjAyLTkuMDJjLjkzLTEuNTgsMS41LTMuMzksMS41LTUuMzYsMC01Ljg1LTQuNzYtMTAuNjEtMTAuNjEtMTAuNjFzLTEwLjYxLDQuNzYtMTAuNjEsMTAuNjEsNC43NiwxMC42MSwxMC42MSwxMC42MVptMC0xNS45MWMyLjkzLDAsNS4zLDIuMzgsNS4zLDUuM3MtMi4zOCw1LjMtNS4zLDUuMy01LjMtMi4zOC01LjMtNS4zLDIuMzgtNS4zLDUuMy01LjNaIiBjbGFzcz0iY2xzLTE1Ii8+JiN4YTsgICAgICA8cGF0aCBkPSJtNDc1LjU0LDE1MC40OGMtMS4zNC0xLjE2LTIuNTktMi40MS0zLjc1LTMuNzVsLTIyLjI3LDIyLjI3Yy0yLjgzLTIuNTYtNi41Ni00LjE0LTEwLjY3LTQuMTQtOC43OCwwLTE1LjkxLDcuMTQtMTUuOTEsMTUuOTFzNy4xNCwxNS45MSwxNS45MSwxNS45MSwxNS45MS03LjE0LDE1LjkxLTE1LjkxYzAtMi43NS0uNy01LjMzLTEuOTMtNy41OWwyMi43MS0yMi43MVptLTM2LjcsNDAuOWMtNS44NSwwLTEwLjYxLTQuNzYtMTAuNjEtMTAuNjFzNC43Ni0xMC42MSwxMC42MS0xMC42MSwxMC42MSw0Ljc2LDEwLjYxLDEwLjYxLTQuNzYsMTAuNjEtMTAuNjEsMTAuNjFaIiBjbGFzcz0iY2xzLTQiLz4mI3hhOyAgICAgIDxwYXRoIGQ9Im01MDIuNSwxNzAuNDF2LTEwLjk1Yy0uODguMDYtMS43Ni4xLTIuNjYuMXMtMS43Ny0uMDQtMi42NS0uMXYxMC45NWMtNy41MSwxLjI3LTEzLjI2LDcuOC0xMy4yNiwxNS42OCwwLDguNzgsNy4xNCwxNS45MSwxNS45MSwxNS45MXMxNS45MS03LjE0LDE1LjkxLTE1LjkxYzAtNy44Ny01Ljc1LTE0LjQxLTEzLjI2LTE1LjY4Wm0tMi42NiwyNi4yOWMtNS44NSwwLTEwLjYxLTQuNzYtMTAuNjEtMTAuNjFzNC43Ni0xMC42MSwxMC42MS0xMC42MSwxMC42MSw0Ljc2LDEwLjYxLDEwLjYxLTQuNzYsMTAuNjEtMTAuNjEsMTAuNjFaIiBjbGFzcz0iY2xzLTEiLz4mI3hhOyAgICA8L2c+JiN4YTsgIDwvZz4mI3hhOyAgPGc+JiN4YTsgICAgPHRleHQgdHJhbnNmb3JtPSJ0cmFuc2xhdGUoNzcwLjg0IDg5LjY3KSBzY2FsZSguOTcgMSkiIGNsYXNzPSJjbHMtMTciPjx0c3BhbiB5PSIwIiB4PSIwIj5SPC90c3Bhbj48L3RleHQ+JiN4YTsgICAgPGNpcmNsZSByPSIxMy4zNSIgY3k9IjgxLjY2IiBjeD0iNzc2LjQ5IiBjbGFzcz0iY2xzLTE4Ii8+JiN4YTsgIDwvZz4mI3hhOzwvc3ZnPg==;imageBorder=default;" vertex="1" parent="1">
          <mxGeometry x="40" y="120" width="147.72" height="70" as="geometry" />
        </mxCell>
        <mxCell id="5OZiCk8Ew-PO9oTUfX-M-9" style="edgeStyle=none;rounded=0;orthogonalLoop=1;jettySize=auto;html=1;" edge="1" parent="1" source="5OZiCk8Ew-PO9oTUfX-M-4" target="5OZiCk8Ew-PO9oTUfX-M-6">
          <mxGeometry relative="1" as="geometry" />
        </mxCell>
        <mxCell id="5OZiCk8Ew-PO9oTUfX-M-11" value="checkout" style="edgeLabel;html=1;align=center;verticalAlign=middle;resizable=0;points=[];" vertex="1" connectable="0" parent="5OZiCk8Ew-PO9oTUfX-M-9">
          <mxGeometry relative="1" as="geometry">
            <mxPoint x="5" y="-10" as="offset" />
          </mxGeometry>
        </mxCell>
        <mxCell id="5OZiCk8Ew-PO9oTUfX-M-15" value="/on_select&lt;br&gt;/on_init" style="edgeStyle=none;rounded=0;orthogonalLoop=1;jettySize=auto;html=1;exitX=0;exitY=0.75;exitDx=0;exitDy=0;entryX=1;entryY=0.75;entryDx=0;entryDy=0;dashed=1;dashPattern=8 8;" edge="1" parent="1" source="5OZiCk8Ew-PO9oTUfX-M-4" target="5OZiCk8Ew-PO9oTUfX-M-1">
          <mxGeometry x="0.0608" y="9" relative="1" as="geometry">
            <mxPoint as="offset" />
          </mxGeometry>
        </mxCell>
        <mxCell id="5OZiCk8Ew-PO9oTUfX-M-4" value="ondc&lt;br&gt;service" style="rounded=1;whiteSpace=wrap;html=1;" vertex="1" parent="1">
          <mxGeometry x="320" y="125" width="110" height="60" as="geometry" />
        </mxCell>
        <mxCell id="5OZiCk8Ew-PO9oTUfX-M-13" value="" style="edgeStyle=none;rounded=0;orthogonalLoop=1;jettySize=auto;html=1;" edge="1" parent="1" source="5OZiCk8Ew-PO9oTUfX-M-6" target="5OZiCk8Ew-PO9oTUfX-M-12">
          <mxGeometry relative="1" as="geometry" />
        </mxCell>
        <mxCell id="5OZiCk8Ew-PO9oTUfX-M-6" value="developer-api&lt;br&gt;service" style="rounded=1;whiteSpace=wrap;html=1;" vertex="1" parent="1">
          <mxGeometry x="540" y="120" width="110" height="70" as="geometry" />
        </mxCell>
        <mxCell id="5OZiCk8Ew-PO9oTUfX-M-12" value="Api Gateway&lt;br&gt;(run DAG)" style="whiteSpace=wrap;html=1;rounded=1;verticalAlign=top;" vertex="1" parent="1">
          <mxGeometry x="725" y="100" width="125" height="115" as="geometry" />
        </mxCell>
        <mxCell id="5OZiCk8Ew-PO9oTUfX-M-14" value="" style="image;sketch=0;aspect=fixed;html=1;points=[];align=center;fontSize=12;image=img/lib/mscae/Resource_Graph_Explorer.svg;" vertex="1" parent="1">
          <mxGeometry x="760" y="150" width="49" height="50" as="geometry" />
        </mxCell>
        <mxCell id="5OZiCk8Ew-PO9oTUfX-M-17" style="rounded=0;orthogonalLoop=1;jettySize=auto;html=1;exitX=1;exitY=0.25;exitDx=0;exitDy=0;entryX=0;entryY=0.25;entryDx=0;entryDy=0;" edge="1" parent="1" source="5OZiCk8Ew-PO9oTUfX-M-19" target="5OZiCk8Ew-PO9oTUfX-M-23">
          <mxGeometry relative="1" as="geometry" />
        </mxCell>
        <mxCell id="5OZiCk8Ew-PO9oTUfX-M-18" value="/confirm" style="edgeLabel;html=1;align=center;verticalAlign=middle;resizable=0;points=[];" vertex="1" connectable="0" parent="5OZiCk8Ew-PO9oTUfX-M-17">
          <mxGeometry x="-0.3449" y="2" relative="1" as="geometry">
            <mxPoint x="19" y="-2" as="offset" />
          </mxGeometry>
        </mxCell>
        <mxCell id="5OZiCk8Ew-PO9oTUfX-M-19" value="" style="shape=image;verticalLabelPosition=bottom;labelBackgroundColor=default;verticalAlign=top;aspect=fixed;imageAspect=0;image=data:image/svg+xml,PHN2ZyB4bWxuczp4bGluaz0iaHR0cDovL3d3dy53My5vcmcvMTk5OS94bGluayIgeG1sbnM9Imh0dHA6Ly93d3cudzMub3JnLzIwMDAvc3ZnIiB2aWV3Qm94PSIwIDAgODQxLjg5IDM5OS4zNyIgZGF0YS1uYW1lPSJMYXllciAxIiBpZD0iTGF5ZXJfMSI+JiN4YTsgIDxkZWZzPiYjeGE7ICAgIDxzdHlsZT4mI3hhOyAgICAgIC5jbHMtMSB7JiN4YTsgICAgICAgIGZpbGw6IHVybCgjbGluZWFyLWdyYWRpZW50LTEyKTsmI3hhOyAgICAgIH0mI3hhOyYjeGE7ICAgICAgLmNscy0xLCAuY2xzLTIsIC5jbHMtMywgLmNscy00LCAuY2xzLTUsIC5jbHMtNiwgLmNscy03LCAuY2xzLTgsIC5jbHMtOSwgLmNscy0xMCwgLmNscy0xMSwgLmNscy0xMiwgLmNscy0xMywgLmNscy0xNCwgLmNscy0xNSwgLmNscy0xNiB7JiN4YTsgICAgICAgIHN0cm9rZS13aWR0aDogMHB4OyYjeGE7ICAgICAgfSYjeGE7JiN4YTsgICAgICAuY2xzLTIgeyYjeGE7ICAgICAgICBmaWxsOiB1cmwoI2xpbmVhci1ncmFkaWVudCk7JiN4YTsgICAgICB9JiN4YTsmI3hhOyAgICAgIC5jbHMtMyB7JiN4YTsgICAgICAgIGZpbGw6IHVybCgjbGluZWFyLWdyYWRpZW50LTYpOyYjeGE7ICAgICAgfSYjeGE7JiN4YTsgICAgICAuY2xzLTQgeyYjeGE7ICAgICAgICBmaWxsOiB1cmwoI2xpbmVhci1ncmFkaWVudC0xMSk7JiN4YTsgICAgICB9JiN4YTsmI3hhOyAgICAgIC5jbHMtMTcgeyYjeGE7ICAgICAgICBmaWxsOiAjMjMxZjIwOyYjeGE7ICAgICAgICBmb250LWZhbWlseTogUG9wcGlucy1SZWd1bGFyLCBQb3BwaW5zOyYjeGE7ICAgICAgICBmb250LXNpemU6IDIycHg7JiN4YTsgICAgICB9JiN4YTsmI3hhOyAgICAgIC5jbHMtNSB7JiN4YTsgICAgICAgIGZpbGw6IHVybCgjbGluZWFyLWdyYWRpZW50LTUpOyYjeGE7ICAgICAgfSYjeGE7JiN4YTsgICAgICAuY2xzLTE4IHsmI3hhOyAgICAgICAgZmlsbDogbm9uZTsmI3hhOyAgICAgICAgc3Ryb2tlOiAjMjMxZjIwOyYjeGE7ICAgICAgICBzdHJva2UtbWl0ZXJsaW1pdDogMTA7JiN4YTsgICAgICAgIHN0cm9rZS13aWR0aDogMS41cHg7JiN4YTsgICAgICB9JiN4YTsmI3hhOyAgICAgIC5jbHMtNiB7JiN4YTsgICAgICAgIGZpbGw6ICM2MDYxNjE7JiN4YTsgICAgICB9JiN4YTsmI3hhOyAgICAgIC5jbHMtNyB7JiN4YTsgICAgICAgIGZpbGw6ICM5Mzk1OTg7JiN4YTsgICAgICB9JiN4YTsmI3hhOyAgICAgIC5jbHMtOCB7JiN4YTsgICAgICAgIGZpbGw6IHVybCgjbGluZWFyLWdyYWRpZW50LTIpOyYjeGE7ICAgICAgfSYjeGE7JiN4YTsgICAgICAuY2xzLTkgeyYjeGE7ICAgICAgICBmaWxsOiB1cmwoI2xpbmVhci1ncmFkaWVudC03KTsmI3hhOyAgICAgIH0mI3hhOyYjeGE7ICAgICAgLmNscy0xMCB7JiN4YTsgICAgICAgIGZpbGw6IHVybCgjbGluZWFyLWdyYWRpZW50LTMpOyYjeGE7ICAgICAgfSYjeGE7JiN4YTsgICAgICAuY2xzLTExIHsmI3hhOyAgICAgICAgZmlsbDogI2YyOWM0OTsmI3hhOyAgICAgIH0mI3hhOyYjeGE7ICAgICAgLmNscy0xMiB7JiN4YTsgICAgICAgIGZpbGw6IHVybCgjbGluZWFyLWdyYWRpZW50LTkpOyYjeGE7ICAgICAgfSYjeGE7JiN4YTsgICAgICAuY2xzLTEzIHsmI3hhOyAgICAgICAgZmlsbDogdXJsKCNsaW5lYXItZ3JhZGllbnQtOCk7JiN4YTsgICAgICB9JiN4YTsmI3hhOyAgICAgIC5jbHMtMTQgeyYjeGE7ICAgICAgICBmaWxsOiAjNDQ4MjNkOyYjeGE7ICAgICAgfSYjeGE7JiN4YTsgICAgICAuY2xzLTE1IHsmI3hhOyAgICAgICAgZmlsbDogdXJsKCNsaW5lYXItZ3JhZGllbnQtMTApOyYjeGE7ICAgICAgfSYjeGE7JiN4YTsgICAgICAuY2xzLTE2IHsmI3hhOyAgICAgICAgZmlsbDogdXJsKCNsaW5lYXItZ3JhZGllbnQtNCk7JiN4YTsgICAgICB9JiN4YTsgICAgPC9zdHlsZT4mI3hhOyAgICA8bGluZWFyR3JhZGllbnQgZ3JhZGllbnRVbml0cz0idXNlclNwYWNlT25Vc2UiIHkyPSIzMDcuMTgiIHgyPSI2NTUuNjYiIHkxPSIxOTEuMDIiIHgxPSIxNjQuNjUiIGlkPSJsaW5lYXItZ3JhZGllbnQiPiYjeGE7ICAgICAgPHN0b3Agc3RvcC1jb2xvcj0iIzFjNzViYyIgb2Zmc2V0PSIwIi8+JiN4YTsgICAgICA8c3RvcCBzdG9wLWNvbG9yPSIjMDBhZWVmIiBvZmZzZXQ9IjEiLz4mI3hhOyAgICA8L2xpbmVhckdyYWRpZW50PiYjeGE7ICAgIDxsaW5lYXJHcmFkaWVudCB4bGluazpocmVmPSIjbGluZWFyLWdyYWRpZW50IiB5Mj0iMTc4LjA5IiB4Mj0iNjg2LjIiIHkxPSI2MS45NCIgeDE9IjE5NS4xOCIgaWQ9ImxpbmVhci1ncmFkaWVudC0yIi8+JiN4YTsgICAgPGxpbmVhckdyYWRpZW50IHhsaW5rOmhyZWY9IiNsaW5lYXItZ3JhZGllbnQiIHkyPSIxMjUuMzIiIHgyPSI1MTIuOTgiIHkxPSIxMTguNDMiIHgxPSI0ODEuNzMiIGlkPSJsaW5lYXItZ3JhZGllbnQtMyIvPiYjeGE7ICAgIDxsaW5lYXJHcmFkaWVudCB4bGluazpocmVmPSIjbGluZWFyLWdyYWRpZW50IiB5Mj0iMTgxLjA1IiB4Mj0iNDQwLjI0IiB5MT0iMTgwLjMyIiB4MT0iNDM2LjkzIiBpZD0ibGluZWFyLWdyYWRpZW50LTQiLz4mI3hhOyAgICA8bGluZWFyR3JhZGllbnQgeGxpbms6aHJlZj0iI2xpbmVhci1ncmFkaWVudCIgeTI9IjI0NCIgeDI9Ijc1MS41OCIgeTE9IjEyMS43MiIgeDE9IjE5Ny4yNCIgaWQ9ImxpbmVhci1ncmFkaWVudC01Ii8+JiN4YTsgICAgPGxpbmVhckdyYWRpZW50IHhsaW5rOmhyZWY9IiNsaW5lYXItZ3JhZGllbnQiIHkyPSIzMDAuNyIgeDI9IjU3Ni40OSIgeTE9IjE3NS44MiIgeDE9IjIwOS40NSIgaWQ9ImxpbmVhci1ncmFkaWVudC02Ii8+JiN4YTsgICAgPGxpbmVhckdyYWRpZW50IGdyYWRpZW50VW5pdHM9InVzZXJTcGFjZU9uVXNlIiB5Mj0iMjQzLjQxIiB4Mj0iNTk1Ljk4IiB5MT0iMTE4LjU0IiB4MT0iMjI4Ljk1IiBpZD0ibGluZWFyLWdyYWRpZW50LTciPiYjeGE7ICAgICAgPHN0b3Agc3RvcC1jb2xvcj0iIzFjNzViYyIgb2Zmc2V0PSIuMDUiLz4mI3hhOyAgICAgIDxzdG9wIHN0b3AtY29sb3I9IiMwMGFlZWYiIG9mZnNldD0iMSIvPiYjeGE7ICAgIDwvbGluZWFyR3JhZGllbnQ+JiN4YTsgICAgPGxpbmVhckdyYWRpZW50IHhsaW5rOmhyZWY9IiNsaW5lYXItZ3JhZGllbnQiIHkyPSIxNzMuMjkiIHgyPSI1ODUuOTgiIHkxPSIxNDMuNjEiIHgxPSI0NjAuNTIiIGlkPSJsaW5lYXItZ3JhZGllbnQtOCIvPiYjeGE7ICAgIDxsaW5lYXJHcmFkaWVudCB4bGluazpocmVmPSIjbGluZWFyLWdyYWRpZW50IiB5Mj0iOTIuNjciIHgyPSI2MDcuMDciIHkxPSI1Ni4yNCIgeDE9IjQ1My4wNyIgaWQ9ImxpbmVhci1ncmFkaWVudC05Ii8+JiN4YTsgICAgPGxpbmVhckdyYWRpZW50IHhsaW5rOmhyZWY9IiNsaW5lYXItZ3JhZGllbnQiIHkyPSI5NC40MSIgeDI9IjUxMC4zMiIgeTE9IjY0LjczIiB4MT0iMzg0Ljg1IiBpZD0ibGluZWFyLWdyYWRpZW50LTEwIi8+JiN4YTsgICAgPGxpbmVhckdyYWRpZW50IHhsaW5rOmhyZWY9IiNsaW5lYXItZ3JhZGllbnQiIHkyPSIxODYuMzUiIHgyPSI1MTYuMjciIHkxPSIxNDQuMzYiIHgxPSIzMzguNzciIGlkPSJsaW5lYXItZ3JhZGllbnQtMTEiLz4mI3hhOyAgICA8bGluZWFyR3JhZGllbnQgeGxpbms6aHJlZj0iI2xpbmVhci1ncmFkaWVudCIgeTI9IjE5Mi40NSIgeDI9IjU0OS43OCIgeTE9IjE2Mi41MSIgeDE9IjQyMy4yNSIgaWQ9ImxpbmVhci1ncmFkaWVudC0xMiIvPiYjeGE7ICA8L2RlZnM+JiN4YTsgIDxnPiYjeGE7ICAgIDxnPiYjeGE7ICAgICAgPGc+JiN4YTsgICAgICAgIDxwYXRoIGQ9Im04NS42NiwzMzMuODJjLS41LDEuMTUtMS4xNywyLjE2LTIuMDQsMy4wMi0uODYuODYtMS44NywxLjU0LTMuMDIsMi4wNC0xLjE1LjQ5LTIuMzkuNzQtMy43Ljc0aC0yLjc1Yy0xLjMxLDAtMi41NS0uMjUtMy43MS0uNzQtMS4xNi0uNDktMi4xNy0xLjE4LTMuMDQtMi4wNC0uODYtLjg2LTEuNTQtMS44Ny0yLjA0LTMuMDItLjUtMS4xNS0uNzQtMi4zOS0uNzQtMy43di0yMC43OWMwLTEuMzEuMjUtMi41NS43NC0zLjcuNDktMS4xNSwxLjE3LTIuMTYsMi4wNC0zLjAyLjg2LS44NiwxLjg4LTEuNTQsMy4wNC0yLjA0LDEuMTYtLjQ5LDIuNC0uNzQsMy43MS0uNzRoMi43NWMxLjMxLDAsMi41NS4yNSwzLjcuNzQsMS4xNS41LDIuMTYsMS4xOCwzLjAyLDIuMDQuODYuODYsMS41NCwxLjg3LDIuMDQsMy4wMi40OSwxLjE1Ljc0LDIuMzkuNzQsMy43djIwLjc5YzAsMS4zMS0uMjUsMi41NS0uNzQsMy43Wm0tMi43NC0yNC40OWMwLS44Ni0uMTYtMS42Ny0uNDktMi40MnMtLjc3LTEuNC0xLjMyLTEuOTZjLS41Ni0uNTYtMS4yMS0xLTEuOTYtMS4zMi0uNzUtLjMyLTEuNTUtLjQ5LTIuNDItLjQ5aC0yLjQzYy0uODYsMC0xLjY3LjE2LTIuNDIuNDktLjc1LjMyLTEuNC43Ni0xLjk3LDEuMzItLjU3LjU2LTEuMDEsMS4yMS0xLjM0LDEuOTZzLS40OSwxLjU1LS40OSwyLjQydjIwLjc5YzAsLjg2LjE2LDEuNjcuNDksMi40MnMuNzcsMS40LDEuMzQsMS45N2MuNTcuNTcsMS4yMiwxLjAxLDEuOTcsMS4zNC43NS4zMiwxLjU1LjQ5LDIuNDIuNDloMi40M2MuODYsMCwxLjY3LS4xNiwyLjQyLS40OS43NS0uMzIsMS40LS43NywxLjk2LTEuMzQuNTYtLjU3LDEtMS4yMiwxLjMyLTEuOTdzLjQ5LTEuNTUuNDktMi40MnYtMjAuNzlaIiBjbGFzcz0iY2xzLTYiLz4mI3hhOyAgICAgICAgPHBhdGggZD0ibTExMC4zMywzMzQuNjVjLS40Mi45OS0xLDEuODUtMS43NCwyLjU5LS43NC43NC0xLjYsMS4zMi0yLjU5LDEuNzQtLjk5LjQyLTIuMDQuNjMtMy4xNi42M2gtLjg0Yy0xLjI0LDAtMi4zOS0uMjUtMy40Ni0uNzZzLTEuOTctMS4yMS0yLjczLTIuMXYxMy4zOWgtMy4zMnYtMzguNzJoMS4xMWwxLjgxLDIuODFjLjc2LTEuMDMsMS43LTEuODQsMi44NS0yLjQ0LDEuMTQtLjYsMi4zOS0uOSwzLjc0LS45aC44NGMxLjEyLDAsMi4xNy4yMSwzLjE2LjYzczEuODUsMSwyLjU5LDEuNzRjLjc0Ljc0LDEuMzIsMS42LDEuNzQsMi41OXMuNjMsMi4wNC42MywzLjE2djEyLjQ3YzAsMS4xMi0uMjEsMi4xNy0uNjMsMy4xNlptLTIuNjktMTUuODJjMC0uNjctLjEzLTEuMjktLjM4LTEuODgtLjI1LS41OC0uNTktMS4wOS0xLjAzLTEuNTMtLjQzLS40My0uOTQtLjc3LTEuNTMtMS4wMy0uNTktLjI1LTEuMjEtLjM4LTEuODgtLjM4aC0yLjIxYy0uNjcsMC0xLjI5LjEzLTEuODguMzhzLTEuMDkuNTktMS41MywxLjAzYy0uNDMuNDMtLjc3Ljk0LTEuMDMsMS41My0uMjUuNTgtLjM4LDEuMjEtLjM4LDEuODh2MTIuODVjMCwuNjcuMTMsMS4yOS4zOCwxLjg4LjI1LjU5LjU5LDEuMDksMS4wMywxLjUzLjQzLjQzLjk0Ljc3LDEuNTMsMS4wM3MxLjIxLjM4LDEuODguMzhoMi4yMWMuNjcsMCwxLjI5LS4xMywxLjg4LS4zOC41OC0uMjUsMS4wOS0uNTksMS41My0xLjAzcy43Ny0uOTQsMS4wMy0xLjUzYy4yNS0uNTguMzgtMS4yMS4zOC0xLjg4di0xMi44NVoiIGNsYXNzPSJjbHMtNiIvPiYjeGE7ICAgICAgICA8cGF0aCBkPSJtMTM0LjM0LDMzNC42NWMtLjQyLjk5LTEsMS44NS0xLjc0LDIuNTktLjc0Ljc0LTEuNiwxLjMyLTIuNTksMS43NC0uOTkuNDItMi4wNC42My0zLjE2LjYzaC0yLjIxYy0xLjEyLDAtMi4xNy0uMjEtMy4xNi0uNjMtLjk5LS40Mi0xLjg1LTEtMi41OS0xLjc0LS43NC0uNzQtMS4zMi0xLjYtMS43NC0yLjU5LS40Mi0uOTktLjYzLTIuMDQtLjYzLTMuMTZ2LTEyLjQ3YzAtMS4xMi4yMS0yLjE3LjYzLTMuMTYuNDItLjk5LDEtMS44NSwxLjc0LTIuNTkuNzQtLjc0LDEuNi0xLjMyLDIuNTktMS43NHMyLjA0LS42MywzLjE2LS42M2gyLjIxYzEuMTIsMCwyLjE3LjIxLDMuMTYuNjNzMS44NSwxLDIuNTksMS43NGMuNzQuNzQsMS4zMiwxLjYsMS43NCwyLjU5cy42MywyLjA0LjYzLDMuMTZ2Ni41MWgtMTUuMTV2Ni4xNmMwLC42Ny4xMywxLjI5LjM4LDEuODguMjUuNTkuNTksMS4wOSwxLjAzLDEuNTMuNDMuNDMuOTQuNzcsMS41MywxLjAzczEuMjEuMzgsMS44OC4zOGgyLjIxYy42NywwLDEuMjktLjEzLDEuODgtLjM4LjU4LS4yNSwxLjA5LS41OSwxLjUzLTEuMDNzLjc3LS45NCwxLjAzLTEuNTNjLjI1LS41OC4zOC0xLjIxLjM4LTEuODh2LTEuODRsMy4zMi41NHYxLjExYzAsMS4xMi0uMjEsMi4xNy0uNjMsMy4xNlptLTIuNjktMTUuODJjMC0uNjctLjEzLTEuMjktLjM4LTEuODgtLjI1LS41OC0uNTktMS4wOS0xLjAzLTEuNTMtLjQzLS40My0uOTQtLjc3LTEuNTMtMS4wMy0uNTktLjI1LTEuMjEtLjM4LTEuODgtLjM4aC0yLjIxYy0uNjcsMC0xLjI5LjEzLTEuODguMzhzLTEuMDkuNTktMS41MywxLjAzYy0uNDMuNDMtLjc3Ljk0LTEuMDMsMS41My0uMjUuNTgtLjM4LDEuMjEtLjM4LDEuODh2NC4xaDExLjgydi00LjFaIiBjbGFzcz0iY2xzLTYiLz4mI3hhOyAgICAgICAgPHBhdGggZD0ibTE1NS42NSwzMzkuMDh2LTIwLjI1YzAtLjY3LS4xMy0xLjI5LS4zOC0xLjg4LS4yNS0uNTgtLjU5LTEuMDktMS4wMy0xLjUzLS40My0uNDMtLjk0LS43Ny0xLjUzLTEuMDMtLjU5LS4yNS0xLjIxLS4zOC0xLjg4LS4zOGgtMi4yMWMtLjY3LDAtMS4yOS4xMy0xLjg4LjM4cy0xLjA5LjU5LTEuNTMsMS4wM2MtLjQzLjQzLS43Ny45NC0xLjAzLDEuNTMtLjI1LjU4LS4zOCwxLjIxLS4zOCwxLjg4djIwLjI1aC0zLjMydi0yNy42NWgxLjExbDEuODEsMi44MWMuNzYtMS4wMywxLjctMS44NCwyLjg1LTIuNDQsMS4xNC0uNiwyLjM5LS45LDMuNzQtLjloLjg0YzEuMTIsMCwyLjE3LjIxLDMuMTYuNjNzMS44NSwxLDIuNTksMS43NGMuNzQuNzQsMS4zMiwxLjYsMS43NCwyLjU5cy42MywyLjA0LjYzLDMuMTZ2MjAuMDZoLTMuMzJaIiBjbGFzcz0iY2xzLTYiLz4mI3hhOyAgICAgICAgPHBhdGggZD0ibTE5Ny4xOCwzMzkuMDhsLTE2LjE0LTI4LjE5LS4zMi0xLjY3djI5Ljg2aC0zLjQ4di0zOC43MWgxLjgxbDE2LjE0LDI4LjIxLjM1LDEuNjV2LTI5Ljg2aDMuNDh2MzguNzFoLTEuODRaIiBjbGFzcz0iY2xzLTYiLz4mI3hhOyAgICAgICAgPHBhdGggZD0ibTIyMi45NSwzMzQuNjVjLS40Mi45OS0xLDEuODUtMS43NCwyLjU5LS43NC43NC0xLjYsMS4zMi0yLjU5LDEuNzQtLjk5LjQyLTIuMDQuNjMtMy4xNi42M2gtMi4yMWMtMS4xMiwwLTIuMTctLjIxLTMuMTYtLjYzLS45OS0uNDItMS44NS0xLTIuNTktMS43NC0uNzQtLjc0LTEuMzItMS42LTEuNzQtMi41OS0uNDItLjk5LS42My0yLjA0LS42My0zLjE2di0xMi40N2MwLTEuMTIuMjEtMi4xNy42My0zLjE2LjQyLS45OSwxLTEuODUsMS43NC0yLjU5Ljc0LS43NCwxLjYtMS4zMiwyLjU5LTEuNzRzMi4wNC0uNjMsMy4xNi0uNjNoMi4yMWMxLjEyLDAsMi4xNy4yMSwzLjE2LjYzczEuODUsMSwyLjU5LDEuNzRjLjc0Ljc0LDEuMzIsMS42LDEuNzQsMi41OXMuNjMsMi4wNC42MywzLjE2djYuNTFoLTE1LjE1djYuMTZjMCwuNjcuMTMsMS4yOS4zOCwxLjg4LjI1LjU5LjU5LDEuMDksMS4wMywxLjUzLjQzLjQzLjk0Ljc3LDEuNTMsMS4wM3MxLjIxLjM4LDEuODguMzhoMi4yMWMuNjcsMCwxLjI5LS4xMywxLjg4LS4zOC41OC0uMjUsMS4wOS0uNTksMS41My0xLjAzcy43Ny0uOTQsMS4wMy0xLjUzYy4yNS0uNTguMzgtMS4yMS4zOC0xLjg4di0xLjg0bDMuMzIuNTR2MS4xMWMwLDEuMTItLjIxLDIuMTctLjYzLDMuMTZabS0yLjY5LTE1LjgyYzAtLjY3LS4xMy0xLjI5LS4zOC0xLjg4LS4yNS0uNTgtLjU5LTEuMDktMS4wMy0xLjUzLS40My0uNDMtLjk0LS43Ny0xLjUzLTEuMDMtLjU5LS4yNS0xLjIxLS4zOC0xLjg4LS4zOGgtMi4yMWMtLjY3LDAtMS4yOS4xMy0xLjg4LjM4cy0xLjA5LjU5LTEuNTMsMS4wM2MtLjQzLjQzLS43Ny45NC0xLjAzLDEuNTMtLjI1LjU4LS4zOCwxLjIxLS4zOCwxLjg4djQuMWgxMS44MnYtNC4xWiIgY2xhc3M9ImNscy02Ii8+JiN4YTsgICAgICAgIDxwYXRoIGQ9Im0yMzkuMTksMzM5LjA4Yy0xLjAxLDAtMS45Ni0uMTktMi44NS0uNTdzLTEuNjYtLjktMi4zMi0xLjU3LTEuMTgtMS40NC0xLjU3LTIuMzJjLS4zOS0uODgtLjU4LTEuODMtLjU4LTIuODN2LTE3LjJoLTQuOTd2LTMuMTZoNC45N3YtNi42NGwzLjMyLS41NHY3LjE4aDcuMDJ2My4xNmgtNy4wMnYxNy4zNmMwLC41Ni4xLDEuMDguMzEsMS41NS4yMS40OC40OS45Ljg1LDEuMjUuMzYuMzYuNzguNjQsMS4yNy44NS40OS4yMSwxLjAxLjMxLDEuNTcuMzFoMy4wMnYzLjE2aC0zLjAyWiIgY2xhc3M9ImNscy02Ii8+JiN4YTsgICAgICAgIDxwYXRoIGQ9Im0yNzAuNDgsMzM5LjA4aC0xLjgxbC02LjQ4LTIwLjg0LS4xMS0xLjQzLS4xMSwxLjQzLTYuNDgsMjAuODRoLTEuODRsLTkuMjMtMjcuNjVoMy4zN2w2LjU5LDIwLjkuMTEsMS40My4xMS0xLjQzLDYuNDgtMjAuOWgybDYuNDUsMjAuOS4xMSwxLjQzLjExLTEuNDMsNi41OS0yMC45aDMuMzdsLTkuMjMsMjcuNjVaIiBjbGFzcz0iY2xzLTYiLz4mI3hhOyAgICAgICAgPHBhdGggZD0ibTMwMC4zMiwzMzQuNjVjLS40Mi45OS0xLDEuODUtMS43NCwyLjU5LS43NC43NC0xLjYsMS4zMi0yLjU5LDEuNzQtLjk5LjQyLTIuMDQuNjMtMy4xNi42M2gtMi4yMWMtMS4xMiwwLTIuMTctLjIxLTMuMTYtLjYzLS45OS0uNDItMS44NS0xLTIuNTktMS43NC0uNzQtLjc0LTEuMzItMS42LTEuNzQtMi41OS0uNDItLjk5LS42My0yLjA0LS42My0zLjE2di0xMi40N2MwLTEuMTIuMjEtMi4xNy42My0zLjE2LjQyLS45OSwxLTEuODUsMS43NC0yLjU5Ljc0LS43NCwxLjYtMS4zMiwyLjU5LTEuNzRzMi4wNC0uNjMsMy4xNi0uNjNoMi4yMWMxLjEyLDAsMi4xNy4yMSwzLjE2LjYzLjk5LjQyLDEuODUsMSwyLjU5LDEuNzQuNzQuNzQsMS4zMiwxLjYsMS43NCwyLjU5cy42MywyLjA0LjYzLDMuMTZ2MTIuNDdjMCwxLjEyLS4yMSwyLjE3LS42MywzLjE2Wm0tMi42OS0xNS44MmMwLS42Ny0uMTMtMS4yOS0uMzgtMS44OC0uMjUtLjU4LS41OS0xLjA5LTEuMDMtMS41My0uNDMtLjQzLS45NC0uNzctMS41My0xLjAzLS41OS0uMjUtMS4yMS0uMzgtMS44OC0uMzhoLTIuMjFjLS42NywwLTEuMjkuMTMtMS44OC4zOHMtMS4wOS41OS0xLjUzLDEuMDNjLS40My40My0uNzcuOTQtMS4wMywxLjUzLS4yNS41OC0uMzgsMS4yMS0uMzgsMS44OHYxMi44NWMwLC42Ny4xMywxLjI5LjM4LDEuODguMjUuNTkuNTksMS4wOSwxLjAzLDEuNTMuNDMuNDMuOTQuNzcsMS41MywxLjAzczEuMjEuMzgsMS44OC4zOGgyLjIxYy42NywwLDEuMjktLjEzLDEuODgtLjM4LjU4LS4yNSwxLjA5LS41OSwxLjUzLTEuMDNzLjc3LS45NCwxLjAzLTEuNTNjLjI1LS41OC4zOC0xLjIxLjM4LTEuODh2LTEyLjg1WiIgY2xhc3M9ImNscy02Ii8+JiN4YTsgICAgICAgIDxwYXRoIGQ9Im0zMTQuNjIsMzE0LjU5Yy0uNjcsMC0xLjI5LjEzLTEuODguMzhzLTEuMDkuNTktMS41MywxLjAzYy0uNDMuNDMtLjc3Ljk0LTEuMDMsMS41My0uMjUuNTgtLjM4LDEuMjEtLjM4LDEuODh2MTkuNjhoLTMuMzJ2LTI3LjY1aDEuMTFsMS44MSwyLjgxYy43Ni0xLjAzLDEuNy0xLjg0LDIuODUtMi40NCwxLjE0LS42LDIuMzktLjksMy43NC0uOWgxLjk0djMuN2gtMy4zMloiIGNsYXNzPSJjbHMtNiIvPiYjeGE7ICAgICAgICA8cGF0aCBkPSJtMzIyLjM3LDMzOS4wOHYtMzguNzFoMy4zMnYzOC43MWgtMy4zMlptMTUuMjUsMGwtMTEuMjgtMTMuODIsMTEuMjgtMTMuODJoNC4zMmwtMTEuNTUsMTMuODIsMTEuNTUsMTMuODJoLTQuMzJaIiBjbGFzcz0iY2xzLTYiLz4mI3hhOyAgICAgICAgPHBhdGggZD0ibTM2Ni4zOCwzMDMuNTJjLS41NiwwLTEuMDguMS0xLjU1LjMxLS40OC4yMS0uOS40OS0xLjI2Ljg1LS4zNi4zNi0uNjQuNzgtLjg1LDEuMjctLjIxLjQ5LS4zMSwxLjAxLS4zMSwxLjU3djMuOTFoNi40NXYzLjE2aC02LjQ1djI0LjQ5aC0zLjMydi0yNC40OWgtNC45OXYtMy4xNmg0Ljk5di0zLjc1YzAtMS4wMS4xOS0xLjk2LjU3LTIuODUuMzgtLjg5LjktMS42NywxLjU3LTIuMzQuNjctLjY3LDEuNDQtMS4xOSwyLjMyLTEuNTcuODgtLjM4LDEuODMtLjU3LDIuODMtLjU3aDMuMDV2My4xNmgtMy4wNVoiIGNsYXNzPSJjbHMtNiIvPiYjeGE7ICAgICAgICA8cGF0aCBkPSJtMzg5LjQ4LDMzNC42NWMtLjQyLjk5LTEsMS44NS0xLjc0LDIuNTktLjc0Ljc0LTEuNiwxLjMyLTIuNTksMS43NC0uOTkuNDItMi4wNC42My0zLjE2LjYzaC0yLjIxYy0xLjEyLDAtMi4xNy0uMjEtMy4xNi0uNjMtLjk5LS40Mi0xLjg1LTEtMi41OS0xLjc0LS43NC0uNzQtMS4zMi0xLjYtMS43NC0yLjU5LS40Mi0uOTktLjYzLTIuMDQtLjYzLTMuMTZ2LTEyLjQ3YzAtMS4xMi4yMS0yLjE3LjYzLTMuMTYuNDItLjk5LDEtMS44NSwxLjc0LTIuNTkuNzQtLjc0LDEuNi0xLjMyLDIuNTktMS43NHMyLjA0LS42MywzLjE2LS42M2gyLjIxYzEuMTIsMCwyLjE3LjIxLDMuMTYuNjNzMS44NSwxLDIuNTksMS43NGMuNzQuNzQsMS4zMiwxLjYsMS43NCwyLjU5cy42MywyLjA0LjYzLDMuMTZ2MTIuNDdjMCwxLjEyLS4yMSwyLjE3LS42MywzLjE2Wm0tMi42OS0xNS44MmMwLS42Ny0uMTMtMS4yOS0uMzgtMS44OC0uMjUtLjU4LS41OS0xLjA5LTEuMDMtMS41My0uNDMtLjQzLS45NC0uNzctMS41My0xLjAzLS41OS0uMjUtMS4yMS0uMzgtMS44OC0uMzhoLTIuMjFjLS42NywwLTEuMjkuMTMtMS44OC4zOHMtMS4wOS41OS0xLjUzLDEuMDNjLS40My40My0uNzcuOTQtMS4wMywxLjUzLS4yNS41OC0uMzgsMS4yMS0uMzgsMS44OHYxMi44NWMwLC42Ny4xMywxLjI5LjM4LDEuODguMjUuNTkuNTksMS4wOSwxLjAzLDEuNTMuNDMuNDMuOTQuNzcsMS41MywxLjAzczEuMjEuMzgsMS44OC4zOGgyLjIxYy42NywwLDEuMjktLjEzLDEuODgtLjM4LjU4LS4yNSwxLjA5LS41OSwxLjUzLTEuMDNzLjc3LS45NCwxLjAzLTEuNTNjLjI1LS41OC4zOC0xLjIxLjM4LTEuODh2LTEyLjg1WiIgY2xhc3M9ImNscy02Ii8+JiN4YTsgICAgICAgIDxwYXRoIGQ9Im00MDMuNzcsMzE0LjU5Yy0uNjcsMC0xLjI5LjEzLTEuODguMzhzLTEuMDkuNTktMS41MywxLjAzYy0uNDMuNDMtLjc3Ljk0LTEuMDMsMS41My0uMjUuNTgtLjM4LDEuMjEtLjM4LDEuODh2MTkuNjhoLTMuMzJ2LTI3LjY1aDEuMTFsMS44MSwyLjgxYy43Ni0xLjAzLDEuNy0xLjg0LDIuODUtMi40NCwxLjE0LS42LDIuMzktLjksMy43NC0uOWgxLjk0djMuN2gtMy4zMloiIGNsYXNzPSJjbHMtNiIvPiYjeGE7ICAgICAgICA8cGF0aCBkPSJtNDQ0LjE4LDMzMy4yOGMtLjQ5LDEuMTUtMS4xNywyLjE2LTIuMDQsMy4wMnMtMS44OCwxLjU0LTMuMDQsMi4wNGMtMS4xNi40OS0yLjQuNzQtMy43MS43NGgtMTIuMjZ2LTM4LjcxaDEyLjI2YzEuMzEsMCwyLjU1LjI1LDMuNzEuNzQsMS4xNi40OSwyLjE3LDEuMTcsMy4wNCwyLjA0Ljg2Ljg2LDEuNTQsMS44OCwyLjA0LDMuMDRzLjc0LDIuNC43NCwzLjcxdjE5LjY4YzAsMS4zMS0uMjUsMi41NS0uNzQsMy43Wm0tMi43NC0yMy4zOGMwLS44Ni0uMTYtMS42Ny0uNDktMi40Mi0uMzItLjc1LS43Ny0xLjQtMS4zNC0xLjk3cy0xLjIyLTEuMDEtMS45Ny0xLjM0LTEuNTUtLjQ5LTIuNDItLjQ5aC04LjYxdjMyLjA3aDguNjFjLjg2LDAsMS42Ny0uMTYsMi40Mi0uNDlzMS40LS43NiwxLjk3LTEuMzJjLjU3LS41NiwxLjAxLTEuMjEsMS4zNC0xLjk2LjMyLS43NS40OS0xLjU1LjQ5LTIuNDJ2LTE5LjY4WiIgY2xhc3M9ImNscy02Ii8+JiN4YTsgICAgICAgIDxwYXRoIGQ9Im00NTAuNzIsMzA0Ljc5di00LjQzaDMuODZ2NC40M2gtMy44NlptLjI3LDM0LjI5di0yNy42NWgzLjMydjI3LjY1aC0zLjMyWiIgY2xhc3M9ImNscy02Ii8+JiN4YTsgICAgICAgIDxwYXRoIGQ9Im00NzkuMDYsMzQ1LjY0Yy0uNDIuOTQtMSwxLjc0LTEuNzQsMi40cy0xLjYsMS4xOC0yLjU5LDEuNTVjLS45OS4zNy0yLjA0LjU1LTMuMTYuNTVoLTEuMzhjLTEuMTIsMC0yLjE3LS4xOS0zLjE2LS41NS0uOTktLjM3LTEuODUtLjg5LTIuNTktMS41NXMtMS4zMi0xLjQ3LTEuNzQtMi40Yy0uNDItLjk0LS42My0xLjk2LS42My0zLjA4di0uMTFjMC0xLjA4LjItMi4wNy41OS0yLjk3LjQtLjkuOTQtMS42OCwxLjYyLTIuMzUtLjg2LS41Mi0xLjU1LTEuMjMtMi4wNi0yLjEycy0uNzctMS44OC0uNzctMi45NmMwLS45Ny4yMS0xLjg4LjYyLTIuNzFzLjk4LTEuNTIsMS43LTIuMDRjLS44Ni0uNzYtMS41NS0xLjY2LTIuMDUtMi43My0uNS0xLjA2LS43Ni0yLjIyLS43Ni0zLjQ4di0yLjA4YzAtMS4xMi4yMS0yLjE3LjYzLTMuMTZzMS0xLjg1LDEuNzQtMi41OWMuNzQtLjc0LDEuNi0xLjMyLDIuNTktMS43NC45OS0uNDIsMi4wNC0uNjMsMy4xNi0uNjNoMS4zOGMxLjM1LDAsMi42LjMsMy43NC45LDEuMTQuNiwyLjA5LDEuNDIsMi44NSwyLjQ0bDEuODEtMi44MWgxLjExdjkuNjdjMCwxLjEyLS4yMSwyLjE3LS42MywzLjE2LS40Mi45OS0xLDEuODUtMS43NCwyLjU5LS43NC43NC0xLjYsMS4zMi0yLjU5LDEuNzQtLjk5LjQyLTIuMDQuNjMtMy4xNi42M2gtNC44MWMtLjM4LDAtLjc0LjA4LTEuMDguMjNzLS42NC4zNi0uOS42MWMtLjI2LjI1LS40Ni41NS0uNjEuOS0uMTQuMzUtLjIyLjcxLS4yMiwxLjA5cy4wNy43NC4yMiwxLjA4Yy4xNC4zNC4zNS42NC42MS45LjI2LjI2LjU2LjQ2LjkuNjFzLjcuMjIsMS4wOC4yMmg0LjU0YzEuMTIsMCwyLjE3LjE5LDMuMTYuNTUuOTkuMzcsMS44NS44OSwyLjU5LDEuNTVzMS4zMiwxLjQ3LDEuNzQsMi40Yy40Mi45NC42MywxLjk2LjYzLDMuMDh2LjExYzAsMS4xMi0uMjEsMi4xNC0uNjMsMy4wOFptLTIuMzktMjYuODFjMC0uNjctLjEzLTEuMjktLjM4LTEuODgtLjI1LS41OC0uNi0xLjA5LTEuMDQtMS41My0uNDQtLjQzLS45NS0uNzctMS41NC0xLjAzcy0xLjIxLS4zOC0xLjg4LS4zOGgtMi43NWMtLjY3LDAtMS4yOS4xMy0xLjg4LjM4cy0xLjA5LjU5LTEuNTIsMS4wMy0uNzcuOTQtMS4wMywxLjUzLS4zOCwxLjIxLS4zOCwxLjg4djIuNDZjMCwuNjcuMTMsMS4yOS4zOCwxLjg4cy41OSwxLjA5LDEuMDMsMS41My45NC43NywxLjUyLDEuMDNjLjU4LjI1LDEuMjEuMzgsMS44OC4zOGgyLjc1Yy42NywwLDEuMjktLjEzLDEuODgtLjM4LjU4LS4yNSwxLjEtLjU5LDEuNTQtMS4wMy40NC0uNDMuNzktLjk0LDEuMDQtMS41My4yNS0uNTguMzgtMS4yMS4zOC0xLjg4di0yLjQ2Wm0tLjE0LDIzLjQ2YzAtLjY3LS4xMy0xLjI2LS4zOC0xLjgtLjI1LS41My0uNTktLjk4LTEuMDMtMS4zNC0uNDMtLjM2LS45NC0uNjQtMS41Mi0uODQtLjU5LS4yLTEuMjEtLjMtMS44OC0uM2gtMS43Yy0uNjcsMC0xLjI5LjEtMS44OC4zLS41OC4yLTEuMDkuNDgtMS41My44NHMtLjc3LjgxLTEuMDMsMS4zNGMtLjI1LjUzLS4zOCwxLjEzLS4zOCwxLjh2LjQzYzAsLjY3LjEzLDEuMjYuMzgsMS43OC4yNS41Mi41OS45NywxLjAzLDEuMzQuNDMuMzcuOTQuNjUsMS41My44NS41OC4yLDEuMjEuMywxLjg4LjNoMS43Yy42NywwLDEuMjktLjEsMS44OC0uMy41OC0uMiwxLjA5LS40OCwxLjUyLS44NS40My0uMzcuNzctLjgxLDEuMDMtMS4zNC4yNS0uNTIuMzgtMS4xMi4zOC0xLjc4di0uNDNaIiBjbGFzcz0iY2xzLTYiLz4mI3hhOyAgICAgICAgPHBhdGggZD0ibTQ4NS44LDMwNC43OXYtNC40M2gzLjg2djQuNDNoLTMuODZabS4yNywzNC4yOXYtMjcuNjVoMy4zMnYyNy42NWgtMy4zMloiIGNsYXNzPSJjbHMtNiIvPiYjeGE7ICAgICAgICA8cGF0aCBkPSJtNTA2LjEsMzM5LjA4Yy0xLjAxLDAtMS45Ni0uMTktMi44NS0uNTdzLTEuNjYtLjktMi4zMi0xLjU3Yy0uNjYtLjY3LTEuMTgtMS40NC0xLjU3LTIuMzItLjM5LS44OC0uNTgtMS44My0uNTgtMi44M3YtMTcuMmgtNC45N3YtMy4xNmg0Ljk3di02LjY0bDMuMzItLjU0djcuMThoNy4wMnYzLjE2aC03LjAydjE3LjM2YzAsLjU2LjEsMS4wOC4zMSwxLjU1LjIxLjQ4LjQ5LjkuODUsMS4yNXMuNzguNjQsMS4yNy44NWMuNDkuMjEsMS4wMS4zMSwxLjU3LjMxaDMuMDJ2My4xNmgtMy4wMloiIGNsYXNzPSJjbHMtNiIvPiYjeGE7ICAgICAgICA8cGF0aCBkPSJtNTMxLjQ4LDMzOS4wOGwtMS44NC0yLjc1Yy0uNzYuOTktMS43LDEuNzktMi44NCwyLjM5LTEuMTMuNi0yLjM4LjktMy43My45aC0uODRjLTEuMTIsMC0yLjE3LS4yMS0zLjE2LS42My0uOTktLjQyLTEuODUtMS0yLjU5LTEuNzQtLjc0LS43NC0xLjMyLTEuNi0xLjc0LTIuNTktLjQyLS45OS0uNjMtMi4wNC0uNjMtMy4xNnYtLjI3YzAtMS4xMi4yMS0yLjE3LjYzLTMuMTYuNDItLjk5LDEtMS44NSwxLjc0LTIuNTlzMS42LTEuMzIsMi41OS0xLjc0Yy45OS0uNDIsMi4wNC0uNjMsMy4xNi0uNjNoNy4wMnYtNC4yN2MwLS42Ny0uMTMtMS4yOS0uMzgtMS44OC0uMjUtLjU4LS41OS0xLjA5LTEuMDMtMS41My0uNDMtLjQzLS45NC0uNzctMS41My0xLjAzcy0xLjIxLS4zOC0xLjg4LS4zOGgtMS45NGMtLjY3LDAtMS4yOS4xMy0xLjg4LjM4LS41OS4yNS0xLjA5LjU5LTEuNTMsMS4wMy0uNDMuNDMtLjc3Ljk0LTEuMDMsMS41M3MtLjM4LDEuMjEtLjM4LDEuODh2MWwtMy4zMi0uNTR2LS4yN2MwLTEuMTIuMjEtMi4xNy42My0zLjE2LjQyLS45OSwxLTEuODUsMS43NC0yLjU5Ljc0LS43NCwxLjYtMS4zMiwyLjU5LTEuNzRzMi4wNC0uNjMsMy4xNi0uNjNoMS45NGMxLjEyLDAsMi4xNy4yMSwzLjE2LjYzczEuODUsMSwyLjU5LDEuNzRjLjc0Ljc0LDEuMzIsMS42LDEuNzQsMi41OXMuNjMsMi4wNC42MywzLjE2djIwLjA2aC0xLjExWm0tMi4yMS0xMy4zOWgtNy4wMmMtLjY3LDAtMS4yOS4xMy0xLjg4LjM4cy0xLjA5LjYtMS41MiwxLjA0Yy0uNDMuNDQtLjc3Ljk1LTEuMDMsMS41NHMtLjM4LDEuMjEtLjM4LDEuODh2MS4xNmMwLC42Ny4xMywxLjI5LjM4LDEuODguMjUuNTkuNTksMS4wOSwxLjAzLDEuNTMuNDMuNDMuOTQuNzcsMS41MiwxLjAzczEuMjEuMzgsMS44OC4zOGgyLjIxYy42NywwLDEuMjktLjEzLDEuODgtLjM4czEuMDktLjU5LDEuNTMtMS4wMy43Ny0uOTQsMS4wMy0xLjUzYy4yNS0uNTguMzgtMS4yMS4zOC0xLjg4di01Ljk5WiIgY2xhc3M9ImNscy02Ii8+JiN4YTsgICAgICAgIDxwYXRoIGQ9Im01MzkuMjMsMzM5LjA4di0zOC43MWgzLjMydjM4LjcxaC0zLjMyWiIgY2xhc3M9ImNscy02Ii8+JiN4YTsgICAgICAgIDxwYXRoIGQ9Im01ODIuMzksMzMzLjgyYy0uNDksMS4xNS0xLjE3LDIuMTYtMi4wNCwzLjAycy0xLjg3LDEuNTQtMy4wMiwyLjA0Yy0xLjE1LjQ5LTIuMzguNzQtMy43Ljc0aC0yLjc1Yy0xLjMxLDAtMi41NS0uMjUtMy43MS0uNzQtMS4xNi0uNDktMi4xNy0xLjE4LTMuMDQtMi4wNC0uODYtLjg2LTEuNTQtMS44Ny0yLjA0LTMuMDItLjQ5LTEuMTUtLjc0LTIuMzktLjc0LTMuN3YtMjAuNzljMC0xLjMxLjI1LTIuNTUuNzQtMy43LjQ5LTEuMTUsMS4xOC0yLjE2LDIuMDQtMy4wMi44Ni0uODYsMS44OC0xLjU0LDMuMDQtMi4wNCwxLjE2LS40OSwyLjQtLjc0LDMuNzEtLjc0aDIuNzVjMS4zMSwwLDIuNTUuMjUsMy43Ljc0LDEuMTUuNSwyLjE2LDEuMTgsMy4wMiwyLjA0Ljg2Ljg2LDEuNTQsMS44NywyLjA0LDMuMDIuNDksMS4xNS43NCwyLjM5Ljc0LDMuN3YxLjU3bC0zLjQ4LjU0di0yLjFjMC0uODYtLjE2LTEuNjctLjQ4LTIuNDJzLS43Ny0xLjQtMS4zMi0xLjk2LTEuMjEtMS0xLjk2LTEuMzItMS41NS0uNDktMi40Mi0uNDloLTIuNDNjLS44NiwwLTEuNjcuMTYtMi40Mi40OXMtMS40Ljc2LTEuOTcsMS4zMmMtLjU3LjU2LTEuMDEsMS4yMS0xLjM0LDEuOTZzLS40OSwxLjU1LS40OSwyLjQydjIwLjc5YzAsLjg2LjE2LDEuNjcuNDksMi40MnMuNzcsMS40LDEuMzQsMS45N2MuNTcuNTcsMS4yMiwxLjAxLDEuOTcsMS4zNHMxLjU1LjQ5LDIuNDIuNDloMi40M2MuODYsMCwxLjY3LS4xNiwyLjQyLS40OXMxLjQtLjc3LDEuOTYtMS4zNCwxLTEuMjIsMS4zMi0xLjk3LjQ4LTEuNTUuNDgtMi40MnYtMi4xMWwzLjQ4LjU3djEuNTRjMCwxLjMxLS4yNSwyLjU1LS43NCwzLjdaIiBjbGFzcz0iY2xzLTYiLz4mI3hhOyAgICAgICAgPHBhdGggZD0ibTYwNi41LDMzNC42NWMtLjQyLjk5LTEsMS44NS0xLjc0LDIuNTktLjc0Ljc0LTEuNiwxLjMyLTIuNTksMS43NHMtMi4wNC42My0zLjE2LjYzaC0yLjIxYy0xLjEyLDAtMi4xNy0uMjEtMy4xNi0uNjMtLjk5LS40Mi0xLjg1LTEtMi41OS0xLjc0LS43NC0uNzQtMS4zMi0xLjYtMS43NC0yLjU5LS40Mi0uOTktLjYzLTIuMDQtLjYzLTMuMTZ2LTEyLjQ3YzAtMS4xMi4yMS0yLjE3LjYzLTMuMTZzMS0xLjg1LDEuNzQtMi41OWMuNzQtLjc0LDEuNi0xLjMyLDIuNTktMS43NC45OS0uNDIsMi4wNC0uNjMsMy4xNi0uNjNoMi4yMWMxLjEyLDAsMi4xNy4yMSwzLjE2LjYzczEuODUsMSwyLjU5LDEuNzRjLjc0Ljc0LDEuMzIsMS42LDEuNzQsMi41OXMuNjMsMi4wNC42MywzLjE2djEyLjQ3YzAsMS4xMi0uMjEsMi4xNy0uNjMsMy4xNlptLTIuNjktMTUuODJjMC0uNjctLjEzLTEuMjktLjM4LTEuODgtLjI1LS41OC0uNTktMS4wOS0xLjAzLTEuNTMtLjQzLS40My0uOTQtLjc3LTEuNTMtMS4wM3MtMS4yMS0uMzgtMS44OC0uMzhoLTIuMjFjLS42NywwLTEuMjkuMTMtMS44OC4zOHMtMS4wOS41OS0xLjUyLDEuMDMtLjc3Ljk0LTEuMDMsMS41My0uMzgsMS4yMS0uMzgsMS44OHYxMi44NWMwLC42Ny4xMywxLjI5LjM4LDEuODguMjUuNTkuNTksMS4wOSwxLjAzLDEuNTMuNDMuNDMuOTQuNzcsMS41MiwxLjAzczEuMjEuMzgsMS44OC4zOGgyLjIxYy42NywwLDEuMjktLjEzLDEuODgtLjM4czEuMDktLjU5LDEuNTMtMS4wMy43Ny0uOTQsMS4wMy0xLjUzYy4yNS0uNTguMzgtMS4yMS4zOC0xLjg4di0xMi44NVoiIGNsYXNzPSJjbHMtNiIvPiYjeGE7ICAgICAgICA8cGF0aCBkPSJtNjQxLjg1LDMzOS4wOHYtMjAuMjVjMC0uNjctLjEzLTEuMjktLjM4LTEuODgtLjI1LS41OC0uNTktMS4wOS0xLjAzLTEuNTMtLjQzLS40My0uOTQtLjc3LTEuNTMtMS4wM3MtMS4yMS0uMzgtMS44OC0uMzhoLTEuNjVjLS42NywwLTEuMjkuMTMtMS44OC4zOHMtMS4xLjU5LTEuNTQsMS4wM2MtLjQ0LjQzLS43OS45NC0xLjA0LDEuNTMtLjI1LjU4LS4zOCwxLjIxLS4zOCwxLjg4djIwLjI1aC0zLjI5di0yMC4yNWMwLS42Ny0uMTMtMS4yOS0uMzgtMS44OHMtLjYtMS4wOS0xLjA0LTEuNTNjLS40NC0uNDMtLjk1LS43Ny0xLjU0LTEuMDNzLTEuMjEtLjM4LTEuODgtLjM4aC0xLjY1Yy0uNjcsMC0xLjI5LjEzLTEuODguMzhzLTEuMDkuNTktMS41MiwxLjAzLS43Ny45NC0xLjAzLDEuNTMtLjM4LDEuMjEtLjM4LDEuODh2MjAuMjVoLTMuMzJ2LTI3LjY1aDEuMTFsMS44MSwyLjgxYy43Ni0xLjAzLDEuNzEtMS44NCwyLjg1LTIuNDQsMS4xNC0uNiwyLjM5LS45LDMuNzQtLjloLjI3YzEuNTcsMCwyLjk4LjM5LDQuMjQsMS4xNiwxLjI2Ljc3LDIuMjMsMS44LDIuOTIsMy4wOC4zNC0uNjMuNzYtMS4yMSwxLjI3LTEuNzMuNS0uNTIsMS4wNi0uOTcsMS42Ny0xLjM0LjYxLS4zNywxLjI4LS42NiwyLS44Ni43Mi0uMjEsMS40Ny0uMzEsMi4yNC0uMzFoLjI3YzEuMTIsMCwyLjE3LjIxLDMuMTYuNjNzMS44NSwxLDIuNTksMS43NGMuNzQuNzQsMS4zMiwxLjYsMS43NCwyLjU5cy42MywyLjA0LjYzLDMuMTZ2MjAuMDZoLTMuMzJaIiBjbGFzcz0iY2xzLTYiLz4mI3hhOyAgICAgICAgPHBhdGggZD0ibTY3OS44OSwzMzkuMDh2LTIwLjI1YzAtLjY3LS4xMy0xLjI5LS4zOC0xLjg4LS4yNS0uNTgtLjU5LTEuMDktMS4wMy0xLjUzLS40My0uNDMtLjk0LS43Ny0xLjUzLTEuMDNzLTEuMjEtLjM4LTEuODgtLjM4aC0xLjY1Yy0uNjcsMC0xLjI5LjEzLTEuODguMzhzLTEuMS41OS0xLjU0LDEuMDNjLS40NC40My0uNzkuOTQtMS4wNCwxLjUzLS4yNS41OC0uMzgsMS4yMS0uMzgsMS44OHYyMC4yNWgtMy4yOXYtMjAuMjVjMC0uNjctLjEzLTEuMjktLjM4LTEuODhzLS42LTEuMDktMS4wNC0xLjUzYy0uNDQtLjQzLS45NS0uNzctMS41NC0xLjAzcy0xLjIxLS4zOC0xLjg4LS4zOGgtMS42NWMtLjY3LDAtMS4yOS4xMy0xLjg4LjM4cy0xLjA5LjU5LTEuNTIsMS4wMy0uNzcuOTQtMS4wMywxLjUzLS4zOCwxLjIxLS4zOCwxLjg4djIwLjI1aC0zLjMydi0yNy42NWgxLjExbDEuODEsMi44MWMuNzYtMS4wMywxLjcxLTEuODQsMi44NS0yLjQ0LDEuMTQtLjYsMi4zOS0uOSwzLjc0LS45aC4yN2MxLjU3LDAsMi45OC4zOSw0LjI0LDEuMTYsMS4yNi43NywyLjIzLDEuOCwyLjkyLDMuMDguMzQtLjYzLjc2LTEuMjEsMS4yNy0xLjczLjUtLjUyLDEuMDYtLjk3LDEuNjctMS4zNC42MS0uMzcsMS4yOC0uNjYsMi0uODYuNzItLjIxLDEuNDctLjMxLDIuMjQtLjMxaC4yN2MxLjEyLDAsMi4xNy4yMSwzLjE2LjYzczEuODUsMSwyLjU5LDEuNzRjLjc0Ljc0LDEuMzIsMS42LDEuNzQsMi41OXMuNjMsMi4wNC42MywzLjE2djIwLjA2aC0zLjMyWiIgY2xhc3M9ImNscy02Ii8+JiN4YTsgICAgICAgIDxwYXRoIGQ9Im03MDYuNTgsMzM0LjY1Yy0uNDIuOTktMSwxLjg1LTEuNzQsMi41OS0uNzQuNzQtMS42LDEuMzItMi41OSwxLjc0LS45OS40Mi0yLjA0LjYzLTMuMTYuNjNoLTIuMjFjLTEuMTIsMC0yLjE3LS4yMS0zLjE2LS42My0uOTktLjQyLTEuODUtMS0yLjU5LTEuNzQtLjc0LS43NC0xLjMyLTEuNi0xLjc0LTIuNTlzLS42My0yLjA0LS42My0zLjE2di0xMi40N2MwLTEuMTIuMjEtMi4xNy42My0zLjE2czEtMS44NSwxLjc0LTIuNTljLjc0LS43NCwxLjYtMS4zMiwyLjU5LTEuNzQuOTktLjQyLDIuMDQtLjYzLDMuMTYtLjYzaDIuMjFjMS4xMiwwLDIuMTcuMjEsMy4xNi42M3MxLjg1LDEsMi41OSwxLjc0Yy43NC43NCwxLjMyLDEuNiwxLjc0LDIuNTlzLjYzLDIuMDQuNjMsMy4xNnY2LjUxaC0xNS4xNXY2LjE2YzAsLjY3LjEzLDEuMjkuMzgsMS44OC4yNS41OS41OSwxLjA5LDEuMDMsMS41My40My40My45NC43NywxLjUyLDEuMDNzMS4yMS4zOCwxLjg4LjM4aDIuMjFjLjY3LDAsMS4yOS0uMTMsMS44OC0uMzhzMS4wOS0uNTksMS41My0xLjAzLjc3LS45NCwxLjAzLTEuNTNjLjI1LS41OC4zOC0xLjIxLjM4LTEuODh2LTEuODRsMy4zMi41NHYxLjExYzAsMS4xMi0uMjEsMi4xNy0uNjMsMy4xNlptLTIuNjktMTUuODJjMC0uNjctLjEzLTEuMjktLjM4LTEuODgtLjI1LS41OC0uNTktMS4wOS0xLjAzLTEuNTMtLjQzLS40My0uOTQtLjc3LTEuNTMtMS4wM3MtMS4yMS0uMzgtMS44OC0uMzhoLTIuMjFjLS42NywwLTEuMjkuMTMtMS44OC4zOHMtMS4wOS41OS0xLjUyLDEuMDMtLjc3Ljk0LTEuMDMsMS41My0uMzgsMS4yMS0uMzgsMS44OHY0LjFoMTEuODN2LTQuMVoiIGNsYXNzPSJjbHMtNiIvPiYjeGE7ICAgICAgICA8cGF0aCBkPSJtNzIwLjg4LDMxNC41OWMtLjY3LDAtMS4yOS4xMy0xLjg4LjM4cy0xLjA5LjU5LTEuNTIsMS4wMy0uNzcuOTQtMS4wMywxLjUzLS4zOCwxLjIxLS4zOCwxLjg4djE5LjY4aC0zLjMydi0yNy42NWgxLjExbDEuODEsMi44MWMuNzYtMS4wMywxLjcxLTEuODQsMi44NS0yLjQ0LDEuMTQtLjYsMi4zOS0uOSwzLjc0LS45aDEuOTR2My43aC0zLjMyWiIgY2xhc3M9ImNscy02Ii8+JiN4YTsgICAgICAgIDxwYXRoIGQ9Im03NDUuMzUsMzM0LjY1Yy0uNDIuOTktMSwxLjg1LTEuNzQsMi41OS0uNzQuNzQtMS42LDEuMzItMi41OSwxLjc0LS45OS40Mi0yLjA0LjYzLTMuMTYuNjNoLTIuMjFjLTEuMTIsMC0yLjE3LS4yMS0zLjE2LS42My0uOTktLjQyLTEuODUtMS0yLjU5LTEuNzQtLjc0LS43NC0xLjMyLTEuNi0xLjc0LTIuNTlzLS42My0yLjA0LS42My0zLjE2di0xMi40N2MwLTEuMTIuMjEtMi4xNy42My0zLjE2LjQyLS45OSwxLTEuODUsMS43NC0yLjU5Ljc0LS43NCwxLjYtMS4zMiwyLjU5LTEuNzQuOTktLjQyLDIuMDQtLjYzLDMuMTYtLjYzaDIuMjFjMS4xMiwwLDIuMTcuMjEsMy4xNi42My45OS40MiwxLjg1LDEsMi41OSwxLjc0Ljc0Ljc0LDEuMzIsMS42LDEuNzQsMi41OXMuNjMsMi4wNC42MywzLjE2djEuMTFsLTMuMzIuNTR2LTEuODRjMC0uNjctLjEzLTEuMjktLjM4LTEuODgtLjI1LS41OC0uNTktMS4wOS0xLjAzLTEuNTMtLjQzLS40My0uOTQtLjc3LTEuNTMtMS4wM3MtMS4yMS0uMzgtMS44OC0uMzhoLTIuMjFjLS42NywwLTEuMjkuMTMtMS44OC4zOHMtMS4wOS41OS0xLjUyLDEuMDMtLjc3Ljk0LTEuMDMsMS41My0uMzgsMS4yMS0uMzgsMS44OHYxMi44NWMwLC42Ny4xMywxLjI5LjM4LDEuODguMjUuNTkuNTksMS4wOSwxLjAzLDEuNTMuNDMuNDMuOTQuNzcsMS41MiwxLjAzczEuMjEuMzgsMS44OC4zOGgyLjIxYy42NywwLDEuMjktLjEzLDEuODgtLjM4czEuMDktLjU5LDEuNTMtMS4wMy43Ny0uOTQsMS4wMy0xLjUzYy4yNS0uNTguMzgtMS4yMS4zOC0xLjg4di0xLjg0bDMuMzIuNTR2MS4xMWMwLDEuMTItLjIxLDIuMTctLjYzLDMuMTZaIiBjbGFzcz0iY2xzLTYiLz4mI3hhOyAgICAgICAgPHBhdGggZD0ibTc2OS4zNSwzMzQuNjVjLS40Mi45OS0xLDEuODUtMS43NCwyLjU5LS43NC43NC0xLjYsMS4zMi0yLjU5LDEuNzQtLjk5LjQyLTIuMDQuNjMtMy4xNi42M2gtMi4yMWMtMS4xMiwwLTIuMTctLjIxLTMuMTYtLjYzLS45OS0uNDItMS44NS0xLTIuNTktMS43NC0uNzQtLjc0LTEuMzItMS42LTEuNzQtMi41OXMtLjYzLTIuMDQtLjYzLTMuMTZ2LTEyLjQ3YzAtMS4xMi4yMS0yLjE3LjYzLTMuMTZzMS0xLjg1LDEuNzQtMi41OWMuNzQtLjc0LDEuNi0xLjMyLDIuNTktMS43NC45OS0uNDIsMi4wNC0uNjMsMy4xNi0uNjNoMi4yMWMxLjEyLDAsMi4xNy4yMSwzLjE2LjYzczEuODUsMSwyLjU5LDEuNzRjLjc0Ljc0LDEuMzIsMS42LDEuNzQsMi41OXMuNjMsMi4wNC42MywzLjE2djYuNTFoLTE1LjE1djYuMTZjMCwuNjcuMTMsMS4yOS4zOCwxLjg4LjI1LjU5LjU5LDEuMDksMS4wMywxLjUzLjQzLjQzLjk0Ljc3LDEuNTIsMS4wM3MxLjIxLjM4LDEuODguMzhoMi4yMWMuNjcsMCwxLjI5LS4xMywxLjg4LS4zOHMxLjA5LS41OSwxLjUzLTEuMDMuNzctLjk0LDEuMDMtMS41M2MuMjUtLjU4LjM4LTEuMjEuMzgtMS44OHYtMS44NGwzLjMyLjU0djEuMTFjMCwxLjEyLS4yMSwyLjE3LS42MywzLjE2Wm0tMi42OS0xNS44MmMwLS42Ny0uMTMtMS4yOS0uMzgtMS44OC0uMjUtLjU4LS41OS0xLjA5LTEuMDMtMS41My0uNDMtLjQzLS45NC0uNzctMS41My0xLjAzcy0xLjIxLS4zOC0xLjg4LS4zOGgtMi4yMWMtLjY3LDAtMS4yOS4xMy0xLjg4LjM4cy0xLjA5LjU5LTEuNTIsMS4wMy0uNzcuOTQtMS4wMywxLjUzLS4zOCwxLjIxLS4zOCwxLjg4djQuMWgxMS44M3YtNC4xWiIgY2xhc3M9ImNscy02Ii8+JiN4YTsgICAgICA8L2c+JiN4YTsgICAgICA8cGF0aCBkPSJtMTM0LjIsOTUuNjljMjYuNTIsMCw0Ny44NCw4LjA2LDYzLjk3LDI0LjE5LDE2LjEzLDE2LjEzLDI0LjIsMzcuNDUsMjQuMiw2My45N3MtOC4xLDQ3LjctMjQuMjgsNjMuODljLTE2LjE5LDE2LjE5LTM3LjQ5LDI0LjI4LTYzLjg4LDI0LjI4cy00Ny41Ni04LjEyLTYzLjgtMjQuMzdjLTE2LjI0LTE2LjI0LTI0LjM2LTM3LjUxLTI0LjM2LTYzLjhzOC4wOS00Ny43LDI0LjI4LTYzLjg4YzE2LjE5LTE2LjE5LDM3LjQ5LTI0LjI4LDYzLjg5LTI0LjI4Wm0wLDM1LjNjLTIwLjI3LDAtMzUuMzksOC00NS4zNywyNC4wMi01LDguMDQtNy40OSwxNy42NS03LjQ5LDI4Ljg0LDAsMTAuMjIsMi4yNCwxOS4zOCw2LjcyLDI3LjQ3LDQuNyw4LjUsMTEuNDgsMTQuOTUsMjAuMzIsMTkuMzgsOC4wNCw0LjAxLDE2LjY0LDYuMDIsMjUuODMsNi4wMiwyMC4yNiwwLDM1LjM5LTguMDMsNDUuMzctMjQuMSw1LTcuOTgsNy40OS0xNy41Niw3LjQ5LTI4Ljc2LDAtMTYuNzYtNS4zOS0yOS45LTE2LjE5LTM5LjQzLTEwLjExLTguOTUtMjIuMzMtMTMuNDMtMzYuNjgtMTMuNDNaIiBjbGFzcz0iY2xzLTIiLz4mI3hhOyAgICAgIDxwYXRoIGQ9Im03NDguNDgsMjIxLjkxbDI1Ljc0LDI1Ljc0Yy0xMC4zMywxMC41Ni0yMy4zNiwxNy43NC0zOS4wOSwyMS41My03LjY5LDEuODktMTUuOTMsMi44NC0yNC43MSwyLjg0LTI2LjI5LDAtNDcuNTUtOC4xMi02My44LTI0LjM3LTE2LjI0LTE2LjI0LTI0LjM2LTM3LjUxLTI0LjM2LTYzLjhzOC4wOS00Ny43LDI0LjI4LTYzLjg4YzE2LjE4LTE2LjE5LDM3LjQ4LTI0LjI4LDYzLjg4LTI0LjI4czQ3Ljg1LDguMDYsNjMuOTgsMjQuMTlsLTI1LjkyLDI1LjkyYy0xMC4xLTkuODgtMjIuNzktMTQuODEtMzguMDYtMTQuODEtMjAuMjYsMC0zNS4zOCw4LTQ1LjM3LDI0LjAyLTQuOTksOC4wNC03LjQ5LDE3LjY1LTcuNDksMjguODQsMCwxMC4yMiwyLjI1LDE5LjM4LDYuNzIsMjcuNDcsNC43MSw4LjUsMTEuNDgsMTQuOTUsMjAuMzIsMTkuMzgsOC4wNCw0LjAxLDE2LjY1LDYuMDIsMjUuODMsNi4wMiwxNS4yNywwLDI3Ljk2LTQuOTMsMzguMDYtMTQuODFaIiBjbGFzcz0iY2xzLTgiLz4mI3hhOyAgICAgIDxnPiYjeGE7ICAgICAgICA8cGF0aCBkPSJtNDk5Ljg1LDEyNy4yMmMyLjY1LDAsNC44LTIuMTUsNC44LTQuOHMtMi4xNS00Ljc5LTQuOC00Ljc5LTQuOCwyLjE1LTQuOCw0Ljc5LDIuMTUsNC44LDQuOCw0LjhaIiBjbGFzcz0iY2xzLTEwIi8+JiN4YTsgICAgICAgIDxwYXRoIGQ9Im00MzguMzMsMTgwLjc4YzAsLjU3LDEuMDEuNTgsMS4wMiwwLDAtLjI5LS4yMi0uNTEtLjUxLS41MXMtLjUxLjIyLS41MS41MVoiIGNsYXNzPSJjbHMtMTYiLz4mI3hhOyAgICAgIDwvZz4mI3hhOyAgICAgIDxwYXRoIGQ9Im01ODAuNzksMTE5Ljg4Yy0xMC40My0xMC40Mi0yMy4wMy0xNy40NS0zNy43OC0yMS4xNGwtOS4wMyw5LjA0YzEuOTMsNC41LDMuMDEsOS40NSwzLjAxLDE0LjY1LDAsMy45OC0uNjMsNy44Mi0xLjgsMTEuNDIsNi43MiwyLjIyLDEyLjgzLDUuNzIsMTguMzEsMTAuNTcsMTAuNzksOS41MywxNi4xOCwyMi42NywxNi4xOCwzOS40MywwLDExLjItMi40OSwyMC43OC03LjQ5LDI4Ljc2LTkuOTgsMTYuMDctMjUuMSwyNC4xLTQ1LjM3LDI0LjFoLTUyLjg3di00NS45M2MtMy45OSw5Ljk3LTEzLjczLDE3LjAzLTI1LjEsMTcuMDMtMy42MSwwLTcuMDUtLjcyLTEwLjItMnY2Ni4yMWg4OC4xN2MyNi40LDAsNDcuNy04LjA5LDYzLjg4LTI0LjI4LDE2LjItMTYuMTksMjQuMjgtMzcuNDgsMjQuMjgtNjMuODlzLTguMDYtNDcuODQtMjQuMTgtNjMuOTdaIiBjbGFzcz0iY2xzLTUiLz4mI3hhOyAgICAgIDxnPiYjeGE7ICAgICAgICA8cGF0aCBkPSJtNTI1LjYsMTMyLjY3bC0yMy40Ny0xMC4wMWMtMS4yOS0uNTUtMi42MS43Ni0yLjA1LDIuMDVsMTAuMDEsMjMuNDdjLjI1LjU5Ljg0Ljk4LDEuNTEuOTUuNjUtLjAzLDEuMjItLjQ1LDEuNDItMS4wN2wzLjA5LTkuMzcsOS4zNy0zLjA5Yy42Mi0uMiwxLjA1LS43NywxLjA3LTEuNDIuMDMtLjY1LS4zNS0xLjI1LS45NS0xLjUxWm0tMTEuMjIsMy4yOWMtLjQ3LjE2LS44NC41Mi0xLDFsLTIuMDQsNi4xOC02Ljg2LTE2LjA4LDE2LjA4LDYuODYtNi4xOCwyLjA0WiIgY2xhc3M9ImNscy03Ii8+JiN4YTsgICAgICAgIDxwYXRoIGQ9Im00OTkuODUsMTA1LjE0Yy05LjUzLDAtMTcuMjksNy43Ni0xNy4yOSwxNy4yOXM3Ljc2LDE3LjI5LDE3LjI5LDE3LjI5YzEuMjUsMCwyLjI3LTEuMDIsMi4yNy0yLjI3cy0xLjAyLTIuMjctMi4yNy0yLjI3Yy03LjAzLDAtMTIuNzUtNS43Mi0xMi43NS0xMi43NXM1LjcyLTEyLjc1LDEyLjc1LTEyLjc1LDEyLjc1LDUuNzIsMTIuNzUsMTIuNzVjMCwxLjI1LDEuMDIsMi4yNywyLjI3LDIuMjdzMi4yNy0xLjAyLDIuMjctMi4yN2MwLTkuNTMtNy43Ni0xNy4yOS0xNy4yOS0xNy4yOVoiIGNsYXNzPSJjbHMtMTQiLz4mI3hhOyAgICAgICAgPHBhdGggZD0ibTUxOS4yMSwxMDMuMDdjLTUuMTktNS4xOS0xMi4wNy04LjA1LTE5LjM2LTguMDVoMGMtNy4yOSwwLTE0LjE3LDIuODYtMTkuMzYsOC4wNS0xMC42NywxMC42Ny0xMC42NywyOC4wNCwwLDM4LjcyLDUuMTksNS4xOSwxMi4wNyw4LjA1LDE5LjM2LDguMDUsMS4yNSwwLDIuMjctMS4wMiwyLjI3LTIuMjdzLTEuMDItMi4yNy0yLjI3LTIuMjdjLTEyLjYxLDAtMjIuODctMTAuMjYtMjIuODctMjIuODdzMTAuMjYtMjIuODcsMjIuODctMjIuODcsMjIuODcsMTAuMjYsMjIuODcsMjIuODdjMCwxLjI1LDEuMDIsMi4yNywyLjI3LDIuMjdzMi4yNy0xLjAyLDIuMjctMi4yN2MwLTcuMjktMi44Ni0xNC4xNy04LjA1LTE5LjM2WiIgY2xhc3M9ImNscy0xMSIvPiYjeGE7ICAgICAgPC9nPiYjeGE7ICAgIDwvZz4mI3hhOyAgICA8Zz4mI3hhOyAgICAgIDxwb2x5Z29uIHBvaW50cz0iMjMzLjA1IDI3Mi4wMiAyNjguMzUgMjcyLjAyIDI2OC4zNSAxNTkuMDkgMzM4Ljg2IDIxNS40OSAzMzguODYgMTgwLjMzIDIzMy4wNSA5NS42OSAyMzMuMDUgMjcyLjAyIiBjbGFzcz0iY2xzLTMiLz4mI3hhOyAgICAgIDxwYXRoIGQ9Im00NjIuNzEsMTIyLjQzYzAtNS4yLDEuMDctMTAuMTUsMy4wMS0xNC42NWwtNi4xNi02LjE3Yy02LjU1LjY2LTEyLjY3LTEuNzMtMTcuMDgtNS45MmgtNzguNDR2MTQ4LjA4bDM1LjMsMjguMjR2LTE0MS4wMmg2NC4zOGMtLjY1LTIuNzUtMS01LjYyLTEtOC41NloiIGNsYXNzPSJjbHMtOSIvPiYjeGE7ICAgIDwvZz4mI3hhOyAgICA8Zz4mI3hhOyAgICAgIDxwYXRoIGQ9Im01NDIuMjksMTU0LjI1Yy0xLjk2LDAtMy43OC41Ny01LjM2LDEuNWwtOS4wMi05LjAyYy0xLjE2LDEuMzQtMi40MSwyLjU5LTMuNzUsMy43NWw5LjAyLDkuMDJjLS45NCwxLjU4LTEuNTEsMy40LTEuNTEsNS4zNiwwLDUuODUsNC43NiwxMC42MSwxMC42MSwxMC42MXMxMC42MS00Ljc2LDEwLjYxLTEwLjYxLTQuNzYtMTAuNjEtMTAuNjEtMTAuNjFabTAsMTUuOTFjLTIuOTMsMC01LjMtMi4zOC01LjMtNS4zczIuMzgtNS4zLDUuMy01LjMsNS4zLDIuMzgsNS4zLDUuMy0yLjM4LDUuMy01LjMsNS4zWiIgY2xhc3M9ImNscy0xMyIvPiYjeGE7ICAgICAgPHBhdGggZD0ibTU1Mi45LDU2LjExYy04Ljc4LDAtMTUuOTEsNy4xNC0xNS45MSwxNS45MSwwLDIuNzUuNyw1LjMzLDEuOTMsNy41OWwtMTQuNzUsMTQuNzVjMS4zNCwxLjE2LDIuNTksMi40MSwzLjc1LDMuNzVsMTQuMzItMTQuMzJjMi44MiwyLjU2LDYuNTYsNC4xNCwxMC42Nyw0LjE0LDguNzgsMCwxNS45MS03LjE0LDE1LjkxLTE1Ljkxcy03LjE0LTE1LjkxLTE1LjkxLTE1LjkxWm0wLDI2LjUyYy01Ljg1LDAtMTAuNjEtNC43Ni0xMC42MS0xMC42MXM0Ljc2LTEwLjYxLDEwLjYxLTEwLjYxLDEwLjYxLDQuNzYsMTAuNjEsMTAuNjEtNC43NiwxMC42MS0xMC42MSwxMC42MVoiIGNsYXNzPSJjbHMtMTIiLz4mI3hhOyAgICAgIDxwYXRoIGQ9Im00NTcuNDEsOTAuNmMxLjk2LDAsMy43OC0uNTcsNS4zNi0xLjVsOS4wMiw5LjAyYzEuMTYtMS4zNCwyLjQxLTIuNTksMy43NS0zLjc1bC05LjAyLTkuMDJjLjkzLTEuNTgsMS41LTMuMzksMS41LTUuMzYsMC01Ljg1LTQuNzYtMTAuNjEtMTAuNjEtMTAuNjFzLTEwLjYxLDQuNzYtMTAuNjEsMTAuNjEsNC43NiwxMC42MSwxMC42MSwxMC42MVptMC0xNS45MWMyLjkzLDAsNS4zLDIuMzgsNS4zLDUuM3MtMi4zOCw1LjMtNS4zLDUuMy01LjMtMi4zOC01LjMtNS4zLDIuMzgtNS4zLDUuMy01LjNaIiBjbGFzcz0iY2xzLTE1Ii8+JiN4YTsgICAgICA8cGF0aCBkPSJtNDc1LjU0LDE1MC40OGMtMS4zNC0xLjE2LTIuNTktMi40MS0zLjc1LTMuNzVsLTIyLjI3LDIyLjI3Yy0yLjgzLTIuNTYtNi41Ni00LjE0LTEwLjY3LTQuMTQtOC43OCwwLTE1LjkxLDcuMTQtMTUuOTEsMTUuOTFzNy4xNCwxNS45MSwxNS45MSwxNS45MSwxNS45MS03LjE0LDE1LjkxLTE1LjkxYzAtMi43NS0uNy01LjMzLTEuOTMtNy41OWwyMi43MS0yMi43MVptLTM2LjcsNDAuOWMtNS44NSwwLTEwLjYxLTQuNzYtMTAuNjEtMTAuNjFzNC43Ni0xMC42MSwxMC42MS0xMC42MSwxMC42MSw0Ljc2LDEwLjYxLDEwLjYxLTQuNzYsMTAuNjEtMTAuNjEsMTAuNjFaIiBjbGFzcz0iY2xzLTQiLz4mI3hhOyAgICAgIDxwYXRoIGQ9Im01MDIuNSwxNzAuNDF2LTEwLjk1Yy0uODguMDYtMS43Ni4xLTIuNjYuMXMtMS43Ny0uMDQtMi42NS0uMXYxMC45NWMtNy41MSwxLjI3LTEzLjI2LDcuOC0xMy4yNiwxNS42OCwwLDguNzgsNy4xNCwxNS45MSwxNS45MSwxNS45MXMxNS45MS03LjE0LDE1LjkxLTE1LjkxYzAtNy44Ny01Ljc1LTE0LjQxLTEzLjI2LTE1LjY4Wm0tMi42NiwyNi4yOWMtNS44NSwwLTEwLjYxLTQuNzYtMTAuNjEtMTAuNjFzNC43Ni0xMC42MSwxMC42MS0xMC42MSwxMC42MSw0Ljc2LDEwLjYxLDEwLjYxLTQuNzYsMTAuNjEtMTAuNjEsMTAuNjFaIiBjbGFzcz0iY2xzLTEiLz4mI3hhOyAgICA8L2c+JiN4YTsgIDwvZz4mI3hhOyAgPGc+JiN4YTsgICAgPHRleHQgdHJhbnNmb3JtPSJ0cmFuc2xhdGUoNzcwLjg0IDg5LjY3KSBzY2FsZSguOTcgMSkiIGNsYXNzPSJjbHMtMTciPjx0c3BhbiB5PSIwIiB4PSIwIj5SPC90c3Bhbj48L3RleHQ+JiN4YTsgICAgPGNpcmNsZSByPSIxMy4zNSIgY3k9IjgxLjY2IiBjeD0iNzc2LjQ5IiBjbGFzcz0iY2xzLTE4Ii8+JiN4YTsgIDwvZz4mI3hhOzwvc3ZnPg==;imageBorder=default;" vertex="1" parent="1">
          <mxGeometry x="40" y="265" width="147.72" height="70" as="geometry" />
        </mxCell>
        <mxCell id="5OZiCk8Ew-PO9oTUfX-M-20" style="edgeStyle=none;rounded=0;orthogonalLoop=1;jettySize=auto;html=1;" edge="1" parent="1" source="5OZiCk8Ew-PO9oTUfX-M-23" target="5OZiCk8Ew-PO9oTUfX-M-25">
          <mxGeometry relative="1" as="geometry" />
        </mxCell>
        <mxCell id="5OZiCk8Ew-PO9oTUfX-M-21" value="pay" style="edgeLabel;html=1;align=center;verticalAlign=middle;resizable=0;points=[];" vertex="1" connectable="0" parent="5OZiCk8Ew-PO9oTUfX-M-20">
          <mxGeometry relative="1" as="geometry">
            <mxPoint x="5" y="-10" as="offset" />
          </mxGeometry>
        </mxCell>
        <mxCell id="5OZiCk8Ew-PO9oTUfX-M-22" value="/on_confirm" style="edgeStyle=none;rounded=0;orthogonalLoop=1;jettySize=auto;html=1;exitX=0;exitY=0.75;exitDx=0;exitDy=0;entryX=1;entryY=0.75;entryDx=0;entryDy=0;dashed=1;dashPattern=8 8;" edge="1" parent="1" source="5OZiCk8Ew-PO9oTUfX-M-23" target="5OZiCk8Ew-PO9oTUfX-M-19">
          <mxGeometry x="0.0608" y="9" relative="1" as="geometry">
            <mxPoint as="offset" />
          </mxGeometry>
        </mxCell>
        <mxCell id="5OZiCk8Ew-PO9oTUfX-M-23" value="ondc&lt;br&gt;service" style="rounded=1;whiteSpace=wrap;html=1;" vertex="1" parent="1">
          <mxGeometry x="320" y="270" width="110" height="60" as="geometry" />
        </mxCell>
        <mxCell id="5OZiCk8Ew-PO9oTUfX-M-24" value="" style="edgeStyle=none;rounded=0;orthogonalLoop=1;jettySize=auto;html=1;" edge="1" parent="1" source="5OZiCk8Ew-PO9oTUfX-M-25" target="5OZiCk8Ew-PO9oTUfX-M-26">
          <mxGeometry relative="1" as="geometry" />
        </mxCell>
        <mxCell id="5OZiCk8Ew-PO9oTUfX-M-25" value="developer-api&lt;br&gt;service" style="rounded=1;whiteSpace=wrap;html=1;" vertex="1" parent="1">
          <mxGeometry x="540" y="265" width="110" height="70" as="geometry" />
        </mxCell>
        <mxCell id="5OZiCk8Ew-PO9oTUfX-M-26" value="Api Gateway&lt;br&gt;(run DAG)" style="whiteSpace=wrap;html=1;rounded=1;verticalAlign=top;" vertex="1" parent="1">
          <mxGeometry x="725" y="250" width="135" height="100" as="geometry" />
        </mxCell>
        <mxCell id="5OZiCk8Ew-PO9oTUfX-M-27" value="" style="image;sketch=0;aspect=fixed;html=1;points=[];align=center;fontSize=12;image=img/lib/mscae/Resource_Graph_Explorer.svg;" vertex="1" parent="1">
          <mxGeometry x="768" y="290" width="49" height="50" as="geometry" />
        </mxCell>
        <mxCell id="5OZiCk8Ew-PO9oTUfX-M-28" style="rounded=0;orthogonalLoop=1;jettySize=auto;html=1;exitX=1;exitY=0.25;exitDx=0;exitDy=0;entryX=0;entryY=0.25;entryDx=0;entryDy=0;" edge="1" parent="1" source="5OZiCk8Ew-PO9oTUfX-M-30" target="5OZiCk8Ew-PO9oTUfX-M-34">
          <mxGeometry relative="1" as="geometry" />
        </mxCell>
        <mxCell id="5OZiCk8Ew-PO9oTUfX-M-29" value="/status&lt;br&gt;/track" style="edgeLabel;html=1;align=center;verticalAlign=middle;resizable=0;points=[];" vertex="1" connectable="0" parent="5OZiCk8Ew-PO9oTUfX-M-28">
          <mxGeometry x="-0.3449" y="2" relative="1" as="geometry">
            <mxPoint x="19" y="-2" as="offset" />
          </mxGeometry>
        </mxCell>
        <mxCell id="5OZiCk8Ew-PO9oTUfX-M-30" value="" style="shape=image;verticalLabelPosition=bottom;labelBackgroundColor=default;verticalAlign=top;aspect=fixed;imageAspect=0;image=data:image/svg+xml,PHN2ZyB4bWxuczp4bGluaz0iaHR0cDovL3d3dy53My5vcmcvMTk5OS94bGluayIgeG1sbnM9Imh0dHA6Ly93d3cudzMub3JnLzIwMDAvc3ZnIiB2aWV3Qm94PSIwIDAgODQxLjg5IDM5OS4zNyIgZGF0YS1uYW1lPSJMYXllciAxIiBpZD0iTGF5ZXJfMSI+JiN4YTsgIDxkZWZzPiYjeGE7ICAgIDxzdHlsZT4mI3hhOyAgICAgIC5jbHMtMSB7JiN4YTsgICAgICAgIGZpbGw6IHVybCgjbGluZWFyLWdyYWRpZW50LTEyKTsmI3hhOyAgICAgIH0mI3hhOyYjeGE7ICAgICAgLmNscy0xLCAuY2xzLTIsIC5jbHMtMywgLmNscy00LCAuY2xzLTUsIC5jbHMtNiwgLmNscy03LCAuY2xzLTgsIC5jbHMtOSwgLmNscy0xMCwgLmNscy0xMSwgLmNscy0xMiwgLmNscy0xMywgLmNscy0xNCwgLmNscy0xNSwgLmNscy0xNiB7JiN4YTsgICAgICAgIHN0cm9rZS13aWR0aDogMHB4OyYjeGE7ICAgICAgfSYjeGE7JiN4YTsgICAgICAuY2xzLTIgeyYjeGE7ICAgICAgICBmaWxsOiB1cmwoI2xpbmVhci1ncmFkaWVudCk7JiN4YTsgICAgICB9JiN4YTsmI3hhOyAgICAgIC5jbHMtMyB7JiN4YTsgICAgICAgIGZpbGw6IHVybCgjbGluZWFyLWdyYWRpZW50LTYpOyYjeGE7ICAgICAgfSYjeGE7JiN4YTsgICAgICAuY2xzLTQgeyYjeGE7ICAgICAgICBmaWxsOiB1cmwoI2xpbmVhci1ncmFkaWVudC0xMSk7JiN4YTsgICAgICB9JiN4YTsmI3hhOyAgICAgIC5jbHMtMTcgeyYjeGE7ICAgICAgICBmaWxsOiAjMjMxZjIwOyYjeGE7ICAgICAgICBmb250LWZhbWlseTogUG9wcGlucy1SZWd1bGFyLCBQb3BwaW5zOyYjeGE7ICAgICAgICBmb250LXNpemU6IDIycHg7JiN4YTsgICAgICB9JiN4YTsmI3hhOyAgICAgIC5jbHMtNSB7JiN4YTsgICAgICAgIGZpbGw6IHVybCgjbGluZWFyLWdyYWRpZW50LTUpOyYjeGE7ICAgICAgfSYjeGE7JiN4YTsgICAgICAuY2xzLTE4IHsmI3hhOyAgICAgICAgZmlsbDogbm9uZTsmI3hhOyAgICAgICAgc3Ryb2tlOiAjMjMxZjIwOyYjeGE7ICAgICAgICBzdHJva2UtbWl0ZXJsaW1pdDogMTA7JiN4YTsgICAgICAgIHN0cm9rZS13aWR0aDogMS41cHg7JiN4YTsgICAgICB9JiN4YTsmI3hhOyAgICAgIC5jbHMtNiB7JiN4YTsgICAgICAgIGZpbGw6ICM2MDYxNjE7JiN4YTsgICAgICB9JiN4YTsmI3hhOyAgICAgIC5jbHMtNyB7JiN4YTsgICAgICAgIGZpbGw6ICM5Mzk1OTg7JiN4YTsgICAgICB9JiN4YTsmI3hhOyAgICAgIC5jbHMtOCB7JiN4YTsgICAgICAgIGZpbGw6IHVybCgjbGluZWFyLWdyYWRpZW50LTIpOyYjeGE7ICAgICAgfSYjeGE7JiN4YTsgICAgICAuY2xzLTkgeyYjeGE7ICAgICAgICBmaWxsOiB1cmwoI2xpbmVhci1ncmFkaWVudC03KTsmI3hhOyAgICAgIH0mI3hhOyYjeGE7ICAgICAgLmNscy0xMCB7JiN4YTsgICAgICAgIGZpbGw6IHVybCgjbGluZWFyLWdyYWRpZW50LTMpOyYjeGE7ICAgICAgfSYjeGE7JiN4YTsgICAgICAuY2xzLTExIHsmI3hhOyAgICAgICAgZmlsbDogI2YyOWM0OTsmI3hhOyAgICAgIH0mI3hhOyYjeGE7ICAgICAgLmNscy0xMiB7JiN4YTsgICAgICAgIGZpbGw6IHVybCgjbGluZWFyLWdyYWRpZW50LTkpOyYjeGE7ICAgICAgfSYjeGE7JiN4YTsgICAgICAuY2xzLTEzIHsmI3hhOyAgICAgICAgZmlsbDogdXJsKCNsaW5lYXItZ3JhZGllbnQtOCk7JiN4YTsgICAgICB9JiN4YTsmI3hhOyAgICAgIC5jbHMtMTQgeyYjeGE7ICAgICAgICBmaWxsOiAjNDQ4MjNkOyYjeGE7ICAgICAgfSYjeGE7JiN4YTsgICAgICAuY2xzLTE1IHsmI3hhOyAgICAgICAgZmlsbDogdXJsKCNsaW5lYXItZ3JhZGllbnQtMTApOyYjeGE7ICAgICAgfSYjeGE7JiN4YTsgICAgICAuY2xzLTE2IHsmI3hhOyAgICAgICAgZmlsbDogdXJsKCNsaW5lYXItZ3JhZGllbnQtNCk7JiN4YTsgICAgICB9JiN4YTsgICAgPC9zdHlsZT4mI3hhOyAgICA8bGluZWFyR3JhZGllbnQgZ3JhZGllbnRVbml0cz0idXNlclNwYWNlT25Vc2UiIHkyPSIzMDcuMTgiIHgyPSI2NTUuNjYiIHkxPSIxOTEuMDIiIHgxPSIxNjQuNjUiIGlkPSJsaW5lYXItZ3JhZGllbnQiPiYjeGE7ICAgICAgPHN0b3Agc3RvcC1jb2xvcj0iIzFjNzViYyIgb2Zmc2V0PSIwIi8+JiN4YTsgICAgICA8c3RvcCBzdG9wLWNvbG9yPSIjMDBhZWVmIiBvZmZzZXQ9IjEiLz4mI3hhOyAgICA8L2xpbmVhckdyYWRpZW50PiYjeGE7ICAgIDxsaW5lYXJHcmFkaWVudCB4bGluazpocmVmPSIjbGluZWFyLWdyYWRpZW50IiB5Mj0iMTc4LjA5IiB4Mj0iNjg2LjIiIHkxPSI2MS45NCIgeDE9IjE5NS4xOCIgaWQ9ImxpbmVhci1ncmFkaWVudC0yIi8+JiN4YTsgICAgPGxpbmVhckdyYWRpZW50IHhsaW5rOmhyZWY9IiNsaW5lYXItZ3JhZGllbnQiIHkyPSIxMjUuMzIiIHgyPSI1MTIuOTgiIHkxPSIxMTguNDMiIHgxPSI0ODEuNzMiIGlkPSJsaW5lYXItZ3JhZGllbnQtMyIvPiYjeGE7ICAgIDxsaW5lYXJHcmFkaWVudCB4bGluazpocmVmPSIjbGluZWFyLWdyYWRpZW50IiB5Mj0iMTgxLjA1IiB4Mj0iNDQwLjI0IiB5MT0iMTgwLjMyIiB4MT0iNDM2LjkzIiBpZD0ibGluZWFyLWdyYWRpZW50LTQiLz4mI3hhOyAgICA8bGluZWFyR3JhZGllbnQgeGxpbms6aHJlZj0iI2xpbmVhci1ncmFkaWVudCIgeTI9IjI0NCIgeDI9Ijc1MS41OCIgeTE9IjEyMS43MiIgeDE9IjE5Ny4yNCIgaWQ9ImxpbmVhci1ncmFkaWVudC01Ii8+JiN4YTsgICAgPGxpbmVhckdyYWRpZW50IHhsaW5rOmhyZWY9IiNsaW5lYXItZ3JhZGllbnQiIHkyPSIzMDAuNyIgeDI9IjU3Ni40OSIgeTE9IjE3NS44MiIgeDE9IjIwOS40NSIgaWQ9ImxpbmVhci1ncmFkaWVudC02Ii8+JiN4YTsgICAgPGxpbmVhckdyYWRpZW50IGdyYWRpZW50VW5pdHM9InVzZXJTcGFjZU9uVXNlIiB5Mj0iMjQzLjQxIiB4Mj0iNTk1Ljk4IiB5MT0iMTE4LjU0IiB4MT0iMjI4Ljk1IiBpZD0ibGluZWFyLWdyYWRpZW50LTciPiYjeGE7ICAgICAgPHN0b3Agc3RvcC1jb2xvcj0iIzFjNzViYyIgb2Zmc2V0PSIuMDUiLz4mI3hhOyAgICAgIDxzdG9wIHN0b3AtY29sb3I9IiMwMGFlZWYiIG9mZnNldD0iMSIvPiYjeGE7ICAgIDwvbGluZWFyR3JhZGllbnQ+JiN4YTsgICAgPGxpbmVhckdyYWRpZW50IHhsaW5rOmhyZWY9IiNsaW5lYXItZ3JhZGllbnQiIHkyPSIxNzMuMjkiIHgyPSI1ODUuOTgiIHkxPSIxNDMuNjEiIHgxPSI0NjAuNTIiIGlkPSJsaW5lYXItZ3JhZGllbnQtOCIvPiYjeGE7ICAgIDxsaW5lYXJHcmFkaWVudCB4bGluazpocmVmPSIjbGluZWFyLWdyYWRpZW50IiB5Mj0iOTIuNjciIHgyPSI2MDcuMDciIHkxPSI1Ni4yNCIgeDE9IjQ1My4wNyIgaWQ9ImxpbmVhci1ncmFkaWVudC05Ii8+JiN4YTsgICAgPGxpbmVhckdyYWRpZW50IHhsaW5rOmhyZWY9IiNsaW5lYXItZ3JhZGllbnQiIHkyPSI5NC40MSIgeDI9IjUxMC4zMiIgeTE9IjY0LjczIiB4MT0iMzg0Ljg1IiBpZD0ibGluZWFyLWdyYWRpZW50LTEwIi8+JiN4YTsgICAgPGxpbmVhckdyYWRpZW50IHhsaW5rOmhyZWY9IiNsaW5lYXItZ3JhZGllbnQiIHkyPSIxODYuMzUiIHgyPSI1MTYuMjciIHkxPSIxNDQuMzYiIHgxPSIzMzguNzciIGlkPSJsaW5lYXItZ3JhZGllbnQtMTEiLz4mI3hhOyAgICA8bGluZWFyR3JhZGllbnQgeGxpbms6aHJlZj0iI2xpbmVhci1ncmFkaWVudCIgeTI9IjE5Mi40NSIgeDI9IjU0OS43OCIgeTE9IjE2Mi41MSIgeDE9IjQyMy4yNSIgaWQ9ImxpbmVhci1ncmFkaWVudC0xMiIvPiYjeGE7ICA8L2RlZnM+JiN4YTsgIDxnPiYjeGE7ICAgIDxnPiYjeGE7ICAgICAgPGc+JiN4YTsgICAgICAgIDxwYXRoIGQ9Im04NS42NiwzMzMuODJjLS41LDEuMTUtMS4xNywyLjE2LTIuMDQsMy4wMi0uODYuODYtMS44NywxLjU0LTMuMDIsMi4wNC0xLjE1LjQ5LTIuMzkuNzQtMy43Ljc0aC0yLjc1Yy0xLjMxLDAtMi41NS0uMjUtMy43MS0uNzQtMS4xNi0uNDktMi4xNy0xLjE4LTMuMDQtMi4wNC0uODYtLjg2LTEuNTQtMS44Ny0yLjA0LTMuMDItLjUtMS4xNS0uNzQtMi4zOS0uNzQtMy43di0yMC43OWMwLTEuMzEuMjUtMi41NS43NC0zLjcuNDktMS4xNSwxLjE3LTIuMTYsMi4wNC0zLjAyLjg2LS44NiwxLjg4LTEuNTQsMy4wNC0yLjA0LDEuMTYtLjQ5LDIuNC0uNzQsMy43MS0uNzRoMi43NWMxLjMxLDAsMi41NS4yNSwzLjcuNzQsMS4xNS41LDIuMTYsMS4xOCwzLjAyLDIuMDQuODYuODYsMS41NCwxLjg3LDIuMDQsMy4wMi40OSwxLjE1Ljc0LDIuMzkuNzQsMy43djIwLjc5YzAsMS4zMS0uMjUsMi41NS0uNzQsMy43Wm0tMi43NC0yNC40OWMwLS44Ni0uMTYtMS42Ny0uNDktMi40MnMtLjc3LTEuNC0xLjMyLTEuOTZjLS41Ni0uNTYtMS4yMS0xLTEuOTYtMS4zMi0uNzUtLjMyLTEuNTUtLjQ5LTIuNDItLjQ5aC0yLjQzYy0uODYsMC0xLjY3LjE2LTIuNDIuNDktLjc1LjMyLTEuNC43Ni0xLjk3LDEuMzItLjU3LjU2LTEuMDEsMS4yMS0xLjM0LDEuOTZzLS40OSwxLjU1LS40OSwyLjQydjIwLjc5YzAsLjg2LjE2LDEuNjcuNDksMi40MnMuNzcsMS40LDEuMzQsMS45N2MuNTcuNTcsMS4yMiwxLjAxLDEuOTcsMS4zNC43NS4zMiwxLjU1LjQ5LDIuNDIuNDloMi40M2MuODYsMCwxLjY3LS4xNiwyLjQyLS40OS43NS0uMzIsMS40LS43NywxLjk2LTEuMzQuNTYtLjU3LDEtMS4yMiwxLjMyLTEuOTdzLjQ5LTEuNTUuNDktMi40MnYtMjAuNzlaIiBjbGFzcz0iY2xzLTYiLz4mI3hhOyAgICAgICAgPHBhdGggZD0ibTExMC4zMywzMzQuNjVjLS40Mi45OS0xLDEuODUtMS43NCwyLjU5LS43NC43NC0xLjYsMS4zMi0yLjU5LDEuNzQtLjk5LjQyLTIuMDQuNjMtMy4xNi42M2gtLjg0Yy0xLjI0LDAtMi4zOS0uMjUtMy40Ni0uNzZzLTEuOTctMS4yMS0yLjczLTIuMXYxMy4zOWgtMy4zMnYtMzguNzJoMS4xMWwxLjgxLDIuODFjLjc2LTEuMDMsMS43LTEuODQsMi44NS0yLjQ0LDEuMTQtLjYsMi4zOS0uOSwzLjc0LS45aC44NGMxLjEyLDAsMi4xNy4yMSwzLjE2LjYzczEuODUsMSwyLjU5LDEuNzRjLjc0Ljc0LDEuMzIsMS42LDEuNzQsMi41OXMuNjMsMi4wNC42MywzLjE2djEyLjQ3YzAsMS4xMi0uMjEsMi4xNy0uNjMsMy4xNlptLTIuNjktMTUuODJjMC0uNjctLjEzLTEuMjktLjM4LTEuODgtLjI1LS41OC0uNTktMS4wOS0xLjAzLTEuNTMtLjQzLS40My0uOTQtLjc3LTEuNTMtMS4wMy0uNTktLjI1LTEuMjEtLjM4LTEuODgtLjM4aC0yLjIxYy0uNjcsMC0xLjI5LjEzLTEuODguMzhzLTEuMDkuNTktMS41MywxLjAzYy0uNDMuNDMtLjc3Ljk0LTEuMDMsMS41My0uMjUuNTgtLjM4LDEuMjEtLjM4LDEuODh2MTIuODVjMCwuNjcuMTMsMS4yOS4zOCwxLjg4LjI1LjU5LjU5LDEuMDksMS4wMywxLjUzLjQzLjQzLjk0Ljc3LDEuNTMsMS4wM3MxLjIxLjM4LDEuODguMzhoMi4yMWMuNjcsMCwxLjI5LS4xMywxLjg4LS4zOC41OC0uMjUsMS4wOS0uNTksMS41My0xLjAzcy43Ny0uOTQsMS4wMy0xLjUzYy4yNS0uNTguMzgtMS4yMS4zOC0xLjg4di0xMi44NVoiIGNsYXNzPSJjbHMtNiIvPiYjeGE7ICAgICAgICA8cGF0aCBkPSJtMTM0LjM0LDMzNC42NWMtLjQyLjk5LTEsMS44NS0xLjc0LDIuNTktLjc0Ljc0LTEuNiwxLjMyLTIuNTksMS43NC0uOTkuNDItMi4wNC42My0zLjE2LjYzaC0yLjIxYy0xLjEyLDAtMi4xNy0uMjEtMy4xNi0uNjMtLjk5LS40Mi0xLjg1LTEtMi41OS0xLjc0LS43NC0uNzQtMS4zMi0xLjYtMS43NC0yLjU5LS40Mi0uOTktLjYzLTIuMDQtLjYzLTMuMTZ2LTEyLjQ3YzAtMS4xMi4yMS0yLjE3LjYzLTMuMTYuNDItLjk5LDEtMS44NSwxLjc0LTIuNTkuNzQtLjc0LDEuNi0xLjMyLDIuNTktMS43NHMyLjA0LS42MywzLjE2LS42M2gyLjIxYzEuMTIsMCwyLjE3LjIxLDMuMTYuNjNzMS44NSwxLDIuNTksMS43NGMuNzQuNzQsMS4zMiwxLjYsMS43NCwyLjU5cy42MywyLjA0LjYzLDMuMTZ2Ni41MWgtMTUuMTV2Ni4xNmMwLC42Ny4xMywxLjI5LjM4LDEuODguMjUuNTkuNTksMS4wOSwxLjAzLDEuNTMuNDMuNDMuOTQuNzcsMS41MywxLjAzczEuMjEuMzgsMS44OC4zOGgyLjIxYy42NywwLDEuMjktLjEzLDEuODgtLjM4LjU4LS4yNSwxLjA5LS41OSwxLjUzLTEuMDNzLjc3LS45NCwxLjAzLTEuNTNjLjI1LS41OC4zOC0xLjIxLjM4LTEuODh2LTEuODRsMy4zMi41NHYxLjExYzAsMS4xMi0uMjEsMi4xNy0uNjMsMy4xNlptLTIuNjktMTUuODJjMC0uNjctLjEzLTEuMjktLjM4LTEuODgtLjI1LS41OC0uNTktMS4wOS0xLjAzLTEuNTMtLjQzLS40My0uOTQtLjc3LTEuNTMtMS4wMy0uNTktLjI1LTEuMjEtLjM4LTEuODgtLjM4aC0yLjIxYy0uNjcsMC0xLjI5LjEzLTEuODguMzhzLTEuMDkuNTktMS41MywxLjAzYy0uNDMuNDMtLjc3Ljk0LTEuMDMsMS41My0uMjUuNTgtLjM4LDEuMjEtLjM4LDEuODh2NC4xaDExLjgydi00LjFaIiBjbGFzcz0iY2xzLTYiLz4mI3hhOyAgICAgICAgPHBhdGggZD0ibTE1NS42NSwzMzkuMDh2LTIwLjI1YzAtLjY3LS4xMy0xLjI5LS4zOC0xLjg4LS4yNS0uNTgtLjU5LTEuMDktMS4wMy0xLjUzLS40My0uNDMtLjk0LS43Ny0xLjUzLTEuMDMtLjU5LS4yNS0xLjIxLS4zOC0xLjg4LS4zOGgtMi4yMWMtLjY3LDAtMS4yOS4xMy0xLjg4LjM4cy0xLjA5LjU5LTEuNTMsMS4wM2MtLjQzLjQzLS43Ny45NC0xLjAzLDEuNTMtLjI1LjU4LS4zOCwxLjIxLS4zOCwxLjg4djIwLjI1aC0zLjMydi0yNy42NWgxLjExbDEuODEsMi44MWMuNzYtMS4wMywxLjctMS44NCwyLjg1LTIuNDQsMS4xNC0uNiwyLjM5LS45LDMuNzQtLjloLjg0YzEuMTIsMCwyLjE3LjIxLDMuMTYuNjNzMS44NSwxLDIuNTksMS43NGMuNzQuNzQsMS4zMiwxLjYsMS43NCwyLjU5cy42MywyLjA0LjYzLDMuMTZ2MjAuMDZoLTMuMzJaIiBjbGFzcz0iY2xzLTYiLz4mI3hhOyAgICAgICAgPHBhdGggZD0ibTE5Ny4xOCwzMzkuMDhsLTE2LjE0LTI4LjE5LS4zMi0xLjY3djI5Ljg2aC0zLjQ4di0zOC43MWgxLjgxbDE2LjE0LDI4LjIxLjM1LDEuNjV2LTI5Ljg2aDMuNDh2MzguNzFoLTEuODRaIiBjbGFzcz0iY2xzLTYiLz4mI3hhOyAgICAgICAgPHBhdGggZD0ibTIyMi45NSwzMzQuNjVjLS40Mi45OS0xLDEuODUtMS43NCwyLjU5LS43NC43NC0xLjYsMS4zMi0yLjU5LDEuNzQtLjk5LjQyLTIuMDQuNjMtMy4xNi42M2gtMi4yMWMtMS4xMiwwLTIuMTctLjIxLTMuMTYtLjYzLS45OS0uNDItMS44NS0xLTIuNTktMS43NC0uNzQtLjc0LTEuMzItMS42LTEuNzQtMi41OS0uNDItLjk5LS42My0yLjA0LS42My0zLjE2di0xMi40N2MwLTEuMTIuMjEtMi4xNy42My0zLjE2LjQyLS45OSwxLTEuODUsMS43NC0yLjU5Ljc0LS43NCwxLjYtMS4zMiwyLjU5LTEuNzRzMi4wNC0uNjMsMy4xNi0uNjNoMi4yMWMxLjEyLDAsMi4xNy4yMSwzLjE2LjYzczEuODUsMSwyLjU5LDEuNzRjLjc0Ljc0LDEuMzIsMS42LDEuNzQsMi41OXMuNjMsMi4wNC42MywzLjE2djYuNTFoLTE1LjE1djYuMTZjMCwuNjcuMTMsMS4yOS4zOCwxLjg4LjI1LjU5LjU5LDEuMDksMS4wMywxLjUzLjQzLjQzLjk0Ljc3LDEuNTMsMS4wM3MxLjIxLjM4LDEuODguMzhoMi4yMWMuNjcsMCwxLjI5LS4xMywxLjg4LS4zOC41OC0uMjUsMS4wOS0uNTksMS41My0xLjAzcy43Ny0uOTQsMS4wMy0xLjUzYy4yNS0uNTguMzgtMS4yMS4zOC0xLjg4di0xLjg0bDMuMzIuNTR2MS4xMWMwLDEuMTItLjIxLDIuMTctLjYzLDMuMTZabS0yLjY5LTE1LjgyYzAtLjY3LS4xMy0xLjI5LS4zOC0xLjg4LS4yNS0uNTgtLjU5LTEuMDktMS4wMy0xLjUzLS40My0uNDMtLjk0LS43Ny0xLjUzLTEuMDMtLjU5LS4yNS0xLjIxLS4zOC0xLjg4LS4zOGgtMi4yMWMtLjY3LDAtMS4yOS4xMy0xLjg4LjM4cy0xLjA5LjU5LTEuNTMsMS4wM2MtLjQzLjQzLS43Ny45NC0xLjAzLDEuNTMtLjI1LjU4LS4zOCwxLjIxLS4zOCwxLjg4djQuMWgxMS44MnYtNC4xWiIgY2xhc3M9ImNscy02Ii8+JiN4YTsgICAgICAgIDxwYXRoIGQ9Im0yMzkuMTksMzM5LjA4Yy0xLjAxLDAtMS45Ni0uMTktMi44NS0uNTdzLTEuNjYtLjktMi4zMi0xLjU3LTEuMTgtMS40NC0xLjU3LTIuMzJjLS4zOS0uODgtLjU4LTEuODMtLjU4LTIuODN2LTE3LjJoLTQuOTd2LTMuMTZoNC45N3YtNi42NGwzLjMyLS41NHY3LjE4aDcuMDJ2My4xNmgtNy4wMnYxNy4zNmMwLC41Ni4xLDEuMDguMzEsMS41NS4yMS40OC40OS45Ljg1LDEuMjUuMzYuMzYuNzguNjQsMS4yNy44NS40OS4yMSwxLjAxLjMxLDEuNTcuMzFoMy4wMnYzLjE2aC0zLjAyWiIgY2xhc3M9ImNscy02Ii8+JiN4YTsgICAgICAgIDxwYXRoIGQ9Im0yNzAuNDgsMzM5LjA4aC0xLjgxbC02LjQ4LTIwLjg0LS4xMS0xLjQzLS4xMSwxLjQzLTYuNDgsMjAuODRoLTEuODRsLTkuMjMtMjcuNjVoMy4zN2w2LjU5LDIwLjkuMTEsMS40My4xMS0xLjQzLDYuNDgtMjAuOWgybDYuNDUsMjAuOS4xMSwxLjQzLjExLTEuNDMsNi41OS0yMC45aDMuMzdsLTkuMjMsMjcuNjVaIiBjbGFzcz0iY2xzLTYiLz4mI3hhOyAgICAgICAgPHBhdGggZD0ibTMwMC4zMiwzMzQuNjVjLS40Mi45OS0xLDEuODUtMS43NCwyLjU5LS43NC43NC0xLjYsMS4zMi0yLjU5LDEuNzQtLjk5LjQyLTIuMDQuNjMtMy4xNi42M2gtMi4yMWMtMS4xMiwwLTIuMTctLjIxLTMuMTYtLjYzLS45OS0uNDItMS44NS0xLTIuNTktMS43NC0uNzQtLjc0LTEuMzItMS42LTEuNzQtMi41OS0uNDItLjk5LS42My0yLjA0LS42My0zLjE2di0xMi40N2MwLTEuMTIuMjEtMi4xNy42My0zLjE2LjQyLS45OSwxLTEuODUsMS43NC0yLjU5Ljc0LS43NCwxLjYtMS4zMiwyLjU5LTEuNzRzMi4wNC0uNjMsMy4xNi0uNjNoMi4yMWMxLjEyLDAsMi4xNy4yMSwzLjE2LjYzLjk5LjQyLDEuODUsMSwyLjU5LDEuNzQuNzQuNzQsMS4zMiwxLjYsMS43NCwyLjU5cy42MywyLjA0LjYzLDMuMTZ2MTIuNDdjMCwxLjEyLS4yMSwyLjE3LS42MywzLjE2Wm0tMi42OS0xNS44MmMwLS42Ny0uMTMtMS4yOS0uMzgtMS44OC0uMjUtLjU4LS41OS0xLjA5LTEuMDMtMS41My0uNDMtLjQzLS45NC0uNzctMS41My0xLjAzLS41OS0uMjUtMS4yMS0uMzgtMS44OC0uMzhoLTIuMjFjLS42NywwLTEuMjkuMTMtMS44OC4zOHMtMS4wOS41OS0xLjUzLDEuMDNjLS40My40My0uNzcuOTQtMS4wMywxLjUzLS4yNS41OC0uMzgsMS4yMS0uMzgsMS44OHYxMi44NWMwLC42Ny4xMywxLjI5LjM4LDEuODguMjUuNTkuNTksMS4wOSwxLjAzLDEuNTMuNDMuNDMuOTQuNzcsMS41MywxLjAzczEuMjEuMzgsMS44OC4zOGgyLjIxYy42NywwLDEuMjktLjEzLDEuODgtLjM4LjU4LS4yNSwxLjA5LS41OSwxLjUzLTEuMDNzLjc3LS45NCwxLjAzLTEuNTNjLjI1LS41OC4zOC0xLjIxLjM4LTEuODh2LTEyLjg1WiIgY2xhc3M9ImNscy02Ii8+JiN4YTsgICAgICAgIDxwYXRoIGQ9Im0zMTQuNjIsMzE0LjU5Yy0uNjcsMC0xLjI5LjEzLTEuODguMzhzLTEuMDkuNTktMS41MywxLjAzYy0uNDMuNDMtLjc3Ljk0LTEuMDMsMS41My0uMjUuNTgtLjM4LDEuMjEtLjM4LDEuODh2MTkuNjhoLTMuMzJ2LTI3LjY1aDEuMTFsMS44MSwyLjgxYy43Ni0xLjAzLDEuNy0xLjg0LDIuODUtMi40NCwxLjE0LS42LDIuMzktLjksMy43NC0uOWgxLjk0djMuN2gtMy4zMloiIGNsYXNzPSJjbHMtNiIvPiYjeGE7ICAgICAgICA8cGF0aCBkPSJtMzIyLjM3LDMzOS4wOHYtMzguNzFoMy4zMnYzOC43MWgtMy4zMlptMTUuMjUsMGwtMTEuMjgtMTMuODIsMTEuMjgtMTMuODJoNC4zMmwtMTEuNTUsMTMuODIsMTEuNTUsMTMuODJoLTQuMzJaIiBjbGFzcz0iY2xzLTYiLz4mI3hhOyAgICAgICAgPHBhdGggZD0ibTM2Ni4zOCwzMDMuNTJjLS41NiwwLTEuMDguMS0xLjU1LjMxLS40OC4yMS0uOS40OS0xLjI2Ljg1LS4zNi4zNi0uNjQuNzgtLjg1LDEuMjctLjIxLjQ5LS4zMSwxLjAxLS4zMSwxLjU3djMuOTFoNi40NXYzLjE2aC02LjQ1djI0LjQ5aC0zLjMydi0yNC40OWgtNC45OXYtMy4xNmg0Ljk5di0zLjc1YzAtMS4wMS4xOS0xLjk2LjU3LTIuODUuMzgtLjg5LjktMS42NywxLjU3LTIuMzQuNjctLjY3LDEuNDQtMS4xOSwyLjMyLTEuNTcuODgtLjM4LDEuODMtLjU3LDIuODMtLjU3aDMuMDV2My4xNmgtMy4wNVoiIGNsYXNzPSJjbHMtNiIvPiYjeGE7ICAgICAgICA8cGF0aCBkPSJtMzg5LjQ4LDMzNC42NWMtLjQyLjk5LTEsMS44NS0xLjc0LDIuNTktLjc0Ljc0LTEuNiwxLjMyLTIuNTksMS43NC0uOTkuNDItMi4wNC42My0zLjE2LjYzaC0yLjIxYy0xLjEyLDAtMi4xNy0uMjEtMy4xNi0uNjMtLjk5LS40Mi0xLjg1LTEtMi41OS0xLjc0LS43NC0uNzQtMS4zMi0xLjYtMS43NC0yLjU5LS40Mi0uOTktLjYzLTIuMDQtLjYzLTMuMTZ2LTEyLjQ3YzAtMS4xMi4yMS0yLjE3LjYzLTMuMTYuNDItLjk5LDEtMS44NSwxLjc0LTIuNTkuNzQtLjc0LDEuNi0xLjMyLDIuNTktMS43NHMyLjA0LS42MywzLjE2LS42M2gyLjIxYzEuMTIsMCwyLjE3LjIxLDMuMTYuNjNzMS44NSwxLDIuNTksMS43NGMuNzQuNzQsMS4zMiwxLjYsMS43NCwyLjU5cy42MywyLjA0LjYzLDMuMTZ2MTIuNDdjMCwxLjEyLS4yMSwyLjE3LS42MywzLjE2Wm0tMi42OS0xNS44MmMwLS42Ny0uMTMtMS4yOS0uMzgtMS44OC0uMjUtLjU4LS41OS0xLjA5LTEuMDMtMS41My0uNDMtLjQzLS45NC0uNzctMS41My0xLjAzLS41OS0uMjUtMS4yMS0uMzgtMS44OC0uMzhoLTIuMjFjLS42NywwLTEuMjkuMTMtMS44OC4zOHMtMS4wOS41OS0xLjUzLDEuMDNjLS40My40My0uNzcuOTQtMS4wMywxLjUzLS4yNS41OC0uMzgsMS4yMS0uMzgsMS44OHYxMi44NWMwLC42Ny4xMywxLjI5LjM4LDEuODguMjUuNTkuNTksMS4wOSwxLjAzLDEuNTMuNDMuNDMuOTQuNzcsMS41MywxLjAzczEuMjEuMzgsMS44OC4zOGgyLjIxYy42NywwLDEuMjktLjEzLDEuODgtLjM4LjU4LS4yNSwxLjA5LS41OSwxLjUzLTEuMDNzLjc3LS45NCwxLjAzLTEuNTNjLjI1LS41OC4zOC0xLjIxLjM4LTEuODh2LTEyLjg1WiIgY2xhc3M9ImNscy02Ii8+JiN4YTsgICAgICAgIDxwYXRoIGQ9Im00MDMuNzcsMzE0LjU5Yy0uNjcsMC0xLjI5LjEzLTEuODguMzhzLTEuMDkuNTktMS41MywxLjAzYy0uNDMuNDMtLjc3Ljk0LTEuMDMsMS41My0uMjUuNTgtLjM4LDEuMjEtLjM4LDEuODh2MTkuNjhoLTMuMzJ2LTI3LjY1aDEuMTFsMS44MSwyLjgxYy43Ni0xLjAzLDEuNy0xLjg0LDIuODUtMi40NCwxLjE0LS42LDIuMzktLjksMy43NC0uOWgxLjk0djMuN2gtMy4zMloiIGNsYXNzPSJjbHMtNiIvPiYjeGE7ICAgICAgICA8cGF0aCBkPSJtNDQ0LjE4LDMzMy4yOGMtLjQ5LDEuMTUtMS4xNywyLjE2LTIuMDQsMy4wMnMtMS44OCwxLjU0LTMuMDQsMi4wNGMtMS4xNi40OS0yLjQuNzQtMy43MS43NGgtMTIuMjZ2LTM4LjcxaDEyLjI2YzEuMzEsMCwyLjU1LjI1LDMuNzEuNzQsMS4xNi40OSwyLjE3LDEuMTcsMy4wNCwyLjA0Ljg2Ljg2LDEuNTQsMS44OCwyLjA0LDMuMDRzLjc0LDIuNC43NCwzLjcxdjE5LjY4YzAsMS4zMS0uMjUsMi41NS0uNzQsMy43Wm0tMi43NC0yMy4zOGMwLS44Ni0uMTYtMS42Ny0uNDktMi40Mi0uMzItLjc1LS43Ny0xLjQtMS4zNC0xLjk3cy0xLjIyLTEuMDEtMS45Ny0xLjM0LTEuNTUtLjQ5LTIuNDItLjQ5aC04LjYxdjMyLjA3aDguNjFjLjg2LDAsMS42Ny0uMTYsMi40Mi0uNDlzMS40LS43NiwxLjk3LTEuMzJjLjU3LS41NiwxLjAxLTEuMjEsMS4zNC0xLjk2LjMyLS43NS40OS0xLjU1LjQ5LTIuNDJ2LTE5LjY4WiIgY2xhc3M9ImNscy02Ii8+JiN4YTsgICAgICAgIDxwYXRoIGQ9Im00NTAuNzIsMzA0Ljc5di00LjQzaDMuODZ2NC40M2gtMy44NlptLjI3LDM0LjI5di0yNy42NWgzLjMydjI3LjY1aC0zLjMyWiIgY2xhc3M9ImNscy02Ii8+JiN4YTsgICAgICAgIDxwYXRoIGQ9Im00NzkuMDYsMzQ1LjY0Yy0uNDIuOTQtMSwxLjc0LTEuNzQsMi40cy0xLjYsMS4xOC0yLjU5LDEuNTVjLS45OS4zNy0yLjA0LjU1LTMuMTYuNTVoLTEuMzhjLTEuMTIsMC0yLjE3LS4xOS0zLjE2LS41NS0uOTktLjM3LTEuODUtLjg5LTIuNTktMS41NXMtMS4zMi0xLjQ3LTEuNzQtMi40Yy0uNDItLjk0LS42My0xLjk2LS42My0zLjA4di0uMTFjMC0xLjA4LjItMi4wNy41OS0yLjk3LjQtLjkuOTQtMS42OCwxLjYyLTIuMzUtLjg2LS41Mi0xLjU1LTEuMjMtMi4wNi0yLjEycy0uNzctMS44OC0uNzctMi45NmMwLS45Ny4yMS0xLjg4LjYyLTIuNzFzLjk4LTEuNTIsMS43LTIuMDRjLS44Ni0uNzYtMS41NS0xLjY2LTIuMDUtMi43My0uNS0xLjA2LS43Ni0yLjIyLS43Ni0zLjQ4di0yLjA4YzAtMS4xMi4yMS0yLjE3LjYzLTMuMTZzMS0xLjg1LDEuNzQtMi41OWMuNzQtLjc0LDEuNi0xLjMyLDIuNTktMS43NC45OS0uNDIsMi4wNC0uNjMsMy4xNi0uNjNoMS4zOGMxLjM1LDAsMi42LjMsMy43NC45LDEuMTQuNiwyLjA5LDEuNDIsMi44NSwyLjQ0bDEuODEtMi44MWgxLjExdjkuNjdjMCwxLjEyLS4yMSwyLjE3LS42MywzLjE2LS40Mi45OS0xLDEuODUtMS43NCwyLjU5LS43NC43NC0xLjYsMS4zMi0yLjU5LDEuNzQtLjk5LjQyLTIuMDQuNjMtMy4xNi42M2gtNC44MWMtLjM4LDAtLjc0LjA4LTEuMDguMjNzLS42NC4zNi0uOS42MWMtLjI2LjI1LS40Ni41NS0uNjEuOS0uMTQuMzUtLjIyLjcxLS4yMiwxLjA5cy4wNy43NC4yMiwxLjA4Yy4xNC4zNC4zNS42NC42MS45LjI2LjI2LjU2LjQ2LjkuNjFzLjcuMjIsMS4wOC4yMmg0LjU0YzEuMTIsMCwyLjE3LjE5LDMuMTYuNTUuOTkuMzcsMS44NS44OSwyLjU5LDEuNTVzMS4zMiwxLjQ3LDEuNzQsMi40Yy40Mi45NC42MywxLjk2LjYzLDMuMDh2LjExYzAsMS4xMi0uMjEsMi4xNC0uNjMsMy4wOFptLTIuMzktMjYuODFjMC0uNjctLjEzLTEuMjktLjM4LTEuODgtLjI1LS41OC0uNi0xLjA5LTEuMDQtMS41My0uNDQtLjQzLS45NS0uNzctMS41NC0xLjAzcy0xLjIxLS4zOC0xLjg4LS4zOGgtMi43NWMtLjY3LDAtMS4yOS4xMy0xLjg4LjM4cy0xLjA5LjU5LTEuNTIsMS4wMy0uNzcuOTQtMS4wMywxLjUzLS4zOCwxLjIxLS4zOCwxLjg4djIuNDZjMCwuNjcuMTMsMS4yOS4zOCwxLjg4cy41OSwxLjA5LDEuMDMsMS41My45NC43NywxLjUyLDEuMDNjLjU4LjI1LDEuMjEuMzgsMS44OC4zOGgyLjc1Yy42NywwLDEuMjktLjEzLDEuODgtLjM4LjU4LS4yNSwxLjEtLjU5LDEuNTQtMS4wMy40NC0uNDMuNzktLjk0LDEuMDQtMS41My4yNS0uNTguMzgtMS4yMS4zOC0xLjg4di0yLjQ2Wm0tLjE0LDIzLjQ2YzAtLjY3LS4xMy0xLjI2LS4zOC0xLjgtLjI1LS41My0uNTktLjk4LTEuMDMtMS4zNC0uNDMtLjM2LS45NC0uNjQtMS41Mi0uODQtLjU5LS4yLTEuMjEtLjMtMS44OC0uM2gtMS43Yy0uNjcsMC0xLjI5LjEtMS44OC4zLS41OC4yLTEuMDkuNDgtMS41My44NHMtLjc3LjgxLTEuMDMsMS4zNGMtLjI1LjUzLS4zOCwxLjEzLS4zOCwxLjh2LjQzYzAsLjY3LjEzLDEuMjYuMzgsMS43OC4yNS41Mi41OS45NywxLjAzLDEuMzQuNDMuMzcuOTQuNjUsMS41My44NS41OC4yLDEuMjEuMywxLjg4LjNoMS43Yy42NywwLDEuMjktLjEsMS44OC0uMy41OC0uMiwxLjA5LS40OCwxLjUyLS44NS40My0uMzcuNzctLjgxLDEuMDMtMS4zNC4yNS0uNTIuMzgtMS4xMi4zOC0xLjc4di0uNDNaIiBjbGFzcz0iY2xzLTYiLz4mI3hhOyAgICAgICAgPHBhdGggZD0ibTQ4NS44LDMwNC43OXYtNC40M2gzLjg2djQuNDNoLTMuODZabS4yNywzNC4yOXYtMjcuNjVoMy4zMnYyNy42NWgtMy4zMloiIGNsYXNzPSJjbHMtNiIvPiYjeGE7ICAgICAgICA8cGF0aCBkPSJtNTA2LjEsMzM5LjA4Yy0xLjAxLDAtMS45Ni0uMTktMi44NS0uNTdzLTEuNjYtLjktMi4zMi0xLjU3Yy0uNjYtLjY3LTEuMTgtMS40NC0xLjU3LTIuMzItLjM5LS44OC0uNTgtMS44My0uNTgtMi44M3YtMTcuMmgtNC45N3YtMy4xNmg0Ljk3di02LjY0bDMuMzItLjU0djcuMThoNy4wMnYzLjE2aC03LjAydjE3LjM2YzAsLjU2LjEsMS4wOC4zMSwxLjU1LjIxLjQ4LjQ5LjkuODUsMS4yNXMuNzguNjQsMS4yNy44NWMuNDkuMjEsMS4wMS4zMSwxLjU3LjMxaDMuMDJ2My4xNmgtMy4wMloiIGNsYXNzPSJjbHMtNiIvPiYjeGE7ICAgICAgICA8cGF0aCBkPSJtNTMxLjQ4LDMzOS4wOGwtMS44NC0yLjc1Yy0uNzYuOTktMS43LDEuNzktMi44NCwyLjM5LTEuMTMuNi0yLjM4LjktMy43My45aC0uODRjLTEuMTIsMC0yLjE3LS4yMS0zLjE2LS42My0uOTktLjQyLTEuODUtMS0yLjU5LTEuNzQtLjc0LS43NC0xLjMyLTEuNi0xLjc0LTIuNTktLjQyLS45OS0uNjMtMi4wNC0uNjMtMy4xNnYtLjI3YzAtMS4xMi4yMS0yLjE3LjYzLTMuMTYuNDItLjk5LDEtMS44NSwxLjc0LTIuNTlzMS42LTEuMzIsMi41OS0xLjc0Yy45OS0uNDIsMi4wNC0uNjMsMy4xNi0uNjNoNy4wMnYtNC4yN2MwLS42Ny0uMTMtMS4yOS0uMzgtMS44OC0uMjUtLjU4LS41OS0xLjA5LTEuMDMtMS41My0uNDMtLjQzLS45NC0uNzctMS41My0xLjAzcy0xLjIxLS4zOC0xLjg4LS4zOGgtMS45NGMtLjY3LDAtMS4yOS4xMy0xLjg4LjM4LS41OS4yNS0xLjA5LjU5LTEuNTMsMS4wMy0uNDMuNDMtLjc3Ljk0LTEuMDMsMS41M3MtLjM4LDEuMjEtLjM4LDEuODh2MWwtMy4zMi0uNTR2LS4yN2MwLTEuMTIuMjEtMi4xNy42My0zLjE2LjQyLS45OSwxLTEuODUsMS43NC0yLjU5Ljc0LS43NCwxLjYtMS4zMiwyLjU5LTEuNzRzMi4wNC0uNjMsMy4xNi0uNjNoMS45NGMxLjEyLDAsMi4xNy4yMSwzLjE2LjYzczEuODUsMSwyLjU5LDEuNzRjLjc0Ljc0LDEuMzIsMS42LDEuNzQsMi41OXMuNjMsMi4wNC42MywzLjE2djIwLjA2aC0xLjExWm0tMi4yMS0xMy4zOWgtNy4wMmMtLjY3LDAtMS4yOS4xMy0xLjg4LjM4cy0xLjA5LjYtMS41MiwxLjA0Yy0uNDMuNDQtLjc3Ljk1LTEuMDMsMS41NHMtLjM4LDEuMjEtLjM4LDEuODh2MS4xNmMwLC42Ny4xMywxLjI5LjM4LDEuODguMjUuNTkuNTksMS4wOSwxLjAzLDEuNTMuNDMuNDMuOTQuNzcsMS41MiwxLjAzczEuMjEuMzgsMS44OC4zOGgyLjIxYy42NywwLDEuMjktLjEzLDEuODgtLjM4czEuMDktLjU5LDEuNTMtMS4wMy43Ny0uOTQsMS4wMy0xLjUzYy4yNS0uNTguMzgtMS4yMS4zOC0xLjg4di01Ljk5WiIgY2xhc3M9ImNscy02Ii8+JiN4YTsgICAgICAgIDxwYXRoIGQ9Im01MzkuMjMsMzM5LjA4di0zOC43MWgzLjMydjM4LjcxaC0zLjMyWiIgY2xhc3M9ImNscy02Ii8+JiN4YTsgICAgICAgIDxwYXRoIGQ9Im01ODIuMzksMzMzLjgyYy0uNDksMS4xNS0xLjE3LDIuMTYtMi4wNCwzLjAycy0xLjg3LDEuNTQtMy4wMiwyLjA0Yy0xLjE1LjQ5LTIuMzguNzQtMy43Ljc0aC0yLjc1Yy0xLjMxLDAtMi41NS0uMjUtMy43MS0uNzQtMS4xNi0uNDktMi4xNy0xLjE4LTMuMDQtMi4wNC0uODYtLjg2LTEuNTQtMS44Ny0yLjA0LTMuMDItLjQ5LTEuMTUtLjc0LTIuMzktLjc0LTMuN3YtMjAuNzljMC0xLjMxLjI1LTIuNTUuNzQtMy43LjQ5LTEuMTUsMS4xOC0yLjE2LDIuMDQtMy4wMi44Ni0uODYsMS44OC0xLjU0LDMuMDQtMi4wNCwxLjE2LS40OSwyLjQtLjc0LDMuNzEtLjc0aDIuNzVjMS4zMSwwLDIuNTUuMjUsMy43Ljc0LDEuMTUuNSwyLjE2LDEuMTgsMy4wMiwyLjA0Ljg2Ljg2LDEuNTQsMS44NywyLjA0LDMuMDIuNDksMS4xNS43NCwyLjM5Ljc0LDMuN3YxLjU3bC0zLjQ4LjU0di0yLjFjMC0uODYtLjE2LTEuNjctLjQ4LTIuNDJzLS43Ny0xLjQtMS4zMi0xLjk2LTEuMjEtMS0xLjk2LTEuMzItMS41NS0uNDktMi40Mi0uNDloLTIuNDNjLS44NiwwLTEuNjcuMTYtMi40Mi40OXMtMS40Ljc2LTEuOTcsMS4zMmMtLjU3LjU2LTEuMDEsMS4yMS0xLjM0LDEuOTZzLS40OSwxLjU1LS40OSwyLjQydjIwLjc5YzAsLjg2LjE2LDEuNjcuNDksMi40MnMuNzcsMS40LDEuMzQsMS45N2MuNTcuNTcsMS4yMiwxLjAxLDEuOTcsMS4zNHMxLjU1LjQ5LDIuNDIuNDloMi40M2MuODYsMCwxLjY3LS4xNiwyLjQyLS40OXMxLjQtLjc3LDEuOTYtMS4zNCwxLTEuMjIsMS4zMi0xLjk3LjQ4LTEuNTUuNDgtMi40MnYtMi4xMWwzLjQ4LjU3djEuNTRjMCwxLjMxLS4yNSwyLjU1LS43NCwzLjdaIiBjbGFzcz0iY2xzLTYiLz4mI3hhOyAgICAgICAgPHBhdGggZD0ibTYwNi41LDMzNC42NWMtLjQyLjk5LTEsMS44NS0xLjc0LDIuNTktLjc0Ljc0LTEuNiwxLjMyLTIuNTksMS43NHMtMi4wNC42My0zLjE2LjYzaC0yLjIxYy0xLjEyLDAtMi4xNy0uMjEtMy4xNi0uNjMtLjk5LS40Mi0xLjg1LTEtMi41OS0xLjc0LS43NC0uNzQtMS4zMi0xLjYtMS43NC0yLjU5LS40Mi0uOTktLjYzLTIuMDQtLjYzLTMuMTZ2LTEyLjQ3YzAtMS4xMi4yMS0yLjE3LjYzLTMuMTZzMS0xLjg1LDEuNzQtMi41OWMuNzQtLjc0LDEuNi0xLjMyLDIuNTktMS43NC45OS0uNDIsMi4wNC0uNjMsMy4xNi0uNjNoMi4yMWMxLjEyLDAsMi4xNy4yMSwzLjE2LjYzczEuODUsMSwyLjU5LDEuNzRjLjc0Ljc0LDEuMzIsMS42LDEuNzQsMi41OXMuNjMsMi4wNC42MywzLjE2djEyLjQ3YzAsMS4xMi0uMjEsMi4xNy0uNjMsMy4xNlptLTIuNjktMTUuODJjMC0uNjctLjEzLTEuMjktLjM4LTEuODgtLjI1LS41OC0uNTktMS4wOS0xLjAzLTEuNTMtLjQzLS40My0uOTQtLjc3LTEuNTMtMS4wM3MtMS4yMS0uMzgtMS44OC0uMzhoLTIuMjFjLS42NywwLTEuMjkuMTMtMS44OC4zOHMtMS4wOS41OS0xLjUyLDEuMDMtLjc3Ljk0LTEuMDMsMS41My0uMzgsMS4yMS0uMzgsMS44OHYxMi44NWMwLC42Ny4xMywxLjI5LjM4LDEuODguMjUuNTkuNTksMS4wOSwxLjAzLDEuNTMuNDMuNDMuOTQuNzcsMS41MiwxLjAzczEuMjEuMzgsMS44OC4zOGgyLjIxYy42NywwLDEuMjktLjEzLDEuODgtLjM4czEuMDktLjU5LDEuNTMtMS4wMy43Ny0uOTQsMS4wMy0xLjUzYy4yNS0uNTguMzgtMS4yMS4zOC0xLjg4di0xMi44NVoiIGNsYXNzPSJjbHMtNiIvPiYjeGE7ICAgICAgICA8cGF0aCBkPSJtNjQxLjg1LDMzOS4wOHYtMjAuMjVjMC0uNjctLjEzLTEuMjktLjM4LTEuODgtLjI1LS41OC0uNTktMS4wOS0xLjAzLTEuNTMtLjQzLS40My0uOTQtLjc3LTEuNTMtMS4wM3MtMS4yMS0uMzgtMS44OC0uMzhoLTEuNjVjLS42NywwLTEuMjkuMTMtMS44OC4zOHMtMS4xLjU5LTEuNTQsMS4wM2MtLjQ0LjQzLS43OS45NC0xLjA0LDEuNTMtLjI1LjU4LS4zOCwxLjIxLS4zOCwxLjg4djIwLjI1aC0zLjI5di0yMC4yNWMwLS42Ny0uMTMtMS4yOS0uMzgtMS44OHMtLjYtMS4wOS0xLjA0LTEuNTNjLS40NC0uNDMtLjk1LS43Ny0xLjU0LTEuMDNzLTEuMjEtLjM4LTEuODgtLjM4aC0xLjY1Yy0uNjcsMC0xLjI5LjEzLTEuODguMzhzLTEuMDkuNTktMS41MiwxLjAzLS43Ny45NC0xLjAzLDEuNTMtLjM4LDEuMjEtLjM4LDEuODh2MjAuMjVoLTMuMzJ2LTI3LjY1aDEuMTFsMS44MSwyLjgxYy43Ni0xLjAzLDEuNzEtMS44NCwyLjg1LTIuNDQsMS4xNC0uNiwyLjM5LS45LDMuNzQtLjloLjI3YzEuNTcsMCwyLjk4LjM5LDQuMjQsMS4xNiwxLjI2Ljc3LDIuMjMsMS44LDIuOTIsMy4wOC4zNC0uNjMuNzYtMS4yMSwxLjI3LTEuNzMuNS0uNTIsMS4wNi0uOTcsMS42Ny0xLjM0LjYxLS4zNywxLjI4LS42NiwyLS44Ni43Mi0uMjEsMS40Ny0uMzEsMi4yNC0uMzFoLjI3YzEuMTIsMCwyLjE3LjIxLDMuMTYuNjNzMS44NSwxLDIuNTksMS43NGMuNzQuNzQsMS4zMiwxLjYsMS43NCwyLjU5cy42MywyLjA0LjYzLDMuMTZ2MjAuMDZoLTMuMzJaIiBjbGFzcz0iY2xzLTYiLz4mI3hhOyAgICAgICAgPHBhdGggZD0ibTY3OS44OSwzMzkuMDh2LTIwLjI1YzAtLjY3LS4xMy0xLjI5LS4zOC0xLjg4LS4yNS0uNTgtLjU5LTEuMDktMS4wMy0xLjUzLS40My0uNDMtLjk0LS43Ny0xLjUzLTEuMDNzLTEuMjEtLjM4LTEuODgtLjM4aC0xLjY1Yy0uNjcsMC0xLjI5LjEzLTEuODguMzhzLTEuMS41OS0xLjU0LDEuMDNjLS40NC40My0uNzkuOTQtMS4wNCwxLjUzLS4yNS41OC0uMzgsMS4yMS0uMzgsMS44OHYyMC4yNWgtMy4yOXYtMjAuMjVjMC0uNjctLjEzLTEuMjktLjM4LTEuODhzLS42LTEuMDktMS4wNC0xLjUzYy0uNDQtLjQzLS45NS0uNzctMS41NC0xLjAzcy0xLjIxLS4zOC0xLjg4LS4zOGgtMS42NWMtLjY3LDAtMS4yOS4xMy0xLjg4LjM4cy0xLjA5LjU5LTEuNTIsMS4wMy0uNzcuOTQtMS4wMywxLjUzLS4zOCwxLjIxLS4zOCwxLjg4djIwLjI1aC0zLjMydi0yNy42NWgxLjExbDEuODEsMi44MWMuNzYtMS4wMywxLjcxLTEuODQsMi44NS0yLjQ0LDEuMTQtLjYsMi4zOS0uOSwzLjc0LS45aC4yN2MxLjU3LDAsMi45OC4zOSw0LjI0LDEuMTYsMS4yNi43NywyLjIzLDEuOCwyLjkyLDMuMDguMzQtLjYzLjc2LTEuMjEsMS4yNy0xLjczLjUtLjUyLDEuMDYtLjk3LDEuNjctMS4zNC42MS0uMzcsMS4yOC0uNjYsMi0uODYuNzItLjIxLDEuNDctLjMxLDIuMjQtLjMxaC4yN2MxLjEyLDAsMi4xNy4yMSwzLjE2LjYzczEuODUsMSwyLjU5LDEuNzRjLjc0Ljc0LDEuMzIsMS42LDEuNzQsMi41OXMuNjMsMi4wNC42MywzLjE2djIwLjA2aC0zLjMyWiIgY2xhc3M9ImNscy02Ii8+JiN4YTsgICAgICAgIDxwYXRoIGQ9Im03MDYuNTgsMzM0LjY1Yy0uNDIuOTktMSwxLjg1LTEuNzQsMi41OS0uNzQuNzQtMS42LDEuMzItMi41OSwxLjc0LS45OS40Mi0yLjA0LjYzLTMuMTYuNjNoLTIuMjFjLTEuMTIsMC0yLjE3LS4yMS0zLjE2LS42My0uOTktLjQyLTEuODUtMS0yLjU5LTEuNzQtLjc0LS43NC0xLjMyLTEuNi0xLjc0LTIuNTlzLS42My0yLjA0LS42My0zLjE2di0xMi40N2MwLTEuMTIuMjEtMi4xNy42My0zLjE2czEtMS44NSwxLjc0LTIuNTljLjc0LS43NCwxLjYtMS4zMiwyLjU5LTEuNzQuOTktLjQyLDIuMDQtLjYzLDMuMTYtLjYzaDIuMjFjMS4xMiwwLDIuMTcuMjEsMy4xNi42M3MxLjg1LDEsMi41OSwxLjc0Yy43NC43NCwxLjMyLDEuNiwxLjc0LDIuNTlzLjYzLDIuMDQuNjMsMy4xNnY2LjUxaC0xNS4xNXY2LjE2YzAsLjY3LjEzLDEuMjkuMzgsMS44OC4yNS41OS41OSwxLjA5LDEuMDMsMS41My40My40My45NC43NywxLjUyLDEuMDNzMS4yMS4zOCwxLjg4LjM4aDIuMjFjLjY3LDAsMS4yOS0uMTMsMS44OC0uMzhzMS4wOS0uNTksMS41My0xLjAzLjc3LS45NCwxLjAzLTEuNTNjLjI1LS41OC4zOC0xLjIxLjM4LTEuODh2LTEuODRsMy4zMi41NHYxLjExYzAsMS4xMi0uMjEsMi4xNy0uNjMsMy4xNlptLTIuNjktMTUuODJjMC0uNjctLjEzLTEuMjktLjM4LTEuODgtLjI1LS41OC0uNTktMS4wOS0xLjAzLTEuNTMtLjQzLS40My0uOTQtLjc3LTEuNTMtMS4wM3MtMS4yMS0uMzgtMS44OC0uMzhoLTIuMjFjLS42NywwLTEuMjkuMTMtMS44OC4zOHMtMS4wOS41OS0xLjUyLDEuMDMtLjc3Ljk0LTEuMDMsMS41My0uMzgsMS4yMS0uMzgsMS44OHY0LjFoMTEuODN2LTQuMVoiIGNsYXNzPSJjbHMtNiIvPiYjeGE7ICAgICAgICA8cGF0aCBkPSJtNzIwLjg4LDMxNC41OWMtLjY3LDAtMS4yOS4xMy0xLjg4LjM4cy0xLjA5LjU5LTEuNTIsMS4wMy0uNzcuOTQtMS4wMywxLjUzLS4zOCwxLjIxLS4zOCwxLjg4djE5LjY4aC0zLjMydi0yNy42NWgxLjExbDEuODEsMi44MWMuNzYtMS4wMywxLjcxLTEuODQsMi44NS0yLjQ0LDEuMTQtLjYsMi4zOS0uOSwzLjc0LS45aDEuOTR2My43aC0zLjMyWiIgY2xhc3M9ImNscy02Ii8+JiN4YTsgICAgICAgIDxwYXRoIGQ9Im03NDUuMzUsMzM0LjY1Yy0uNDIuOTktMSwxLjg1LTEuNzQsMi41OS0uNzQuNzQtMS42LDEuMzItMi41OSwxLjc0LS45OS40Mi0yLjA0LjYzLTMuMTYuNjNoLTIuMjFjLTEuMTIsMC0yLjE3LS4yMS0zLjE2LS42My0uOTktLjQyLTEuODUtMS0yLjU5LTEuNzQtLjc0LS43NC0xLjMyLTEuNi0xLjc0LTIuNTlzLS42My0yLjA0LS42My0zLjE2di0xMi40N2MwLTEuMTIuMjEtMi4xNy42My0zLjE2LjQyLS45OSwxLTEuODUsMS43NC0yLjU5Ljc0LS43NCwxLjYtMS4zMiwyLjU5LTEuNzQuOTktLjQyLDIuMDQtLjYzLDMuMTYtLjYzaDIuMjFjMS4xMiwwLDIuMTcuMjEsMy4xNi42My45OS40MiwxLjg1LDEsMi41OSwxLjc0Ljc0Ljc0LDEuMzIsMS42LDEuNzQsMi41OXMuNjMsMi4wNC42MywzLjE2djEuMTFsLTMuMzIuNTR2LTEuODRjMC0uNjctLjEzLTEuMjktLjM4LTEuODgtLjI1LS41OC0uNTktMS4wOS0xLjAzLTEuNTMtLjQzLS40My0uOTQtLjc3LTEuNTMtMS4wM3MtMS4yMS0uMzgtMS44OC0uMzhoLTIuMjFjLS42NywwLTEuMjkuMTMtMS44OC4zOHMtMS4wOS41OS0xLjUyLDEuMDMtLjc3Ljk0LTEuMDMsMS41My0uMzgsMS4yMS0uMzgsMS44OHYxMi44NWMwLC42Ny4xMywxLjI5LjM4LDEuODguMjUuNTkuNTksMS4wOSwxLjAzLDEuNTMuNDMuNDMuOTQuNzcsMS41MiwxLjAzczEuMjEuMzgsMS44OC4zOGgyLjIxYy42NywwLDEuMjktLjEzLDEuODgtLjM4czEuMDktLjU5LDEuNTMtMS4wMy43Ny0uOTQsMS4wMy0xLjUzYy4yNS0uNTguMzgtMS4yMS4zOC0xLjg4di0xLjg0bDMuMzIuNTR2MS4xMWMwLDEuMTItLjIxLDIuMTctLjYzLDMuMTZaIiBjbGFzcz0iY2xzLTYiLz4mI3hhOyAgICAgICAgPHBhdGggZD0ibTc2OS4zNSwzMzQuNjVjLS40Mi45OS0xLDEuODUtMS43NCwyLjU5LS43NC43NC0xLjYsMS4zMi0yLjU5LDEuNzQtLjk5LjQyLTIuMDQuNjMtMy4xNi42M2gtMi4yMWMtMS4xMiwwLTIuMTctLjIxLTMuMTYtLjYzLS45OS0uNDItMS44NS0xLTIuNTktMS43NC0uNzQtLjc0LTEuMzItMS42LTEuNzQtMi41OXMtLjYzLTIuMDQtLjYzLTMuMTZ2LTEyLjQ3YzAtMS4xMi4yMS0yLjE3LjYzLTMuMTZzMS0xLjg1LDEuNzQtMi41OWMuNzQtLjc0LDEuNi0xLjMyLDIuNTktMS43NC45OS0uNDIsMi4wNC0uNjMsMy4xNi0uNjNoMi4yMWMxLjEyLDAsMi4xNy4yMSwzLjE2LjYzczEuODUsMSwyLjU5LDEuNzRjLjc0Ljc0LDEuMzIsMS42LDEuNzQsMi41OXMuNjMsMi4wNC42MywzLjE2djYuNTFoLTE1LjE1djYuMTZjMCwuNjcuMTMsMS4yOS4zOCwxLjg4LjI1LjU5LjU5LDEuMDksMS4wMywxLjUzLjQzLjQzLjk0Ljc3LDEuNTIsMS4wM3MxLjIxLjM4LDEuODguMzhoMi4yMWMuNjcsMCwxLjI5LS4xMywxLjg4LS4zOHMxLjA5LS41OSwxLjUzLTEuMDMuNzctLjk0LDEuMDMtMS41M2MuMjUtLjU4LjM4LTEuMjEuMzgtMS44OHYtMS44NGwzLjMyLjU0djEuMTFjMCwxLjEyLS4yMSwyLjE3LS42MywzLjE2Wm0tMi42OS0xNS44MmMwLS42Ny0uMTMtMS4yOS0uMzgtMS44OC0uMjUtLjU4LS41OS0xLjA5LTEuMDMtMS41My0uNDMtLjQzLS45NC0uNzctMS41My0xLjAzcy0xLjIxLS4zOC0xLjg4LS4zOGgtMi4yMWMtLjY3LDAtMS4yOS4xMy0xLjg4LjM4cy0xLjA5LjU5LTEuNTIsMS4wMy0uNzcuOTQtMS4wMywxLjUzLS4zOCwxLjIxLS4zOCwxLjg4djQuMWgxMS44M3YtNC4xWiIgY2xhc3M9ImNscy02Ii8+JiN4YTsgICAgICA8L2c+JiN4YTsgICAgICA8cGF0aCBkPSJtMTM0LjIsOTUuNjljMjYuNTIsMCw0Ny44NCw4LjA2LDYzLjk3LDI0LjE5LDE2LjEzLDE2LjEzLDI0LjIsMzcuNDUsMjQuMiw2My45N3MtOC4xLDQ3LjctMjQuMjgsNjMuODljLTE2LjE5LDE2LjE5LTM3LjQ5LDI0LjI4LTYzLjg4LDI0LjI4cy00Ny41Ni04LjEyLTYzLjgtMjQuMzdjLTE2LjI0LTE2LjI0LTI0LjM2LTM3LjUxLTI0LjM2LTYzLjhzOC4wOS00Ny43LDI0LjI4LTYzLjg4YzE2LjE5LTE2LjE5LDM3LjQ5LTI0LjI4LDYzLjg5LTI0LjI4Wm0wLDM1LjNjLTIwLjI3LDAtMzUuMzksOC00NS4zNywyNC4wMi01LDguMDQtNy40OSwxNy42NS03LjQ5LDI4Ljg0LDAsMTAuMjIsMi4yNCwxOS4zOCw2LjcyLDI3LjQ3LDQuNyw4LjUsMTEuNDgsMTQuOTUsMjAuMzIsMTkuMzgsOC4wNCw0LjAxLDE2LjY0LDYuMDIsMjUuODMsNi4wMiwyMC4yNiwwLDM1LjM5LTguMDMsNDUuMzctMjQuMSw1LTcuOTgsNy40OS0xNy41Niw3LjQ5LTI4Ljc2LDAtMTYuNzYtNS4zOS0yOS45LTE2LjE5LTM5LjQzLTEwLjExLTguOTUtMjIuMzMtMTMuNDMtMzYuNjgtMTMuNDNaIiBjbGFzcz0iY2xzLTIiLz4mI3hhOyAgICAgIDxwYXRoIGQ9Im03NDguNDgsMjIxLjkxbDI1Ljc0LDI1Ljc0Yy0xMC4zMywxMC41Ni0yMy4zNiwxNy43NC0zOS4wOSwyMS41My03LjY5LDEuODktMTUuOTMsMi44NC0yNC43MSwyLjg0LTI2LjI5LDAtNDcuNTUtOC4xMi02My44LTI0LjM3LTE2LjI0LTE2LjI0LTI0LjM2LTM3LjUxLTI0LjM2LTYzLjhzOC4wOS00Ny43LDI0LjI4LTYzLjg4YzE2LjE4LTE2LjE5LDM3LjQ4LTI0LjI4LDYzLjg4LTI0LjI4czQ3Ljg1LDguMDYsNjMuOTgsMjQuMTlsLTI1LjkyLDI1LjkyYy0xMC4xLTkuODgtMjIuNzktMTQuODEtMzguMDYtMTQuODEtMjAuMjYsMC0zNS4zOCw4LTQ1LjM3LDI0LjAyLTQuOTksOC4wNC03LjQ5LDE3LjY1LTcuNDksMjguODQsMCwxMC4yMiwyLjI1LDE5LjM4LDYuNzIsMjcuNDcsNC43MSw4LjUsMTEuNDgsMTQuOTUsMjAuMzIsMTkuMzgsOC4wNCw0LjAxLDE2LjY1LDYuMDIsMjUuODMsNi4wMiwxNS4yNywwLDI3Ljk2LTQuOTMsMzguMDYtMTQuODFaIiBjbGFzcz0iY2xzLTgiLz4mI3hhOyAgICAgIDxnPiYjeGE7ICAgICAgICA8cGF0aCBkPSJtNDk5Ljg1LDEyNy4yMmMyLjY1LDAsNC44LTIuMTUsNC44LTQuOHMtMi4xNS00Ljc5LTQuOC00Ljc5LTQuOCwyLjE1LTQuOCw0Ljc5LDIuMTUsNC44LDQuOCw0LjhaIiBjbGFzcz0iY2xzLTEwIi8+JiN4YTsgICAgICAgIDxwYXRoIGQ9Im00MzguMzMsMTgwLjc4YzAsLjU3LDEuMDEuNTgsMS4wMiwwLDAtLjI5LS4yMi0uNTEtLjUxLS41MXMtLjUxLjIyLS41MS41MVoiIGNsYXNzPSJjbHMtMTYiLz4mI3hhOyAgICAgIDwvZz4mI3hhOyAgICAgIDxwYXRoIGQ9Im01ODAuNzksMTE5Ljg4Yy0xMC40My0xMC40Mi0yMy4wMy0xNy40NS0zNy43OC0yMS4xNGwtOS4wMyw5LjA0YzEuOTMsNC41LDMuMDEsOS40NSwzLjAxLDE0LjY1LDAsMy45OC0uNjMsNy44Mi0xLjgsMTEuNDIsNi43MiwyLjIyLDEyLjgzLDUuNzIsMTguMzEsMTAuNTcsMTAuNzksOS41MywxNi4xOCwyMi42NywxNi4xOCwzOS40MywwLDExLjItMi40OSwyMC43OC03LjQ5LDI4Ljc2LTkuOTgsMTYuMDctMjUuMSwyNC4xLTQ1LjM3LDI0LjFoLTUyLjg3di00NS45M2MtMy45OSw5Ljk3LTEzLjczLDE3LjAzLTI1LjEsMTcuMDMtMy42MSwwLTcuMDUtLjcyLTEwLjItMnY2Ni4yMWg4OC4xN2MyNi40LDAsNDcuNy04LjA5LDYzLjg4LTI0LjI4LDE2LjItMTYuMTksMjQuMjgtMzcuNDgsMjQuMjgtNjMuODlzLTguMDYtNDcuODQtMjQuMTgtNjMuOTdaIiBjbGFzcz0iY2xzLTUiLz4mI3hhOyAgICAgIDxnPiYjeGE7ICAgICAgICA8cGF0aCBkPSJtNTI1LjYsMTMyLjY3bC0yMy40Ny0xMC4wMWMtMS4yOS0uNTUtMi42MS43Ni0yLjA1LDIuMDVsMTAuMDEsMjMuNDdjLjI1LjU5Ljg0Ljk4LDEuNTEuOTUuNjUtLjAzLDEuMjItLjQ1LDEuNDItMS4wN2wzLjA5LTkuMzcsOS4zNy0zLjA5Yy42Mi0uMiwxLjA1LS43NywxLjA3LTEuNDIuMDMtLjY1LS4zNS0xLjI1LS45NS0xLjUxWm0tMTEuMjIsMy4yOWMtLjQ3LjE2LS44NC41Mi0xLDFsLTIuMDQsNi4xOC02Ljg2LTE2LjA4LDE2LjA4LDYuODYtNi4xOCwyLjA0WiIgY2xhc3M9ImNscy03Ii8+JiN4YTsgICAgICAgIDxwYXRoIGQ9Im00OTkuODUsMTA1LjE0Yy05LjUzLDAtMTcuMjksNy43Ni0xNy4yOSwxNy4yOXM3Ljc2LDE3LjI5LDE3LjI5LDE3LjI5YzEuMjUsMCwyLjI3LTEuMDIsMi4yNy0yLjI3cy0xLjAyLTIuMjctMi4yNy0yLjI3Yy03LjAzLDAtMTIuNzUtNS43Mi0xMi43NS0xMi43NXM1LjcyLTEyLjc1LDEyLjc1LTEyLjc1LDEyLjc1LDUuNzIsMTIuNzUsMTIuNzVjMCwxLjI1LDEuMDIsMi4yNywyLjI3LDIuMjdzMi4yNy0xLjAyLDIuMjctMi4yN2MwLTkuNTMtNy43Ni0xNy4yOS0xNy4yOS0xNy4yOVoiIGNsYXNzPSJjbHMtMTQiLz4mI3hhOyAgICAgICAgPHBhdGggZD0ibTUxOS4yMSwxMDMuMDdjLTUuMTktNS4xOS0xMi4wNy04LjA1LTE5LjM2LTguMDVoMGMtNy4yOSwwLTE0LjE3LDIuODYtMTkuMzYsOC4wNS0xMC42NywxMC42Ny0xMC42NywyOC4wNCwwLDM4LjcyLDUuMTksNS4xOSwxMi4wNyw4LjA1LDE5LjM2LDguMDUsMS4yNSwwLDIuMjctMS4wMiwyLjI3LTIuMjdzLTEuMDItMi4yNy0yLjI3LTIuMjdjLTEyLjYxLDAtMjIuODctMTAuMjYtMjIuODctMjIuODdzMTAuMjYtMjIuODcsMjIuODctMjIuODcsMjIuODcsMTAuMjYsMjIuODcsMjIuODdjMCwxLjI1LDEuMDIsMi4yNywyLjI3LDIuMjdzMi4yNy0xLjAyLDIuMjctMi4yN2MwLTcuMjktMi44Ni0xNC4xNy04LjA1LTE5LjM2WiIgY2xhc3M9ImNscy0xMSIvPiYjeGE7ICAgICAgPC9nPiYjeGE7ICAgIDwvZz4mI3hhOyAgICA8Zz4mI3hhOyAgICAgIDxwb2x5Z29uIHBvaW50cz0iMjMzLjA1IDI3Mi4wMiAyNjguMzUgMjcyLjAyIDI2OC4zNSAxNTkuMDkgMzM4Ljg2IDIxNS40OSAzMzguODYgMTgwLjMzIDIzMy4wNSA5NS42OSAyMzMuMDUgMjcyLjAyIiBjbGFzcz0iY2xzLTMiLz4mI3hhOyAgICAgIDxwYXRoIGQ9Im00NjIuNzEsMTIyLjQzYzAtNS4yLDEuMDctMTAuMTUsMy4wMS0xNC42NWwtNi4xNi02LjE3Yy02LjU1LjY2LTEyLjY3LTEuNzMtMTcuMDgtNS45MmgtNzguNDR2MTQ4LjA4bDM1LjMsMjguMjR2LTE0MS4wMmg2NC4zOGMtLjY1LTIuNzUtMS01LjYyLTEtOC41NloiIGNsYXNzPSJjbHMtOSIvPiYjeGE7ICAgIDwvZz4mI3hhOyAgICA8Zz4mI3hhOyAgICAgIDxwYXRoIGQ9Im01NDIuMjksMTU0LjI1Yy0xLjk2LDAtMy43OC41Ny01LjM2LDEuNWwtOS4wMi05LjAyYy0xLjE2LDEuMzQtMi40MSwyLjU5LTMuNzUsMy43NWw5LjAyLDkuMDJjLS45NCwxLjU4LTEuNTEsMy40LTEuNTEsNS4zNiwwLDUuODUsNC43NiwxMC42MSwxMC42MSwxMC42MXMxMC42MS00Ljc2LDEwLjYxLTEwLjYxLTQuNzYtMTAuNjEtMTAuNjEtMTAuNjFabTAsMTUuOTFjLTIuOTMsMC01LjMtMi4zOC01LjMtNS4zczIuMzgtNS4zLDUuMy01LjMsNS4zLDIuMzgsNS4zLDUuMy0yLjM4LDUuMy01LjMsNS4zWiIgY2xhc3M9ImNscy0xMyIvPiYjeGE7ICAgICAgPHBhdGggZD0ibTU1Mi45LDU2LjExYy04Ljc4LDAtMTUuOTEsNy4xNC0xNS45MSwxNS45MSwwLDIuNzUuNyw1LjMzLDEuOTMsNy41OWwtMTQuNzUsMTQuNzVjMS4zNCwxLjE2LDIuNTksMi40MSwzLjc1LDMuNzVsMTQuMzItMTQuMzJjMi44MiwyLjU2LDYuNTYsNC4xNCwxMC42Nyw0LjE0LDguNzgsMCwxNS45MS03LjE0LDE1LjkxLTE1Ljkxcy03LjE0LTE1LjkxLTE1LjkxLTE1LjkxWm0wLDI2LjUyYy01Ljg1LDAtMTAuNjEtNC43Ni0xMC42MS0xMC42MXM0Ljc2LTEwLjYxLDEwLjYxLTEwLjYxLDEwLjYxLDQuNzYsMTAuNjEsMTAuNjEtNC43NiwxMC42MS0xMC42MSwxMC42MVoiIGNsYXNzPSJjbHMtMTIiLz4mI3hhOyAgICAgIDxwYXRoIGQ9Im00NTcuNDEsOTAuNmMxLjk2LDAsMy43OC0uNTcsNS4zNi0xLjVsOS4wMiw5LjAyYzEuMTYtMS4zNCwyLjQxLTIuNTksMy43NS0zLjc1bC05LjAyLTkuMDJjLjkzLTEuNTgsMS41LTMuMzksMS41LTUuMzYsMC01Ljg1LTQuNzYtMTAuNjEtMTAuNjEtMTAuNjFzLTEwLjYxLDQuNzYtMTAuNjEsMTAuNjEsNC43NiwxMC42MSwxMC42MSwxMC42MVptMC0xNS45MWMyLjkzLDAsNS4zLDIuMzgsNS4zLDUuM3MtMi4zOCw1LjMtNS4zLDUuMy01LjMtMi4zOC01LjMtNS4zLDIuMzgtNS4zLDUuMy01LjNaIiBjbGFzcz0iY2xzLTE1Ii8+JiN4YTsgICAgICA8cGF0aCBkPSJtNDc1LjU0LDE1MC40OGMtMS4zNC0xLjE2LTIuNTktMi40MS0zLjc1LTMuNzVsLTIyLjI3LDIyLjI3Yy0yLjgzLTIuNTYtNi41Ni00LjE0LTEwLjY3LTQuMTQtOC43OCwwLTE1LjkxLDcuMTQtMTUuOTEsMTUuOTFzNy4xNCwxNS45MSwxNS45MSwxNS45MSwxNS45MS03LjE0LDE1LjkxLTE1LjkxYzAtMi43NS0uNy01LjMzLTEuOTMtNy41OWwyMi43MS0yMi43MVptLTM2LjcsNDAuOWMtNS44NSwwLTEwLjYxLTQuNzYtMTAuNjEtMTAuNjFzNC43Ni0xMC42MSwxMC42MS0xMC42MSwxMC42MSw0Ljc2LDEwLjYxLDEwLjYxLTQuNzYsMTAuNjEtMTAuNjEsMTAuNjFaIiBjbGFzcz0iY2xzLTQiLz4mI3hhOyAgICAgIDxwYXRoIGQ9Im01MDIuNSwxNzAuNDF2LTEwLjk1Yy0uODguMDYtMS43Ni4xLTIuNjYuMXMtMS43Ny0uMDQtMi42NS0uMXYxMC45NWMtNy41MSwxLjI3LTEzLjI2LDcuOC0xMy4yNiwxNS42OCwwLDguNzgsNy4xNCwxNS45MSwxNS45MSwxNS45MXMxNS45MS03LjE0LDE1LjkxLTE1LjkxYzAtNy44Ny01Ljc1LTE0LjQxLTEzLjI2LTE1LjY4Wm0tMi42NiwyNi4yOWMtNS44NSwwLTEwLjYxLTQuNzYtMTAuNjEtMTAuNjFzNC43Ni0xMC42MSwxMC42MS0xMC42MSwxMC42MSw0Ljc2LDEwLjYxLDEwLjYxLTQuNzYsMTAuNjEtMTAuNjEsMTAuNjFaIiBjbGFzcz0iY2xzLTEiLz4mI3hhOyAgICA8L2c+JiN4YTsgIDwvZz4mI3hhOyAgPGc+JiN4YTsgICAgPHRleHQgdHJhbnNmb3JtPSJ0cmFuc2xhdGUoNzcwLjg0IDg5LjY3KSBzY2FsZSguOTcgMSkiIGNsYXNzPSJjbHMtMTciPjx0c3BhbiB5PSIwIiB4PSIwIj5SPC90c3Bhbj48L3RleHQ+JiN4YTsgICAgPGNpcmNsZSByPSIxMy4zNSIgY3k9IjgxLjY2IiBjeD0iNzc2LjQ5IiBjbGFzcz0iY2xzLTE4Ii8+JiN4YTsgIDwvZz4mI3hhOzwvc3ZnPg==;imageBorder=default;" vertex="1" parent="1">
          <mxGeometry x="40" y="640" width="147.72" height="70" as="geometry" />
        </mxCell>
        <mxCell id="5OZiCk8Ew-PO9oTUfX-M-31" style="edgeStyle=none;rounded=0;orthogonalLoop=1;jettySize=auto;html=1;" edge="1" parent="1" source="5OZiCk8Ew-PO9oTUfX-M-34" target="5OZiCk8Ew-PO9oTUfX-M-36">
          <mxGeometry relative="1" as="geometry" />
        </mxCell>
        <mxCell id="5OZiCk8Ew-PO9oTUfX-M-32" value="get status&lt;br&gt;" style="edgeLabel;html=1;align=center;verticalAlign=middle;resizable=0;points=[];" vertex="1" connectable="0" parent="5OZiCk8Ew-PO9oTUfX-M-31">
          <mxGeometry relative="1" as="geometry">
            <mxPoint x="-5" as="offset" />
          </mxGeometry>
        </mxCell>
        <mxCell id="5OZiCk8Ew-PO9oTUfX-M-33" value="/on_status&lt;br&gt;/on_track" style="edgeStyle=none;rounded=0;orthogonalLoop=1;jettySize=auto;html=1;exitX=0;exitY=0.75;exitDx=0;exitDy=0;entryX=1;entryY=0.75;entryDx=0;entryDy=0;dashed=1;dashPattern=8 8;" edge="1" parent="1" source="5OZiCk8Ew-PO9oTUfX-M-34" target="5OZiCk8Ew-PO9oTUfX-M-30">
          <mxGeometry x="0.0608" y="9" relative="1" as="geometry">
            <mxPoint as="offset" />
          </mxGeometry>
        </mxCell>
        <mxCell id="5OZiCk8Ew-PO9oTUfX-M-34" value="ondc&lt;br&gt;service" style="rounded=1;whiteSpace=wrap;html=1;" vertex="1" parent="1">
          <mxGeometry x="320" y="645" width="110" height="60" as="geometry" />
        </mxCell>
        <mxCell id="5OZiCk8Ew-PO9oTUfX-M-40" value="" style="edgeStyle=none;rounded=0;orthogonalLoop=1;jettySize=auto;html=1;" edge="1" parent="1" source="5OZiCk8Ew-PO9oTUfX-M-36" target="5OZiCk8Ew-PO9oTUfX-M-39">
          <mxGeometry relative="1" as="geometry" />
        </mxCell>
        <mxCell id="5OZiCk8Ew-PO9oTUfX-M-41" value="get task status" style="edgeLabel;html=1;align=center;verticalAlign=middle;resizable=0;points=[];" vertex="1" connectable="0" parent="5OZiCk8Ew-PO9oTUfX-M-40">
          <mxGeometry x="-0.1467" y="1" relative="1" as="geometry">
            <mxPoint as="offset" />
          </mxGeometry>
        </mxCell>
        <mxCell id="5OZiCk8Ew-PO9oTUfX-M-36" value="developer-api&lt;br&gt;service" style="rounded=1;whiteSpace=wrap;html=1;" vertex="1" parent="1">
          <mxGeometry x="540" y="640" width="110" height="70" as="geometry" />
        </mxCell>
        <mxCell id="5OZiCk8Ew-PO9oTUfX-M-39" value="Espresso" style="whiteSpace=wrap;html=1;rounded=1;" vertex="1" parent="1">
          <mxGeometry x="760" y="645" width="120" height="60" as="geometry" />
        </mxCell>
        <mxCell id="5OZiCk8Ew-PO9oTUfX-M-42" style="rounded=0;orthogonalLoop=1;jettySize=auto;html=1;exitX=1;exitY=0.25;exitDx=0;exitDy=0;entryX=0;entryY=0.25;entryDx=0;entryDy=0;" edge="1" parent="1" source="5OZiCk8Ew-PO9oTUfX-M-44" target="5OZiCk8Ew-PO9oTUfX-M-48">
          <mxGeometry relative="1" as="geometry" />
        </mxCell>
        <mxCell id="5OZiCk8Ew-PO9oTUfX-M-43" value="/cancel" style="edgeLabel;html=1;align=center;verticalAlign=middle;resizable=0;points=[];" vertex="1" connectable="0" parent="5OZiCk8Ew-PO9oTUfX-M-42">
          <mxGeometry x="-0.3449" y="2" relative="1" as="geometry">
            <mxPoint x="19" y="-2" as="offset" />
          </mxGeometry>
        </mxCell>
        <mxCell id="5OZiCk8Ew-PO9oTUfX-M-44" value="" style="shape=image;verticalLabelPosition=bottom;labelBackgroundColor=default;verticalAlign=top;aspect=fixed;imageAspect=0;image=data:image/svg+xml,PHN2ZyB4bWxuczp4bGluaz0iaHR0cDovL3d3dy53My5vcmcvMTk5OS94bGluayIgeG1sbnM9Imh0dHA6Ly93d3cudzMub3JnLzIwMDAvc3ZnIiB2aWV3Qm94PSIwIDAgODQxLjg5IDM5OS4zNyIgZGF0YS1uYW1lPSJMYXllciAxIiBpZD0iTGF5ZXJfMSI+JiN4YTsgIDxkZWZzPiYjeGE7ICAgIDxzdHlsZT4mI3hhOyAgICAgIC5jbHMtMSB7JiN4YTsgICAgICAgIGZpbGw6IHVybCgjbGluZWFyLWdyYWRpZW50LTEyKTsmI3hhOyAgICAgIH0mI3hhOyYjeGE7ICAgICAgLmNscy0xLCAuY2xzLTIsIC5jbHMtMywgLmNscy00LCAuY2xzLTUsIC5jbHMtNiwgLmNscy03LCAuY2xzLTgsIC5jbHMtOSwgLmNscy0xMCwgLmNscy0xMSwgLmNscy0xMiwgLmNscy0xMywgLmNscy0xNCwgLmNscy0xNSwgLmNscy0xNiB7JiN4YTsgICAgICAgIHN0cm9rZS13aWR0aDogMHB4OyYjeGE7ICAgICAgfSYjeGE7JiN4YTsgICAgICAuY2xzLTIgeyYjeGE7ICAgICAgICBmaWxsOiB1cmwoI2xpbmVhci1ncmFkaWVudCk7JiN4YTsgICAgICB9JiN4YTsmI3hhOyAgICAgIC5jbHMtMyB7JiN4YTsgICAgICAgIGZpbGw6IHVybCgjbGluZWFyLWdyYWRpZW50LTYpOyYjeGE7ICAgICAgfSYjeGE7JiN4YTsgICAgICAuY2xzLTQgeyYjeGE7ICAgICAgICBmaWxsOiB1cmwoI2xpbmVhci1ncmFkaWVudC0xMSk7JiN4YTsgICAgICB9JiN4YTsmI3hhOyAgICAgIC5jbHMtMTcgeyYjeGE7ICAgICAgICBmaWxsOiAjMjMxZjIwOyYjeGE7ICAgICAgICBmb250LWZhbWlseTogUG9wcGlucy1SZWd1bGFyLCBQb3BwaW5zOyYjeGE7ICAgICAgICBmb250LXNpemU6IDIycHg7JiN4YTsgICAgICB9JiN4YTsmI3hhOyAgICAgIC5jbHMtNSB7JiN4YTsgICAgICAgIGZpbGw6IHVybCgjbGluZWFyLWdyYWRpZW50LTUpOyYjeGE7ICAgICAgfSYjeGE7JiN4YTsgICAgICAuY2xzLTE4IHsmI3hhOyAgICAgICAgZmlsbDogbm9uZTsmI3hhOyAgICAgICAgc3Ryb2tlOiAjMjMxZjIwOyYjeGE7ICAgICAgICBzdHJva2UtbWl0ZXJsaW1pdDogMTA7JiN4YTsgICAgICAgIHN0cm9rZS13aWR0aDogMS41cHg7JiN4YTsgICAgICB9JiN4YTsmI3hhOyAgICAgIC5jbHMtNiB7JiN4YTsgICAgICAgIGZpbGw6ICM2MDYxNjE7JiN4YTsgICAgICB9JiN4YTsmI3hhOyAgICAgIC5jbHMtNyB7JiN4YTsgICAgICAgIGZpbGw6ICM5Mzk1OTg7JiN4YTsgICAgICB9JiN4YTsmI3hhOyAgICAgIC5jbHMtOCB7JiN4YTsgICAgICAgIGZpbGw6IHVybCgjbGluZWFyLWdyYWRpZW50LTIpOyYjeGE7ICAgICAgfSYjeGE7JiN4YTsgICAgICAuY2xzLTkgeyYjeGE7ICAgICAgICBmaWxsOiB1cmwoI2xpbmVhci1ncmFkaWVudC03KTsmI3hhOyAgICAgIH0mI3hhOyYjeGE7ICAgICAgLmNscy0xMCB7JiN4YTsgICAgICAgIGZpbGw6IHVybCgjbGluZWFyLWdyYWRpZW50LTMpOyYjeGE7ICAgICAgfSYjeGE7JiN4YTsgICAgICAuY2xzLTExIHsmI3hhOyAgICAgICAgZmlsbDogI2YyOWM0OTsmI3hhOyAgICAgIH0mI3hhOyYjeGE7ICAgICAgLmNscy0xMiB7JiN4YTsgICAgICAgIGZpbGw6IHVybCgjbGluZWFyLWdyYWRpZW50LTkpOyYjeGE7ICAgICAgfSYjeGE7JiN4YTsgICAgICAuY2xzLTEzIHsmI3hhOyAgICAgICAgZmlsbDogdXJsKCNsaW5lYXItZ3JhZGllbnQtOCk7JiN4YTsgICAgICB9JiN4YTsmI3hhOyAgICAgIC5jbHMtMTQgeyYjeGE7ICAgICAgICBmaWxsOiAjNDQ4MjNkOyYjeGE7ICAgICAgfSYjeGE7JiN4YTsgICAgICAuY2xzLTE1IHsmI3hhOyAgICAgICAgZmlsbDogdXJsKCNsaW5lYXItZ3JhZGllbnQtMTApOyYjeGE7ICAgICAgfSYjeGE7JiN4YTsgICAgICAuY2xzLTE2IHsmI3hhOyAgICAgICAgZmlsbDogdXJsKCNsaW5lYXItZ3JhZGllbnQtNCk7JiN4YTsgICAgICB9JiN4YTsgICAgPC9zdHlsZT4mI3hhOyAgICA8bGluZWFyR3JhZGllbnQgZ3JhZGllbnRVbml0cz0idXNlclNwYWNlT25Vc2UiIHkyPSIzMDcuMTgiIHgyPSI2NTUuNjYiIHkxPSIxOTEuMDIiIHgxPSIxNjQuNjUiIGlkPSJsaW5lYXItZ3JhZGllbnQiPiYjeGE7ICAgICAgPHN0b3Agc3RvcC1jb2xvcj0iIzFjNzViYyIgb2Zmc2V0PSIwIi8+JiN4YTsgICAgICA8c3RvcCBzdG9wLWNvbG9yPSIjMDBhZWVmIiBvZmZzZXQ9IjEiLz4mI3hhOyAgICA8L2xpbmVhckdyYWRpZW50PiYjeGE7ICAgIDxsaW5lYXJHcmFkaWVudCB4bGluazpocmVmPSIjbGluZWFyLWdyYWRpZW50IiB5Mj0iMTc4LjA5IiB4Mj0iNjg2LjIiIHkxPSI2MS45NCIgeDE9IjE5NS4xOCIgaWQ9ImxpbmVhci1ncmFkaWVudC0yIi8+JiN4YTsgICAgPGxpbmVhckdyYWRpZW50IHhsaW5rOmhyZWY9IiNsaW5lYXItZ3JhZGllbnQiIHkyPSIxMjUuMzIiIHgyPSI1MTIuOTgiIHkxPSIxMTguNDMiIHgxPSI0ODEuNzMiIGlkPSJsaW5lYXItZ3JhZGllbnQtMyIvPiYjeGE7ICAgIDxsaW5lYXJHcmFkaWVudCB4bGluazpocmVmPSIjbGluZWFyLWdyYWRpZW50IiB5Mj0iMTgxLjA1IiB4Mj0iNDQwLjI0IiB5MT0iMTgwLjMyIiB4MT0iNDM2LjkzIiBpZD0ibGluZWFyLWdyYWRpZW50LTQiLz4mI3hhOyAgICA8bGluZWFyR3JhZGllbnQgeGxpbms6aHJlZj0iI2xpbmVhci1ncmFkaWVudCIgeTI9IjI0NCIgeDI9Ijc1MS41OCIgeTE9IjEyMS43MiIgeDE9IjE5Ny4yNCIgaWQ9ImxpbmVhci1ncmFkaWVudC01Ii8+JiN4YTsgICAgPGxpbmVhckdyYWRpZW50IHhsaW5rOmhyZWY9IiNsaW5lYXItZ3JhZGllbnQiIHkyPSIzMDAuNyIgeDI9IjU3Ni40OSIgeTE9IjE3NS44MiIgeDE9IjIwOS40NSIgaWQ9ImxpbmVhci1ncmFkaWVudC02Ii8+JiN4YTsgICAgPGxpbmVhckdyYWRpZW50IGdyYWRpZW50VW5pdHM9InVzZXJTcGFjZU9uVXNlIiB5Mj0iMjQzLjQxIiB4Mj0iNTk1Ljk4IiB5MT0iMTE4LjU0IiB4MT0iMjI4Ljk1IiBpZD0ibGluZWFyLWdyYWRpZW50LTciPiYjeGE7ICAgICAgPHN0b3Agc3RvcC1jb2xvcj0iIzFjNzViYyIgb2Zmc2V0PSIuMDUiLz4mI3hhOyAgICAgIDxzdG9wIHN0b3AtY29sb3I9IiMwMGFlZWYiIG9mZnNldD0iMSIvPiYjeGE7ICAgIDwvbGluZWFyR3JhZGllbnQ+JiN4YTsgICAgPGxpbmVhckdyYWRpZW50IHhsaW5rOmhyZWY9IiNsaW5lYXItZ3JhZGllbnQiIHkyPSIxNzMuMjkiIHgyPSI1ODUuOTgiIHkxPSIxNDMuNjEiIHgxPSI0NjAuNTIiIGlkPSJsaW5lYXItZ3JhZGllbnQtOCIvPiYjeGE7ICAgIDxsaW5lYXJHcmFkaWVudCB4bGluazpocmVmPSIjbGluZWFyLWdyYWRpZW50IiB5Mj0iOTIuNjciIHgyPSI2MDcuMDciIHkxPSI1Ni4yNCIgeDE9IjQ1My4wNyIgaWQ9ImxpbmVhci1ncmFkaWVudC05Ii8+JiN4YTsgICAgPGxpbmVhckdyYWRpZW50IHhsaW5rOmhyZWY9IiNsaW5lYXItZ3JhZGllbnQiIHkyPSI5NC40MSIgeDI9IjUxMC4zMiIgeTE9IjY0LjczIiB4MT0iMzg0Ljg1IiBpZD0ibGluZWFyLWdyYWRpZW50LTEwIi8+JiN4YTsgICAgPGxpbmVhckdyYWRpZW50IHhsaW5rOmhyZWY9IiNsaW5lYXItZ3JhZGllbnQiIHkyPSIxODYuMzUiIHgyPSI1MTYuMjciIHkxPSIxNDQuMzYiIHgxPSIzMzguNzciIGlkPSJsaW5lYXItZ3JhZGllbnQtMTEiLz4mI3hhOyAgICA8bGluZWFyR3JhZGllbnQgeGxpbms6aHJlZj0iI2xpbmVhci1ncmFkaWVudCIgeTI9IjE5Mi40NSIgeDI9IjU0OS43OCIgeTE9IjE2Mi41MSIgeDE9IjQyMy4yNSIgaWQ9ImxpbmVhci1ncmFkaWVudC0xMiIvPiYjeGE7ICA8L2RlZnM+JiN4YTsgIDxnPiYjeGE7ICAgIDxnPiYjeGE7ICAgICAgPGc+JiN4YTsgICAgICAgIDxwYXRoIGQ9Im04NS42NiwzMzMuODJjLS41LDEuMTUtMS4xNywyLjE2LTIuMDQsMy4wMi0uODYuODYtMS44NywxLjU0LTMuMDIsMi4wNC0xLjE1LjQ5LTIuMzkuNzQtMy43Ljc0aC0yLjc1Yy0xLjMxLDAtMi41NS0uMjUtMy43MS0uNzQtMS4xNi0uNDktMi4xNy0xLjE4LTMuMDQtMi4wNC0uODYtLjg2LTEuNTQtMS44Ny0yLjA0LTMuMDItLjUtMS4xNS0uNzQtMi4zOS0uNzQtMy43di0yMC43OWMwLTEuMzEuMjUtMi41NS43NC0zLjcuNDktMS4xNSwxLjE3LTIuMTYsMi4wNC0zLjAyLjg2LS44NiwxLjg4LTEuNTQsMy4wNC0yLjA0LDEuMTYtLjQ5LDIuNC0uNzQsMy43MS0uNzRoMi43NWMxLjMxLDAsMi41NS4yNSwzLjcuNzQsMS4xNS41LDIuMTYsMS4xOCwzLjAyLDIuMDQuODYuODYsMS41NCwxLjg3LDIuMDQsMy4wMi40OSwxLjE1Ljc0LDIuMzkuNzQsMy43djIwLjc5YzAsMS4zMS0uMjUsMi41NS0uNzQsMy43Wm0tMi43NC0yNC40OWMwLS44Ni0uMTYtMS42Ny0uNDktMi40MnMtLjc3LTEuNC0xLjMyLTEuOTZjLS41Ni0uNTYtMS4yMS0xLTEuOTYtMS4zMi0uNzUtLjMyLTEuNTUtLjQ5LTIuNDItLjQ5aC0yLjQzYy0uODYsMC0xLjY3LjE2LTIuNDIuNDktLjc1LjMyLTEuNC43Ni0xLjk3LDEuMzItLjU3LjU2LTEuMDEsMS4yMS0xLjM0LDEuOTZzLS40OSwxLjU1LS40OSwyLjQydjIwLjc5YzAsLjg2LjE2LDEuNjcuNDksMi40MnMuNzcsMS40LDEuMzQsMS45N2MuNTcuNTcsMS4yMiwxLjAxLDEuOTcsMS4zNC43NS4zMiwxLjU1LjQ5LDIuNDIuNDloMi40M2MuODYsMCwxLjY3LS4xNiwyLjQyLS40OS43NS0uMzIsMS40LS43NywxLjk2LTEuMzQuNTYtLjU3LDEtMS4yMiwxLjMyLTEuOTdzLjQ5LTEuNTUuNDktMi40MnYtMjAuNzlaIiBjbGFzcz0iY2xzLTYiLz4mI3hhOyAgICAgICAgPHBhdGggZD0ibTExMC4zMywzMzQuNjVjLS40Mi45OS0xLDEuODUtMS43NCwyLjU5LS43NC43NC0xLjYsMS4zMi0yLjU5LDEuNzQtLjk5LjQyLTIuMDQuNjMtMy4xNi42M2gtLjg0Yy0xLjI0LDAtMi4zOS0uMjUtMy40Ni0uNzZzLTEuOTctMS4yMS0yLjczLTIuMXYxMy4zOWgtMy4zMnYtMzguNzJoMS4xMWwxLjgxLDIuODFjLjc2LTEuMDMsMS43LTEuODQsMi44NS0yLjQ0LDEuMTQtLjYsMi4zOS0uOSwzLjc0LS45aC44NGMxLjEyLDAsMi4xNy4yMSwzLjE2LjYzczEuODUsMSwyLjU5LDEuNzRjLjc0Ljc0LDEuMzIsMS42LDEuNzQsMi41OXMuNjMsMi4wNC42MywzLjE2djEyLjQ3YzAsMS4xMi0uMjEsMi4xNy0uNjMsMy4xNlptLTIuNjktMTUuODJjMC0uNjctLjEzLTEuMjktLjM4LTEuODgtLjI1LS41OC0uNTktMS4wOS0xLjAzLTEuNTMtLjQzLS40My0uOTQtLjc3LTEuNTMtMS4wMy0uNTktLjI1LTEuMjEtLjM4LTEuODgtLjM4aC0yLjIxYy0uNjcsMC0xLjI5LjEzLTEuODguMzhzLTEuMDkuNTktMS41MywxLjAzYy0uNDMuNDMtLjc3Ljk0LTEuMDMsMS41My0uMjUuNTgtLjM4LDEuMjEtLjM4LDEuODh2MTIuODVjMCwuNjcuMTMsMS4yOS4zOCwxLjg4LjI1LjU5LjU5LDEuMDksMS4wMywxLjUzLjQzLjQzLjk0Ljc3LDEuNTMsMS4wM3MxLjIxLjM4LDEuODguMzhoMi4yMWMuNjcsMCwxLjI5LS4xMywxLjg4LS4zOC41OC0uMjUsMS4wOS0uNTksMS41My0xLjAzcy43Ny0uOTQsMS4wMy0xLjUzYy4yNS0uNTguMzgtMS4yMS4zOC0xLjg4di0xMi44NVoiIGNsYXNzPSJjbHMtNiIvPiYjeGE7ICAgICAgICA8cGF0aCBkPSJtMTM0LjM0LDMzNC42NWMtLjQyLjk5LTEsMS44NS0xLjc0LDIuNTktLjc0Ljc0LTEuNiwxLjMyLTIuNTksMS43NC0uOTkuNDItMi4wNC42My0zLjE2LjYzaC0yLjIxYy0xLjEyLDAtMi4xNy0uMjEtMy4xNi0uNjMtLjk5LS40Mi0xLjg1LTEtMi41OS0xLjc0LS43NC0uNzQtMS4zMi0xLjYtMS43NC0yLjU5LS40Mi0uOTktLjYzLTIuMDQtLjYzLTMuMTZ2LTEyLjQ3YzAtMS4xMi4yMS0yLjE3LjYzLTMuMTYuNDItLjk5LDEtMS44NSwxLjc0LTIuNTkuNzQtLjc0LDEuNi0xLjMyLDIuNTktMS43NHMyLjA0LS42MywzLjE2LS42M2gyLjIxYzEuMTIsMCwyLjE3LjIxLDMuMTYuNjNzMS44NSwxLDIuNTksMS43NGMuNzQuNzQsMS4zMiwxLjYsMS43NCwyLjU5cy42MywyLjA0LjYzLDMuMTZ2Ni41MWgtMTUuMTV2Ni4xNmMwLC42Ny4xMywxLjI5LjM4LDEuODguMjUuNTkuNTksMS4wOSwxLjAzLDEuNTMuNDMuNDMuOTQuNzcsMS41MywxLjAzczEuMjEuMzgsMS44OC4zOGgyLjIxYy42NywwLDEuMjktLjEzLDEuODgtLjM4LjU4LS4yNSwxLjA5LS41OSwxLjUzLTEuMDNzLjc3LS45NCwxLjAzLTEuNTNjLjI1LS41OC4zOC0xLjIxLjM4LTEuODh2LTEuODRsMy4zMi41NHYxLjExYzAsMS4xMi0uMjEsMi4xNy0uNjMsMy4xNlptLTIuNjktMTUuODJjMC0uNjctLjEzLTEuMjktLjM4LTEuODgtLjI1LS41OC0uNTktMS4wOS0xLjAzLTEuNTMtLjQzLS40My0uOTQtLjc3LTEuNTMtMS4wMy0uNTktLjI1LTEuMjEtLjM4LTEuODgtLjM4aC0yLjIxYy0uNjcsMC0xLjI5LjEzLTEuODguMzhzLTEuMDkuNTktMS41MywxLjAzYy0uNDMuNDMtLjc3Ljk0LTEuMDMsMS41My0uMjUuNTgtLjM4LDEuMjEtLjM4LDEuODh2NC4xaDExLjgydi00LjFaIiBjbGFzcz0iY2xzLTYiLz4mI3hhOyAgICAgICAgPHBhdGggZD0ibTE1NS42NSwzMzkuMDh2LTIwLjI1YzAtLjY3LS4xMy0xLjI5LS4zOC0xLjg4LS4yNS0uNTgtLjU5LTEuMDktMS4wMy0xLjUzLS40My0uNDMtLjk0LS43Ny0xLjUzLTEuMDMtLjU5LS4yNS0xLjIxLS4zOC0xLjg4LS4zOGgtMi4yMWMtLjY3LDAtMS4yOS4xMy0xLjg4LjM4cy0xLjA5LjU5LTEuNTMsMS4wM2MtLjQzLjQzLS43Ny45NC0xLjAzLDEuNTMtLjI1LjU4LS4zOCwxLjIxLS4zOCwxLjg4djIwLjI1aC0zLjMydi0yNy42NWgxLjExbDEuODEsMi44MWMuNzYtMS4wMywxLjctMS44NCwyLjg1LTIuNDQsMS4xNC0uNiwyLjM5LS45LDMuNzQtLjloLjg0YzEuMTIsMCwyLjE3LjIxLDMuMTYuNjNzMS44NSwxLDIuNTksMS43NGMuNzQuNzQsMS4zMiwxLjYsMS43NCwyLjU5cy42MywyLjA0LjYzLDMuMTZ2MjAuMDZoLTMuMzJaIiBjbGFzcz0iY2xzLTYiLz4mI3hhOyAgICAgICAgPHBhdGggZD0ibTE5Ny4xOCwzMzkuMDhsLTE2LjE0LTI4LjE5LS4zMi0xLjY3djI5Ljg2aC0zLjQ4di0zOC43MWgxLjgxbDE2LjE0LDI4LjIxLjM1LDEuNjV2LTI5Ljg2aDMuNDh2MzguNzFoLTEuODRaIiBjbGFzcz0iY2xzLTYiLz4mI3hhOyAgICAgICAgPHBhdGggZD0ibTIyMi45NSwzMzQuNjVjLS40Mi45OS0xLDEuODUtMS43NCwyLjU5LS43NC43NC0xLjYsMS4zMi0yLjU5LDEuNzQtLjk5LjQyLTIuMDQuNjMtMy4xNi42M2gtMi4yMWMtMS4xMiwwLTIuMTctLjIxLTMuMTYtLjYzLS45OS0uNDItMS44NS0xLTIuNTktMS43NC0uNzQtLjc0LTEuMzItMS42LTEuNzQtMi41OS0uNDItLjk5LS42My0yLjA0LS42My0zLjE2di0xMi40N2MwLTEuMTIuMjEtMi4xNy42My0zLjE2LjQyLS45OSwxLTEuODUsMS43NC0yLjU5Ljc0LS43NCwxLjYtMS4zMiwyLjU5LTEuNzRzMi4wNC0uNjMsMy4xNi0uNjNoMi4yMWMxLjEyLDAsMi4xNy4yMSwzLjE2LjYzczEuODUsMSwyLjU5LDEuNzRjLjc0Ljc0LDEuMzIsMS42LDEuNzQsMi41OXMuNjMsMi4wNC42MywzLjE2djYuNTFoLTE1LjE1djYuMTZjMCwuNjcuMTMsMS4yOS4zOCwxLjg4LjI1LjU5LjU5LDEuMDksMS4wMywxLjUzLjQzLjQzLjk0Ljc3LDEuNTMsMS4wM3MxLjIxLjM4LDEuODguMzhoMi4yMWMuNjcsMCwxLjI5LS4xMywxLjg4LS4zOC41OC0uMjUsMS4wOS0uNTksMS41My0xLjAzcy43Ny0uOTQsMS4wMy0xLjUzYy4yNS0uNTguMzgtMS4yMS4zOC0xLjg4di0xLjg0bDMuMzIuNTR2MS4xMWMwLDEuMTItLjIxLDIuMTctLjYzLDMuMTZabS0yLjY5LTE1LjgyYzAtLjY3LS4xMy0xLjI5LS4zOC0xLjg4LS4yNS0uNTgtLjU5LTEuMDktMS4wMy0xLjUzLS40My0uNDMtLjk0LS43Ny0xLjUzLTEuMDMtLjU5LS4yNS0xLjIxLS4zOC0xLjg4LS4zOGgtMi4yMWMtLjY3LDAtMS4yOS4xMy0xLjg4LjM4cy0xLjA5LjU5LTEuNTMsMS4wM2MtLjQzLjQzLS43Ny45NC0xLjAzLDEuNTMtLjI1LjU4LS4zOCwxLjIxLS4zOCwxLjg4djQuMWgxMS44MnYtNC4xWiIgY2xhc3M9ImNscy02Ii8+JiN4YTsgICAgICAgIDxwYXRoIGQ9Im0yMzkuMTksMzM5LjA4Yy0xLjAxLDAtMS45Ni0uMTktMi44NS0uNTdzLTEuNjYtLjktMi4zMi0xLjU3LTEuMTgtMS40NC0xLjU3LTIuMzJjLS4zOS0uODgtLjU4LTEuODMtLjU4LTIuODN2LTE3LjJoLTQuOTd2LTMuMTZoNC45N3YtNi42NGwzLjMyLS41NHY3LjE4aDcuMDJ2My4xNmgtNy4wMnYxNy4zNmMwLC41Ni4xLDEuMDguMzEsMS41NS4yMS40OC40OS45Ljg1LDEuMjUuMzYuMzYuNzguNjQsMS4yNy44NS40OS4yMSwxLjAxLjMxLDEuNTcuMzFoMy4wMnYzLjE2aC0zLjAyWiIgY2xhc3M9ImNscy02Ii8+JiN4YTsgICAgICAgIDxwYXRoIGQ9Im0yNzAuNDgsMzM5LjA4aC0xLjgxbC02LjQ4LTIwLjg0LS4xMS0xLjQzLS4xMSwxLjQzLTYuNDgsMjAuODRoLTEuODRsLTkuMjMtMjcuNjVoMy4zN2w2LjU5LDIwLjkuMTEsMS40My4xMS0xLjQzLDYuNDgtMjAuOWgybDYuNDUsMjAuOS4xMSwxLjQzLjExLTEuNDMsNi41OS0yMC45aDMuMzdsLTkuMjMsMjcuNjVaIiBjbGFzcz0iY2xzLTYiLz4mI3hhOyAgICAgICAgPHBhdGggZD0ibTMwMC4zMiwzMzQuNjVjLS40Mi45OS0xLDEuODUtMS43NCwyLjU5LS43NC43NC0xLjYsMS4zMi0yLjU5LDEuNzQtLjk5LjQyLTIuMDQuNjMtMy4xNi42M2gtMi4yMWMtMS4xMiwwLTIuMTctLjIxLTMuMTYtLjYzLS45OS0uNDItMS44NS0xLTIuNTktMS43NC0uNzQtLjc0LTEuMzItMS42LTEuNzQtMi41OS0uNDItLjk5LS42My0yLjA0LS42My0zLjE2di0xMi40N2MwLTEuMTIuMjEtMi4xNy42My0zLjE2LjQyLS45OSwxLTEuODUsMS43NC0yLjU5Ljc0LS43NCwxLjYtMS4zMiwyLjU5LTEuNzRzMi4wNC0uNjMsMy4xNi0uNjNoMi4yMWMxLjEyLDAsMi4xNy4yMSwzLjE2LjYzLjk5LjQyLDEuODUsMSwyLjU5LDEuNzQuNzQuNzQsMS4zMiwxLjYsMS43NCwyLjU5cy42MywyLjA0LjYzLDMuMTZ2MTIuNDdjMCwxLjEyLS4yMSwyLjE3LS42MywzLjE2Wm0tMi42OS0xNS44MmMwLS42Ny0uMTMtMS4yOS0uMzgtMS44OC0uMjUtLjU4LS41OS0xLjA5LTEuMDMtMS41My0uNDMtLjQzLS45NC0uNzctMS41My0xLjAzLS41OS0uMjUtMS4yMS0uMzgtMS44OC0uMzhoLTIuMjFjLS42NywwLTEuMjkuMTMtMS44OC4zOHMtMS4wOS41OS0xLjUzLDEuMDNjLS40My40My0uNzcuOTQtMS4wMywxLjUzLS4yNS41OC0uMzgsMS4yMS0uMzgsMS44OHYxMi44NWMwLC42Ny4xMywxLjI5LjM4LDEuODguMjUuNTkuNTksMS4wOSwxLjAzLDEuNTMuNDMuNDMuOTQuNzcsMS41MywxLjAzczEuMjEuMzgsMS44OC4zOGgyLjIxYy42NywwLDEuMjktLjEzLDEuODgtLjM4LjU4LS4yNSwxLjA5LS41OSwxLjUzLTEuMDNzLjc3LS45NCwxLjAzLTEuNTNjLjI1LS41OC4zOC0xLjIxLjM4LTEuODh2LTEyLjg1WiIgY2xhc3M9ImNscy02Ii8+JiN4YTsgICAgICAgIDxwYXRoIGQ9Im0zMTQuNjIsMzE0LjU5Yy0uNjcsMC0xLjI5LjEzLTEuODguMzhzLTEuMDkuNTktMS41MywxLjAzYy0uNDMuNDMtLjc3Ljk0LTEuMDMsMS41My0uMjUuNTgtLjM4LDEuMjEtLjM4LDEuODh2MTkuNjhoLTMuMzJ2LTI3LjY1aDEuMTFsMS44MSwyLjgxYy43Ni0xLjAzLDEuNy0xLjg0LDIuODUtMi40NCwxLjE0LS42LDIuMzktLjksMy43NC0uOWgxLjk0djMuN2gtMy4zMloiIGNsYXNzPSJjbHMtNiIvPiYjeGE7ICAgICAgICA8cGF0aCBkPSJtMzIyLjM3LDMzOS4wOHYtMzguNzFoMy4zMnYzOC43MWgtMy4zMlptMTUuMjUsMGwtMTEuMjgtMTMuODIsMTEuMjgtMTMuODJoNC4zMmwtMTEuNTUsMTMuODIsMTEuNTUsMTMuODJoLTQuMzJaIiBjbGFzcz0iY2xzLTYiLz4mI3hhOyAgICAgICAgPHBhdGggZD0ibTM2Ni4zOCwzMDMuNTJjLS41NiwwLTEuMDguMS0xLjU1LjMxLS40OC4yMS0uOS40OS0xLjI2Ljg1LS4zNi4zNi0uNjQuNzgtLjg1LDEuMjctLjIxLjQ5LS4zMSwxLjAxLS4zMSwxLjU3djMuOTFoNi40NXYzLjE2aC02LjQ1djI0LjQ5aC0zLjMydi0yNC40OWgtNC45OXYtMy4xNmg0Ljk5di0zLjc1YzAtMS4wMS4xOS0xLjk2LjU3LTIuODUuMzgtLjg5LjktMS42NywxLjU3LTIuMzQuNjctLjY3LDEuNDQtMS4xOSwyLjMyLTEuNTcuODgtLjM4LDEuODMtLjU3LDIuODMtLjU3aDMuMDV2My4xNmgtMy4wNVoiIGNsYXNzPSJjbHMtNiIvPiYjeGE7ICAgICAgICA8cGF0aCBkPSJtMzg5LjQ4LDMzNC42NWMtLjQyLjk5LTEsMS44NS0xLjc0LDIuNTktLjc0Ljc0LTEuNiwxLjMyLTIuNTksMS43NC0uOTkuNDItMi4wNC42My0zLjE2LjYzaC0yLjIxYy0xLjEyLDAtMi4xNy0uMjEtMy4xNi0uNjMtLjk5LS40Mi0xLjg1LTEtMi41OS0xLjc0LS43NC0uNzQtMS4zMi0xLjYtMS43NC0yLjU5LS40Mi0uOTktLjYzLTIuMDQtLjYzLTMuMTZ2LTEyLjQ3YzAtMS4xMi4yMS0yLjE3LjYzLTMuMTYuNDItLjk5LDEtMS44NSwxLjc0LTIuNTkuNzQtLjc0LDEuNi0xLjMyLDIuNTktMS43NHMyLjA0LS42MywzLjE2LS42M2gyLjIxYzEuMTIsMCwyLjE3LjIxLDMuMTYuNjNzMS44NSwxLDIuNTksMS43NGMuNzQuNzQsMS4zMiwxLjYsMS43NCwyLjU5cy42MywyLjA0LjYzLDMuMTZ2MTIuNDdjMCwxLjEyLS4yMSwyLjE3LS42MywzLjE2Wm0tMi42OS0xNS44MmMwLS42Ny0uMTMtMS4yOS0uMzgtMS44OC0uMjUtLjU4LS41OS0xLjA5LTEuMDMtMS41My0uNDMtLjQzLS45NC0uNzctMS41My0xLjAzLS41OS0uMjUtMS4yMS0uMzgtMS44OC0uMzhoLTIuMjFjLS42NywwLTEuMjkuMTMtMS44OC4zOHMtMS4wOS41OS0xLjUzLDEuMDNjLS40My40My0uNzcuOTQtMS4wMywxLjUzLS4yNS41OC0uMzgsMS4yMS0uMzgsMS44OHYxMi44NWMwLC42Ny4xMywxLjI5LjM4LDEuODguMjUuNTkuNTksMS4wOSwxLjAzLDEuNTMuNDMuNDMuOTQuNzcsMS41MywxLjAzczEuMjEuMzgsMS44OC4zOGgyLjIxYy42NywwLDEuMjktLjEzLDEuODgtLjM4LjU4LS4yNSwxLjA5LS41OSwxLjUzLTEuMDNzLjc3LS45NCwxLjAzLTEuNTNjLjI1LS41OC4zOC0xLjIxLjM4LTEuODh2LTEyLjg1WiIgY2xhc3M9ImNscy02Ii8+JiN4YTsgICAgICAgIDxwYXRoIGQ9Im00MDMuNzcsMzE0LjU5Yy0uNjcsMC0xLjI5LjEzLTEuODguMzhzLTEuMDkuNTktMS41MywxLjAzYy0uNDMuNDMtLjc3Ljk0LTEuMDMsMS41My0uMjUuNTgtLjM4LDEuMjEtLjM4LDEuODh2MTkuNjhoLTMuMzJ2LTI3LjY1aDEuMTFsMS44MSwyLjgxYy43Ni0xLjAzLDEuNy0xLjg0LDIuODUtMi40NCwxLjE0LS42LDIuMzktLjksMy43NC0uOWgxLjk0djMuN2gtMy4zMloiIGNsYXNzPSJjbHMtNiIvPiYjeGE7ICAgICAgICA8cGF0aCBkPSJtNDQ0LjE4LDMzMy4yOGMtLjQ5LDEuMTUtMS4xNywyLjE2LTIuMDQsMy4wMnMtMS44OCwxLjU0LTMuMDQsMi4wNGMtMS4xNi40OS0yLjQuNzQtMy43MS43NGgtMTIuMjZ2LTM4LjcxaDEyLjI2YzEuMzEsMCwyLjU1LjI1LDMuNzEuNzQsMS4xNi40OSwyLjE3LDEuMTcsMy4wNCwyLjA0Ljg2Ljg2LDEuNTQsMS44OCwyLjA0LDMuMDRzLjc0LDIuNC43NCwzLjcxdjE5LjY4YzAsMS4zMS0uMjUsMi41NS0uNzQsMy43Wm0tMi43NC0yMy4zOGMwLS44Ni0uMTYtMS42Ny0uNDktMi40Mi0uMzItLjc1LS43Ny0xLjQtMS4zNC0xLjk3cy0xLjIyLTEuMDEtMS45Ny0xLjM0LTEuNTUtLjQ5LTIuNDItLjQ5aC04LjYxdjMyLjA3aDguNjFjLjg2LDAsMS42Ny0uMTYsMi40Mi0uNDlzMS40LS43NiwxLjk3LTEuMzJjLjU3LS41NiwxLjAxLTEuMjEsMS4zNC0xLjk2LjMyLS43NS40OS0xLjU1LjQ5LTIuNDJ2LTE5LjY4WiIgY2xhc3M9ImNscy02Ii8+JiN4YTsgICAgICAgIDxwYXRoIGQ9Im00NTAuNzIsMzA0Ljc5di00LjQzaDMuODZ2NC40M2gtMy44NlptLjI3LDM0LjI5di0yNy42NWgzLjMydjI3LjY1aC0zLjMyWiIgY2xhc3M9ImNscy02Ii8+JiN4YTsgICAgICAgIDxwYXRoIGQ9Im00NzkuMDYsMzQ1LjY0Yy0uNDIuOTQtMSwxLjc0LTEuNzQsMi40cy0xLjYsMS4xOC0yLjU5LDEuNTVjLS45OS4zNy0yLjA0LjU1LTMuMTYuNTVoLTEuMzhjLTEuMTIsMC0yLjE3LS4xOS0zLjE2LS41NS0uOTktLjM3LTEuODUtLjg5LTIuNTktMS41NXMtMS4zMi0xLjQ3LTEuNzQtMi40Yy0uNDItLjk0LS42My0xLjk2LS42My0zLjA4di0uMTFjMC0xLjA4LjItMi4wNy41OS0yLjk3LjQtLjkuOTQtMS42OCwxLjYyLTIuMzUtLjg2LS41Mi0xLjU1LTEuMjMtMi4wNi0yLjEycy0uNzctMS44OC0uNzctMi45NmMwLS45Ny4yMS0xLjg4LjYyLTIuNzFzLjk4LTEuNTIsMS43LTIuMDRjLS44Ni0uNzYtMS41NS0xLjY2LTIuMDUtMi43My0uNS0xLjA2LS43Ni0yLjIyLS43Ni0zLjQ4di0yLjA4YzAtMS4xMi4yMS0yLjE3LjYzLTMuMTZzMS0xLjg1LDEuNzQtMi41OWMuNzQtLjc0LDEuNi0xLjMyLDIuNTktMS43NC45OS0uNDIsMi4wNC0uNjMsMy4xNi0uNjNoMS4zOGMxLjM1LDAsMi42LjMsMy43NC45LDEuMTQuNiwyLjA5LDEuNDIsMi44NSwyLjQ0bDEuODEtMi44MWgxLjExdjkuNjdjMCwxLjEyLS4yMSwyLjE3LS42MywzLjE2LS40Mi45OS0xLDEuODUtMS43NCwyLjU5LS43NC43NC0xLjYsMS4zMi0yLjU5LDEuNzQtLjk5LjQyLTIuMDQuNjMtMy4xNi42M2gtNC44MWMtLjM4LDAtLjc0LjA4LTEuMDguMjNzLS42NC4zNi0uOS42MWMtLjI2LjI1LS40Ni41NS0uNjEuOS0uMTQuMzUtLjIyLjcxLS4yMiwxLjA5cy4wNy43NC4yMiwxLjA4Yy4xNC4zNC4zNS42NC42MS45LjI2LjI2LjU2LjQ2LjkuNjFzLjcuMjIsMS4wOC4yMmg0LjU0YzEuMTIsMCwyLjE3LjE5LDMuMTYuNTUuOTkuMzcsMS44NS44OSwyLjU5LDEuNTVzMS4zMiwxLjQ3LDEuNzQsMi40Yy40Mi45NC42MywxLjk2LjYzLDMuMDh2LjExYzAsMS4xMi0uMjEsMi4xNC0uNjMsMy4wOFptLTIuMzktMjYuODFjMC0uNjctLjEzLTEuMjktLjM4LTEuODgtLjI1LS41OC0uNi0xLjA5LTEuMDQtMS41My0uNDQtLjQzLS45NS0uNzctMS41NC0xLjAzcy0xLjIxLS4zOC0xLjg4LS4zOGgtMi43NWMtLjY3LDAtMS4yOS4xMy0xLjg4LjM4cy0xLjA5LjU5LTEuNTIsMS4wMy0uNzcuOTQtMS4wMywxLjUzLS4zOCwxLjIxLS4zOCwxLjg4djIuNDZjMCwuNjcuMTMsMS4yOS4zOCwxLjg4cy41OSwxLjA5LDEuMDMsMS41My45NC43NywxLjUyLDEuMDNjLjU4LjI1LDEuMjEuMzgsMS44OC4zOGgyLjc1Yy42NywwLDEuMjktLjEzLDEuODgtLjM4LjU4LS4yNSwxLjEtLjU5LDEuNTQtMS4wMy40NC0uNDMuNzktLjk0LDEuMDQtMS41My4yNS0uNTguMzgtMS4yMS4zOC0xLjg4di0yLjQ2Wm0tLjE0LDIzLjQ2YzAtLjY3LS4xMy0xLjI2LS4zOC0xLjgtLjI1LS41My0uNTktLjk4LTEuMDMtMS4zNC0uNDMtLjM2LS45NC0uNjQtMS41Mi0uODQtLjU5LS4yLTEuMjEtLjMtMS44OC0uM2gtMS43Yy0uNjcsMC0xLjI5LjEtMS44OC4zLS41OC4yLTEuMDkuNDgtMS41My44NHMtLjc3LjgxLTEuMDMsMS4zNGMtLjI1LjUzLS4zOCwxLjEzLS4zOCwxLjh2LjQzYzAsLjY3LjEzLDEuMjYuMzgsMS43OC4yNS41Mi41OS45NywxLjAzLDEuMzQuNDMuMzcuOTQuNjUsMS41My44NS41OC4yLDEuMjEuMywxLjg4LjNoMS43Yy42NywwLDEuMjktLjEsMS44OC0uMy41OC0uMiwxLjA5LS40OCwxLjUyLS44NS40My0uMzcuNzctLjgxLDEuMDMtMS4zNC4yNS0uNTIuMzgtMS4xMi4zOC0xLjc4di0uNDNaIiBjbGFzcz0iY2xzLTYiLz4mI3hhOyAgICAgICAgPHBhdGggZD0ibTQ4NS44LDMwNC43OXYtNC40M2gzLjg2djQuNDNoLTMuODZabS4yNywzNC4yOXYtMjcuNjVoMy4zMnYyNy42NWgtMy4zMloiIGNsYXNzPSJjbHMtNiIvPiYjeGE7ICAgICAgICA8cGF0aCBkPSJtNTA2LjEsMzM5LjA4Yy0xLjAxLDAtMS45Ni0uMTktMi44NS0uNTdzLTEuNjYtLjktMi4zMi0xLjU3Yy0uNjYtLjY3LTEuMTgtMS40NC0xLjU3LTIuMzItLjM5LS44OC0uNTgtMS44My0uNTgtMi44M3YtMTcuMmgtNC45N3YtMy4xNmg0Ljk3di02LjY0bDMuMzItLjU0djcuMThoNy4wMnYzLjE2aC03LjAydjE3LjM2YzAsLjU2LjEsMS4wOC4zMSwxLjU1LjIxLjQ4LjQ5LjkuODUsMS4yNXMuNzguNjQsMS4yNy44NWMuNDkuMjEsMS4wMS4zMSwxLjU3LjMxaDMuMDJ2My4xNmgtMy4wMloiIGNsYXNzPSJjbHMtNiIvPiYjeGE7ICAgICAgICA8cGF0aCBkPSJtNTMxLjQ4LDMzOS4wOGwtMS44NC0yLjc1Yy0uNzYuOTktMS43LDEuNzktMi44NCwyLjM5LTEuMTMuNi0yLjM4LjktMy43My45aC0uODRjLTEuMTIsMC0yLjE3LS4yMS0zLjE2LS42My0uOTktLjQyLTEuODUtMS0yLjU5LTEuNzQtLjc0LS43NC0xLjMyLTEuNi0xLjc0LTIuNTktLjQyLS45OS0uNjMtMi4wNC0uNjMtMy4xNnYtLjI3YzAtMS4xMi4yMS0yLjE3LjYzLTMuMTYuNDItLjk5LDEtMS44NSwxLjc0LTIuNTlzMS42LTEuMzIsMi41OS0xLjc0Yy45OS0uNDIsMi4wNC0uNjMsMy4xNi0uNjNoNy4wMnYtNC4yN2MwLS42Ny0uMTMtMS4yOS0uMzgtMS44OC0uMjUtLjU4LS41OS0xLjA5LTEuMDMtMS41My0uNDMtLjQzLS45NC0uNzctMS41My0xLjAzcy0xLjIxLS4zOC0xLjg4LS4zOGgtMS45NGMtLjY3LDAtMS4yOS4xMy0xLjg4LjM4LS41OS4yNS0xLjA5LjU5LTEuNTMsMS4wMy0uNDMuNDMtLjc3Ljk0LTEuMDMsMS41M3MtLjM4LDEuMjEtLjM4LDEuODh2MWwtMy4zMi0uNTR2LS4yN2MwLTEuMTIuMjEtMi4xNy42My0zLjE2LjQyLS45OSwxLTEuODUsMS43NC0yLjU5Ljc0LS43NCwxLjYtMS4zMiwyLjU5LTEuNzRzMi4wNC0uNjMsMy4xNi0uNjNoMS45NGMxLjEyLDAsMi4xNy4yMSwzLjE2LjYzczEuODUsMSwyLjU5LDEuNzRjLjc0Ljc0LDEuMzIsMS42LDEuNzQsMi41OXMuNjMsMi4wNC42MywzLjE2djIwLjA2aC0xLjExWm0tMi4yMS0xMy4zOWgtNy4wMmMtLjY3LDAtMS4yOS4xMy0xLjg4LjM4cy0xLjA5LjYtMS41MiwxLjA0Yy0uNDMuNDQtLjc3Ljk1LTEuMDMsMS41NHMtLjM4LDEuMjEtLjM4LDEuODh2MS4xNmMwLC42Ny4xMywxLjI5LjM4LDEuODguMjUuNTkuNTksMS4wOSwxLjAzLDEuNTMuNDMuNDMuOTQuNzcsMS41MiwxLjAzczEuMjEuMzgsMS44OC4zOGgyLjIxYy42NywwLDEuMjktLjEzLDEuODgtLjM4czEuMDktLjU5LDEuNTMtMS4wMy43Ny0uOTQsMS4wMy0xLjUzYy4yNS0uNTguMzgtMS4yMS4zOC0xLjg4di01Ljk5WiIgY2xhc3M9ImNscy02Ii8+JiN4YTsgICAgICAgIDxwYXRoIGQ9Im01MzkuMjMsMzM5LjA4di0zOC43MWgzLjMydjM4LjcxaC0zLjMyWiIgY2xhc3M9ImNscy02Ii8+JiN4YTsgICAgICAgIDxwYXRoIGQ9Im01ODIuMzksMzMzLjgyYy0uNDksMS4xNS0xLjE3LDIuMTYtMi4wNCwzLjAycy0xLjg3LDEuNTQtMy4wMiwyLjA0Yy0xLjE1LjQ5LTIuMzguNzQtMy43Ljc0aC0yLjc1Yy0xLjMxLDAtMi41NS0uMjUtMy43MS0uNzQtMS4xNi0uNDktMi4xNy0xLjE4LTMuMDQtMi4wNC0uODYtLjg2LTEuNTQtMS44Ny0yLjA0LTMuMDItLjQ5LTEuMTUtLjc0LTIuMzktLjc0LTMuN3YtMjAuNzljMC0xLjMxLjI1LTIuNTUuNzQtMy43LjQ5LTEuMTUsMS4xOC0yLjE2LDIuMDQtMy4wMi44Ni0uODYsMS44OC0xLjU0LDMuMDQtMi4wNCwxLjE2LS40OSwyLjQtLjc0LDMuNzEtLjc0aDIuNzVjMS4zMSwwLDIuNTUuMjUsMy43Ljc0LDEuMTUuNSwyLjE2LDEuMTgsMy4wMiwyLjA0Ljg2Ljg2LDEuNTQsMS44NywyLjA0LDMuMDIuNDksMS4xNS43NCwyLjM5Ljc0LDMuN3YxLjU3bC0zLjQ4LjU0di0yLjFjMC0uODYtLjE2LTEuNjctLjQ4LTIuNDJzLS43Ny0xLjQtMS4zMi0xLjk2LTEuMjEtMS0xLjk2LTEuMzItMS41NS0uNDktMi40Mi0uNDloLTIuNDNjLS44NiwwLTEuNjcuMTYtMi40Mi40OXMtMS40Ljc2LTEuOTcsMS4zMmMtLjU3LjU2LTEuMDEsMS4yMS0xLjM0LDEuOTZzLS40OSwxLjU1LS40OSwyLjQydjIwLjc5YzAsLjg2LjE2LDEuNjcuNDksMi40MnMuNzcsMS40LDEuMzQsMS45N2MuNTcuNTcsMS4yMiwxLjAxLDEuOTcsMS4zNHMxLjU1LjQ5LDIuNDIuNDloMi40M2MuODYsMCwxLjY3LS4xNiwyLjQyLS40OXMxLjQtLjc3LDEuOTYtMS4zNCwxLTEuMjIsMS4zMi0xLjk3LjQ4LTEuNTUuNDgtMi40MnYtMi4xMWwzLjQ4LjU3djEuNTRjMCwxLjMxLS4yNSwyLjU1LS43NCwzLjdaIiBjbGFzcz0iY2xzLTYiLz4mI3hhOyAgICAgICAgPHBhdGggZD0ibTYwNi41LDMzNC42NWMtLjQyLjk5LTEsMS44NS0xLjc0LDIuNTktLjc0Ljc0LTEuNiwxLjMyLTIuNTksMS43NHMtMi4wNC42My0zLjE2LjYzaC0yLjIxYy0xLjEyLDAtMi4xNy0uMjEtMy4xNi0uNjMtLjk5LS40Mi0xLjg1LTEtMi41OS0xLjc0LS43NC0uNzQtMS4zMi0xLjYtMS43NC0yLjU5LS40Mi0uOTktLjYzLTIuMDQtLjYzLTMuMTZ2LTEyLjQ3YzAtMS4xMi4yMS0yLjE3LjYzLTMuMTZzMS0xLjg1LDEuNzQtMi41OWMuNzQtLjc0LDEuNi0xLjMyLDIuNTktMS43NC45OS0uNDIsMi4wNC0uNjMsMy4xNi0uNjNoMi4yMWMxLjEyLDAsMi4xNy4yMSwzLjE2LjYzczEuODUsMSwyLjU5LDEuNzRjLjc0Ljc0LDEuMzIsMS42LDEuNzQsMi41OXMuNjMsMi4wNC42MywzLjE2djEyLjQ3YzAsMS4xMi0uMjEsMi4xNy0uNjMsMy4xNlptLTIuNjktMTUuODJjMC0uNjctLjEzLTEuMjktLjM4LTEuODgtLjI1LS41OC0uNTktMS4wOS0xLjAzLTEuNTMtLjQzLS40My0uOTQtLjc3LTEuNTMtMS4wM3MtMS4yMS0uMzgtMS44OC0uMzhoLTIuMjFjLS42NywwLTEuMjkuMTMtMS44OC4zOHMtMS4wOS41OS0xLjUyLDEuMDMtLjc3Ljk0LTEuMDMsMS41My0uMzgsMS4yMS0uMzgsMS44OHYxMi44NWMwLC42Ny4xMywxLjI5LjM4LDEuODguMjUuNTkuNTksMS4wOSwxLjAzLDEuNTMuNDMuNDMuOTQuNzcsMS41MiwxLjAzczEuMjEuMzgsMS44OC4zOGgyLjIxYy42NywwLDEuMjktLjEzLDEuODgtLjM4czEuMDktLjU5LDEuNTMtMS4wMy43Ny0uOTQsMS4wMy0xLjUzYy4yNS0uNTguMzgtMS4yMS4zOC0xLjg4di0xMi44NVoiIGNsYXNzPSJjbHMtNiIvPiYjeGE7ICAgICAgICA8cGF0aCBkPSJtNjQxLjg1LDMzOS4wOHYtMjAuMjVjMC0uNjctLjEzLTEuMjktLjM4LTEuODgtLjI1LS41OC0uNTktMS4wOS0xLjAzLTEuNTMtLjQzLS40My0uOTQtLjc3LTEuNTMtMS4wM3MtMS4yMS0uMzgtMS44OC0uMzhoLTEuNjVjLS42NywwLTEuMjkuMTMtMS44OC4zOHMtMS4xLjU5LTEuNTQsMS4wM2MtLjQ0LjQzLS43OS45NC0xLjA0LDEuNTMtLjI1LjU4LS4zOCwxLjIxLS4zOCwxLjg4djIwLjI1aC0zLjI5di0yMC4yNWMwLS42Ny0uMTMtMS4yOS0uMzgtMS44OHMtLjYtMS4wOS0xLjA0LTEuNTNjLS40NC0uNDMtLjk1LS43Ny0xLjU0LTEuMDNzLTEuMjEtLjM4LTEuODgtLjM4aC0xLjY1Yy0uNjcsMC0xLjI5LjEzLTEuODguMzhzLTEuMDkuNTktMS41MiwxLjAzLS43Ny45NC0xLjAzLDEuNTMtLjM4LDEuMjEtLjM4LDEuODh2MjAuMjVoLTMuMzJ2LTI3LjY1aDEuMTFsMS44MSwyLjgxYy43Ni0xLjAzLDEuNzEtMS44NCwyLjg1LTIuNDQsMS4xNC0uNiwyLjM5LS45LDMuNzQtLjloLjI3YzEuNTcsMCwyLjk4LjM5LDQuMjQsMS4xNiwxLjI2Ljc3LDIuMjMsMS44LDIuOTIsMy4wOC4zNC0uNjMuNzYtMS4yMSwxLjI3LTEuNzMuNS0uNTIsMS4wNi0uOTcsMS42Ny0xLjM0LjYxLS4zNywxLjI4LS42NiwyLS44Ni43Mi0uMjEsMS40Ny0uMzEsMi4yNC0uMzFoLjI3YzEuMTIsMCwyLjE3LjIxLDMuMTYuNjNzMS44NSwxLDIuNTksMS43NGMuNzQuNzQsMS4zMiwxLjYsMS43NCwyLjU5cy42MywyLjA0LjYzLDMuMTZ2MjAuMDZoLTMuMzJaIiBjbGFzcz0iY2xzLTYiLz4mI3hhOyAgICAgICAgPHBhdGggZD0ibTY3OS44OSwzMzkuMDh2LTIwLjI1YzAtLjY3LS4xMy0xLjI5LS4zOC0xLjg4LS4yNS0uNTgtLjU5LTEuMDktMS4wMy0xLjUzLS40My0uNDMtLjk0LS43Ny0xLjUzLTEuMDNzLTEuMjEtLjM4LTEuODgtLjM4aC0xLjY1Yy0uNjcsMC0xLjI5LjEzLTEuODguMzhzLTEuMS41OS0xLjU0LDEuMDNjLS40NC40My0uNzkuOTQtMS4wNCwxLjUzLS4yNS41OC0uMzgsMS4yMS0uMzgsMS44OHYyMC4yNWgtMy4yOXYtMjAuMjVjMC0uNjctLjEzLTEuMjktLjM4LTEuODhzLS42LTEuMDktMS4wNC0xLjUzYy0uNDQtLjQzLS45NS0uNzctMS41NC0xLjAzcy0xLjIxLS4zOC0xLjg4LS4zOGgtMS42NWMtLjY3LDAtMS4yOS4xMy0xLjg4LjM4cy0xLjA5LjU5LTEuNTIsMS4wMy0uNzcuOTQtMS4wMywxLjUzLS4zOCwxLjIxLS4zOCwxLjg4djIwLjI1aC0zLjMydi0yNy42NWgxLjExbDEuODEsMi44MWMuNzYtMS4wMywxLjcxLTEuODQsMi44NS0yLjQ0LDEuMTQtLjYsMi4zOS0uOSwzLjc0LS45aC4yN2MxLjU3LDAsMi45OC4zOSw0LjI0LDEuMTYsMS4yNi43NywyLjIzLDEuOCwyLjkyLDMuMDguMzQtLjYzLjc2LTEuMjEsMS4yNy0xLjczLjUtLjUyLDEuMDYtLjk3LDEuNjctMS4zNC42MS0uMzcsMS4yOC0uNjYsMi0uODYuNzItLjIxLDEuNDctLjMxLDIuMjQtLjMxaC4yN2MxLjEyLDAsMi4xNy4yMSwzLjE2LjYzczEuODUsMSwyLjU5LDEuNzRjLjc0Ljc0LDEuMzIsMS42LDEuNzQsMi41OXMuNjMsMi4wNC42MywzLjE2djIwLjA2aC0zLjMyWiIgY2xhc3M9ImNscy02Ii8+JiN4YTsgICAgICAgIDxwYXRoIGQ9Im03MDYuNTgsMzM0LjY1Yy0uNDIuOTktMSwxLjg1LTEuNzQsMi41OS0uNzQuNzQtMS42LDEuMzItMi41OSwxLjc0LS45OS40Mi0yLjA0LjYzLTMuMTYuNjNoLTIuMjFjLTEuMTIsMC0yLjE3LS4yMS0zLjE2LS42My0uOTktLjQyLTEuODUtMS0yLjU5LTEuNzQtLjc0LS43NC0xLjMyLTEuNi0xLjc0LTIuNTlzLS42My0yLjA0LS42My0zLjE2di0xMi40N2MwLTEuMTIuMjEtMi4xNy42My0zLjE2czEtMS44NSwxLjc0LTIuNTljLjc0LS43NCwxLjYtMS4zMiwyLjU5LTEuNzQuOTktLjQyLDIuMDQtLjYzLDMuMTYtLjYzaDIuMjFjMS4xMiwwLDIuMTcuMjEsMy4xNi42M3MxLjg1LDEsMi41OSwxLjc0Yy43NC43NCwxLjMyLDEuNiwxLjc0LDIuNTlzLjYzLDIuMDQuNjMsMy4xNnY2LjUxaC0xNS4xNXY2LjE2YzAsLjY3LjEzLDEuMjkuMzgsMS44OC4yNS41OS41OSwxLjA5LDEuMDMsMS41My40My40My45NC43NywxLjUyLDEuMDNzMS4yMS4zOCwxLjg4LjM4aDIuMjFjLjY3LDAsMS4yOS0uMTMsMS44OC0uMzhzMS4wOS0uNTksMS41My0xLjAzLjc3LS45NCwxLjAzLTEuNTNjLjI1LS41OC4zOC0xLjIxLjM4LTEuODh2LTEuODRsMy4zMi41NHYxLjExYzAsMS4xMi0uMjEsMi4xNy0uNjMsMy4xNlptLTIuNjktMTUuODJjMC0uNjctLjEzLTEuMjktLjM4LTEuODgtLjI1LS41OC0uNTktMS4wOS0xLjAzLTEuNTMtLjQzLS40My0uOTQtLjc3LTEuNTMtMS4wM3MtMS4yMS0uMzgtMS44OC0uMzhoLTIuMjFjLS42NywwLTEuMjkuMTMtMS44OC4zOHMtMS4wOS41OS0xLjUyLDEuMDMtLjc3Ljk0LTEuMDMsMS41My0uMzgsMS4yMS0uMzgsMS44OHY0LjFoMTEuODN2LTQuMVoiIGNsYXNzPSJjbHMtNiIvPiYjeGE7ICAgICAgICA8cGF0aCBkPSJtNzIwLjg4LDMxNC41OWMtLjY3LDAtMS4yOS4xMy0xLjg4LjM4cy0xLjA5LjU5LTEuNTIsMS4wMy0uNzcuOTQtMS4wMywxLjUzLS4zOCwxLjIxLS4zOCwxLjg4djE5LjY4aC0zLjMydi0yNy42NWgxLjExbDEuODEsMi44MWMuNzYtMS4wMywxLjcxLTEuODQsMi44NS0yLjQ0LDEuMTQtLjYsMi4zOS0uOSwzLjc0LS45aDEuOTR2My43aC0zLjMyWiIgY2xhc3M9ImNscy02Ii8+JiN4YTsgICAgICAgIDxwYXRoIGQ9Im03NDUuMzUsMzM0LjY1Yy0uNDIuOTktMSwxLjg1LTEuNzQsMi41OS0uNzQuNzQtMS42LDEuMzItMi41OSwxLjc0LS45OS40Mi0yLjA0LjYzLTMuMTYuNjNoLTIuMjFjLTEuMTIsMC0yLjE3LS4yMS0zLjE2LS42My0uOTktLjQyLTEuODUtMS0yLjU5LTEuNzQtLjc0LS43NC0xLjMyLTEuNi0xLjc0LTIuNTlzLS42My0yLjA0LS42My0zLjE2di0xMi40N2MwLTEuMTIuMjEtMi4xNy42My0zLjE2LjQyLS45OSwxLTEuODUsMS43NC0yLjU5Ljc0LS43NCwxLjYtMS4zMiwyLjU5LTEuNzQuOTktLjQyLDIuMDQtLjYzLDMuMTYtLjYzaDIuMjFjMS4xMiwwLDIuMTcuMjEsMy4xNi42My45OS40MiwxLjg1LDEsMi41OSwxLjc0Ljc0Ljc0LDEuMzIsMS42LDEuNzQsMi41OXMuNjMsMi4wNC42MywzLjE2djEuMTFsLTMuMzIuNTR2LTEuODRjMC0uNjctLjEzLTEuMjktLjM4LTEuODgtLjI1LS41OC0uNTktMS4wOS0xLjAzLTEuNTMtLjQzLS40My0uOTQtLjc3LTEuNTMtMS4wM3MtMS4yMS0uMzgtMS44OC0uMzhoLTIuMjFjLS42NywwLTEuMjkuMTMtMS44OC4zOHMtMS4wOS41OS0xLjUyLDEuMDMtLjc3Ljk0LTEuMDMsMS41My0uMzgsMS4yMS0uMzgsMS44OHYxMi44NWMwLC42Ny4xMywxLjI5LjM4LDEuODguMjUuNTkuNTksMS4wOSwxLjAzLDEuNTMuNDMuNDMuOTQuNzcsMS41MiwxLjAzczEuMjEuMzgsMS44OC4zOGgyLjIxYy42NywwLDEuMjktLjEzLDEuODgtLjM4czEuMDktLjU5LDEuNTMtMS4wMy43Ny0uOTQsMS4wMy0xLjUzYy4yNS0uNTguMzgtMS4yMS4zOC0xLjg4di0xLjg0bDMuMzIuNTR2MS4xMWMwLDEuMTItLjIxLDIuMTctLjYzLDMuMTZaIiBjbGFzcz0iY2xzLTYiLz4mI3hhOyAgICAgICAgPHBhdGggZD0ibTc2OS4zNSwzMzQuNjVjLS40Mi45OS0xLDEuODUtMS43NCwyLjU5LS43NC43NC0xLjYsMS4zMi0yLjU5LDEuNzQtLjk5LjQyLTIuMDQuNjMtMy4xNi42M2gtMi4yMWMtMS4xMiwwLTIuMTctLjIxLTMuMTYtLjYzLS45OS0uNDItMS44NS0xLTIuNTktMS43NC0uNzQtLjc0LTEuMzItMS42LTEuNzQtMi41OXMtLjYzLTIuMDQtLjYzLTMuMTZ2LTEyLjQ3YzAtMS4xMi4yMS0yLjE3LjYzLTMuMTZzMS0xLjg1LDEuNzQtMi41OWMuNzQtLjc0LDEuNi0xLjMyLDIuNTktMS43NC45OS0uNDIsMi4wNC0uNjMsMy4xNi0uNjNoMi4yMWMxLjEyLDAsMi4xNy4yMSwzLjE2LjYzczEuODUsMSwyLjU5LDEuNzRjLjc0Ljc0LDEuMzIsMS42LDEuNzQsMi41OXMuNjMsMi4wNC42MywzLjE2djYuNTFoLTE1LjE1djYuMTZjMCwuNjcuMTMsMS4yOS4zOCwxLjg4LjI1LjU5LjU5LDEuMDksMS4wMywxLjUzLjQzLjQzLjk0Ljc3LDEuNTIsMS4wM3MxLjIxLjM4LDEuODguMzhoMi4yMWMuNjcsMCwxLjI5LS4xMywxLjg4LS4zOHMxLjA5LS41OSwxLjUzLTEuMDMuNzctLjk0LDEuMDMtMS41M2MuMjUtLjU4LjM4LTEuMjEuMzgtMS44OHYtMS44NGwzLjMyLjU0djEuMTFjMCwxLjEyLS4yMSwyLjE3LS42MywzLjE2Wm0tMi42OS0xNS44MmMwLS42Ny0uMTMtMS4yOS0uMzgtMS44OC0uMjUtLjU4LS41OS0xLjA5LTEuMDMtMS41My0uNDMtLjQzLS45NC0uNzctMS41My0xLjAzcy0xLjIxLS4zOC0xLjg4LS4zOGgtMi4yMWMtLjY3LDAtMS4yOS4xMy0xLjg4LjM4cy0xLjA5LjU5LTEuNTIsMS4wMy0uNzcuOTQtMS4wMywxLjUzLS4zOCwxLjIxLS4zOCwxLjg4djQuMWgxMS44M3YtNC4xWiIgY2xhc3M9ImNscy02Ii8+JiN4YTsgICAgICA8L2c+JiN4YTsgICAgICA8cGF0aCBkPSJtMTM0LjIsOTUuNjljMjYuNTIsMCw0Ny44NCw4LjA2LDYzLjk3LDI0LjE5LDE2LjEzLDE2LjEzLDI0LjIsMzcuNDUsMjQuMiw2My45N3MtOC4xLDQ3LjctMjQuMjgsNjMuODljLTE2LjE5LDE2LjE5LTM3LjQ5LDI0LjI4LTYzLjg4LDI0LjI4cy00Ny41Ni04LjEyLTYzLjgtMjQuMzdjLTE2LjI0LTE2LjI0LTI0LjM2LTM3LjUxLTI0LjM2LTYzLjhzOC4wOS00Ny43LDI0LjI4LTYzLjg4YzE2LjE5LTE2LjE5LDM3LjQ5LTI0LjI4LDYzLjg5LTI0LjI4Wm0wLDM1LjNjLTIwLjI3LDAtMzUuMzksOC00NS4zNywyNC4wMi01LDguMDQtNy40OSwxNy42NS03LjQ5LDI4Ljg0LDAsMTAuMjIsMi4yNCwxOS4zOCw2LjcyLDI3LjQ3LDQuNyw4LjUsMTEuNDgsMTQuOTUsMjAuMzIsMTkuMzgsOC4wNCw0LjAxLDE2LjY0LDYuMDIsMjUuODMsNi4wMiwyMC4yNiwwLDM1LjM5LTguMDMsNDUuMzctMjQuMSw1LTcuOTgsNy40OS0xNy41Niw3LjQ5LTI4Ljc2LDAtMTYuNzYtNS4zOS0yOS45LTE2LjE5LTM5LjQzLTEwLjExLTguOTUtMjIuMzMtMTMuNDMtMzYuNjgtMTMuNDNaIiBjbGFzcz0iY2xzLTIiLz4mI3hhOyAgICAgIDxwYXRoIGQ9Im03NDguNDgsMjIxLjkxbDI1Ljc0LDI1Ljc0Yy0xMC4zMywxMC41Ni0yMy4zNiwxNy43NC0zOS4wOSwyMS41My03LjY5LDEuODktMTUuOTMsMi44NC0yNC43MSwyLjg0LTI2LjI5LDAtNDcuNTUtOC4xMi02My44LTI0LjM3LTE2LjI0LTE2LjI0LTI0LjM2LTM3LjUxLTI0LjM2LTYzLjhzOC4wOS00Ny43LDI0LjI4LTYzLjg4YzE2LjE4LTE2LjE5LDM3LjQ4LTI0LjI4LDYzLjg4LTI0LjI4czQ3Ljg1LDguMDYsNjMuOTgsMjQuMTlsLTI1LjkyLDI1LjkyYy0xMC4xLTkuODgtMjIuNzktMTQuODEtMzguMDYtMTQuODEtMjAuMjYsMC0zNS4zOCw4LTQ1LjM3LDI0LjAyLTQuOTksOC4wNC03LjQ5LDE3LjY1LTcuNDksMjguODQsMCwxMC4yMiwyLjI1LDE5LjM4LDYuNzIsMjcuNDcsNC43MSw4LjUsMTEuNDgsMTQuOTUsMjAuMzIsMTkuMzgsOC4wNCw0LjAxLDE2LjY1LDYuMDIsMjUuODMsNi4wMiwxNS4yNywwLDI3Ljk2LTQuOTMsMzguMDYtMTQuODFaIiBjbGFzcz0iY2xzLTgiLz4mI3hhOyAgICAgIDxnPiYjeGE7ICAgICAgICA8cGF0aCBkPSJtNDk5Ljg1LDEyNy4yMmMyLjY1LDAsNC44LTIuMTUsNC44LTQuOHMtMi4xNS00Ljc5LTQuOC00Ljc5LTQuOCwyLjE1LTQuOCw0Ljc5LDIuMTUsNC44LDQuOCw0LjhaIiBjbGFzcz0iY2xzLTEwIi8+JiN4YTsgICAgICAgIDxwYXRoIGQ9Im00MzguMzMsMTgwLjc4YzAsLjU3LDEuMDEuNTgsMS4wMiwwLDAtLjI5LS4yMi0uNTEtLjUxLS41MXMtLjUxLjIyLS41MS41MVoiIGNsYXNzPSJjbHMtMTYiLz4mI3hhOyAgICAgIDwvZz4mI3hhOyAgICAgIDxwYXRoIGQ9Im01ODAuNzksMTE5Ljg4Yy0xMC40My0xMC40Mi0yMy4wMy0xNy40NS0zNy43OC0yMS4xNGwtOS4wMyw5LjA0YzEuOTMsNC41LDMuMDEsOS40NSwzLjAxLDE0LjY1LDAsMy45OC0uNjMsNy44Mi0xLjgsMTEuNDIsNi43MiwyLjIyLDEyLjgzLDUuNzIsMTguMzEsMTAuNTcsMTAuNzksOS41MywxNi4xOCwyMi42NywxNi4xOCwzOS40MywwLDExLjItMi40OSwyMC43OC03LjQ5LDI4Ljc2LTkuOTgsMTYuMDctMjUuMSwyNC4xLTQ1LjM3LDI0LjFoLTUyLjg3di00NS45M2MtMy45OSw5Ljk3LTEzLjczLDE3LjAzLTI1LjEsMTcuMDMtMy42MSwwLTcuMDUtLjcyLTEwLjItMnY2Ni4yMWg4OC4xN2MyNi40LDAsNDcuNy04LjA5LDYzLjg4LTI0LjI4LDE2LjItMTYuMTksMjQuMjgtMzcuNDgsMjQuMjgtNjMuODlzLTguMDYtNDcuODQtMjQuMTgtNjMuOTdaIiBjbGFzcz0iY2xzLTUiLz4mI3hhOyAgICAgIDxnPiYjeGE7ICAgICAgICA8cGF0aCBkPSJtNTI1LjYsMTMyLjY3bC0yMy40Ny0xMC4wMWMtMS4yOS0uNTUtMi42MS43Ni0yLjA1LDIuMDVsMTAuMDEsMjMuNDdjLjI1LjU5Ljg0Ljk4LDEuNTEuOTUuNjUtLjAzLDEuMjItLjQ1LDEuNDItMS4wN2wzLjA5LTkuMzcsOS4zNy0zLjA5Yy42Mi0uMiwxLjA1LS43NywxLjA3LTEuNDIuMDMtLjY1LS4zNS0xLjI1LS45NS0xLjUxWm0tMTEuMjIsMy4yOWMtLjQ3LjE2LS44NC41Mi0xLDFsLTIuMDQsNi4xOC02Ljg2LTE2LjA4LDE2LjA4LDYuODYtNi4xOCwyLjA0WiIgY2xhc3M9ImNscy03Ii8+JiN4YTsgICAgICAgIDxwYXRoIGQ9Im00OTkuODUsMTA1LjE0Yy05LjUzLDAtMTcuMjksNy43Ni0xNy4yOSwxNy4yOXM3Ljc2LDE3LjI5LDE3LjI5LDE3LjI5YzEuMjUsMCwyLjI3LTEuMDIsMi4yNy0yLjI3cy0xLjAyLTIuMjctMi4yNy0yLjI3Yy03LjAzLDAtMTIuNzUtNS43Mi0xMi43NS0xMi43NXM1LjcyLTEyLjc1LDEyLjc1LTEyLjc1LDEyLjc1LDUuNzIsMTIuNzUsMTIuNzVjMCwxLjI1LDEuMDIsMi4yNywyLjI3LDIuMjdzMi4yNy0xLjAyLDIuMjctMi4yN2MwLTkuNTMtNy43Ni0xNy4yOS0xNy4yOS0xNy4yOVoiIGNsYXNzPSJjbHMtMTQiLz4mI3hhOyAgICAgICAgPHBhdGggZD0ibTUxOS4yMSwxMDMuMDdjLTUuMTktNS4xOS0xMi4wNy04LjA1LTE5LjM2LTguMDVoMGMtNy4yOSwwLTE0LjE3LDIuODYtMTkuMzYsOC4wNS0xMC42NywxMC42Ny0xMC42NywyOC4wNCwwLDM4LjcyLDUuMTksNS4xOSwxMi4wNyw4LjA1LDE5LjM2LDguMDUsMS4yNSwwLDIuMjctMS4wMiwyLjI3LTIuMjdzLTEuMDItMi4yNy0yLjI3LTIuMjdjLTEyLjYxLDAtMjIuODctMTAuMjYtMjIuODctMjIuODdzMTAuMjYtMjIuODcsMjIuODctMjIuODcsMjIuODcsMTAuMjYsMjIuODcsMjIuODdjMCwxLjI1LDEuMDIsMi4yNywyLjI3LDIuMjdzMi4yNy0xLjAyLDIuMjctMi4yN2MwLTcuMjktMi44Ni0xNC4xNy04LjA1LTE5LjM2WiIgY2xhc3M9ImNscy0xMSIvPiYjeGE7ICAgICAgPC9nPiYjeGE7ICAgIDwvZz4mI3hhOyAgICA8Zz4mI3hhOyAgICAgIDxwb2x5Z29uIHBvaW50cz0iMjMzLjA1IDI3Mi4wMiAyNjguMzUgMjcyLjAyIDI2OC4zNSAxNTkuMDkgMzM4Ljg2IDIxNS40OSAzMzguODYgMTgwLjMzIDIzMy4wNSA5NS42OSAyMzMuMDUgMjcyLjAyIiBjbGFzcz0iY2xzLTMiLz4mI3hhOyAgICAgIDxwYXRoIGQ9Im00NjIuNzEsMTIyLjQzYzAtNS4yLDEuMDctMTAuMTUsMy4wMS0xNC42NWwtNi4xNi02LjE3Yy02LjU1LjY2LTEyLjY3LTEuNzMtMTcuMDgtNS45MmgtNzguNDR2MTQ4LjA4bDM1LjMsMjguMjR2LTE0MS4wMmg2NC4zOGMtLjY1LTIuNzUtMS01LjYyLTEtOC41NloiIGNsYXNzPSJjbHMtOSIvPiYjeGE7ICAgIDwvZz4mI3hhOyAgICA8Zz4mI3hhOyAgICAgIDxwYXRoIGQ9Im01NDIuMjksMTU0LjI1Yy0xLjk2LDAtMy43OC41Ny01LjM2LDEuNWwtOS4wMi05LjAyYy0xLjE2LDEuMzQtMi40MSwyLjU5LTMuNzUsMy43NWw5LjAyLDkuMDJjLS45NCwxLjU4LTEuNTEsMy40LTEuNTEsNS4zNiwwLDUuODUsNC43NiwxMC42MSwxMC42MSwxMC42MXMxMC42MS00Ljc2LDEwLjYxLTEwLjYxLTQuNzYtMTAuNjEtMTAuNjEtMTAuNjFabTAsMTUuOTFjLTIuOTMsMC01LjMtMi4zOC01LjMtNS4zczIuMzgtNS4zLDUuMy01LjMsNS4zLDIuMzgsNS4zLDUuMy0yLjM4LDUuMy01LjMsNS4zWiIgY2xhc3M9ImNscy0xMyIvPiYjeGE7ICAgICAgPHBhdGggZD0ibTU1Mi45LDU2LjExYy04Ljc4LDAtMTUuOTEsNy4xNC0xNS45MSwxNS45MSwwLDIuNzUuNyw1LjMzLDEuOTMsNy41OWwtMTQuNzUsMTQuNzVjMS4zNCwxLjE2LDIuNTksMi40MSwzLjc1LDMuNzVsMTQuMzItMTQuMzJjMi44MiwyLjU2LDYuNTYsNC4xNCwxMC42Nyw0LjE0LDguNzgsMCwxNS45MS03LjE0LDE1LjkxLTE1Ljkxcy03LjE0LTE1LjkxLTE1LjkxLTE1LjkxWm0wLDI2LjUyYy01Ljg1LDAtMTAuNjEtNC43Ni0xMC42MS0xMC42MXM0Ljc2LTEwLjYxLDEwLjYxLTEwLjYxLDEwLjYxLDQuNzYsMTAuNjEsMTAuNjEtNC43NiwxMC42MS0xMC42MSwxMC42MVoiIGNsYXNzPSJjbHMtMTIiLz4mI3hhOyAgICAgIDxwYXRoIGQ9Im00NTcuNDEsOTAuNmMxLjk2LDAsMy43OC0uNTcsNS4zNi0xLjVsOS4wMiw5LjAyYzEuMTYtMS4zNCwyLjQxLTIuNTksMy43NS0zLjc1bC05LjAyLTkuMDJjLjkzLTEuNTgsMS41LTMuMzksMS41LTUuMzYsMC01Ljg1LTQuNzYtMTAuNjEtMTAuNjEtMTAuNjFzLTEwLjYxLDQuNzYtMTAuNjEsMTAuNjEsNC43NiwxMC42MSwxMC42MSwxMC42MVptMC0xNS45MWMyLjkzLDAsNS4zLDIuMzgsNS4zLDUuM3MtMi4zOCw1LjMtNS4zLDUuMy01LjMtMi4zOC01LjMtNS4zLDIuMzgtNS4zLDUuMy01LjNaIiBjbGFzcz0iY2xzLTE1Ii8+JiN4YTsgICAgICA8cGF0aCBkPSJtNDc1LjU0LDE1MC40OGMtMS4zNC0xLjE2LTIuNTktMi40MS0zLjc1LTMuNzVsLTIyLjI3LDIyLjI3Yy0yLjgzLTIuNTYtNi41Ni00LjE0LTEwLjY3LTQuMTQtOC43OCwwLTE1LjkxLDcuMTQtMTUuOTEsMTUuOTFzNy4xNCwxNS45MSwxNS45MSwxNS45MSwxNS45MS03LjE0LDE1LjkxLTE1LjkxYzAtMi43NS0uNy01LjMzLTEuOTMtNy41OWwyMi43MS0yMi43MVptLTM2LjcsNDAuOWMtNS44NSwwLTEwLjYxLTQuNzYtMTAuNjEtMTAuNjFzNC43Ni0xMC42MSwxMC42MS0xMC42MSwxMC42MSw0Ljc2LDEwLjYxLDEwLjYxLTQuNzYsMTAuNjEtMTAuNjEsMTAuNjFaIiBjbGFzcz0iY2xzLTQiLz4mI3hhOyAgICAgIDxwYXRoIGQ9Im01MDIuNSwxNzAuNDF2LTEwLjk1Yy0uODguMDYtMS43Ni4xLTIuNjYuMXMtMS43Ny0uMDQtMi42NS0uMXYxMC45NWMtNy41MSwxLjI3LTEzLjI2LDcuOC0xMy4yNiwxNS42OCwwLDguNzgsNy4xNCwxNS45MSwxNS45MSwxNS45MXMxNS45MS03LjE0LDE1LjkxLTE1LjkxYzAtNy44Ny01Ljc1LTE0LjQxLTEzLjI2LTE1LjY4Wm0tMi42NiwyNi4yOWMtNS44NSwwLTEwLjYxLTQuNzYtMTAuNjEtMTAuNjFzNC43Ni0xMC42MSwxMC42MS0xMC42MSwxMC42MSw0Ljc2LDEwLjYxLDEwLjYxLTQuNzYsMTAuNjEtMTAuNjEsMTAuNjFaIiBjbGFzcz0iY2xzLTEiLz4mI3hhOyAgICA8L2c+JiN4YTsgIDwvZz4mI3hhOyAgPGc+JiN4YTsgICAgPHRleHQgdHJhbnNmb3JtPSJ0cmFuc2xhdGUoNzcwLjg0IDg5LjY3KSBzY2FsZSguOTcgMSkiIGNsYXNzPSJjbHMtMTciPjx0c3BhbiB5PSIwIiB4PSIwIj5SPC90c3Bhbj48L3RleHQ+JiN4YTsgICAgPGNpcmNsZSByPSIxMy4zNSIgY3k9IjgxLjY2IiBjeD0iNzc2LjQ5IiBjbGFzcz0iY2xzLTE4Ii8+JiN4YTsgIDwvZz4mI3hhOzwvc3ZnPg==;imageBorder=default;" vertex="1" parent="1">
          <mxGeometry x="40" y="385" width="147.72" height="70" as="geometry" />
        </mxCell>
        <mxCell id="5OZiCk8Ew-PO9oTUfX-M-45" style="edgeStyle=none;rounded=0;orthogonalLoop=1;jettySize=auto;html=1;" edge="1" parent="1" source="5OZiCk8Ew-PO9oTUfX-M-48" target="5OZiCk8Ew-PO9oTUfX-M-50">
          <mxGeometry relative="1" as="geometry" />
        </mxCell>
        <mxCell id="5OZiCk8Ew-PO9oTUfX-M-46" value="cancel task" style="edgeLabel;html=1;align=center;verticalAlign=middle;resizable=0;points=[];" vertex="1" connectable="0" parent="5OZiCk8Ew-PO9oTUfX-M-45">
          <mxGeometry relative="1" as="geometry">
            <mxPoint x="5" y="-10" as="offset" />
          </mxGeometry>
        </mxCell>
        <mxCell id="5OZiCk8Ew-PO9oTUfX-M-47" value="/on_cancel" style="edgeStyle=none;rounded=0;orthogonalLoop=1;jettySize=auto;html=1;exitX=0;exitY=0.75;exitDx=0;exitDy=0;entryX=1;entryY=0.75;entryDx=0;entryDy=0;dashed=1;dashPattern=8 8;" edge="1" parent="1" source="5OZiCk8Ew-PO9oTUfX-M-48" target="5OZiCk8Ew-PO9oTUfX-M-44">
          <mxGeometry x="0.0608" y="9" relative="1" as="geometry">
            <mxPoint as="offset" />
          </mxGeometry>
        </mxCell>
        <mxCell id="5OZiCk8Ew-PO9oTUfX-M-48" value="ondc&lt;br&gt;service" style="rounded=1;whiteSpace=wrap;html=1;" vertex="1" parent="1">
          <mxGeometry x="320" y="390" width="110" height="60" as="geometry" />
        </mxCell>
        <mxCell id="5OZiCk8Ew-PO9oTUfX-M-54" style="edgeStyle=none;rounded=0;orthogonalLoop=1;jettySize=auto;html=1;exitX=1;exitY=0.5;exitDx=0;exitDy=0;entryX=0;entryY=0.5;entryDx=0;entryDy=0;" edge="1" parent="1" source="5OZiCk8Ew-PO9oTUfX-M-50" target="5OZiCk8Ew-PO9oTUfX-M-53">
          <mxGeometry relative="1" as="geometry" />
        </mxCell>
        <mxCell id="5OZiCk8Ew-PO9oTUfX-M-55" value="cancel task" style="edgeLabel;html=1;align=center;verticalAlign=middle;resizable=0;points=[];" vertex="1" connectable="0" parent="5OZiCk8Ew-PO9oTUfX-M-54">
          <mxGeometry x="-0.3455" y="3" relative="1" as="geometry">
            <mxPoint x="7" as="offset" />
          </mxGeometry>
        </mxCell>
        <mxCell id="5OZiCk8Ew-PO9oTUfX-M-50" value="developer-api&lt;br&gt;service" style="rounded=1;whiteSpace=wrap;html=1;" vertex="1" parent="1">
          <mxGeometry x="540" y="385" width="110" height="70" as="geometry" />
        </mxCell>
        <mxCell id="5OZiCk8Ew-PO9oTUfX-M-53" value="Espresso" style="whiteSpace=wrap;html=1;rounded=1;" vertex="1" parent="1">
          <mxGeometry x="750" y="390" width="120" height="60" as="geometry" />
        </mxCell>
        <mxCell id="5OZiCk8Ew-PO9oTUfX-M-56" style="rounded=0;orthogonalLoop=1;jettySize=auto;html=1;exitX=1;exitY=0.25;exitDx=0;exitDy=0;entryX=0;entryY=0.25;entryDx=0;entryDy=0;" edge="1" parent="1" source="5OZiCk8Ew-PO9oTUfX-M-58" target="5OZiCk8Ew-PO9oTUfX-M-62">
          <mxGeometry relative="1" as="geometry" />
        </mxCell>
        <mxCell id="5OZiCk8Ew-PO9oTUfX-M-57" value="/update" style="edgeLabel;html=1;align=center;verticalAlign=middle;resizable=0;points=[];" vertex="1" connectable="0" parent="5OZiCk8Ew-PO9oTUfX-M-56">
          <mxGeometry x="-0.3449" y="2" relative="1" as="geometry">
            <mxPoint x="19" y="-2" as="offset" />
          </mxGeometry>
        </mxCell>
        <mxCell id="5OZiCk8Ew-PO9oTUfX-M-58" value="" style="shape=image;verticalLabelPosition=bottom;labelBackgroundColor=default;verticalAlign=top;aspect=fixed;imageAspect=0;image=data:image/svg+xml,PHN2ZyB4bWxuczp4bGluaz0iaHR0cDovL3d3dy53My5vcmcvMTk5OS94bGluayIgeG1sbnM9Imh0dHA6Ly93d3cudzMub3JnLzIwMDAvc3ZnIiB2aWV3Qm94PSIwIDAgODQxLjg5IDM5OS4zNyIgZGF0YS1uYW1lPSJMYXllciAxIiBpZD0iTGF5ZXJfMSI+JiN4YTsgIDxkZWZzPiYjeGE7ICAgIDxzdHlsZT4mI3hhOyAgICAgIC5jbHMtMSB7JiN4YTsgICAgICAgIGZpbGw6IHVybCgjbGluZWFyLWdyYWRpZW50LTEyKTsmI3hhOyAgICAgIH0mI3hhOyYjeGE7ICAgICAgLmNscy0xLCAuY2xzLTIsIC5jbHMtMywgLmNscy00LCAuY2xzLTUsIC5jbHMtNiwgLmNscy03LCAuY2xzLTgsIC5jbHMtOSwgLmNscy0xMCwgLmNscy0xMSwgLmNscy0xMiwgLmNscy0xMywgLmNscy0xNCwgLmNscy0xNSwgLmNscy0xNiB7JiN4YTsgICAgICAgIHN0cm9rZS13aWR0aDogMHB4OyYjeGE7ICAgICAgfSYjeGE7JiN4YTsgICAgICAuY2xzLTIgeyYjeGE7ICAgICAgICBmaWxsOiB1cmwoI2xpbmVhci1ncmFkaWVudCk7JiN4YTsgICAgICB9JiN4YTsmI3hhOyAgICAgIC5jbHMtMyB7JiN4YTsgICAgICAgIGZpbGw6IHVybCgjbGluZWFyLWdyYWRpZW50LTYpOyYjeGE7ICAgICAgfSYjeGE7JiN4YTsgICAgICAuY2xzLTQgeyYjeGE7ICAgICAgICBmaWxsOiB1cmwoI2xpbmVhci1ncmFkaWVudC0xMSk7JiN4YTsgICAgICB9JiN4YTsmI3hhOyAgICAgIC5jbHMtMTcgeyYjeGE7ICAgICAgICBmaWxsOiAjMjMxZjIwOyYjeGE7ICAgICAgICBmb250LWZhbWlseTogUG9wcGlucy1SZWd1bGFyLCBQb3BwaW5zOyYjeGE7ICAgICAgICBmb250LXNpemU6IDIycHg7JiN4YTsgICAgICB9JiN4YTsmI3hhOyAgICAgIC5jbHMtNSB7JiN4YTsgICAgICAgIGZpbGw6IHVybCgjbGluZWFyLWdyYWRpZW50LTUpOyYjeGE7ICAgICAgfSYjeGE7JiN4YTsgICAgICAuY2xzLTE4IHsmI3hhOyAgICAgICAgZmlsbDogbm9uZTsmI3hhOyAgICAgICAgc3Ryb2tlOiAjMjMxZjIwOyYjeGE7ICAgICAgICBzdHJva2UtbWl0ZXJsaW1pdDogMTA7JiN4YTsgICAgICAgIHN0cm9rZS13aWR0aDogMS41cHg7JiN4YTsgICAgICB9JiN4YTsmI3hhOyAgICAgIC5jbHMtNiB7JiN4YTsgICAgICAgIGZpbGw6ICM2MDYxNjE7JiN4YTsgICAgICB9JiN4YTsmI3hhOyAgICAgIC5jbHMtNyB7JiN4YTsgICAgICAgIGZpbGw6ICM5Mzk1OTg7JiN4YTsgICAgICB9JiN4YTsmI3hhOyAgICAgIC5jbHMtOCB7JiN4YTsgICAgICAgIGZpbGw6IHVybCgjbGluZWFyLWdyYWRpZW50LTIpOyYjeGE7ICAgICAgfSYjeGE7JiN4YTsgICAgICAuY2xzLTkgeyYjeGE7ICAgICAgICBmaWxsOiB1cmwoI2xpbmVhci1ncmFkaWVudC03KTsmI3hhOyAgICAgIH0mI3hhOyYjeGE7ICAgICAgLmNscy0xMCB7JiN4YTsgICAgICAgIGZpbGw6IHVybCgjbGluZWFyLWdyYWRpZW50LTMpOyYjeGE7ICAgICAgfSYjeGE7JiN4YTsgICAgICAuY2xzLTExIHsmI3hhOyAgICAgICAgZmlsbDogI2YyOWM0OTsmI3hhOyAgICAgIH0mI3hhOyYjeGE7ICAgICAgLmNscy0xMiB7JiN4YTsgICAgICAgIGZpbGw6IHVybCgjbGluZWFyLWdyYWRpZW50LTkpOyYjeGE7ICAgICAgfSYjeGE7JiN4YTsgICAgICAuY2xzLTEzIHsmI3hhOyAgICAgICAgZmlsbDogdXJsKCNsaW5lYXItZ3JhZGllbnQtOCk7JiN4YTsgICAgICB9JiN4YTsmI3hhOyAgICAgIC5jbHMtMTQgeyYjeGE7ICAgICAgICBmaWxsOiAjNDQ4MjNkOyYjeGE7ICAgICAgfSYjeGE7JiN4YTsgICAgICAuY2xzLTE1IHsmI3hhOyAgICAgICAgZmlsbDogdXJsKCNsaW5lYXItZ3JhZGllbnQtMTApOyYjeGE7ICAgICAgfSYjeGE7JiN4YTsgICAgICAuY2xzLTE2IHsmI3hhOyAgICAgICAgZmlsbDogdXJsKCNsaW5lYXItZ3JhZGllbnQtNCk7JiN4YTsgICAgICB9JiN4YTsgICAgPC9zdHlsZT4mI3hhOyAgICA8bGluZWFyR3JhZGllbnQgZ3JhZGllbnRVbml0cz0idXNlclNwYWNlT25Vc2UiIHkyPSIzMDcuMTgiIHgyPSI2NTUuNjYiIHkxPSIxOTEuMDIiIHgxPSIxNjQuNjUiIGlkPSJsaW5lYXItZ3JhZGllbnQiPiYjeGE7ICAgICAgPHN0b3Agc3RvcC1jb2xvcj0iIzFjNzViYyIgb2Zmc2V0PSIwIi8+JiN4YTsgICAgICA8c3RvcCBzdG9wLWNvbG9yPSIjMDBhZWVmIiBvZmZzZXQ9IjEiLz4mI3hhOyAgICA8L2xpbmVhckdyYWRpZW50PiYjeGE7ICAgIDxsaW5lYXJHcmFkaWVudCB4bGluazpocmVmPSIjbGluZWFyLWdyYWRpZW50IiB5Mj0iMTc4LjA5IiB4Mj0iNjg2LjIiIHkxPSI2MS45NCIgeDE9IjE5NS4xOCIgaWQ9ImxpbmVhci1ncmFkaWVudC0yIi8+JiN4YTsgICAgPGxpbmVhckdyYWRpZW50IHhsaW5rOmhyZWY9IiNsaW5lYXItZ3JhZGllbnQiIHkyPSIxMjUuMzIiIHgyPSI1MTIuOTgiIHkxPSIxMTguNDMiIHgxPSI0ODEuNzMiIGlkPSJsaW5lYXItZ3JhZGllbnQtMyIvPiYjeGE7ICAgIDxsaW5lYXJHcmFkaWVudCB4bGluazpocmVmPSIjbGluZWFyLWdyYWRpZW50IiB5Mj0iMTgxLjA1IiB4Mj0iNDQwLjI0IiB5MT0iMTgwLjMyIiB4MT0iNDM2LjkzIiBpZD0ibGluZWFyLWdyYWRpZW50LTQiLz4mI3hhOyAgICA8bGluZWFyR3JhZGllbnQgeGxpbms6aHJlZj0iI2xpbmVhci1ncmFkaWVudCIgeTI9IjI0NCIgeDI9Ijc1MS41OCIgeTE9IjEyMS43MiIgeDE9IjE5Ny4yNCIgaWQ9ImxpbmVhci1ncmFkaWVudC01Ii8+JiN4YTsgICAgPGxpbmVhckdyYWRpZW50IHhsaW5rOmhyZWY9IiNsaW5lYXItZ3JhZGllbnQiIHkyPSIzMDAuNyIgeDI9IjU3Ni40OSIgeTE9IjE3NS44MiIgeDE9IjIwOS40NSIgaWQ9ImxpbmVhci1ncmFkaWVudC02Ii8+JiN4YTsgICAgPGxpbmVhckdyYWRpZW50IGdyYWRpZW50VW5pdHM9InVzZXJTcGFjZU9uVXNlIiB5Mj0iMjQzLjQxIiB4Mj0iNTk1Ljk4IiB5MT0iMTE4LjU0IiB4MT0iMjI4Ljk1IiBpZD0ibGluZWFyLWdyYWRpZW50LTciPiYjeGE7ICAgICAgPHN0b3Agc3RvcC1jb2xvcj0iIzFjNzViYyIgb2Zmc2V0PSIuMDUiLz4mI3hhOyAgICAgIDxzdG9wIHN0b3AtY29sb3I9IiMwMGFlZWYiIG9mZnNldD0iMSIvPiYjeGE7ICAgIDwvbGluZWFyR3JhZGllbnQ+JiN4YTsgICAgPGxpbmVhckdyYWRpZW50IHhsaW5rOmhyZWY9IiNsaW5lYXItZ3JhZGllbnQiIHkyPSIxNzMuMjkiIHgyPSI1ODUuOTgiIHkxPSIxNDMuNjEiIHgxPSI0NjAuNTIiIGlkPSJsaW5lYXItZ3JhZGllbnQtOCIvPiYjeGE7ICAgIDxsaW5lYXJHcmFkaWVudCB4bGluazpocmVmPSIjbGluZWFyLWdyYWRpZW50IiB5Mj0iOTIuNjciIHgyPSI2MDcuMDciIHkxPSI1Ni4yNCIgeDE9IjQ1My4wNyIgaWQ9ImxpbmVhci1ncmFkaWVudC05Ii8+JiN4YTsgICAgPGxpbmVhckdyYWRpZW50IHhsaW5rOmhyZWY9IiNsaW5lYXItZ3JhZGllbnQiIHkyPSI5NC40MSIgeDI9IjUxMC4zMiIgeTE9IjY0LjczIiB4MT0iMzg0Ljg1IiBpZD0ibGluZWFyLWdyYWRpZW50LTEwIi8+JiN4YTsgICAgPGxpbmVhckdyYWRpZW50IHhsaW5rOmhyZWY9IiNsaW5lYXItZ3JhZGllbnQiIHkyPSIxODYuMzUiIHgyPSI1MTYuMjciIHkxPSIxNDQuMzYiIHgxPSIzMzguNzciIGlkPSJsaW5lYXItZ3JhZGllbnQtMTEiLz4mI3hhOyAgICA8bGluZWFyR3JhZGllbnQgeGxpbms6aHJlZj0iI2xpbmVhci1ncmFkaWVudCIgeTI9IjE5Mi40NSIgeDI9IjU0OS43OCIgeTE9IjE2Mi41MSIgeDE9IjQyMy4yNSIgaWQ9ImxpbmVhci1ncmFkaWVudC0xMiIvPiYjeGE7ICA8L2RlZnM+JiN4YTsgIDxnPiYjeGE7ICAgIDxnPiYjeGE7ICAgICAgPGc+JiN4YTsgICAgICAgIDxwYXRoIGQ9Im04NS42NiwzMzMuODJjLS41LDEuMTUtMS4xNywyLjE2LTIuMDQsMy4wMi0uODYuODYtMS44NywxLjU0LTMuMDIsMi4wNC0xLjE1LjQ5LTIuMzkuNzQtMy43Ljc0aC0yLjc1Yy0xLjMxLDAtMi41NS0uMjUtMy43MS0uNzQtMS4xNi0uNDktMi4xNy0xLjE4LTMuMDQtMi4wNC0uODYtLjg2LTEuNTQtMS44Ny0yLjA0LTMuMDItLjUtMS4xNS0uNzQtMi4zOS0uNzQtMy43di0yMC43OWMwLTEuMzEuMjUtMi41NS43NC0zLjcuNDktMS4xNSwxLjE3LTIuMTYsMi4wNC0zLjAyLjg2LS44NiwxLjg4LTEuNTQsMy4wNC0yLjA0LDEuMTYtLjQ5LDIuNC0uNzQsMy43MS0uNzRoMi43NWMxLjMxLDAsMi41NS4yNSwzLjcuNzQsMS4xNS41LDIuMTYsMS4xOCwzLjAyLDIuMDQuODYuODYsMS41NCwxLjg3LDIuMDQsMy4wMi40OSwxLjE1Ljc0LDIuMzkuNzQsMy43djIwLjc5YzAsMS4zMS0uMjUsMi41NS0uNzQsMy43Wm0tMi43NC0yNC40OWMwLS44Ni0uMTYtMS42Ny0uNDktMi40MnMtLjc3LTEuNC0xLjMyLTEuOTZjLS41Ni0uNTYtMS4yMS0xLTEuOTYtMS4zMi0uNzUtLjMyLTEuNTUtLjQ5LTIuNDItLjQ5aC0yLjQzYy0uODYsMC0xLjY3LjE2LTIuNDIuNDktLjc1LjMyLTEuNC43Ni0xLjk3LDEuMzItLjU3LjU2LTEuMDEsMS4yMS0xLjM0LDEuOTZzLS40OSwxLjU1LS40OSwyLjQydjIwLjc5YzAsLjg2LjE2LDEuNjcuNDksMi40MnMuNzcsMS40LDEuMzQsMS45N2MuNTcuNTcsMS4yMiwxLjAxLDEuOTcsMS4zNC43NS4zMiwxLjU1LjQ5LDIuNDIuNDloMi40M2MuODYsMCwxLjY3LS4xNiwyLjQyLS40OS43NS0uMzIsMS40LS43NywxLjk2LTEuMzQuNTYtLjU3LDEtMS4yMiwxLjMyLTEuOTdzLjQ5LTEuNTUuNDktMi40MnYtMjAuNzlaIiBjbGFzcz0iY2xzLTYiLz4mI3hhOyAgICAgICAgPHBhdGggZD0ibTExMC4zMywzMzQuNjVjLS40Mi45OS0xLDEuODUtMS43NCwyLjU5LS43NC43NC0xLjYsMS4zMi0yLjU5LDEuNzQtLjk5LjQyLTIuMDQuNjMtMy4xNi42M2gtLjg0Yy0xLjI0LDAtMi4zOS0uMjUtMy40Ni0uNzZzLTEuOTctMS4yMS0yLjczLTIuMXYxMy4zOWgtMy4zMnYtMzguNzJoMS4xMWwxLjgxLDIuODFjLjc2LTEuMDMsMS43LTEuODQsMi44NS0yLjQ0LDEuMTQtLjYsMi4zOS0uOSwzLjc0LS45aC44NGMxLjEyLDAsMi4xNy4yMSwzLjE2LjYzczEuODUsMSwyLjU5LDEuNzRjLjc0Ljc0LDEuMzIsMS42LDEuNzQsMi41OXMuNjMsMi4wNC42MywzLjE2djEyLjQ3YzAsMS4xMi0uMjEsMi4xNy0uNjMsMy4xNlptLTIuNjktMTUuODJjMC0uNjctLjEzLTEuMjktLjM4LTEuODgtLjI1LS41OC0uNTktMS4wOS0xLjAzLTEuNTMtLjQzLS40My0uOTQtLjc3LTEuNTMtMS4wMy0uNTktLjI1LTEuMjEtLjM4LTEuODgtLjM4aC0yLjIxYy0uNjcsMC0xLjI5LjEzLTEuODguMzhzLTEuMDkuNTktMS41MywxLjAzYy0uNDMuNDMtLjc3Ljk0LTEuMDMsMS41My0uMjUuNTgtLjM4LDEuMjEtLjM4LDEuODh2MTIuODVjMCwuNjcuMTMsMS4yOS4zOCwxLjg4LjI1LjU5LjU5LDEuMDksMS4wMywxLjUzLjQzLjQzLjk0Ljc3LDEuNTMsMS4wM3MxLjIxLjM4LDEuODguMzhoMi4yMWMuNjcsMCwxLjI5LS4xMywxLjg4LS4zOC41OC0uMjUsMS4wOS0uNTksMS41My0xLjAzcy43Ny0uOTQsMS4wMy0xLjUzYy4yNS0uNTguMzgtMS4yMS4zOC0xLjg4di0xMi44NVoiIGNsYXNzPSJjbHMtNiIvPiYjeGE7ICAgICAgICA8cGF0aCBkPSJtMTM0LjM0LDMzNC42NWMtLjQyLjk5LTEsMS44NS0xLjc0LDIuNTktLjc0Ljc0LTEuNiwxLjMyLTIuNTksMS43NC0uOTkuNDItMi4wNC42My0zLjE2LjYzaC0yLjIxYy0xLjEyLDAtMi4xNy0uMjEtMy4xNi0uNjMtLjk5LS40Mi0xLjg1LTEtMi41OS0xLjc0LS43NC0uNzQtMS4zMi0xLjYtMS43NC0yLjU5LS40Mi0uOTktLjYzLTIuMDQtLjYzLTMuMTZ2LTEyLjQ3YzAtMS4xMi4yMS0yLjE3LjYzLTMuMTYuNDItLjk5LDEtMS44NSwxLjc0LTIuNTkuNzQtLjc0LDEuNi0xLjMyLDIuNTktMS43NHMyLjA0LS42MywzLjE2LS42M2gyLjIxYzEuMTIsMCwyLjE3LjIxLDMuMTYuNjNzMS44NSwxLDIuNTksMS43NGMuNzQuNzQsMS4zMiwxLjYsMS43NCwyLjU5cy42MywyLjA0LjYzLDMuMTZ2Ni41MWgtMTUuMTV2Ni4xNmMwLC42Ny4xMywxLjI5LjM4LDEuODguMjUuNTkuNTksMS4wOSwxLjAzLDEuNTMuNDMuNDMuOTQuNzcsMS41MywxLjAzczEuMjEuMzgsMS44OC4zOGgyLjIxYy42NywwLDEuMjktLjEzLDEuODgtLjM4LjU4LS4yNSwxLjA5LS41OSwxLjUzLTEuMDNzLjc3LS45NCwxLjAzLTEuNTNjLjI1LS41OC4zOC0xLjIxLjM4LTEuODh2LTEuODRsMy4zMi41NHYxLjExYzAsMS4xMi0uMjEsMi4xNy0uNjMsMy4xNlptLTIuNjktMTUuODJjMC0uNjctLjEzLTEuMjktLjM4LTEuODgtLjI1LS41OC0uNTktMS4wOS0xLjAzLTEuNTMtLjQzLS40My0uOTQtLjc3LTEuNTMtMS4wMy0uNTktLjI1LTEuMjEtLjM4LTEuODgtLjM4aC0yLjIxYy0uNjcsMC0xLjI5LjEzLTEuODguMzhzLTEuMDkuNTktMS41MywxLjAzYy0uNDMuNDMtLjc3Ljk0LTEuMDMsMS41My0uMjUuNTgtLjM4LDEuMjEtLjM4LDEuODh2NC4xaDExLjgydi00LjFaIiBjbGFzcz0iY2xzLTYiLz4mI3hhOyAgICAgICAgPHBhdGggZD0ibTE1NS42NSwzMzkuMDh2LTIwLjI1YzAtLjY3LS4xMy0xLjI5LS4zOC0xLjg4LS4yNS0uNTgtLjU5LTEuMDktMS4wMy0xLjUzLS40My0uNDMtLjk0LS43Ny0xLjUzLTEuMDMtLjU5LS4yNS0xLjIxLS4zOC0xLjg4LS4zOGgtMi4yMWMtLjY3LDAtMS4yOS4xMy0xLjg4LjM4cy0xLjA5LjU5LTEuNTMsMS4wM2MtLjQzLjQzLS43Ny45NC0xLjAzLDEuNTMtLjI1LjU4LS4zOCwxLjIxLS4zOCwxLjg4djIwLjI1aC0zLjMydi0yNy42NWgxLjExbDEuODEsMi44MWMuNzYtMS4wMywxLjctMS44NCwyLjg1LTIuNDQsMS4xNC0uNiwyLjM5LS45LDMuNzQtLjloLjg0YzEuMTIsMCwyLjE3LjIxLDMuMTYuNjNzMS44NSwxLDIuNTksMS43NGMuNzQuNzQsMS4zMiwxLjYsMS43NCwyLjU5cy42MywyLjA0LjYzLDMuMTZ2MjAuMDZoLTMuMzJaIiBjbGFzcz0iY2xzLTYiLz4mI3hhOyAgICAgICAgPHBhdGggZD0ibTE5Ny4xOCwzMzkuMDhsLTE2LjE0LTI4LjE5LS4zMi0xLjY3djI5Ljg2aC0zLjQ4di0zOC43MWgxLjgxbDE2LjE0LDI4LjIxLjM1LDEuNjV2LTI5Ljg2aDMuNDh2MzguNzFoLTEuODRaIiBjbGFzcz0iY2xzLTYiLz4mI3hhOyAgICAgICAgPHBhdGggZD0ibTIyMi45NSwzMzQuNjVjLS40Mi45OS0xLDEuODUtMS43NCwyLjU5LS43NC43NC0xLjYsMS4zMi0yLjU5LDEuNzQtLjk5LjQyLTIuMDQuNjMtMy4xNi42M2gtMi4yMWMtMS4xMiwwLTIuMTctLjIxLTMuMTYtLjYzLS45OS0uNDItMS44NS0xLTIuNTktMS43NC0uNzQtLjc0LTEuMzItMS42LTEuNzQtMi41OS0uNDItLjk5LS42My0yLjA0LS42My0zLjE2di0xMi40N2MwLTEuMTIuMjEtMi4xNy42My0zLjE2LjQyLS45OSwxLTEuODUsMS43NC0yLjU5Ljc0LS43NCwxLjYtMS4zMiwyLjU5LTEuNzRzMi4wNC0uNjMsMy4xNi0uNjNoMi4yMWMxLjEyLDAsMi4xNy4yMSwzLjE2LjYzczEuODUsMSwyLjU5LDEuNzRjLjc0Ljc0LDEuMzIsMS42LDEuNzQsMi41OXMuNjMsMi4wNC42MywzLjE2djYuNTFoLTE1LjE1djYuMTZjMCwuNjcuMTMsMS4yOS4zOCwxLjg4LjI1LjU5LjU5LDEuMDksMS4wMywxLjUzLjQzLjQzLjk0Ljc3LDEuNTMsMS4wM3MxLjIxLjM4LDEuODguMzhoMi4yMWMuNjcsMCwxLjI5LS4xMywxLjg4LS4zOC41OC0uMjUsMS4wOS0uNTksMS41My0xLjAzcy43Ny0uOTQsMS4wMy0xLjUzYy4yNS0uNTguMzgtMS4yMS4zOC0xLjg4di0xLjg0bDMuMzIuNTR2MS4xMWMwLDEuMTItLjIxLDIuMTctLjYzLDMuMTZabS0yLjY5LTE1LjgyYzAtLjY3LS4xMy0xLjI5LS4zOC0xLjg4LS4yNS0uNTgtLjU5LTEuMDktMS4wMy0xLjUzLS40My0uNDMtLjk0LS43Ny0xLjUzLTEuMDMtLjU5LS4yNS0xLjIxLS4zOC0xLjg4LS4zOGgtMi4yMWMtLjY3LDAtMS4yOS4xMy0xLjg4LjM4cy0xLjA5LjU5LTEuNTMsMS4wM2MtLjQzLjQzLS43Ny45NC0xLjAzLDEuNTMtLjI1LjU4LS4zOCwxLjIxLS4zOCwxLjg4djQuMWgxMS44MnYtNC4xWiIgY2xhc3M9ImNscy02Ii8+JiN4YTsgICAgICAgIDxwYXRoIGQ9Im0yMzkuMTksMzM5LjA4Yy0xLjAxLDAtMS45Ni0uMTktMi44NS0uNTdzLTEuNjYtLjktMi4zMi0xLjU3LTEuMTgtMS40NC0xLjU3LTIuMzJjLS4zOS0uODgtLjU4LTEuODMtLjU4LTIuODN2LTE3LjJoLTQuOTd2LTMuMTZoNC45N3YtNi42NGwzLjMyLS41NHY3LjE4aDcuMDJ2My4xNmgtNy4wMnYxNy4zNmMwLC41Ni4xLDEuMDguMzEsMS41NS4yMS40OC40OS45Ljg1LDEuMjUuMzYuMzYuNzguNjQsMS4yNy44NS40OS4yMSwxLjAxLjMxLDEuNTcuMzFoMy4wMnYzLjE2aC0zLjAyWiIgY2xhc3M9ImNscy02Ii8+JiN4YTsgICAgICAgIDxwYXRoIGQ9Im0yNzAuNDgsMzM5LjA4aC0xLjgxbC02LjQ4LTIwLjg0LS4xMS0xLjQzLS4xMSwxLjQzLTYuNDgsMjAuODRoLTEuODRsLTkuMjMtMjcuNjVoMy4zN2w2LjU5LDIwLjkuMTEsMS40My4xMS0xLjQzLDYuNDgtMjAuOWgybDYuNDUsMjAuOS4xMSwxLjQzLjExLTEuNDMsNi41OS0yMC45aDMuMzdsLTkuMjMsMjcuNjVaIiBjbGFzcz0iY2xzLTYiLz4mI3hhOyAgICAgICAgPHBhdGggZD0ibTMwMC4zMiwzMzQuNjVjLS40Mi45OS0xLDEuODUtMS43NCwyLjU5LS43NC43NC0xLjYsMS4zMi0yLjU5LDEuNzQtLjk5LjQyLTIuMDQuNjMtMy4xNi42M2gtMi4yMWMtMS4xMiwwLTIuMTctLjIxLTMuMTYtLjYzLS45OS0uNDItMS44NS0xLTIuNTktMS43NC0uNzQtLjc0LTEuMzItMS42LTEuNzQtMi41OS0uNDItLjk5LS42My0yLjA0LS42My0zLjE2di0xMi40N2MwLTEuMTIuMjEtMi4xNy42My0zLjE2LjQyLS45OSwxLTEuODUsMS43NC0yLjU5Ljc0LS43NCwxLjYtMS4zMiwyLjU5LTEuNzRzMi4wNC0uNjMsMy4xNi0uNjNoMi4yMWMxLjEyLDAsMi4xNy4yMSwzLjE2LjYzLjk5LjQyLDEuODUsMSwyLjU5LDEuNzQuNzQuNzQsMS4zMiwxLjYsMS43NCwyLjU5cy42MywyLjA0LjYzLDMuMTZ2MTIuNDdjMCwxLjEyLS4yMSwyLjE3LS42MywzLjE2Wm0tMi42OS0xNS44MmMwLS42Ny0uMTMtMS4yOS0uMzgtMS44OC0uMjUtLjU4LS41OS0xLjA5LTEuMDMtMS41My0uNDMtLjQzLS45NC0uNzctMS41My0xLjAzLS41OS0uMjUtMS4yMS0uMzgtMS44OC0uMzhoLTIuMjFjLS42NywwLTEuMjkuMTMtMS44OC4zOHMtMS4wOS41OS0xLjUzLDEuMDNjLS40My40My0uNzcuOTQtMS4wMywxLjUzLS4yNS41OC0uMzgsMS4yMS0uMzgsMS44OHYxMi44NWMwLC42Ny4xMywxLjI5LjM4LDEuODguMjUuNTkuNTksMS4wOSwxLjAzLDEuNTMuNDMuNDMuOTQuNzcsMS41MywxLjAzczEuMjEuMzgsMS44OC4zOGgyLjIxYy42NywwLDEuMjktLjEzLDEuODgtLjM4LjU4LS4yNSwxLjA5LS41OSwxLjUzLTEuMDNzLjc3LS45NCwxLjAzLTEuNTNjLjI1LS41OC4zOC0xLjIxLjM4LTEuODh2LTEyLjg1WiIgY2xhc3M9ImNscy02Ii8+JiN4YTsgICAgICAgIDxwYXRoIGQ9Im0zMTQuNjIsMzE0LjU5Yy0uNjcsMC0xLjI5LjEzLTEuODguMzhzLTEuMDkuNTktMS41MywxLjAzYy0uNDMuNDMtLjc3Ljk0LTEuMDMsMS41My0uMjUuNTgtLjM4LDEuMjEtLjM4LDEuODh2MTkuNjhoLTMuMzJ2LTI3LjY1aDEuMTFsMS44MSwyLjgxYy43Ni0xLjAzLDEuNy0xLjg0LDIuODUtMi40NCwxLjE0LS42LDIuMzktLjksMy43NC0uOWgxLjk0djMuN2gtMy4zMloiIGNsYXNzPSJjbHMtNiIvPiYjeGE7ICAgICAgICA8cGF0aCBkPSJtMzIyLjM3LDMzOS4wOHYtMzguNzFoMy4zMnYzOC43MWgtMy4zMlptMTUuMjUsMGwtMTEuMjgtMTMuODIsMTEuMjgtMTMuODJoNC4zMmwtMTEuNTUsMTMuODIsMTEuNTUsMTMuODJoLTQuMzJaIiBjbGFzcz0iY2xzLTYiLz4mI3hhOyAgICAgICAgPHBhdGggZD0ibTM2Ni4zOCwzMDMuNTJjLS41NiwwLTEuMDguMS0xLjU1LjMxLS40OC4yMS0uOS40OS0xLjI2Ljg1LS4zNi4zNi0uNjQuNzgtLjg1LDEuMjctLjIxLjQ5LS4zMSwxLjAxLS4zMSwxLjU3djMuOTFoNi40NXYzLjE2aC02LjQ1djI0LjQ5aC0zLjMydi0yNC40OWgtNC45OXYtMy4xNmg0Ljk5di0zLjc1YzAtMS4wMS4xOS0xLjk2LjU3LTIuODUuMzgtLjg5LjktMS42NywxLjU3LTIuMzQuNjctLjY3LDEuNDQtMS4xOSwyLjMyLTEuNTcuODgtLjM4LDEuODMtLjU3LDIuODMtLjU3aDMuMDV2My4xNmgtMy4wNVoiIGNsYXNzPSJjbHMtNiIvPiYjeGE7ICAgICAgICA8cGF0aCBkPSJtMzg5LjQ4LDMzNC42NWMtLjQyLjk5LTEsMS44NS0xLjc0LDIuNTktLjc0Ljc0LTEuNiwxLjMyLTIuNTksMS43NC0uOTkuNDItMi4wNC42My0zLjE2LjYzaC0yLjIxYy0xLjEyLDAtMi4xNy0uMjEtMy4xNi0uNjMtLjk5LS40Mi0xLjg1LTEtMi41OS0xLjc0LS43NC0uNzQtMS4zMi0xLjYtMS43NC0yLjU5LS40Mi0uOTktLjYzLTIuMDQtLjYzLTMuMTZ2LTEyLjQ3YzAtMS4xMi4yMS0yLjE3LjYzLTMuMTYuNDItLjk5LDEtMS44NSwxLjc0LTIuNTkuNzQtLjc0LDEuNi0xLjMyLDIuNTktMS43NHMyLjA0LS42MywzLjE2LS42M2gyLjIxYzEuMTIsMCwyLjE3LjIxLDMuMTYuNjNzMS44NSwxLDIuNTksMS43NGMuNzQuNzQsMS4zMiwxLjYsMS43NCwyLjU5cy42MywyLjA0LjYzLDMuMTZ2MTIuNDdjMCwxLjEyLS4yMSwyLjE3LS42MywzLjE2Wm0tMi42OS0xNS44MmMwLS42Ny0uMTMtMS4yOS0uMzgtMS44OC0uMjUtLjU4LS41OS0xLjA5LTEuMDMtMS41My0uNDMtLjQzLS45NC0uNzctMS41My0xLjAzLS41OS0uMjUtMS4yMS0uMzgtMS44OC0uMzhoLTIuMjFjLS42NywwLTEuMjkuMTMtMS44OC4zOHMtMS4wOS41OS0xLjUzLDEuMDNjLS40My40My0uNzcuOTQtMS4wMywxLjUzLS4yNS41OC0uMzgsMS4yMS0uMzgsMS44OHYxMi44NWMwLC42Ny4xMywxLjI5LjM4LDEuODguMjUuNTkuNTksMS4wOSwxLjAzLDEuNTMuNDMuNDMuOTQuNzcsMS41MywxLjAzczEuMjEuMzgsMS44OC4zOGgyLjIxYy42NywwLDEuMjktLjEzLDEuODgtLjM4LjU4LS4yNSwxLjA5LS41OSwxLjUzLTEuMDNzLjc3LS45NCwxLjAzLTEuNTNjLjI1LS41OC4zOC0xLjIxLjM4LTEuODh2LTEyLjg1WiIgY2xhc3M9ImNscy02Ii8+JiN4YTsgICAgICAgIDxwYXRoIGQ9Im00MDMuNzcsMzE0LjU5Yy0uNjcsMC0xLjI5LjEzLTEuODguMzhzLTEuMDkuNTktMS41MywxLjAzYy0uNDMuNDMtLjc3Ljk0LTEuMDMsMS41My0uMjUuNTgtLjM4LDEuMjEtLjM4LDEuODh2MTkuNjhoLTMuMzJ2LTI3LjY1aDEuMTFsMS44MSwyLjgxYy43Ni0xLjAzLDEuNy0xLjg0LDIuODUtMi40NCwxLjE0LS42LDIuMzktLjksMy43NC0uOWgxLjk0djMuN2gtMy4zMloiIGNsYXNzPSJjbHMtNiIvPiYjeGE7ICAgICAgICA8cGF0aCBkPSJtNDQ0LjE4LDMzMy4yOGMtLjQ5LDEuMTUtMS4xNywyLjE2LTIuMDQsMy4wMnMtMS44OCwxLjU0LTMuMDQsMi4wNGMtMS4xNi40OS0yLjQuNzQtMy43MS43NGgtMTIuMjZ2LTM4LjcxaDEyLjI2YzEuMzEsMCwyLjU1LjI1LDMuNzEuNzQsMS4xNi40OSwyLjE3LDEuMTcsMy4wNCwyLjA0Ljg2Ljg2LDEuNTQsMS44OCwyLjA0LDMuMDRzLjc0LDIuNC43NCwzLjcxdjE5LjY4YzAsMS4zMS0uMjUsMi41NS0uNzQsMy43Wm0tMi43NC0yMy4zOGMwLS44Ni0uMTYtMS42Ny0uNDktMi40Mi0uMzItLjc1LS43Ny0xLjQtMS4zNC0xLjk3cy0xLjIyLTEuMDEtMS45Ny0xLjM0LTEuNTUtLjQ5LTIuNDItLjQ5aC04LjYxdjMyLjA3aDguNjFjLjg2LDAsMS42Ny0uMTYsMi40Mi0uNDlzMS40LS43NiwxLjk3LTEuMzJjLjU3LS41NiwxLjAxLTEuMjEsMS4zNC0xLjk2LjMyLS43NS40OS0xLjU1LjQ5LTIuNDJ2LTE5LjY4WiIgY2xhc3M9ImNscy02Ii8+JiN4YTsgICAgICAgIDxwYXRoIGQ9Im00NTAuNzIsMzA0Ljc5di00LjQzaDMuODZ2NC40M2gtMy44NlptLjI3LDM0LjI5di0yNy42NWgzLjMydjI3LjY1aC0zLjMyWiIgY2xhc3M9ImNscy02Ii8+JiN4YTsgICAgICAgIDxwYXRoIGQ9Im00NzkuMDYsMzQ1LjY0Yy0uNDIuOTQtMSwxLjc0LTEuNzQsMi40cy0xLjYsMS4xOC0yLjU5LDEuNTVjLS45OS4zNy0yLjA0LjU1LTMuMTYuNTVoLTEuMzhjLTEuMTIsMC0yLjE3LS4xOS0zLjE2LS41NS0uOTktLjM3LTEuODUtLjg5LTIuNTktMS41NXMtMS4zMi0xLjQ3LTEuNzQtMi40Yy0uNDItLjk0LS42My0xLjk2LS42My0zLjA4di0uMTFjMC0xLjA4LjItMi4wNy41OS0yLjk3LjQtLjkuOTQtMS42OCwxLjYyLTIuMzUtLjg2LS41Mi0xLjU1LTEuMjMtMi4wNi0yLjEycy0uNzctMS44OC0uNzctMi45NmMwLS45Ny4yMS0xLjg4LjYyLTIuNzFzLjk4LTEuNTIsMS43LTIuMDRjLS44Ni0uNzYtMS41NS0xLjY2LTIuMDUtMi43My0uNS0xLjA2LS43Ni0yLjIyLS43Ni0zLjQ4di0yLjA4YzAtMS4xMi4yMS0yLjE3LjYzLTMuMTZzMS0xLjg1LDEuNzQtMi41OWMuNzQtLjc0LDEuNi0xLjMyLDIuNTktMS43NC45OS0uNDIsMi4wNC0uNjMsMy4xNi0uNjNoMS4zOGMxLjM1LDAsMi42LjMsMy43NC45LDEuMTQuNiwyLjA5LDEuNDIsMi44NSwyLjQ0bDEuODEtMi44MWgxLjExdjkuNjdjMCwxLjEyLS4yMSwyLjE3LS42MywzLjE2LS40Mi45OS0xLDEuODUtMS43NCwyLjU5LS43NC43NC0xLjYsMS4zMi0yLjU5LDEuNzQtLjk5LjQyLTIuMDQuNjMtMy4xNi42M2gtNC44MWMtLjM4LDAtLjc0LjA4LTEuMDguMjNzLS42NC4zNi0uOS42MWMtLjI2LjI1LS40Ni41NS0uNjEuOS0uMTQuMzUtLjIyLjcxLS4yMiwxLjA5cy4wNy43NC4yMiwxLjA4Yy4xNC4zNC4zNS42NC42MS45LjI2LjI2LjU2LjQ2LjkuNjFzLjcuMjIsMS4wOC4yMmg0LjU0YzEuMTIsMCwyLjE3LjE5LDMuMTYuNTUuOTkuMzcsMS44NS44OSwyLjU5LDEuNTVzMS4zMiwxLjQ3LDEuNzQsMi40Yy40Mi45NC42MywxLjk2LjYzLDMuMDh2LjExYzAsMS4xMi0uMjEsMi4xNC0uNjMsMy4wOFptLTIuMzktMjYuODFjMC0uNjctLjEzLTEuMjktLjM4LTEuODgtLjI1LS41OC0uNi0xLjA5LTEuMDQtMS41My0uNDQtLjQzLS45NS0uNzctMS41NC0xLjAzcy0xLjIxLS4zOC0xLjg4LS4zOGgtMi43NWMtLjY3LDAtMS4yOS4xMy0xLjg4LjM4cy0xLjA5LjU5LTEuNTIsMS4wMy0uNzcuOTQtMS4wMywxLjUzLS4zOCwxLjIxLS4zOCwxLjg4djIuNDZjMCwuNjcuMTMsMS4yOS4zOCwxLjg4cy41OSwxLjA5LDEuMDMsMS41My45NC43NywxLjUyLDEuMDNjLjU4LjI1LDEuMjEuMzgsMS44OC4zOGgyLjc1Yy42NywwLDEuMjktLjEzLDEuODgtLjM4LjU4LS4yNSwxLjEtLjU5LDEuNTQtMS4wMy40NC0uNDMuNzktLjk0LDEuMDQtMS41My4yNS0uNTguMzgtMS4yMS4zOC0xLjg4di0yLjQ2Wm0tLjE0LDIzLjQ2YzAtLjY3LS4xMy0xLjI2LS4zOC0xLjgtLjI1LS41My0uNTktLjk4LTEuMDMtMS4zNC0uNDMtLjM2LS45NC0uNjQtMS41Mi0uODQtLjU5LS4yLTEuMjEtLjMtMS44OC0uM2gtMS43Yy0uNjcsMC0xLjI5LjEtMS44OC4zLS41OC4yLTEuMDkuNDgtMS41My44NHMtLjc3LjgxLTEuMDMsMS4zNGMtLjI1LjUzLS4zOCwxLjEzLS4zOCwxLjh2LjQzYzAsLjY3LjEzLDEuMjYuMzgsMS43OC4yNS41Mi41OS45NywxLjAzLDEuMzQuNDMuMzcuOTQuNjUsMS41My44NS41OC4yLDEuMjEuMywxLjg4LjNoMS43Yy42NywwLDEuMjktLjEsMS44OC0uMy41OC0uMiwxLjA5LS40OCwxLjUyLS44NS40My0uMzcuNzctLjgxLDEuMDMtMS4zNC4yNS0uNTIuMzgtMS4xMi4zOC0xLjc4di0uNDNaIiBjbGFzcz0iY2xzLTYiLz4mI3hhOyAgICAgICAgPHBhdGggZD0ibTQ4NS44LDMwNC43OXYtNC40M2gzLjg2djQuNDNoLTMuODZabS4yNywzNC4yOXYtMjcuNjVoMy4zMnYyNy42NWgtMy4zMloiIGNsYXNzPSJjbHMtNiIvPiYjeGE7ICAgICAgICA8cGF0aCBkPSJtNTA2LjEsMzM5LjA4Yy0xLjAxLDAtMS45Ni0uMTktMi44NS0uNTdzLTEuNjYtLjktMi4zMi0xLjU3Yy0uNjYtLjY3LTEuMTgtMS40NC0xLjU3LTIuMzItLjM5LS44OC0uNTgtMS44My0uNTgtMi44M3YtMTcuMmgtNC45N3YtMy4xNmg0Ljk3di02LjY0bDMuMzItLjU0djcuMThoNy4wMnYzLjE2aC03LjAydjE3LjM2YzAsLjU2LjEsMS4wOC4zMSwxLjU1LjIxLjQ4LjQ5LjkuODUsMS4yNXMuNzguNjQsMS4yNy44NWMuNDkuMjEsMS4wMS4zMSwxLjU3LjMxaDMuMDJ2My4xNmgtMy4wMloiIGNsYXNzPSJjbHMtNiIvPiYjeGE7ICAgICAgICA8cGF0aCBkPSJtNTMxLjQ4LDMzOS4wOGwtMS44NC0yLjc1Yy0uNzYuOTktMS43LDEuNzktMi44NCwyLjM5LTEuMTMuNi0yLjM4LjktMy43My45aC0uODRjLTEuMTIsMC0yLjE3LS4yMS0zLjE2LS42My0uOTktLjQyLTEuODUtMS0yLjU5LTEuNzQtLjc0LS43NC0xLjMyLTEuNi0xLjc0LTIuNTktLjQyLS45OS0uNjMtMi4wNC0uNjMtMy4xNnYtLjI3YzAtMS4xMi4yMS0yLjE3LjYzLTMuMTYuNDItLjk5LDEtMS44NSwxLjc0LTIuNTlzMS42LTEuMzIsMi41OS0xLjc0Yy45OS0uNDIsMi4wNC0uNjMsMy4xNi0uNjNoNy4wMnYtNC4yN2MwLS42Ny0uMTMtMS4yOS0uMzgtMS44OC0uMjUtLjU4LS41OS0xLjA5LTEuMDMtMS41My0uNDMtLjQzLS45NC0uNzctMS41My0xLjAzcy0xLjIxLS4zOC0xLjg4LS4zOGgtMS45NGMtLjY3LDAtMS4yOS4xMy0xLjg4LjM4LS41OS4yNS0xLjA5LjU5LTEuNTMsMS4wMy0uNDMuNDMtLjc3Ljk0LTEuMDMsMS41M3MtLjM4LDEuMjEtLjM4LDEuODh2MWwtMy4zMi0uNTR2LS4yN2MwLTEuMTIuMjEtMi4xNy42My0zLjE2LjQyLS45OSwxLTEuODUsMS43NC0yLjU5Ljc0LS43NCwxLjYtMS4zMiwyLjU5LTEuNzRzMi4wNC0uNjMsMy4xNi0uNjNoMS45NGMxLjEyLDAsMi4xNy4yMSwzLjE2LjYzczEuODUsMSwyLjU5LDEuNzRjLjc0Ljc0LDEuMzIsMS42LDEuNzQsMi41OXMuNjMsMi4wNC42MywzLjE2djIwLjA2aC0xLjExWm0tMi4yMS0xMy4zOWgtNy4wMmMtLjY3LDAtMS4yOS4xMy0xLjg4LjM4cy0xLjA5LjYtMS41MiwxLjA0Yy0uNDMuNDQtLjc3Ljk1LTEuMDMsMS41NHMtLjM4LDEuMjEtLjM4LDEuODh2MS4xNmMwLC42Ny4xMywxLjI5LjM4LDEuODguMjUuNTkuNTksMS4wOSwxLjAzLDEuNTMuNDMuNDMuOTQuNzcsMS41MiwxLjAzczEuMjEuMzgsMS44OC4zOGgyLjIxYy42NywwLDEuMjktLjEzLDEuODgtLjM4czEuMDktLjU5LDEuNTMtMS4wMy43Ny0uOTQsMS4wMy0xLjUzYy4yNS0uNTguMzgtMS4yMS4zOC0xLjg4di01Ljk5WiIgY2xhc3M9ImNscy02Ii8+JiN4YTsgICAgICAgIDxwYXRoIGQ9Im01MzkuMjMsMzM5LjA4di0zOC43MWgzLjMydjM4LjcxaC0zLjMyWiIgY2xhc3M9ImNscy02Ii8+JiN4YTsgICAgICAgIDxwYXRoIGQ9Im01ODIuMzksMzMzLjgyYy0uNDksMS4xNS0xLjE3LDIuMTYtMi4wNCwzLjAycy0xLjg3LDEuNTQtMy4wMiwyLjA0Yy0xLjE1LjQ5LTIuMzguNzQtMy43Ljc0aC0yLjc1Yy0xLjMxLDAtMi41NS0uMjUtMy43MS0uNzQtMS4xNi0uNDktMi4xNy0xLjE4LTMuMDQtMi4wNC0uODYtLjg2LTEuNTQtMS44Ny0yLjA0LTMuMDItLjQ5LTEuMTUtLjc0LTIuMzktLjc0LTMuN3YtMjAuNzljMC0xLjMxLjI1LTIuNTUuNzQtMy43LjQ5LTEuMTUsMS4xOC0yLjE2LDIuMDQtMy4wMi44Ni0uODYsMS44OC0xLjU0LDMuMDQtMi4wNCwxLjE2LS40OSwyLjQtLjc0LDMuNzEtLjc0aDIuNzVjMS4zMSwwLDIuNTUuMjUsMy43Ljc0LDEuMTUuNSwyLjE2LDEuMTgsMy4wMiwyLjA0Ljg2Ljg2LDEuNTQsMS44NywyLjA0LDMuMDIuNDksMS4xNS43NCwyLjM5Ljc0LDMuN3YxLjU3bC0zLjQ4LjU0di0yLjFjMC0uODYtLjE2LTEuNjctLjQ4LTIuNDJzLS43Ny0xLjQtMS4zMi0xLjk2LTEuMjEtMS0xLjk2LTEuMzItMS41NS0uNDktMi40Mi0uNDloLTIuNDNjLS44NiwwLTEuNjcuMTYtMi40Mi40OXMtMS40Ljc2LTEuOTcsMS4zMmMtLjU3LjU2LTEuMDEsMS4yMS0xLjM0LDEuOTZzLS40OSwxLjU1LS40OSwyLjQydjIwLjc5YzAsLjg2LjE2LDEuNjcuNDksMi40MnMuNzcsMS40LDEuMzQsMS45N2MuNTcuNTcsMS4yMiwxLjAxLDEuOTcsMS4zNHMxLjU1LjQ5LDIuNDIuNDloMi40M2MuODYsMCwxLjY3LS4xNiwyLjQyLS40OXMxLjQtLjc3LDEuOTYtMS4zNCwxLTEuMjIsMS4zMi0xLjk3LjQ4LTEuNTUuNDgtMi40MnYtMi4xMWwzLjQ4LjU3djEuNTRjMCwxLjMxLS4yNSwyLjU1LS43NCwzLjdaIiBjbGFzcz0iY2xzLTYiLz4mI3hhOyAgICAgICAgPHBhdGggZD0ibTYwNi41LDMzNC42NWMtLjQyLjk5LTEsMS44NS0xLjc0LDIuNTktLjc0Ljc0LTEuNiwxLjMyLTIuNTksMS43NHMtMi4wNC42My0zLjE2LjYzaC0yLjIxYy0xLjEyLDAtMi4xNy0uMjEtMy4xNi0uNjMtLjk5LS40Mi0xLjg1LTEtMi41OS0xLjc0LS43NC0uNzQtMS4zMi0xLjYtMS43NC0yLjU5LS40Mi0uOTktLjYzLTIuMDQtLjYzLTMuMTZ2LTEyLjQ3YzAtMS4xMi4yMS0yLjE3LjYzLTMuMTZzMS0xLjg1LDEuNzQtMi41OWMuNzQtLjc0LDEuNi0xLjMyLDIuNTktMS43NC45OS0uNDIsMi4wNC0uNjMsMy4xNi0uNjNoMi4yMWMxLjEyLDAsMi4xNy4yMSwzLjE2LjYzczEuODUsMSwyLjU5LDEuNzRjLjc0Ljc0LDEuMzIsMS42LDEuNzQsMi41OXMuNjMsMi4wNC42MywzLjE2djEyLjQ3YzAsMS4xMi0uMjEsMi4xNy0uNjMsMy4xNlptLTIuNjktMTUuODJjMC0uNjctLjEzLTEuMjktLjM4LTEuODgtLjI1LS41OC0uNTktMS4wOS0xLjAzLTEuNTMtLjQzLS40My0uOTQtLjc3LTEuNTMtMS4wM3MtMS4yMS0uMzgtMS44OC0uMzhoLTIuMjFjLS42NywwLTEuMjkuMTMtMS44OC4zOHMtMS4wOS41OS0xLjUyLDEuMDMtLjc3Ljk0LTEuMDMsMS41My0uMzgsMS4yMS0uMzgsMS44OHYxMi44NWMwLC42Ny4xMywxLjI5LjM4LDEuODguMjUuNTkuNTksMS4wOSwxLjAzLDEuNTMuNDMuNDMuOTQuNzcsMS41MiwxLjAzczEuMjEuMzgsMS44OC4zOGgyLjIxYy42NywwLDEuMjktLjEzLDEuODgtLjM4czEuMDktLjU5LDEuNTMtMS4wMy43Ny0uOTQsMS4wMy0xLjUzYy4yNS0uNTguMzgtMS4yMS4zOC0xLjg4di0xMi44NVoiIGNsYXNzPSJjbHMtNiIvPiYjeGE7ICAgICAgICA8cGF0aCBkPSJtNjQxLjg1LDMzOS4wOHYtMjAuMjVjMC0uNjctLjEzLTEuMjktLjM4LTEuODgtLjI1LS41OC0uNTktMS4wOS0xLjAzLTEuNTMtLjQzLS40My0uOTQtLjc3LTEuNTMtMS4wM3MtMS4yMS0uMzgtMS44OC0uMzhoLTEuNjVjLS42NywwLTEuMjkuMTMtMS44OC4zOHMtMS4xLjU5LTEuNTQsMS4wM2MtLjQ0LjQzLS43OS45NC0xLjA0LDEuNTMtLjI1LjU4LS4zOCwxLjIxLS4zOCwxLjg4djIwLjI1aC0zLjI5di0yMC4yNWMwLS42Ny0uMTMtMS4yOS0uMzgtMS44OHMtLjYtMS4wOS0xLjA0LTEuNTNjLS40NC0uNDMtLjk1LS43Ny0xLjU0LTEuMDNzLTEuMjEtLjM4LTEuODgtLjM4aC0xLjY1Yy0uNjcsMC0xLjI5LjEzLTEuODguMzhzLTEuMDkuNTktMS41MiwxLjAzLS43Ny45NC0xLjAzLDEuNTMtLjM4LDEuMjEtLjM4LDEuODh2MjAuMjVoLTMuMzJ2LTI3LjY1aDEuMTFsMS44MSwyLjgxYy43Ni0xLjAzLDEuNzEtMS44NCwyLjg1LTIuNDQsMS4xNC0uNiwyLjM5LS45LDMuNzQtLjloLjI3YzEuNTcsMCwyLjk4LjM5LDQuMjQsMS4xNiwxLjI2Ljc3LDIuMjMsMS44LDIuOTIsMy4wOC4zNC0uNjMuNzYtMS4yMSwxLjI3LTEuNzMuNS0uNTIsMS4wNi0uOTcsMS42Ny0xLjM0LjYxLS4zNywxLjI4LS42NiwyLS44Ni43Mi0uMjEsMS40Ny0uMzEsMi4yNC0uMzFoLjI3YzEuMTIsMCwyLjE3LjIxLDMuMTYuNjNzMS44NSwxLDIuNTksMS43NGMuNzQuNzQsMS4zMiwxLjYsMS43NCwyLjU5cy42MywyLjA0LjYzLDMuMTZ2MjAuMDZoLTMuMzJaIiBjbGFzcz0iY2xzLTYiLz4mI3hhOyAgICAgICAgPHBhdGggZD0ibTY3OS44OSwzMzkuMDh2LTIwLjI1YzAtLjY3LS4xMy0xLjI5LS4zOC0xLjg4LS4yNS0uNTgtLjU5LTEuMDktMS4wMy0xLjUzLS40My0uNDMtLjk0LS43Ny0xLjUzLTEuMDNzLTEuMjEtLjM4LTEuODgtLjM4aC0xLjY1Yy0uNjcsMC0xLjI5LjEzLTEuODguMzhzLTEuMS41OS0xLjU0LDEuMDNjLS40NC40My0uNzkuOTQtMS4wNCwxLjUzLS4yNS41OC0uMzgsMS4yMS0uMzgsMS44OHYyMC4yNWgtMy4yOXYtMjAuMjVjMC0uNjctLjEzLTEuMjktLjM4LTEuODhzLS42LTEuMDktMS4wNC0xLjUzYy0uNDQtLjQzLS45NS0uNzctMS41NC0xLjAzcy0xLjIxLS4zOC0xLjg4LS4zOGgtMS42NWMtLjY3LDAtMS4yOS4xMy0xLjg4LjM4cy0xLjA5LjU5LTEuNTIsMS4wMy0uNzcuOTQtMS4wMywxLjUzLS4zOCwxLjIxLS4zOCwxLjg4djIwLjI1aC0zLjMydi0yNy42NWgxLjExbDEuODEsMi44MWMuNzYtMS4wMywxLjcxLTEuODQsMi44NS0yLjQ0LDEuMTQtLjYsMi4zOS0uOSwzLjc0LS45aC4yN2MxLjU3LDAsMi45OC4zOSw0LjI0LDEuMTYsMS4yNi43NywyLjIzLDEuOCwyLjkyLDMuMDguMzQtLjYzLjc2LTEuMjEsMS4yNy0xLjczLjUtLjUyLDEuMDYtLjk3LDEuNjctMS4zNC42MS0uMzcsMS4yOC0uNjYsMi0uODYuNzItLjIxLDEuNDctLjMxLDIuMjQtLjMxaC4yN2MxLjEyLDAsMi4xNy4yMSwzLjE2LjYzczEuODUsMSwyLjU5LDEuNzRjLjc0Ljc0LDEuMzIsMS42LDEuNzQsMi41OXMuNjMsMi4wNC42MywzLjE2djIwLjA2aC0zLjMyWiIgY2xhc3M9ImNscy02Ii8+JiN4YTsgICAgICAgIDxwYXRoIGQ9Im03MDYuNTgsMzM0LjY1Yy0uNDIuOTktMSwxLjg1LTEuNzQsMi41OS0uNzQuNzQtMS42LDEuMzItMi41OSwxLjc0LS45OS40Mi0yLjA0LjYzLTMuMTYuNjNoLTIuMjFjLTEuMTIsMC0yLjE3LS4yMS0zLjE2LS42My0uOTktLjQyLTEuODUtMS0yLjU5LTEuNzQtLjc0LS43NC0xLjMyLTEuNi0xLjc0LTIuNTlzLS42My0yLjA0LS42My0zLjE2di0xMi40N2MwLTEuMTIuMjEtMi4xNy42My0zLjE2czEtMS44NSwxLjc0LTIuNTljLjc0LS43NCwxLjYtMS4zMiwyLjU5LTEuNzQuOTktLjQyLDIuMDQtLjYzLDMuMTYtLjYzaDIuMjFjMS4xMiwwLDIuMTcuMjEsMy4xNi42M3MxLjg1LDEsMi41OSwxLjc0Yy43NC43NCwxLjMyLDEuNiwxLjc0LDIuNTlzLjYzLDIuMDQuNjMsMy4xNnY2LjUxaC0xNS4xNXY2LjE2YzAsLjY3LjEzLDEuMjkuMzgsMS44OC4yNS41OS41OSwxLjA5LDEuMDMsMS41My40My40My45NC43NywxLjUyLDEuMDNzMS4yMS4zOCwxLjg4LjM4aDIuMjFjLjY3LDAsMS4yOS0uMTMsMS44OC0uMzhzMS4wOS0uNTksMS41My0xLjAzLjc3LS45NCwxLjAzLTEuNTNjLjI1LS41OC4zOC0xLjIxLjM4LTEuODh2LTEuODRsMy4zMi41NHYxLjExYzAsMS4xMi0uMjEsMi4xNy0uNjMsMy4xNlptLTIuNjktMTUuODJjMC0uNjctLjEzLTEuMjktLjM4LTEuODgtLjI1LS41OC0uNTktMS4wOS0xLjAzLTEuNTMtLjQzLS40My0uOTQtLjc3LTEuNTMtMS4wM3MtMS4yMS0uMzgtMS44OC0uMzhoLTIuMjFjLS42NywwLTEuMjkuMTMtMS44OC4zOHMtMS4wOS41OS0xLjUyLDEuMDMtLjc3Ljk0LTEuMDMsMS41My0uMzgsMS4yMS0uMzgsMS44OHY0LjFoMTEuODN2LTQuMVoiIGNsYXNzPSJjbHMtNiIvPiYjeGE7ICAgICAgICA8cGF0aCBkPSJtNzIwLjg4LDMxNC41OWMtLjY3LDAtMS4yOS4xMy0xLjg4LjM4cy0xLjA5LjU5LTEuNTIsMS4wMy0uNzcuOTQtMS4wMywxLjUzLS4zOCwxLjIxLS4zOCwxLjg4djE5LjY4aC0zLjMydi0yNy42NWgxLjExbDEuODEsMi44MWMuNzYtMS4wMywxLjcxLTEuODQsMi44NS0yLjQ0LDEuMTQtLjYsMi4zOS0uOSwzLjc0LS45aDEuOTR2My43aC0zLjMyWiIgY2xhc3M9ImNscy02Ii8+JiN4YTsgICAgICAgIDxwYXRoIGQ9Im03NDUuMzUsMzM0LjY1Yy0uNDIuOTktMSwxLjg1LTEuNzQsMi41OS0uNzQuNzQtMS42LDEuMzItMi41OSwxLjc0LS45OS40Mi0yLjA0LjYzLTMuMTYuNjNoLTIuMjFjLTEuMTIsMC0yLjE3LS4yMS0zLjE2LS42My0uOTktLjQyLTEuODUtMS0yLjU5LTEuNzQtLjc0LS43NC0xLjMyLTEuNi0xLjc0LTIuNTlzLS42My0yLjA0LS42My0zLjE2di0xMi40N2MwLTEuMTIuMjEtMi4xNy42My0zLjE2LjQyLS45OSwxLTEuODUsMS43NC0yLjU5Ljc0LS43NCwxLjYtMS4zMiwyLjU5LTEuNzQuOTktLjQyLDIuMDQtLjYzLDMuMTYtLjYzaDIuMjFjMS4xMiwwLDIuMTcuMjEsMy4xNi42My45OS40MiwxLjg1LDEsMi41OSwxLjc0Ljc0Ljc0LDEuMzIsMS42LDEuNzQsMi41OXMuNjMsMi4wNC42MywzLjE2djEuMTFsLTMuMzIuNTR2LTEuODRjMC0uNjctLjEzLTEuMjktLjM4LTEuODgtLjI1LS41OC0uNTktMS4wOS0xLjAzLTEuNTMtLjQzLS40My0uOTQtLjc3LTEuNTMtMS4wM3MtMS4yMS0uMzgtMS44OC0uMzhoLTIuMjFjLS42NywwLTEuMjkuMTMtMS44OC4zOHMtMS4wOS41OS0xLjUyLDEuMDMtLjc3Ljk0LTEuMDMsMS41My0uMzgsMS4yMS0uMzgsMS44OHYxMi44NWMwLC42Ny4xMywxLjI5LjM4LDEuODguMjUuNTkuNTksMS4wOSwxLjAzLDEuNTMuNDMuNDMuOTQuNzcsMS41MiwxLjAzczEuMjEuMzgsMS44OC4zOGgyLjIxYy42NywwLDEuMjktLjEzLDEuODgtLjM4czEuMDktLjU5LDEuNTMtMS4wMy43Ny0uOTQsMS4wMy0xLjUzYy4yNS0uNTguMzgtMS4yMS4zOC0xLjg4di0xLjg0bDMuMzIuNTR2MS4xMWMwLDEuMTItLjIxLDIuMTctLjYzLDMuMTZaIiBjbGFzcz0iY2xzLTYiLz4mI3hhOyAgICAgICAgPHBhdGggZD0ibTc2OS4zNSwzMzQuNjVjLS40Mi45OS0xLDEuODUtMS43NCwyLjU5LS43NC43NC0xLjYsMS4zMi0yLjU5LDEuNzQtLjk5LjQyLTIuMDQuNjMtMy4xNi42M2gtMi4yMWMtMS4xMiwwLTIuMTctLjIxLTMuMTYtLjYzLS45OS0uNDItMS44NS0xLTIuNTktMS43NC0uNzQtLjc0LTEuMzItMS42LTEuNzQtMi41OXMtLjYzLTIuMDQtLjYzLTMuMTZ2LTEyLjQ3YzAtMS4xMi4yMS0yLjE3LjYzLTMuMTZzMS0xLjg1LDEuNzQtMi41OWMuNzQtLjc0LDEuNi0xLjMyLDIuNTktMS43NC45OS0uNDIsMi4wNC0uNjMsMy4xNi0uNjNoMi4yMWMxLjEyLDAsMi4xNy4yMSwzLjE2LjYzczEuODUsMSwyLjU5LDEuNzRjLjc0Ljc0LDEuMzIsMS42LDEuNzQsMi41OXMuNjMsMi4wNC42MywzLjE2djYuNTFoLTE1LjE1djYuMTZjMCwuNjcuMTMsMS4yOS4zOCwxLjg4LjI1LjU5LjU5LDEuMDksMS4wMywxLjUzLjQzLjQzLjk0Ljc3LDEuNTIsMS4wM3MxLjIxLjM4LDEuODguMzhoMi4yMWMuNjcsMCwxLjI5LS4xMywxLjg4LS4zOHMxLjA5LS41OSwxLjUzLTEuMDMuNzctLjk0LDEuMDMtMS41M2MuMjUtLjU4LjM4LTEuMjEuMzgtMS44OHYtMS44NGwzLjMyLjU0djEuMTFjMCwxLjEyLS4yMSwyLjE3LS42MywzLjE2Wm0tMi42OS0xNS44MmMwLS42Ny0uMTMtMS4yOS0uMzgtMS44OC0uMjUtLjU4LS41OS0xLjA5LTEuMDMtMS41My0uNDMtLjQzLS45NC0uNzctMS41My0xLjAzcy0xLjIxLS4zOC0xLjg4LS4zOGgtMi4yMWMtLjY3LDAtMS4yOS4xMy0xLjg4LjM4cy0xLjA5LjU5LTEuNTIsMS4wMy0uNzcuOTQtMS4wMywxLjUzLS4zOCwxLjIxLS4zOCwxLjg4djQuMWgxMS44M3YtNC4xWiIgY2xhc3M9ImNscy02Ii8+JiN4YTsgICAgICA8L2c+JiN4YTsgICAgICA8cGF0aCBkPSJtMTM0LjIsOTUuNjljMjYuNTIsMCw0Ny44NCw4LjA2LDYzLjk3LDI0LjE5LDE2LjEzLDE2LjEzLDI0LjIsMzcuNDUsMjQuMiw2My45N3MtOC4xLDQ3LjctMjQuMjgsNjMuODljLTE2LjE5LDE2LjE5LTM3LjQ5LDI0LjI4LTYzLjg4LDI0LjI4cy00Ny41Ni04LjEyLTYzLjgtMjQuMzdjLTE2LjI0LTE2LjI0LTI0LjM2LTM3LjUxLTI0LjM2LTYzLjhzOC4wOS00Ny43LDI0LjI4LTYzLjg4YzE2LjE5LTE2LjE5LDM3LjQ5LTI0LjI4LDYzLjg5LTI0LjI4Wm0wLDM1LjNjLTIwLjI3LDAtMzUuMzksOC00NS4zNywyNC4wMi01LDguMDQtNy40OSwxNy42NS03LjQ5LDI4Ljg0LDAsMTAuMjIsMi4yNCwxOS4zOCw2LjcyLDI3LjQ3LDQuNyw4LjUsMTEuNDgsMTQuOTUsMjAuMzIsMTkuMzgsOC4wNCw0LjAxLDE2LjY0LDYuMDIsMjUuODMsNi4wMiwyMC4yNiwwLDM1LjM5LTguMDMsNDUuMzctMjQuMSw1LTcuOTgsNy40OS0xNy41Niw3LjQ5LTI4Ljc2LDAtMTYuNzYtNS4zOS0yOS45LTE2LjE5LTM5LjQzLTEwLjExLTguOTUtMjIuMzMtMTMuNDMtMzYuNjgtMTMuNDNaIiBjbGFzcz0iY2xzLTIiLz4mI3hhOyAgICAgIDxwYXRoIGQ9Im03NDguNDgsMjIxLjkxbDI1Ljc0LDI1Ljc0Yy0xMC4zMywxMC41Ni0yMy4zNiwxNy43NC0zOS4wOSwyMS41My03LjY5LDEuODktMTUuOTMsMi44NC0yNC43MSwyLjg0LTI2LjI5LDAtNDcuNTUtOC4xMi02My44LTI0LjM3LTE2LjI0LTE2LjI0LTI0LjM2LTM3LjUxLTI0LjM2LTYzLjhzOC4wOS00Ny43LDI0LjI4LTYzLjg4YzE2LjE4LTE2LjE5LDM3LjQ4LTI0LjI4LDYzLjg4LTI0LjI4czQ3Ljg1LDguMDYsNjMuOTgsMjQuMTlsLTI1LjkyLDI1LjkyYy0xMC4xLTkuODgtMjIuNzktMTQuODEtMzguMDYtMTQuODEtMjAuMjYsMC0zNS4zOCw4LTQ1LjM3LDI0LjAyLTQuOTksOC4wNC03LjQ5LDE3LjY1LTcuNDksMjguODQsMCwxMC4yMiwyLjI1LDE5LjM4LDYuNzIsMjcuNDcsNC43MSw4LjUsMTEuNDgsMTQuOTUsMjAuMzIsMTkuMzgsOC4wNCw0LjAxLDE2LjY1LDYuMDIsMjUuODMsNi4wMiwxNS4yNywwLDI3Ljk2LTQuOTMsMzguMDYtMTQuODFaIiBjbGFzcz0iY2xzLTgiLz4mI3hhOyAgICAgIDxnPiYjeGE7ICAgICAgICA8cGF0aCBkPSJtNDk5Ljg1LDEyNy4yMmMyLjY1LDAsNC44LTIuMTUsNC44LTQuOHMtMi4xNS00Ljc5LTQuOC00Ljc5LTQuOCwyLjE1LTQuOCw0Ljc5LDIuMTUsNC44LDQuOCw0LjhaIiBjbGFzcz0iY2xzLTEwIi8+JiN4YTsgICAgICAgIDxwYXRoIGQ9Im00MzguMzMsMTgwLjc4YzAsLjU3LDEuMDEuNTgsMS4wMiwwLDAtLjI5LS4yMi0uNTEtLjUxLS41MXMtLjUxLjIyLS41MS41MVoiIGNsYXNzPSJjbHMtMTYiLz4mI3hhOyAgICAgIDwvZz4mI3hhOyAgICAgIDxwYXRoIGQ9Im01ODAuNzksMTE5Ljg4Yy0xMC40My0xMC40Mi0yMy4wMy0xNy40NS0zNy43OC0yMS4xNGwtOS4wMyw5LjA0YzEuOTMsNC41LDMuMDEsOS40NSwzLjAxLDE0LjY1LDAsMy45OC0uNjMsNy44Mi0xLjgsMTEuNDIsNi43MiwyLjIyLDEyLjgzLDUuNzIsMTguMzEsMTAuNTcsMTAuNzksOS41MywxNi4xOCwyMi42NywxNi4xOCwzOS40MywwLDExLjItMi40OSwyMC43OC03LjQ5LDI4Ljc2LTkuOTgsMTYuMDctMjUuMSwyNC4xLTQ1LjM3LDI0LjFoLTUyLjg3di00NS45M2MtMy45OSw5Ljk3LTEzLjczLDE3LjAzLTI1LjEsMTcuMDMtMy42MSwwLTcuMDUtLjcyLTEwLjItMnY2Ni4yMWg4OC4xN2MyNi40LDAsNDcuNy04LjA5LDYzLjg4LTI0LjI4LDE2LjItMTYuMTksMjQuMjgtMzcuNDgsMjQuMjgtNjMuODlzLTguMDYtNDcuODQtMjQuMTgtNjMuOTdaIiBjbGFzcz0iY2xzLTUiLz4mI3hhOyAgICAgIDxnPiYjeGE7ICAgICAgICA8cGF0aCBkPSJtNTI1LjYsMTMyLjY3bC0yMy40Ny0xMC4wMWMtMS4yOS0uNTUtMi42MS43Ni0yLjA1LDIuMDVsMTAuMDEsMjMuNDdjLjI1LjU5Ljg0Ljk4LDEuNTEuOTUuNjUtLjAzLDEuMjItLjQ1LDEuNDItMS4wN2wzLjA5LTkuMzcsOS4zNy0zLjA5Yy42Mi0uMiwxLjA1LS43NywxLjA3LTEuNDIuMDMtLjY1LS4zNS0xLjI1LS45NS0xLjUxWm0tMTEuMjIsMy4yOWMtLjQ3LjE2LS44NC41Mi0xLDFsLTIuMDQsNi4xOC02Ljg2LTE2LjA4LDE2LjA4LDYuODYtNi4xOCwyLjA0WiIgY2xhc3M9ImNscy03Ii8+JiN4YTsgICAgICAgIDxwYXRoIGQ9Im00OTkuODUsMTA1LjE0Yy05LjUzLDAtMTcuMjksNy43Ni0xNy4yOSwxNy4yOXM3Ljc2LDE3LjI5LDE3LjI5LDE3LjI5YzEuMjUsMCwyLjI3LTEuMDIsMi4yNy0yLjI3cy0xLjAyLTIuMjctMi4yNy0yLjI3Yy03LjAzLDAtMTIuNzUtNS43Mi0xMi43NS0xMi43NXM1LjcyLTEyLjc1LDEyLjc1LTEyLjc1LDEyLjc1LDUuNzIsMTIuNzUsMTIuNzVjMCwxLjI1LDEuMDIsMi4yNywyLjI3LDIuMjdzMi4yNy0xLjAyLDIuMjctMi4yN2MwLTkuNTMtNy43Ni0xNy4yOS0xNy4yOS0xNy4yOVoiIGNsYXNzPSJjbHMtMTQiLz4mI3hhOyAgICAgICAgPHBhdGggZD0ibTUxOS4yMSwxMDMuMDdjLTUuMTktNS4xOS0xMi4wNy04LjA1LTE5LjM2LTguMDVoMGMtNy4yOSwwLTE0LjE3LDIuODYtMTkuMzYsOC4wNS0xMC42NywxMC42Ny0xMC42NywyOC4wNCwwLDM4LjcyLDUuMTksNS4xOSwxMi4wNyw4LjA1LDE5LjM2LDguMDUsMS4yNSwwLDIuMjctMS4wMiwyLjI3LTIuMjdzLTEuMDItMi4yNy0yLjI3LTIuMjdjLTEyLjYxLDAtMjIuODctMTAuMjYtMjIuODctMjIuODdzMTAuMjYtMjIuODcsMjIuODctMjIuODcsMjIuODcsMTAuMjYsMjIuODcsMjIuODdjMCwxLjI1LDEuMDIsMi4yNywyLjI3LDIuMjdzMi4yNy0xLjAyLDIuMjctMi4yN2MwLTcuMjktMi44Ni0xNC4xNy04LjA1LTE5LjM2WiIgY2xhc3M9ImNscy0xMSIvPiYjeGE7ICAgICAgPC9nPiYjeGE7ICAgIDwvZz4mI3hhOyAgICA8Zz4mI3hhOyAgICAgIDxwb2x5Z29uIHBvaW50cz0iMjMzLjA1IDI3Mi4wMiAyNjguMzUgMjcyLjAyIDI2OC4zNSAxNTkuMDkgMzM4Ljg2IDIxNS40OSAzMzguODYgMTgwLjMzIDIzMy4wNSA5NS42OSAyMzMuMDUgMjcyLjAyIiBjbGFzcz0iY2xzLTMiLz4mI3hhOyAgICAgIDxwYXRoIGQ9Im00NjIuNzEsMTIyLjQzYzAtNS4yLDEuMDctMTAuMTUsMy4wMS0xNC42NWwtNi4xNi02LjE3Yy02LjU1LjY2LTEyLjY3LTEuNzMtMTcuMDgtNS45MmgtNzguNDR2MTQ4LjA4bDM1LjMsMjguMjR2LTE0MS4wMmg2NC4zOGMtLjY1LTIuNzUtMS01LjYyLTEtOC41NloiIGNsYXNzPSJjbHMtOSIvPiYjeGE7ICAgIDwvZz4mI3hhOyAgICA8Zz4mI3hhOyAgICAgIDxwYXRoIGQ9Im01NDIuMjksMTU0LjI1Yy0xLjk2LDAtMy43OC41Ny01LjM2LDEuNWwtOS4wMi05LjAyYy0xLjE2LDEuMzQtMi40MSwyLjU5LTMuNzUsMy43NWw5LjAyLDkuMDJjLS45NCwxLjU4LTEuNTEsMy40LTEuNTEsNS4zNiwwLDUuODUsNC43NiwxMC42MSwxMC42MSwxMC42MXMxMC42MS00Ljc2LDEwLjYxLTEwLjYxLTQuNzYtMTAuNjEtMTAuNjEtMTAuNjFabTAsMTUuOTFjLTIuOTMsMC01LjMtMi4zOC01LjMtNS4zczIuMzgtNS4zLDUuMy01LjMsNS4zLDIuMzgsNS4zLDUuMy0yLjM4LDUuMy01LjMsNS4zWiIgY2xhc3M9ImNscy0xMyIvPiYjeGE7ICAgICAgPHBhdGggZD0ibTU1Mi45LDU2LjExYy04Ljc4LDAtMTUuOTEsNy4xNC0xNS45MSwxNS45MSwwLDIuNzUuNyw1LjMzLDEuOTMsNy41OWwtMTQuNzUsMTQuNzVjMS4zNCwxLjE2LDIuNTksMi40MSwzLjc1LDMuNzVsMTQuMzItMTQuMzJjMi44MiwyLjU2LDYuNTYsNC4xNCwxMC42Nyw0LjE0LDguNzgsMCwxNS45MS03LjE0LDE1LjkxLTE1Ljkxcy03LjE0LTE1LjkxLTE1LjkxLTE1LjkxWm0wLDI2LjUyYy01Ljg1LDAtMTAuNjEtNC43Ni0xMC42MS0xMC42MXM0Ljc2LTEwLjYxLDEwLjYxLTEwLjYxLDEwLjYxLDQuNzYsMTAuNjEsMTAuNjEtNC43NiwxMC42MS0xMC42MSwxMC42MVoiIGNsYXNzPSJjbHMtMTIiLz4mI3hhOyAgICAgIDxwYXRoIGQ9Im00NTcuNDEsOTAuNmMxLjk2LDAsMy43OC0uNTcsNS4zNi0xLjVsOS4wMiw5LjAyYzEuMTYtMS4zNCwyLjQxLTIuNTksMy43NS0zLjc1bC05LjAyLTkuMDJjLjkzLTEuNTgsMS41LTMuMzksMS41LTUuMzYsMC01Ljg1LTQuNzYtMTAuNjEtMTAuNjEtMTAuNjFzLTEwLjYxLDQuNzYtMTAuNjEsMTAuNjEsNC43NiwxMC42MSwxMC42MSwxMC42MVptMC0xNS45MWMyLjkzLDAsNS4zLDIuMzgsNS4zLDUuM3MtMi4zOCw1LjMtNS4zLDUuMy01LjMtMi4zOC01LjMtNS4zLDIuMzgtNS4zLDUuMy01LjNaIiBjbGFzcz0iY2xzLTE1Ii8+JiN4YTsgICAgICA8cGF0aCBkPSJtNDc1LjU0LDE1MC40OGMtMS4zNC0xLjE2LTIuNTktMi40MS0zLjc1LTMuNzVsLTIyLjI3LDIyLjI3Yy0yLjgzLTIuNTYtNi41Ni00LjE0LTEwLjY3LTQuMTQtOC43OCwwLTE1LjkxLDcuMTQtMTUuOTEsMTUuOTFzNy4xNCwxNS45MSwxNS45MSwxNS45MSwxNS45MS03LjE0LDE1LjkxLTE1LjkxYzAtMi43NS0uNy01LjMzLTEuOTMtNy41OWwyMi43MS0yMi43MVptLTM2LjcsNDAuOWMtNS44NSwwLTEwLjYxLTQuNzYtMTAuNjEtMTAuNjFzNC43Ni0xMC42MSwxMC42MS0xMC42MSwxMC42MSw0Ljc2LDEwLjYxLDEwLjYxLTQuNzYsMTAuNjEtMTAuNjEsMTAuNjFaIiBjbGFzcz0iY2xzLTQiLz4mI3hhOyAgICAgIDxwYXRoIGQ9Im01MDIuNSwxNzAuNDF2LTEwLjk1Yy0uODguMDYtMS43Ni4xLTIuNjYuMXMtMS43Ny0uMDQtMi42NS0uMXYxMC45NWMtNy41MSwxLjI3LTEzLjI2LDcuOC0xMy4yNiwxNS42OCwwLDguNzgsNy4xNCwxNS45MSwxNS45MSwxNS45MXMxNS45MS03LjE0LDE1LjkxLTE1LjkxYzAtNy44Ny01Ljc1LTE0LjQxLTEzLjI2LTE1LjY4Wm0tMi42NiwyNi4yOWMtNS44NSwwLTEwLjYxLTQuNzYtMTAuNjEtMTAuNjFzNC43Ni0xMC42MSwxMC42MS0xMC42MSwxMC42MSw0Ljc2LDEwLjYxLDEwLjYxLTQuNzYsMTAuNjEtMTAuNjEsMTAuNjFaIiBjbGFzcz0iY2xzLTEiLz4mI3hhOyAgICA8L2c+JiN4YTsgIDwvZz4mI3hhOyAgPGc+JiN4YTsgICAgPHRleHQgdHJhbnNmb3JtPSJ0cmFuc2xhdGUoNzcwLjg0IDg5LjY3KSBzY2FsZSguOTcgMSkiIGNsYXNzPSJjbHMtMTciPjx0c3BhbiB5PSIwIiB4PSIwIj5SPC90c3Bhbj48L3RleHQ+JiN4YTsgICAgPGNpcmNsZSByPSIxMy4zNSIgY3k9IjgxLjY2IiBjeD0iNzc2LjQ5IiBjbGFzcz0iY2xzLTE4Ii8+JiN4YTsgIDwvZz4mI3hhOzwvc3ZnPg==;imageBorder=default;" vertex="1" parent="1">
          <mxGeometry x="40" y="510" width="147.72" height="70" as="geometry" />
        </mxCell>
        <mxCell id="5OZiCk8Ew-PO9oTUfX-M-59" style="edgeStyle=none;rounded=0;orthogonalLoop=1;jettySize=auto;html=1;" edge="1" parent="1" source="5OZiCk8Ew-PO9oTUfX-M-62" target="5OZiCk8Ew-PO9oTUfX-M-65">
          <mxGeometry relative="1" as="geometry" />
        </mxCell>
        <mxCell id="5OZiCk8Ew-PO9oTUfX-M-60" value="edit task" style="edgeLabel;html=1;align=center;verticalAlign=middle;resizable=0;points=[];" vertex="1" connectable="0" parent="5OZiCk8Ew-PO9oTUfX-M-59">
          <mxGeometry relative="1" as="geometry">
            <mxPoint x="5" y="-10" as="offset" />
          </mxGeometry>
        </mxCell>
        <mxCell id="5OZiCk8Ew-PO9oTUfX-M-61" value="/on_update" style="edgeStyle=none;rounded=0;orthogonalLoop=1;jettySize=auto;html=1;exitX=0;exitY=0.75;exitDx=0;exitDy=0;entryX=1;entryY=0.75;entryDx=0;entryDy=0;dashed=1;dashPattern=8 8;" edge="1" parent="1" source="5OZiCk8Ew-PO9oTUfX-M-62" target="5OZiCk8Ew-PO9oTUfX-M-58">
          <mxGeometry x="0.0608" y="9" relative="1" as="geometry">
            <mxPoint as="offset" />
          </mxGeometry>
        </mxCell>
        <mxCell id="5OZiCk8Ew-PO9oTUfX-M-62" value="ondc&lt;br&gt;service" style="rounded=1;whiteSpace=wrap;html=1;" vertex="1" parent="1">
          <mxGeometry x="320" y="515" width="110" height="60" as="geometry" />
        </mxCell>
        <mxCell id="5OZiCk8Ew-PO9oTUfX-M-63" style="edgeStyle=none;rounded=0;orthogonalLoop=1;jettySize=auto;html=1;exitX=1;exitY=0.5;exitDx=0;exitDy=0;entryX=0;entryY=0.5;entryDx=0;entryDy=0;" edge="1" parent="1" source="5OZiCk8Ew-PO9oTUfX-M-65" target="5OZiCk8Ew-PO9oTUfX-M-66">
          <mxGeometry relative="1" as="geometry" />
        </mxCell>
        <mxCell id="5OZiCk8Ew-PO9oTUfX-M-64" value="update task" style="edgeLabel;html=1;align=center;verticalAlign=middle;resizable=0;points=[];" vertex="1" connectable="0" parent="5OZiCk8Ew-PO9oTUfX-M-63">
          <mxGeometry x="-0.3455" y="3" relative="1" as="geometry">
            <mxPoint x="7" as="offset" />
          </mxGeometry>
        </mxCell>
        <mxCell id="5OZiCk8Ew-PO9oTUfX-M-65" value="developer-api&lt;br&gt;service" style="rounded=1;whiteSpace=wrap;html=1;" vertex="1" parent="1">
          <mxGeometry x="540" y="510" width="110" height="70" as="geometry" />
        </mxCell>
        <mxCell id="5OZiCk8Ew-PO9oTUfX-M-66" value="user task&lt;br&gt;service" style="whiteSpace=wrap;html=1;rounded=1;" vertex="1" parent="1">
          <mxGeometry x="750" y="515" width="120" height="60" as="geometry" />
        </mxCell>
        <mxCell id="5OZiCk8Ew-PO9oTUfX-M-67" value="&lt;b&gt;Checkout/Cart Flow&lt;/b&gt;" style="text;html=1;strokeColor=none;fillColor=none;align=left;verticalAlign=middle;whiteSpace=wrap;rounded=0;" vertex="1" parent="1">
          <mxGeometry x="40" y="80" width="120" height="30" as="geometry" />
        </mxCell>
        <mxCell id="5OZiCk8Ew-PO9oTUfX-M-68" value="&lt;b&gt;Confirm Flow&lt;/b&gt;" style="text;html=1;strokeColor=none;fillColor=none;align=left;verticalAlign=middle;whiteSpace=wrap;rounded=0;" vertex="1" parent="1">
          <mxGeometry x="40" y="235" width="120" height="30" as="geometry" />
        </mxCell>
        <mxCell id="5OZiCk8Ew-PO9oTUfX-M-69" value="&lt;b&gt;Cancel Flow&lt;/b&gt;" style="text;html=1;strokeColor=none;fillColor=none;align=left;verticalAlign=middle;whiteSpace=wrap;rounded=0;" vertex="1" parent="1">
          <mxGeometry x="40" y="355" width="120" height="30" as="geometry" />
        </mxCell>
        <mxCell id="5OZiCk8Ew-PO9oTUfX-M-70" value="&lt;b&gt;Update Flow&lt;/b&gt;" style="text;html=1;strokeColor=none;fillColor=none;align=left;verticalAlign=middle;whiteSpace=wrap;rounded=0;" vertex="1" parent="1">
          <mxGeometry x="40" y="480" width="120" height="30" as="geometry" />
        </mxCell>
        <mxCell id="5OZiCk8Ew-PO9oTUfX-M-71" value="&lt;b&gt;Order Tracking Flow&lt;/b&gt;" style="text;html=1;strokeColor=none;fillColor=none;align=left;verticalAlign=middle;whiteSpace=wrap;rounded=0;" vertex="1" parent="1">
          <mxGeometry x="40" y="610" width="120" height="30" as="geometry" />
        </mxCell>
      </root>
    </mxGraphModel>
  </diagram>
</mxfile>
